<svg width="41" height="40" viewBox="0 0 41 40" fill="none" xmlns="http://www.w3.org/2000/svg">
<g clip-path="url(#clip0_156_2019)">
<path fill-rule="evenodd" clip-rule="evenodd" d="M0.5 3.34157C0.5 1.49607 1.99504 0 3.84157 0H37.1584C39.0039 0 40.5 1.49504 40.5 3.34157V36.6584C40.5 38.5039 39.005 40 37.1584 40H3.84157C1.99607 40 0.5 38.505 0.5 36.6584V3.34157ZM16.3333 15.25H21.75V17.9717C22.5309 16.4067 24.5317 15 27.5376 15C33.2991 15 34.6667 18.115 34.6667 23.8309V34.4167H28.8333V25.1326C28.8333 21.8776 28.0526 20.0417 26.0667 20.0417C23.3126 20.0417 22.1667 22.0209 22.1667 25.1326V34.4167H16.3333V15.25ZM6.33333 34.1667H12.1667V15H6.33333V34.1667ZM13 8.75C13 10.8208 11.3208 12.5 9.25 12.5C7.17917 12.5 5.5 10.8208 5.5 8.75C5.5 6.67917 7.17917 5 9.25 5C11.3208 5 13 6.67917 13 8.75Z" fill="#333333"/>
</g>
<defs>
<clipPath id="clip0_156_2019">
<rect width="40" height="40" fill="white" transform="translate(0.5)"/>
</clipPath>
</defs>
</svg>
