<svg width="24" height="24" viewBox="0 0 24 24" fill="none" xmlns="http://www.w3.org/2000/svg">
<g id="1.TH.SINIDIOMA">
<g id="Vector">
<path d="M1 6C1 4.89543 1.89543 4 3 4H21C22.1046 4 23 4.89543 23 6V18C23 19.1046 22.1046 20 21 20H3C1.89543 20 1 19.1046 1 18V6Z" fill="#D9D9D9"/>
<path fill-rule="evenodd" clip-rule="evenodd" d="M12 6C13.6568 6 15.1568 6.67136 16.2427 7.75733C17.3286 8.84327 18 10.3433 18 12C18 13.6567 17.3286 15.1568 16.2427 16.2427C15.1567 17.3286 13.6567 18 12 18C10.3433 18 8.8432 17.3286 7.75733 16.2427C6.6714 15.1567 6 13.6567 6 12C6 10.3433 6.67136 8.8432 7.75733 7.75733C8.84327 6.6714 10.3433 6 12 6ZM9.68693 14.788C9.75464 14.9588 9.8286 15.125 9.90829 15.2854C10.3567 16.1885 10.9838 16.9135 11.7203 17.3651V14.5427C11.0094 14.5604 10.3265 14.6453 9.68693 14.788ZM9.17548 12.2792C9.19944 12.9776 9.31297 13.6443 9.501 14.2579C10.1989 14.0975 10.9447 14.0021 11.7203 13.9834V12.2787L9.17548 12.2792ZM9.50152 9.74173C9.31349 10.3558 9.19996 11.0219 9.17548 11.7204H11.7203V10.0157C10.9453 9.99698 10.1995 9.90215 9.50152 9.74173ZM11.7203 6.63387C10.9865 7.08439 10.3605 7.80679 9.91205 8.7084C9.83132 8.87091 9.75632 9.03861 9.68757 9.21204C10.3272 9.35475 11.0095 9.43964 11.7204 9.45735L11.7203 6.63387ZM9.14219 9.07347C9.22396 8.86149 9.31407 8.6568 9.41249 8.4594C9.75312 7.77607 10.1896 7.18336 10.6979 6.71513C9.71821 6.95576 8.84271 7.46149 8.15204 8.15207C8.02235 8.28175 7.89944 8.41769 7.78329 8.55988C8.201 8.76196 8.65683 8.9344 9.14219 9.07347ZM8.61667 11.7204C8.64063 10.974 8.76041 10.2611 8.96041 9.6016C8.41927 9.44535 7.91197 9.24796 7.44788 9.01671C6.93329 9.80056 6.61559 10.725 6.56507 11.7203L8.61667 11.7204ZM8.96093 14.3975C8.76093 13.7381 8.64115 13.0245 8.61667 12.2787H6.5656C6.61612 13.274 6.93383 14.1984 7.44841 14.9823C7.91248 14.7505 8.41976 14.5537 8.96093 14.3975ZM10.6973 17.2839C10.188 16.8141 9.74941 16.2188 9.40879 15.5312C9.31191 15.3364 9.22337 15.1343 9.14264 14.9255C8.65723 15.064 8.20149 15.2369 7.78384 15.439C7.89999 15.5812 8.02291 15.7171 8.15259 15.8468C8.84321 16.5375 9.7176 17.0433 10.6973 17.2839ZM14.9167 14.9432C14.8391 15.1432 14.7536 15.3375 14.6609 15.5255C14.3286 16.1984 13.901 16.7885 13.3963 17.2599C14.3375 17.0104 15.1791 16.5156 15.8474 15.8474C15.9771 15.7177 16.1 15.5817 16.2162 15.4395C15.8151 15.2458 15.3797 15.0791 14.9167 14.9432ZM15.45 12.2792C15.4255 13.0245 15.3042 13.7453 15.0995 14.4156C15.6182 14.5692 16.1047 14.7599 16.5511 14.9828C17.0657 14.1989 17.3834 13.2745 17.4339 12.2792L15.45 12.2792ZM15.1005 9.58387C15.3036 10.2485 15.426 10.9683 15.45 11.7208H17.4339C17.3833 10.7255 17.0656 9.80107 16.5511 9.0172C16.1047 9.24012 15.6188 9.43023 15.1005 9.58387ZM13.3948 6.73907C13.8854 7.1974 14.3089 7.77292 14.6417 8.43493C14.7422 8.63441 14.8344 8.84171 14.9177 9.05629C15.3807 8.92088 15.8156 8.75421 16.2161 8.56045C16.1 8.41827 15.9771 8.28233 15.8474 8.15264C15.1787 7.48389 14.3371 6.98807 13.3948 6.73907ZM14.3745 9.19787C14.3042 9.02183 14.2271 8.85047 14.1443 8.68589C13.6828 7.76819 13.0365 7.03803 12.2792 6.59416V9.45723C13.0136 9.439 13.7171 9.34891 14.3745 9.19787ZM14.8911 11.7208C14.8672 11.0166 14.7516 10.3453 14.5609 9.7276L14.5339 9.73385C13.8255 9.89948 13.0672 9.9974 12.2787 10.0161V11.7208L14.8911 11.7208ZM14.5604 14.2729C14.7526 13.6495 14.8672 12.9766 14.8911 12.2797H12.2791V13.9844C13.0677 14.0032 13.8261 14.1016 14.5343 14.2667L14.5604 14.2729ZM12.2792 17.4063C13.0594 16.9495 13.7057 16.2021 14.1615 15.2797C14.2375 15.1256 14.3084 14.9662 14.374 14.8027C13.7167 14.6516 13.0131 14.5615 12.2792 14.5433L12.2792 17.4063Z" fill="#333333"/>
</g>
</g>
</svg>
