<svg width="17" height="16" viewBox="0 0 17 16" fill="none" xmlns="http://www.w3.org/2000/svg">
<path d="M1.33301 11.6918C1.33301 12.127 1.5047 12.5444 1.81032 12.8522C2.11593 13.1599 2.53043 13.3328 2.96264 13.3328H14.37C14.8022 13.3328 15.2168 13.1599 15.5224 12.8522C15.828 12.5444 15.9997 12.127 15.9997 11.6918V10.0508H1.33301V11.6918Z" fill="#FFCD05"/>
<path d="M1.33301 6.35742H15.9997V10.0497H1.33301V6.35742Z" fill="#ED1F24"/>
<path d="M14.37 2.66602H2.96264C2.53043 2.66602 2.11593 2.83891 1.81032 3.14666C1.5047 3.45441 1.33301 3.87181 1.33301 4.30704L1.33301 6.35832H15.9997V4.30704C15.9997 3.87181 15.828 3.45441 15.5224 3.14666C15.2168 2.83891 14.8022 2.66602 14.37 2.66602Z" fill="#141414"/>
</svg>
