<svg width="20" height="14" viewBox="0 0 20 14" fill="none" xmlns="http://www.w3.org/2000/svg">
<g id="China (CN)">
<g clip-path="url(#clip0_2876_1985)">
<path id="Vector" d="M0.839844 0.330078H19.1698V13.6601H0.839844V0.330078Z" fill="#DE2910"/>
<path id="Vector_2" d="M3.03968 5.26219L4.27694 1.66309L5.5142 5.26219L2.21484 3.06274H6.33904L3.03968 5.26219Z" fill="#FFDE00"/>
<path id="Vector_3" d="M8.40632 1.73183L7.13303 2.00543L7.98236 1.04576L7.89906 2.33735L7.19246 1.1939L8.40632 1.73183Z" fill="#FFDE00"/>
<path id="Vector_4" d="M9.69098 3.31096L8.40791 3.08431L9.57462 2.51916L8.98123 3.67832L8.78729 2.35865L9.69098 3.31096Z" fill="#FFDE00"/>
<path id="Vector_5" d="M9.50345 5.52668L8.42728 4.81232L9.73025 4.75771L8.70089 5.58141L9.0789 4.29979L9.50345 5.52668Z" fill="#FFDE00"/>
<path id="Vector_6" d="M7.88477 6.97378L7.17665 5.91183L8.40027 6.34942L7.12268 6.72371L7.98185 5.6831L7.88477 6.97378Z" fill="#FFDE00"/>
</g>
</g>
<defs>
<clipPath id="clip0_2876_1985">
<rect x="0.839844" y="0.330078" width="18.33" height="13.33" rx="2" fill="white"/>
</clipPath>
</defs>
</svg>
