<svg width="20" height="20" viewBox="0 0 20 20" fill="none" xmlns="http://www.w3.org/2000/svg">
<path d="M8.16602 5.33349C8.16602 4.22892 9.06145 3.3335 10.166 3.3335H17.166C18.2706 3.3335 19.166 4.22893 19.166 5.3335V14.6668C19.166 15.7714 18.2706 16.6668 17.166 16.6668H10.166C9.06145 16.6668 8.16602 15.7714 8.16602 14.6668V5.33349Z" fill="#FF0000"/>
<path d="M4.34668 3.3335H15.3467V16.6668H4.34668V3.3335Z" fill="#FF0000"/>
<path d="M0.833008 5.33349C0.833008 4.22892 1.72844 3.3335 2.83301 3.3335H6.16634C7.27091 3.3335 8.16634 4.22893 8.16634 5.3335V14.6668C8.16634 15.7714 7.27091 16.6668 6.16634 16.6668H2.83301C1.72844 16.6668 0.833008 15.7714 0.833008 14.6668V5.33349Z" fill="#006600"/>
<path d="M2.36035 3.3335H9.69369V16.6668H2.36035V3.3335Z" fill="#006600"/>
<path fill-rule="evenodd" clip-rule="evenodd" d="M10.5579 11.8389C9.63268 11.8111 5.40169 9.24998 5.37305 8.83887L5.60508 8.46387C6.02617 9.05553 10.3517 11.5472 10.7785 11.4583L10.5579 11.8389Z" fill="#FFFF00" stroke="black" stroke-width="0.075" stroke-linecap="round" stroke-linejoin="round"/>
<path fill-rule="evenodd" clip-rule="evenodd" d="M5.55587 8.41124C5.4728 8.62791 6.6616 9.33902 8.08817 10.1835C9.51759 11.0251 10.7494 11.5446 10.8382 11.4724L10.8811 11.3946C10.8639 11.4224 10.8238 11.4307 10.758 11.4112C10.3712 11.3029 9.36577 10.8557 8.11968 10.1224C6.87072 9.38902 5.78791 8.71402 5.6189 8.42791C5.60572 8.40108 5.59981 8.37145 5.60171 8.3418H5.59598L5.5616 8.40291L5.55587 8.41124ZM10.5775 11.8501C10.5632 11.8779 10.5317 11.8779 10.4772 11.8724C10.1335 11.8362 9.08504 11.3418 7.84468 10.6224C6.40093 9.78346 5.20926 9.02235 5.34103 8.82235L5.37541 8.76124L5.38114 8.76402C5.26655 9.10291 7.73296 10.4696 7.87905 10.5585C9.30561 11.414 10.5087 11.9168 10.6147 11.7862L10.5775 11.8501Z" fill="#FFFF00" stroke="black" stroke-width="0.075" stroke-linecap="round" stroke-linejoin="round"/>
<path fill-rule="evenodd" clip-rule="evenodd" d="M8.17096 9.08878C9.09336 9.08045 10.2335 8.96656 10.8923 8.711L10.7491 8.48878C10.3624 8.69711 9.21654 8.836 8.16237 8.85545C6.91914 8.84434 6.03971 8.73045 5.59857 8.44434L5.4668 8.68322C6.27461 9.01656 7.10534 9.086 8.17096 9.08878Z" fill="#FFFF00"/>
<path d="M8.17096 9.08878C9.09336 9.08045 10.2335 8.96656 10.8923 8.711L10.7491 8.48878C10.3624 8.69711 9.21654 8.836 8.16237 8.85545C6.91914 8.84434 6.03971 8.73045 5.59857 8.44434L5.4668 8.68322C6.27461 9.01656 7.10534 9.086 8.17096 9.08878" stroke="black" stroke-width="0.075" stroke-linecap="round" stroke-linejoin="round"/>
<path fill-rule="evenodd" clip-rule="evenodd" d="M10.9298 8.71666C10.9069 8.75277 10.4772 8.89443 9.84701 8.99999C9.29146 9.08162 8.73024 9.12156 8.16836 9.11943C7.63001 9.12139 7.09215 9.08798 6.55846 9.01943C5.89674 8.91943 5.55586 8.78054 5.42695 8.73054L5.45846 8.66943C5.82227 8.80832 6.16602 8.89166 6.56706 8.95277C7.09685 9.02213 7.6309 9.05647 8.16549 9.05554C8.72447 9.05611 9.28271 9.01619 9.83555 8.9361C10.4801 8.83332 10.8324 8.70277 10.884 8.64443L10.9298 8.71943V8.71666ZM10.8038 8.49166C10.735 8.54721 10.3855 8.66666 9.77253 8.7611C9.24316 8.83537 8.70896 8.8725 8.17409 8.87221C7.54388 8.87221 7.02539 8.82777 6.63294 8.77221C6.00846 8.69443 5.67617 8.54999 5.55586 8.5111L5.5931 8.44999C5.68763 8.49721 6.0056 8.62221 6.63867 8.70832C7.14759 8.77442 7.66064 8.80598 8.17409 8.80277C8.70515 8.80293 9.23553 8.76579 9.76107 8.69166C10.377 8.60832 10.7092 8.45832 10.7608 8.41943L10.8038 8.49166ZM5.13763 10.1667C5.70482 10.4639 6.9681 10.6111 8.16263 10.6222C9.25117 10.625 10.6663 10.4611 11.1962 10.1889L11.1819 9.89166C11.0158 10.1417 9.49753 10.3833 8.15117 10.375C6.80482 10.3639 5.55299 10.1639 5.13477 9.90277V10.1667" fill="#FFFF00"/>
<path d="M5.13763 10.1667C5.70482 10.4639 6.9681 10.6111 8.16263 10.6222C9.25117 10.625 10.6663 10.4611 11.1962 10.1889L11.1819 9.89166C11.0158 10.1417 9.49753 10.3833 8.15117 10.375C6.80482 10.3639 5.55299 10.1639 5.13477 9.90277V10.1667M10.9298 8.71666C10.9069 8.75277 10.4772 8.89443 9.84701 8.99999C9.29146 9.08162 8.73024 9.12156 8.16836 9.11943C7.63001 9.12139 7.09215 9.08798 6.55846 9.01943C5.89674 8.91943 5.55586 8.78054 5.42695 8.73054L5.45846 8.66943C5.82227 8.80832 6.16602 8.89166 6.56706 8.95277C7.09685 9.02213 7.6309 9.05647 8.16549 9.05554C8.72447 9.05611 9.28271 9.01619 9.83555 8.9361C10.4801 8.83332 10.8324 8.70277 10.884 8.64443L10.9298 8.71943V8.71666ZM10.8038 8.49166C10.735 8.54721 10.3855 8.66666 9.77253 8.7611C9.24316 8.83537 8.70896 8.8725 8.17409 8.87221C7.54388 8.87221 7.02539 8.82777 6.63294 8.77221C6.00846 8.69443 5.67617 8.54999 5.55586 8.5111L5.5931 8.44999C5.68763 8.49721 6.0056 8.62221 6.63867 8.70832C7.14759 8.77442 7.66064 8.80598 8.17409 8.80277C8.70515 8.80293 9.23553 8.76579 9.76107 8.69166C10.377 8.60832 10.7092 8.45832 10.7608 8.41943L10.8038 8.49166V8.49166Z" stroke="black" stroke-width="0.075" stroke-linecap="round" stroke-linejoin="round"/>
<path fill-rule="evenodd" clip-rule="evenodd" d="M11.2251 10.1254V10.1948C11.1449 10.2893 10.6464 10.4281 10.0219 10.5281C9.40153 10.6146 8.77527 10.6555 8.1485 10.6504C7.55419 10.6553 6.96038 10.6153 6.37246 10.5309C5.93377 10.4818 5.50509 10.3694 5.10059 10.1976V10.117C5.37845 10.2948 6.12897 10.4281 6.38105 10.467C6.83366 10.5337 7.41517 10.5837 8.1485 10.5837C8.91908 10.5837 9.53496 10.5309 10.0105 10.4615C10.4602 10.3976 11.099 10.2337 11.2251 10.1254ZM11.2251 9.87537V9.94481C11.1449 10.0365 10.6464 10.1754 10.0219 10.2754C9.4016 10.3628 8.77534 10.4046 8.1485 10.4004C7.55424 10.4038 6.96055 10.3638 6.37246 10.2809C5.93377 10.2318 5.50509 10.1194 5.10059 9.94759V9.86426C5.37845 10.0448 6.13184 10.1754 6.38105 10.2143C6.96624 10.2974 7.55709 10.3373 8.1485 10.3337C8.91908 10.3337 9.53783 10.2781 10.0105 10.2087C10.4602 10.1476 11.099 9.9837 11.2251 9.87537ZM8.15996 11.7865C6.85371 11.7809 5.73366 11.442 5.4959 11.3865L5.66777 11.6476C6.47126 11.9235 7.31913 12.0581 8.17142 12.0448C9.16543 12.017 10.0334 11.942 10.6436 11.6531L10.8212 11.3809C10.4058 11.5726 8.98783 11.7865 8.1571 11.7865" fill="#FFFF00"/>
<path d="M8.15996 11.7865C6.85371 11.7809 5.73366 11.442 5.4959 11.3865L5.66777 11.6476C6.47126 11.9235 7.31913 12.0581 8.17142 12.0448C9.16543 12.017 10.0334 11.942 10.6436 11.6531L10.8212 11.3809C10.4058 11.5726 8.98783 11.7865 8.1571 11.7865M11.2251 10.1254V10.1948C11.1449 10.2893 10.6464 10.4281 10.0219 10.5281C9.40153 10.6146 8.77527 10.6555 8.1485 10.6504C7.55419 10.6553 6.96038 10.6153 6.37246 10.5309C5.93377 10.4818 5.50509 10.3694 5.10059 10.1976V10.117C5.37845 10.2948 6.12897 10.4281 6.38105 10.467C6.83366 10.5337 7.41517 10.5837 8.1485 10.5837C8.91908 10.5837 9.53496 10.5309 10.0105 10.4615C10.4602 10.3976 11.099 10.2337 11.2251 10.1254V10.1254ZM11.2251 9.87537V9.94481C11.1449 10.0365 10.6464 10.1754 10.0219 10.2754C9.4016 10.3628 8.77534 10.4046 8.1485 10.4004C7.55424 10.4038 6.96055 10.3638 6.37246 10.2809C5.93377 10.2318 5.50509 10.1194 5.10059 9.94759V9.86426C5.37845 10.0448 6.13184 10.1754 6.38105 10.2143C6.96624 10.2974 7.55709 10.3373 8.1485 10.3337C8.91908 10.3337 9.53783 10.2781 10.0105 10.2087C10.4602 10.1476 11.099 9.9837 11.2251 9.87537V9.87537Z" stroke="black" stroke-width="0.075" stroke-linecap="round" stroke-linejoin="round"/>
<path fill-rule="evenodd" clip-rule="evenodd" d="M10.7133 11.5915C10.6872 11.6289 10.6605 11.666 10.6331 11.7026C10.3466 11.8026 9.88828 11.9081 9.69922 11.9359C9.1919 12.0276 8.67699 12.0741 8.16094 12.0748C7.00365 12.0581 6.05547 11.8387 5.61146 11.6498L5.57422 11.5915L5.57995 11.5803L5.6401 11.6053C6.45537 11.867 7.30793 12.0029 8.16667 12.0081C8.70521 12.0081 9.24089 11.9498 9.67344 11.8748C10.338 11.7442 10.6073 11.647 10.6904 11.6026L10.7104 11.5915H10.7133ZM10.8651 11.347C10.8462 11.3796 10.8271 11.412 10.8078 11.4442C10.6531 11.4998 10.2349 11.6165 9.62474 11.6998C9.2237 11.7526 8.97448 11.8053 8.17526 11.8192C7.26164 11.8103 6.35363 11.6795 5.47682 11.4303L5.44531 11.3609C6.33615 11.5997 7.25411 11.7303 8.17812 11.7498C8.90859 11.7359 9.22083 11.6831 9.61901 11.6303C10.3294 11.5248 10.6875 11.4081 10.7935 11.3776C10.7936 11.3757 10.7936 11.3739 10.7935 11.372L10.868 11.3442L10.8651 11.347Z" fill="#FFFF00" stroke="black" stroke-width="0.075" stroke-linecap="round" stroke-linejoin="round"/>
<path fill-rule="evenodd" clip-rule="evenodd" d="M10.8811 9.9335C10.884 10.7668 10.4428 11.5168 10.0905 11.8446C9.5701 12.3368 8.87514 12.6171 8.14831 12.6279C7.28034 12.6418 6.46394 12.0946 6.24336 11.8529C5.74992 11.3455 5.46908 10.678 5.4556 9.98072C5.50717 9.06961 5.8767 8.43627 6.40951 8.00016C6.9271 7.58699 7.57819 7.36375 8.24857 7.36961C8.63991 7.38801 9.02297 7.48547 9.3732 7.65576C9.72344 7.82605 10.0331 8.06541 10.2824 8.3585C10.6405 8.78072 10.7981 9.23905 10.8811 9.9335ZM8.15404 7.0835C8.9554 7.08347 9.72429 7.39064 10.2931 7.93803C10.8619 8.48543 11.1845 9.22866 11.1905 10.0057C11.1905 10.3913 11.1122 10.7731 10.96 11.1293C10.8079 11.4855 10.5848 11.8092 10.3037 12.0819C10.0225 12.3545 9.68871 12.5708 9.32135 12.7183C8.95399 12.8659 8.56026 12.9418 8.16263 12.9418C7.76501 12.9418 7.37128 12.8659 7.00392 12.7183C6.63656 12.5708 6.30277 12.3545 6.02161 12.0819C5.74045 11.8092 5.51742 11.4855 5.36525 11.1293C5.21309 10.7731 5.13477 10.3913 5.13477 10.0057C5.13191 8.39461 6.48972 7.0835 8.15404 7.0835Z" fill="#FFFF00"/>
<path d="M8.15404 7.0835C8.95541 7.08347 9.72429 7.39064 10.2931 7.93803C10.8619 8.48543 11.1845 9.22866 11.1905 10.0057C11.1905 10.3913 11.1122 10.7731 10.96 11.1293C10.8079 11.4855 10.5848 11.8092 10.3037 12.0819C10.0225 12.3545 9.68871 12.5708 9.32135 12.7183C8.95399 12.8659 8.56026 12.9418 8.16263 12.9418C7.76501 12.9418 7.37128 12.8659 7.00392 12.7183C6.63656 12.5708 6.30277 12.3545 6.02161 12.0819C5.74045 11.8092 5.51742 11.4855 5.36525 11.1293C5.21309 10.7731 5.13477 10.3913 5.13477 10.0057C5.13191 8.39461 6.48972 7.0835 8.15404 7.0835M10.8811 9.9335C10.884 10.7668 10.4428 11.5168 10.0905 11.8446C9.5701 12.3368 8.87514 12.6171 8.14831 12.6279C7.28034 12.6418 6.46394 12.0946 6.24336 11.8529C5.74992 11.3455 5.46908 10.678 5.4556 9.98072C5.50717 9.06961 5.8767 8.43627 6.40951 8.00016C6.9271 7.58699 7.57819 7.36375 8.24857 7.36961C8.63991 7.38801 9.02297 7.48547 9.3732 7.65576C9.72344 7.82605 10.0331 8.06541 10.2824 8.3585C10.6405 8.78072 10.7981 9.23905 10.8811 9.9335V9.9335Z" stroke="black" stroke-width="0.075" stroke-linecap="round" stroke-linejoin="round"/>
<path fill-rule="evenodd" clip-rule="evenodd" d="M8.16276 7.06982C9.82995 7.06982 11.1878 8.38649 11.1878 10.0032C11.1878 11.6198 9.82995 12.9365 8.16563 12.9365C6.5013 12.9365 5.14062 11.6198 5.14062 10.0032C5.14062 8.38649 6.49844 7.06982 8.16563 7.06982H8.16276ZM5.20365 10.0004C5.20365 11.5782 6.54141 12.8698 8.16276 12.8698C9.78411 12.8698 11.1219 11.5782 11.1219 10.0004C11.1219 8.4226 9.78411 7.13094 8.16276 7.13094C6.54141 7.13094 5.20365 8.4226 5.20365 10.0004Z" fill="#FFFF00" stroke="black" stroke-width="0.075" stroke-linecap="round" stroke-linejoin="round"/>
<path fill-rule="evenodd" clip-rule="evenodd" d="M8.16556 7.31396C8.89953 7.31616 9.60278 7.59987 10.1218 8.10314C10.6408 8.6064 10.9333 9.28835 10.9356 10.0001C10.9334 10.7121 10.6409 11.3943 10.122 11.898C9.60304 12.4017 8.89979 12.686 8.16556 12.689C6.64733 12.689 5.39551 11.4779 5.39551 10.0001C5.39852 9.28858 5.69134 8.60705 6.21017 8.10394C6.729 7.60083 7.43183 7.31689 8.16556 7.31396ZM5.46139 10.0001C5.46139 11.4445 6.68171 12.6223 8.16556 12.6223C9.64941 12.6223 10.8697 11.4417 10.8697 10.0001C10.8697 8.55563 9.64941 7.37785 8.16556 7.37785C7.4493 7.38078 6.76323 7.65799 6.25676 8.14912C5.75028 8.64025 5.46441 9.30552 5.46139 10.0001Z" fill="#FFFF00" stroke="black" stroke-width="0.075" stroke-linecap="round" stroke-linejoin="round"/>
<path fill-rule="evenodd" clip-rule="evenodd" d="M8.289 7.05566H8.02832V12.9529H8.28613L8.289 7.05566Z" fill="#FFFF00" stroke="black" stroke-width="0.075" stroke-linecap="round" stroke-linejoin="round"/>
<path fill-rule="evenodd" clip-rule="evenodd" d="M8.26074 7.02246H8.32663V12.9863H8.26361V7.02246H8.26074ZM8.00293 7.02246H8.07168V12.9863H8.00579V7.02246H8.00293Z" fill="#FFFF00" stroke="black" stroke-width="0.075" stroke-linecap="round" stroke-linejoin="round"/>
<path fill-rule="evenodd" clip-rule="evenodd" d="M11.1913 10.1166V9.89989L11.0079 9.73322L9.9681 9.46656L8.47279 9.31934L6.6681 9.40822L5.38477 9.70267L5.12695 9.88878V10.1082L5.78294 9.82211L7.34128 9.586H8.83945L9.93945 9.70267L10.7014 9.88045L11.1913 10.1166Z" fill="#FFFF00" stroke="black" stroke-width="0.075" stroke-linecap="round" stroke-linejoin="round"/>
<path fill-rule="evenodd" clip-rule="evenodd" d="M8.16569 9.54992C8.87897 9.54992 9.56934 9.61381 10.1222 9.71659C10.6894 9.8277 11.0876 9.96659 11.2251 10.1194V10.1971C11.0589 10.0027 10.5232 9.86381 10.1079 9.78048C9.56361 9.68048 8.87611 9.61381 8.16283 9.61381C7.41517 9.61381 6.71621 9.68604 6.17767 9.78604C5.74798 9.86937 5.1722 10.036 5.10059 10.1971V10.1166C5.13783 10.0055 5.56751 9.83881 6.16908 9.71937C6.71048 9.61659 7.40944 9.54992 8.16283 9.54992H8.16569ZM8.16569 9.29715C8.82169 9.29587 9.47648 9.35165 10.1222 9.46381C10.6894 9.57492 11.0876 9.71381 11.2251 9.86937V9.94437C11.0589 9.7527 10.5232 9.61104 10.1079 9.53048C9.56361 9.4277 8.87611 9.36381 8.16283 9.36381C7.498 9.36177 6.8344 9.41943 6.18053 9.53604C5.76517 9.61104 5.16647 9.78326 5.10059 9.94437V9.86659C5.14069 9.75548 5.57611 9.58048 6.16908 9.46937C6.71335 9.36659 7.40944 9.29715 8.16569 9.29715ZM8.1485 8.01381C9.27428 8.00826 10.2568 8.16659 10.7066 8.38881L10.8699 8.66659C10.4803 8.46104 9.42038 8.24992 8.15137 8.2777C7.11725 8.28604 6.01152 8.38881 5.45866 8.6777L5.65345 8.36104C6.10892 8.13048 7.18027 8.01381 8.1485 8.01381Z" fill="#FFFF00"/>
<path d="M8.1485 8.01381C9.27428 8.00826 10.2568 8.16659 10.7066 8.38881L10.8699 8.66659C10.4803 8.46104 9.42038 8.24992 8.15137 8.2777C7.11725 8.28604 6.01152 8.38881 5.45866 8.6777L5.65345 8.36104C6.10892 8.13048 7.18027 8.01381 8.1485 8.01381M8.16569 9.54992C8.87897 9.54992 9.56934 9.61381 10.1222 9.71659C10.6894 9.8277 11.0876 9.96659 11.2251 10.1194V10.1971C11.0589 10.0027 10.5232 9.86381 10.1079 9.78048C9.56361 9.68048 8.87611 9.61381 8.16283 9.61381C7.41517 9.61381 6.71621 9.68604 6.17767 9.78604C5.74798 9.86937 5.1722 10.036 5.10059 10.1971V10.1166C5.13783 10.0055 5.56751 9.83881 6.16908 9.71937C6.71048 9.61659 7.40944 9.54992 8.16283 9.54992H8.16569ZM8.16569 9.29715C8.82169 9.29587 9.47648 9.35165 10.1222 9.46381C10.6894 9.57492 11.0876 9.71381 11.2251 9.86937V9.94437C11.0589 9.7527 10.5232 9.61104 10.1079 9.53048C9.56361 9.4277 8.87611 9.36381 8.16283 9.36381C7.498 9.36177 6.8344 9.41943 6.18053 9.53604C5.76517 9.61104 5.16647 9.78326 5.10059 9.94437V9.86659C5.14069 9.75548 5.57611 9.58048 6.16908 9.46937C6.71335 9.36659 7.40944 9.29715 8.16569 9.29715V9.29715Z" stroke="black" stroke-width="0.075" stroke-linecap="round" stroke-linejoin="round"/>
<path fill-rule="evenodd" clip-rule="evenodd" d="M8.16556 8.24214C8.75335 8.23252 9.3409 8.27248 9.92155 8.36158C10.3799 8.44491 10.8182 8.56714 10.8812 8.6338L10.9299 8.71714C10.7781 8.62269 10.3971 8.51436 9.91009 8.42547C9.42311 8.33658 8.8015 8.30602 8.16269 8.3088C7.43796 8.30602 6.87363 8.34214 6.39238 8.42547C6.06063 8.47056 5.73854 8.56716 5.43848 8.71158L5.48717 8.62547C5.65905 8.54214 5.92546 8.43936 6.37806 8.3588C6.87936 8.26991 7.44941 8.24491 8.16556 8.24214ZM8.16556 7.99214C8.77858 7.98658 9.38587 8.01991 9.85853 8.10325C10.1648 8.14733 10.4611 8.24125 10.7351 8.38102L10.8067 8.49214C10.6864 8.36158 10.2338 8.23658 9.82988 8.16991C9.36009 8.08936 8.77858 8.0588 8.16556 8.05325C7.59491 8.04831 7.02482 8.08919 6.46113 8.17547C6.16639 8.21529 5.88013 8.30063 5.61322 8.42825L5.67624 8.33658C5.84238 8.25325 6.11165 8.17547 6.44967 8.11158C7.01708 8.02417 7.59107 7.98329 8.16556 7.98936V7.99214ZM9.6666 11.2227C9.17009 11.1393 8.6665 11.1021 8.16269 11.1116C6.28639 11.1338 5.68197 11.4866 5.60749 11.5921L5.46426 11.3699C5.94551 11.0366 6.9653 10.8477 8.17415 10.8644C8.8015 10.8755 9.3429 10.9171 9.79551 11.0032L9.6666 11.2255" fill="#FFFF00"/>
<path d="M9.6666 11.2227C9.17009 11.1393 8.6665 11.1021 8.16269 11.1116C6.28639 11.1338 5.68197 11.4866 5.60749 11.5921L5.46426 11.3699C5.94551 11.0366 6.9653 10.8477 8.17415 10.8644C8.8015 10.8755 9.3429 10.9171 9.79551 11.0032L9.6666 11.2255M8.16556 8.24214C8.75335 8.23252 9.3409 8.27248 9.92155 8.36158C10.3799 8.44491 10.8182 8.56714 10.8812 8.6338L10.9299 8.71714C10.7781 8.62269 10.3971 8.51436 9.91009 8.42547C9.42311 8.33658 8.8015 8.30602 8.16269 8.3088C7.43796 8.30602 6.87363 8.34214 6.39238 8.42547C6.06063 8.47056 5.73854 8.56716 5.43848 8.71158L5.48717 8.62547C5.65905 8.54214 5.92546 8.43936 6.37806 8.3588C6.87936 8.26991 7.44941 8.24491 8.16556 8.24214V8.24214ZM8.16556 7.99214C8.77858 7.98658 9.38587 8.01991 9.85853 8.10325C10.1648 8.14733 10.4611 8.24125 10.7351 8.38102L10.8067 8.49214C10.6864 8.36158 10.2338 8.23658 9.82988 8.16991C9.36009 8.08936 8.77858 8.0588 8.16556 8.05325C7.59491 8.04831 7.02482 8.08919 6.46113 8.17547C6.16639 8.21529 5.88013 8.30063 5.61322 8.42825L5.67624 8.33658C5.84238 8.25325 6.11165 8.17547 6.44967 8.11158C7.01708 8.02417 7.59107 7.98329 8.16556 7.98936V7.99214Z" stroke="black" stroke-width="0.075" stroke-linecap="round" stroke-linejoin="round"/>
<path fill-rule="evenodd" clip-rule="evenodd" d="M8.15417 11.0808C8.67552 11.0891 9.18542 11.1085 9.68099 11.1974L9.64662 11.2585C9.18828 11.1752 8.69557 11.1474 8.15703 11.1474C7.46094 11.1419 6.76198 11.2058 6.15182 11.3752C5.9599 11.428 5.64193 11.5474 5.60755 11.6474L5.57318 11.5919C5.58464 11.5308 5.7737 11.4085 6.13464 11.3141C6.83359 11.1196 7.48672 11.0835 8.15417 11.0808ZM8.17708 10.8252C8.72736 10.8247 9.27662 10.8711 9.81849 10.9641L9.78125 11.028C9.25212 10.9339 8.71503 10.8883 8.17708 10.8919C7.48385 10.8919 6.74766 10.9419 6.07734 11.1308C5.8625 11.1919 5.48724 11.3252 5.47578 11.428L5.44141 11.3669C5.44714 11.2724 5.77083 11.1474 6.06302 11.0669C6.7362 10.8752 7.47526 10.828 8.17708 10.8252Z" fill="#FFFF00" stroke="black" stroke-width="0.075" stroke-linecap="round" stroke-linejoin="round"/>
<path fill-rule="evenodd" clip-rule="evenodd" d="M10.8414 11.4029L10.618 11.7446L9.96771 11.1862L8.28906 10.089L6.39271 9.08069L5.41016 8.75569L5.61927 8.37791L5.69089 8.3418L6.30104 8.48902L8.31771 9.49735L9.48073 10.2085L10.4576 10.889L10.8557 11.3335L10.8414 11.4029Z" fill="#FFFF00" stroke="black" stroke-width="0.075" stroke-linecap="round" stroke-linejoin="round"/>
<path fill-rule="evenodd" clip-rule="evenodd" d="M5.37513 8.76371C5.54701 8.6526 6.81315 9.19705 8.14232 9.97482C9.46289 10.7526 10.729 11.6304 10.6145 11.7943L10.5772 11.8526L10.56 11.8665C10.5629 11.8637 10.5829 11.8387 10.56 11.7804C10.5027 11.5998 9.60326 10.9054 8.11654 10.0332C6.66419 9.19705 5.45534 8.69149 5.33789 8.83594L5.37513 8.76371ZM10.8866 11.3998C10.9954 11.1887 9.82096 10.3304 8.36289 9.49427C6.87331 8.67482 5.79622 8.19149 5.59857 8.33594L5.55846 8.41649C5.55846 8.41927 5.55846 8.41094 5.56992 8.4026C5.6043 8.37482 5.66445 8.37482 5.69023 8.37482C6.02826 8.38038 6.99362 8.81094 8.34857 9.56371C8.9444 9.89705 10.8579 11.0915 10.8493 11.4248C10.8493 11.4526 10.8522 11.4582 10.8408 11.4748L10.8895 11.4026L10.8866 11.3998Z" fill="#FFFF00" stroke="black" stroke-width="0.075" stroke-linecap="round" stroke-linejoin="round"/>
<path d="M6.35156 10.3267C6.35202 10.5567 6.39951 10.7843 6.4913 10.9964C6.58308 11.2085 6.71733 11.4008 6.88629 11.5622C7.05318 11.7266 7.25195 11.8573 7.47116 11.9468C7.69037 12.0363 7.92567 12.0828 8.16351 12.0837C8.64487 12.0837 9.1065 11.8982 9.44685 11.5682C9.61521 11.4058 9.74884 11.2129 9.84008 11.0003C9.93132 10.7878 9.97836 10.5599 9.97852 10.3297V7.98298L6.35156 7.97705V10.3267Z" fill="white" stroke="black" stroke-width="0.0933336"/>
<path d="M6.41895 10.3298C6.41959 10.5504 6.46528 10.7687 6.55339 10.9721C6.6415 11.1756 6.77027 11.36 6.93228 11.515C7.25759 11.8321 7.69935 12.0111 8.16062 12.0127C8.62108 12.013 9.06283 11.8361 9.38895 11.5209C9.55041 11.3657 9.67862 11.1811 9.7662 10.9777C9.85378 10.7743 9.89899 10.5561 9.89923 10.3357V8.0542H6.42506V10.3298M9.20562 8.73865V10.1875L9.20256 10.3387C9.20359 10.471 9.17706 10.6022 9.12456 10.7244C9.07206 10.8466 8.99466 10.9573 8.89701 11.0498C8.7027 11.2388 8.43895 11.3454 8.16367 11.3461C7.87645 11.3461 7.62284 11.2275 7.43339 11.0438C7.23841 10.8554 7.12851 10.5997 7.12784 10.3327V8.73272L9.20562 8.73865Z" fill="#FF0000"/>
<path d="M6.41895 10.3298C6.41959 10.5504 6.46528 10.7687 6.55339 10.9721C6.6415 11.1756 6.77027 11.36 6.93228 11.515C7.25759 11.8321 7.69935 12.0111 8.16062 12.0127C8.62108 12.013 9.06283 11.8361 9.38895 11.5209C9.55041 11.3657 9.67862 11.1811 9.7662 10.9777C9.85378 10.7743 9.89899 10.5561 9.89923 10.3357V8.0542H6.42506V10.3298M9.20562 8.73865V10.1875L9.20256 10.3387C9.20359 10.471 9.17706 10.6022 9.12456 10.7244C9.07206 10.8466 8.99466 10.9573 8.89701 11.0498C8.7027 11.2388 8.43895 11.3454 8.16367 11.3461C7.87645 11.3461 7.62284 11.2275 7.43339 11.0438C7.23841 10.8554 7.12851 10.5997 7.12784 10.3327V8.73272L9.20562 8.73865Z" stroke="black" stroke-width="0.0666669"/>
<path d="M6.64551 8.65021C6.64856 8.48725 6.76773 8.44873 6.76773 8.44873C6.77079 8.44873 6.89912 8.49021 6.89912 8.65318H6.64551" fill="#FFFF00"/>
<path d="M6.54108 8.45169L6.51969 8.63836H6.64802C6.64802 8.48429 6.77024 8.46058 6.77024 8.46058C6.7733 8.46058 6.89247 8.49317 6.89552 8.63836H7.02386L6.99941 8.44873H6.54108V8.45169ZM6.51052 8.64132H7.02997C7.03913 8.64132 7.0483 8.65021 7.0483 8.66206C7.0483 8.67688 7.03913 8.68577 7.02997 8.68577H6.51052C6.50135 8.68577 6.49219 8.67688 6.49219 8.66206C6.49219 8.65021 6.50135 8.64132 6.51358 8.64132H6.51052Z" fill="#FFFF00" stroke="black" stroke-width="0.0666669"/>
<path d="M6.69946 8.63789C6.69946 8.54012 6.76974 8.51345 6.76974 8.51345C6.76974 8.51345 6.84002 8.54308 6.84002 8.63789H6.69946ZM6.52224 8.37123H7.0203C7.02946 8.37123 7.03863 8.38308 7.03863 8.39493C7.03863 8.40382 7.02946 8.41271 7.0203 8.41271H6.52224C6.51307 8.41271 6.50391 8.40382 6.50391 8.39197C6.50391 8.38308 6.51307 8.37419 6.52224 8.37419V8.37123ZM6.53446 8.41567H7.00502C7.01419 8.41567 7.02335 8.42456 7.02335 8.43641C7.02335 8.44826 7.01419 8.45715 7.00502 8.45715H6.53141C6.51918 8.45715 6.51307 8.44826 6.51307 8.43641C6.51307 8.42456 6.51918 8.41567 6.53141 8.41567H6.53446ZM6.68724 8.1016H6.72391V8.1253H6.75141V8.1016H6.79113V8.12826H6.81863V8.09863H6.8553V8.15789C6.8553 8.16974 6.84919 8.17567 6.84002 8.17567H6.70557C6.69641 8.17567 6.68724 8.16974 6.68724 8.16085V8.1016ZM6.8278 8.1816L6.83696 8.37123H6.70557L6.71474 8.17863H6.8278" fill="#FFFF00"/>
<path d="M6.8278 8.1816L6.83696 8.37123H6.70557L6.71474 8.17863H6.8278M6.69946 8.63789C6.69946 8.54012 6.76974 8.51345 6.76974 8.51345C6.76974 8.51345 6.84002 8.54308 6.84002 8.63789H6.69946ZM6.52224 8.37123H7.0203C7.02946 8.37123 7.03863 8.38308 7.03863 8.39493C7.03863 8.40382 7.02946 8.41271 7.0203 8.41271H6.52224C6.51307 8.41271 6.50391 8.40382 6.50391 8.39197C6.50391 8.38308 6.51307 8.37419 6.52224 8.37419V8.37123ZM6.53446 8.41567H7.00502C7.01419 8.41567 7.02335 8.42456 7.02335 8.43641C7.02335 8.44826 7.01419 8.45715 7.00502 8.45715H6.53141C6.51918 8.45715 6.51307 8.44826 6.51307 8.43641C6.51307 8.42456 6.51918 8.41567 6.53141 8.41567H6.53446ZM6.68724 8.1016H6.72391V8.1253H6.75141V8.1016H6.79113V8.12826H6.81863V8.09863H6.8553V8.15789C6.8553 8.16974 6.84919 8.17567 6.84002 8.17567H6.70557C6.69641 8.17567 6.68724 8.16974 6.68724 8.16085V8.1016Z" stroke="black" stroke-width="0.0666669"/>
<path d="M6.6691 8.27051V8.37125H6.54688V8.27051H6.6691Z" fill="#FFFF00" stroke="black" stroke-width="0.0666669"/>
<path d="M6.6691 8.27051V8.37125H6.54688V8.27051H6.6691Z" fill="#FFFF00" stroke="black" stroke-width="0.0666669"/>
<path d="M6.52539 8.19336H6.56206V8.22299H6.58956V8.19336H6.62622V8.22299H6.65372V8.19336H6.69039V8.25262C6.69039 8.26447 6.68428 8.2704 6.67511 8.2704H6.54372C6.53886 8.2704 6.5342 8.26852 6.53076 8.26519C6.52732 8.26186 6.52539 8.25733 6.52539 8.25262V8.19336Z" fill="#FFFF00" stroke="black" stroke-width="0.0666669"/>
<path d="M6.52539 8.19336H6.56206V8.22299H6.58956V8.19336H6.62622V8.22299H6.65372V8.19336H6.69039V8.25262C6.69039 8.26447 6.68428 8.2704 6.67511 8.2704H6.54372C6.53886 8.2704 6.5342 8.26852 6.53076 8.26519C6.52732 8.26186 6.52539 8.25733 6.52539 8.25262V8.19336Z" fill="#FFFF00" stroke="black" stroke-width="0.0666669"/>
<path d="M6.75781 8.24038C6.75781 8.22261 6.78531 8.22261 6.78531 8.24038V8.28779H6.75781V8.24038Z" fill="black"/>
<path d="M6.5957 8.3063C6.5957 8.28852 6.62015 8.28852 6.62015 8.3063V8.34186H6.5957V8.3063Z" fill="black"/>
<path d="M6.5957 8.3063C6.5957 8.28852 6.62015 8.28852 6.62015 8.3063V8.34186H6.5957V8.3063Z" fill="black"/>
<path d="M6.64551 8.65021C6.64856 8.48725 6.76773 8.44873 6.76773 8.44873C6.77079 8.44873 6.89912 8.49021 6.89912 8.65318H6.64551" fill="#FFFF00"/>
<path d="M6.54108 8.45169L6.51969 8.63836H6.64802C6.64802 8.48429 6.77024 8.46058 6.77024 8.46058C6.7733 8.46058 6.89247 8.49317 6.89552 8.63836H7.02386L6.99941 8.44873H6.54108V8.45169ZM6.51052 8.64132H7.02997C7.03913 8.64132 7.0483 8.65021 7.0483 8.66206C7.0483 8.67688 7.03913 8.68577 7.02997 8.68577H6.51052C6.50135 8.68577 6.49219 8.67688 6.49219 8.66206C6.49219 8.65021 6.50135 8.64132 6.51358 8.64132H6.51052Z" fill="#FFFF00" stroke="black" stroke-width="0.0666669"/>
<path d="M6.69946 8.63789C6.69946 8.54012 6.76974 8.51345 6.76974 8.51345C6.76974 8.51345 6.84002 8.54308 6.84002 8.63789H6.69946ZM6.52224 8.37123H7.0203C7.02946 8.37123 7.03863 8.38308 7.03863 8.39493C7.03863 8.40382 7.02946 8.41271 7.0203 8.41271H6.52224C6.51307 8.41271 6.50391 8.40382 6.50391 8.39197C6.50391 8.38308 6.51307 8.37419 6.52224 8.37419V8.37123ZM6.53446 8.41567H7.00502C7.01419 8.41567 7.02335 8.42456 7.02335 8.43641C7.02335 8.44826 7.01419 8.45715 7.00502 8.45715H6.53141C6.51918 8.45715 6.51307 8.44826 6.51307 8.43641C6.51307 8.42456 6.51918 8.41567 6.53141 8.41567H6.53446ZM6.68724 8.1016H6.72391V8.1253H6.75141V8.1016H6.79113V8.12826H6.81863V8.09863H6.8553V8.15789C6.8553 8.16974 6.84919 8.17567 6.84002 8.17567H6.70557C6.69641 8.17567 6.68724 8.16974 6.68724 8.16085V8.1016ZM6.8278 8.1816L6.83696 8.37123H6.70557L6.71474 8.17863H6.8278" fill="#FFFF00"/>
<path d="M6.8278 8.1816L6.83696 8.37123H6.70557L6.71474 8.17863H6.8278M6.69946 8.63789C6.69946 8.54012 6.76974 8.51345 6.76974 8.51345C6.76974 8.51345 6.84002 8.54308 6.84002 8.63789H6.69946ZM6.52224 8.37123H7.0203C7.02946 8.37123 7.03863 8.38308 7.03863 8.39493C7.03863 8.40382 7.02946 8.41271 7.0203 8.41271H6.52224C6.51307 8.41271 6.50391 8.40382 6.50391 8.39197C6.50391 8.38308 6.51307 8.37419 6.52224 8.37419V8.37123ZM6.53446 8.41567H7.00502C7.01419 8.41567 7.02335 8.42456 7.02335 8.43641C7.02335 8.44826 7.01419 8.45715 7.00502 8.45715H6.53141C6.51918 8.45715 6.51307 8.44826 6.51307 8.43641C6.51307 8.42456 6.51918 8.41567 6.53141 8.41567H6.53446ZM6.68724 8.1016H6.72391V8.1253H6.75141V8.1016H6.79113V8.12826H6.81863V8.09863H6.8553V8.15789C6.8553 8.16974 6.84919 8.17567 6.84002 8.17567H6.70557C6.69641 8.17567 6.68724 8.16974 6.68724 8.16085V8.1016Z" stroke="black" stroke-width="0.0666669"/>
<path d="M6.6691 8.27051V8.37125H6.54688V8.27051H6.6691Z" fill="#FFFF00" stroke="black" stroke-width="0.0666669"/>
<path d="M6.6691 8.27051V8.37125H6.54688V8.27051H6.6691Z" fill="#FFFF00" stroke="black" stroke-width="0.0666669"/>
<path d="M6.52539 8.19336H6.56206V8.22299H6.58956V8.19336H6.62622V8.22299H6.65372V8.19336H6.69039V8.25262C6.69039 8.26447 6.68428 8.2704 6.67511 8.2704H6.54372C6.53886 8.2704 6.5342 8.26852 6.53076 8.26519C6.52732 8.26186 6.52539 8.25733 6.52539 8.25262V8.19336Z" fill="#FFFF00" stroke="black" stroke-width="0.0666669"/>
<path d="M6.52539 8.19336H6.56206V8.22299H6.58956V8.19336H6.62622V8.22299H6.65372V8.19336H6.69039V8.25262C6.69039 8.26447 6.68428 8.2704 6.67511 8.2704H6.54372C6.53886 8.2704 6.5342 8.26852 6.53076 8.26519C6.52732 8.26186 6.52539 8.25733 6.52539 8.25262V8.19336Z" fill="#FFFF00" stroke="black" stroke-width="0.0666669"/>
<path d="M6.75781 8.24038C6.75781 8.22261 6.78531 8.22261 6.78531 8.24038V8.28779H6.75781V8.24038Z" fill="black"/>
<path d="M6.5957 8.3063C6.5957 8.28852 6.62015 8.28852 6.62015 8.3063V8.34186H6.5957V8.3063Z" fill="black"/>
<path d="M6.5957 8.3063C6.5957 8.28852 6.62015 8.28852 6.62015 8.3063V8.34186H6.5957V8.3063Z" fill="black"/>
<path d="M7.19642 11.4507C7.07919 11.3337 7.13487 11.2246 7.13487 11.2246C7.13702 11.2225 7.25776 11.1635 7.37713 11.2785L7.19859 11.4528" fill="#FFFF00"/>
<path d="M6.97801 11.3825L7.09972 11.529L7.1901 11.4407C7.0772 11.332 7.1459 11.2312 7.1459 11.2312C7.14805 11.2291 7.25585 11.1702 7.36439 11.2705L7.45476 11.1823L7.2986 11.0653L6.97583 11.3804L6.97801 11.3825ZM7.09544 11.5373L7.46124 11.1801C7.46769 11.1738 7.48066 11.1738 7.48934 11.1822C7.5002 11.1926 7.50026 11.2052 7.4938 11.2115L7.128 11.5687C7.12155 11.575 7.10858 11.575 7.09772 11.5646C7.08904 11.5562 7.08898 11.5437 7.09759 11.5352L7.09544 11.5373Z" fill="#FFFF00" stroke="black" stroke-width="0.0666669"/>
<path d="M7.22698 11.4051C7.15536 11.3361 7.1853 11.269 7.1853 11.269C7.1853 11.269 7.25647 11.2416 7.32592 11.3085L7.22698 11.4051ZM6.9069 11.3388L7.25749 10.9965C7.26395 10.9902 7.27908 10.9922 7.28776 11.0006C7.29427 11.0068 7.29433 11.0194 7.28788 11.0257L6.93729 11.3681C6.93084 11.3744 6.91787 11.3744 6.90919 11.3661C6.90268 11.3598 6.90262 11.3472 6.90907 11.3409L6.9069 11.3388ZM6.94806 11.3618L7.27929 11.0383C7.28575 11.032 7.29871 11.032 7.30739 11.0403C7.31607 11.0487 7.31613 11.0613 7.30968 11.0676L6.97629 11.3931C6.96769 11.4015 6.95688 11.3995 6.9482 11.3911C6.93952 11.3828 6.93731 11.3723 6.94591 11.3639L6.94806 11.3618ZM6.82556 11.0352L6.85137 11.01L6.86873 11.0268L6.88809 11.0079L6.87073 10.9911L6.89869 10.9638L6.91822 10.9826L6.93758 10.9637L6.91587 10.9428L6.94168 10.9176L6.98509 10.9594C6.99377 10.9678 6.99381 10.9762 6.98736 10.9825L6.89272 11.0749C6.88627 11.0812 6.87547 11.0833 6.86896 11.077L6.82556 11.0352ZM6.98309 10.995L7.12844 11.1225L7.03596 11.2128L6.90134 11.0707L6.98092 10.993" fill="#FFFF00"/>
<path d="M6.98309 10.995L7.12844 11.1225L7.03596 11.2128L6.90134 11.0707L6.98092 10.993M7.22698 11.4051C7.15536 11.3361 7.1853 11.269 7.1853 11.269C7.1853 11.269 7.25647 11.2416 7.32592 11.3085L7.22698 11.4051ZM6.9069 11.3388L7.25749 10.9965C7.26395 10.9902 7.27908 10.9922 7.28776 11.0006C7.29427 11.0068 7.29433 11.0194 7.28788 11.0257L6.93729 11.3681C6.93084 11.3744 6.91787 11.3744 6.90919 11.3661C6.90268 11.3598 6.90262 11.3472 6.90907 11.3409L6.9069 11.3388ZM6.94806 11.3618L7.27929 11.0383C7.28575 11.032 7.29871 11.032 7.30739 11.0403C7.31607 11.0487 7.31613 11.0613 7.30968 11.0676L6.97629 11.3931C6.96769 11.4015 6.95688 11.3995 6.9482 11.3911C6.93952 11.3827 6.93731 11.3723 6.94591 11.3639L6.94806 11.3618ZM6.82556 11.0352L6.85137 11.01L6.86873 11.0268L6.88809 11.0079L6.87073 10.9911L6.89869 10.9638L6.91822 10.9826L6.93758 10.9637L6.91587 10.9428L6.94168 10.9176L6.98509 10.9594C6.99377 10.9678 6.99381 10.9762 6.98736 10.9825L6.89272 11.0749C6.88627 11.0812 6.87547 11.0833 6.86896 11.077L6.82556 11.0352Z" stroke="black" stroke-width="0.0666669"/>
<path d="M6.93663 11.167L7.01042 11.238L6.92438 11.322L6.85059 11.251L6.93663 11.167Z" fill="#FFFF00" stroke="black" stroke-width="0.0666669"/>
<path d="M6.93663 11.167L7.01042 11.238L6.92438 11.322L6.85059 11.251L6.93663 11.167Z" fill="#FFFF00" stroke="black" stroke-width="0.0666669"/>
<path d="M6.77832 11.2114L6.80414 11.1862L6.82585 11.2071L6.84522 11.1882L6.82351 11.1673L6.84933 11.1421L6.87104 11.163L6.8904 11.1441L6.86869 11.1232L6.89451 11.098L6.93793 11.1398C6.94661 11.1481 6.94665 11.1565 6.9402 11.1628L6.84768 11.2532C6.84425 11.2565 6.8396 11.2584 6.83473 11.2584C6.82987 11.2584 6.82519 11.2566 6.82174 11.2532L6.77832 11.2114Z" fill="#FFFF00" stroke="black" stroke-width="0.0666669"/>
<path d="M6.77832 11.2114L6.80414 11.1862L6.82585 11.2071L6.84522 11.1882L6.82351 11.1673L6.84933 11.1421L6.87104 11.163L6.8904 11.1441L6.86869 11.1232L6.89451 11.098L6.93793 11.1398C6.94661 11.1481 6.94665 11.1565 6.9402 11.1628L6.84768 11.2532C6.84425 11.2565 6.8396 11.2584 6.83473 11.2584C6.82987 11.2584 6.82519 11.2566 6.82174 11.2532L6.77832 11.2114Z" fill="#FFFF00" stroke="black" stroke-width="0.0666669"/>
<path d="M6.97754 11.0851C6.96452 11.0726 6.98387 11.0537 6.99689 11.0662L7.0316 11.0996L7.01225 11.1185L6.97754 11.0851Z" fill="black"/>
<path d="M6.91015 11.2428C6.89714 11.2303 6.91434 11.2135 6.92735 11.226L6.95339 11.2511L6.93619 11.2679L6.91015 11.2428Z" fill="black"/>
<path d="M6.91015 11.2428C6.89714 11.2303 6.91434 11.2135 6.92735 11.226L6.95339 11.2511L6.93619 11.2679L6.91015 11.2428Z" fill="black"/>
<path d="M6.64551 8.65021C6.64856 8.48725 6.76773 8.44873 6.76773 8.44873C6.77079 8.44873 6.89912 8.49021 6.89912 8.65318H6.64551" fill="#FFFF00"/>
<path d="M6.54108 8.45169L6.51969 8.63836H6.64802C6.64802 8.48429 6.77024 8.46058 6.77024 8.46058C6.7733 8.46058 6.89247 8.49317 6.89552 8.63836H7.02386L6.99941 8.44873H6.54108V8.45169ZM6.51052 8.64132H7.02997C7.03913 8.64132 7.0483 8.65021 7.0483 8.66206C7.0483 8.67688 7.03913 8.68577 7.02997 8.68577H6.51052C6.50135 8.68577 6.49219 8.67688 6.49219 8.66206C6.49219 8.65021 6.50135 8.64132 6.51358 8.64132H6.51052Z" fill="#FFFF00" stroke="black" stroke-width="0.0666669"/>
<path d="M6.69946 8.63789C6.69946 8.54012 6.76974 8.51345 6.76974 8.51345C6.76974 8.51345 6.84002 8.54308 6.84002 8.63789H6.69946ZM6.52224 8.37123H7.0203C7.02946 8.37123 7.03863 8.38308 7.03863 8.39493C7.03863 8.40382 7.02946 8.41271 7.0203 8.41271H6.52224C6.51307 8.41271 6.50391 8.40382 6.50391 8.39197C6.50391 8.38308 6.51307 8.37419 6.52224 8.37419V8.37123ZM6.53446 8.41567H7.00502C7.01419 8.41567 7.02335 8.42456 7.02335 8.43641C7.02335 8.44826 7.01419 8.45715 7.00502 8.45715H6.53141C6.51918 8.45715 6.51307 8.44826 6.51307 8.43641C6.51307 8.42456 6.51918 8.41567 6.53141 8.41567H6.53446ZM6.68724 8.1016H6.72391V8.1253H6.75141V8.1016H6.79113V8.12826H6.81863V8.09863H6.8553V8.15789C6.8553 8.16974 6.84919 8.17567 6.84002 8.17567H6.70557C6.69641 8.17567 6.68724 8.16974 6.68724 8.16085V8.1016ZM6.8278 8.1816L6.83696 8.37123H6.70557L6.71474 8.17863H6.8278" fill="#FFFF00"/>
<path d="M6.8278 8.1816L6.83696 8.37123H6.70557L6.71474 8.17863H6.8278M6.69946 8.63789C6.69946 8.54012 6.76974 8.51345 6.76974 8.51345C6.76974 8.51345 6.84002 8.54308 6.84002 8.63789H6.69946ZM6.52224 8.37123H7.0203C7.02946 8.37123 7.03863 8.38308 7.03863 8.39493C7.03863 8.40382 7.02946 8.41271 7.0203 8.41271H6.52224C6.51307 8.41271 6.50391 8.40382 6.50391 8.39197C6.50391 8.38308 6.51307 8.37419 6.52224 8.37419V8.37123ZM6.53446 8.41567H7.00502C7.01419 8.41567 7.02335 8.42456 7.02335 8.43641C7.02335 8.44826 7.01419 8.45715 7.00502 8.45715H6.53141C6.51918 8.45715 6.51307 8.44826 6.51307 8.43641C6.51307 8.42456 6.51918 8.41567 6.53141 8.41567H6.53446ZM6.68724 8.1016H6.72391V8.1253H6.75141V8.1016H6.79113V8.12826H6.81863V8.09863H6.8553V8.15789C6.8553 8.16974 6.84919 8.17567 6.84002 8.17567H6.70557C6.69641 8.17567 6.68724 8.16974 6.68724 8.16085V8.1016Z" stroke="black" stroke-width="0.0666669"/>
<path d="M6.6691 8.27051V8.37125H6.54688V8.27051H6.6691Z" fill="#FFFF00" stroke="black" stroke-width="0.0666669"/>
<path d="M6.6691 8.27051V8.37125H6.54688V8.27051H6.6691Z" fill="#FFFF00" stroke="black" stroke-width="0.0666669"/>
<path d="M6.52539 8.19336H6.56206V8.22299H6.58956V8.19336H6.62622V8.22299H6.65372V8.19336H6.69039V8.25262C6.69039 8.26447 6.68428 8.2704 6.67511 8.2704H6.54372C6.53886 8.2704 6.5342 8.26852 6.53076 8.26519C6.52732 8.26186 6.52539 8.25733 6.52539 8.25262V8.19336Z" fill="#FFFF00" stroke="black" stroke-width="0.0666669"/>
<path d="M6.52539 8.19336H6.56206V8.22299H6.58956V8.19336H6.62622V8.22299H6.65372V8.19336H6.69039V8.25262C6.69039 8.26447 6.68428 8.2704 6.67511 8.2704H6.54372C6.53886 8.2704 6.5342 8.26852 6.53076 8.26519C6.52732 8.26186 6.52539 8.25733 6.52539 8.25262V8.19336Z" fill="#FFFF00" stroke="black" stroke-width="0.0666669"/>
<path d="M6.75781 8.24038C6.75781 8.22261 6.78531 8.22261 6.78531 8.24038V8.28779H6.75781V8.24038Z" fill="black"/>
<path d="M6.5957 8.3063C6.5957 8.28852 6.62015 8.28852 6.62015 8.3063V8.34186H6.5957V8.3063Z" fill="black"/>
<path d="M6.5957 8.3063C6.5957 8.28852 6.62015 8.28852 6.62015 8.3063V8.34186H6.5957V8.3063Z" fill="black"/>
<path d="M9.68164 8.65021C9.67859 8.48725 9.55942 8.44873 9.55942 8.44873C9.55636 8.44873 9.42803 8.49021 9.42803 8.65318H9.68164" fill="#FFFF00"/>
<path d="M9.78607 8.45169L9.80746 8.63836H9.67913C9.67913 8.48429 9.5569 8.46058 9.5569 8.46058C9.55385 8.46058 9.43468 8.49317 9.43163 8.63836H9.30329L9.32774 8.44873H9.78607V8.45169ZM9.81663 8.64132H9.29718C9.28801 8.64132 9.27885 8.65021 9.27885 8.66206C9.27885 8.67688 9.28801 8.68577 9.29718 8.68577H9.81663C9.82579 8.68577 9.83496 8.67688 9.83496 8.66206C9.83496 8.65021 9.82579 8.64132 9.81357 8.64132H9.81663Z" fill="#FFFF00" stroke="black" stroke-width="0.0666669"/>
<path d="M9.62671 8.63789C9.62671 8.54012 9.55643 8.51345 9.55643 8.51345C9.55643 8.51345 9.48615 8.54308 9.48615 8.63789H9.62671ZM9.80393 8.37123H9.30588C9.29671 8.37123 9.28754 8.38308 9.28754 8.39493C9.28754 8.40382 9.29671 8.41271 9.30588 8.41271H9.80393C9.8131 8.41271 9.82227 8.40382 9.82227 8.39197C9.82227 8.38308 9.8131 8.37419 9.80393 8.37419V8.37123ZM9.79171 8.41567H9.32115C9.31199 8.41567 9.30282 8.42456 9.30282 8.43641C9.30282 8.44826 9.31199 8.45715 9.32115 8.45715H9.79477C9.80699 8.45715 9.8131 8.44826 9.8131 8.43641C9.8131 8.42456 9.80699 8.41567 9.79477 8.41567H9.79171ZM9.63893 8.1016H9.60227V8.1253H9.57477V8.1016H9.53504V8.12826H9.50754V8.09863H9.47088V8.15789C9.47088 8.16974 9.47699 8.17567 9.48615 8.17567H9.6206C9.62977 8.17567 9.63893 8.16974 9.63893 8.16085V8.1016ZM9.49838 8.1816L9.48921 8.37123H9.6206L9.61143 8.17863H9.49838" fill="#FFFF00"/>
<path d="M9.49838 8.1816L9.48921 8.37123H9.6206L9.61143 8.17863H9.49838M9.62671 8.63789C9.62671 8.54012 9.55643 8.51345 9.55643 8.51345C9.55643 8.51345 9.48615 8.54308 9.48615 8.63789H9.62671ZM9.80393 8.37123H9.30588C9.29671 8.37123 9.28754 8.38308 9.28754 8.39493C9.28754 8.40382 9.29671 8.41271 9.30588 8.41271H9.80393C9.8131 8.41271 9.82227 8.40382 9.82227 8.39197C9.82227 8.38308 9.8131 8.37419 9.80393 8.37419V8.37123ZM9.79171 8.41567H9.32115C9.31199 8.41567 9.30282 8.42456 9.30282 8.43641C9.30282 8.44826 9.31199 8.45715 9.32115 8.45715H9.79477C9.80699 8.45715 9.8131 8.44826 9.8131 8.43641C9.8131 8.42456 9.80699 8.41567 9.79477 8.41567H9.79171ZM9.63893 8.1016H9.60227V8.1253H9.57477V8.1016H9.53504V8.12826H9.50754V8.09863H9.47088V8.15789C9.47088 8.16974 9.47699 8.17567 9.48615 8.17567H9.6206C9.62977 8.17567 9.63893 8.16974 9.63893 8.16085V8.1016Z" stroke="black" stroke-width="0.0666669"/>
<path d="M9.65805 8.27051V8.37125H9.78027V8.27051H9.65805Z" fill="#FFFF00" stroke="black" stroke-width="0.0666669"/>
<path d="M9.65805 8.27051V8.37125H9.78027V8.27051H9.65805Z" fill="#FFFF00" stroke="black" stroke-width="0.0666669"/>
<path d="M9.80078 8.19336H9.76411V8.22299H9.73661V8.19336H9.69995V8.22299H9.67245V8.19336H9.63578V8.25262C9.63578 8.26447 9.64189 8.2704 9.65106 8.2704H9.78245C9.78731 8.2704 9.79197 8.26852 9.79541 8.26519C9.79885 8.26186 9.80078 8.25733 9.80078 8.25262V8.19336Z" fill="#FFFF00" stroke="black" stroke-width="0.0666669"/>
<path d="M9.80078 8.19336H9.76411V8.22299H9.73661V8.19336H9.69995V8.22299H9.67245V8.19336H9.63578V8.25262C9.63578 8.26447 9.64189 8.2704 9.65106 8.2704H9.78245C9.78731 8.2704 9.79197 8.26852 9.79541 8.26519C9.79885 8.26186 9.80078 8.25733 9.80078 8.25262V8.19336Z" fill="#FFFF00" stroke="black" stroke-width="0.0666669"/>
<path d="M9.56836 8.24038C9.56836 8.22261 9.54086 8.22261 9.54086 8.24038V8.28779H9.56836V8.24038Z" fill="black"/>
<path d="M9.73047 8.3063C9.73047 8.28852 9.70602 8.28852 9.70602 8.3063V8.34186H9.73047V8.3063Z" fill="black"/>
<path d="M9.73047 8.3063C9.73047 8.28852 9.70602 8.28852 9.70602 8.3063V8.34186H9.73047V8.3063Z" fill="black"/>
<path d="M9.68164 8.65021C9.67859 8.48725 9.55942 8.44873 9.55942 8.44873C9.55636 8.44873 9.42803 8.49021 9.42803 8.65318H9.68164" fill="#FFFF00"/>
<path d="M9.78607 8.45169L9.80746 8.63836H9.67913C9.67913 8.48429 9.5569 8.46058 9.5569 8.46058C9.55385 8.46058 9.43468 8.49317 9.43163 8.63836H9.30329L9.32774 8.44873H9.78607V8.45169ZM9.81663 8.64132H9.29718C9.28801 8.64132 9.27885 8.65021 9.27885 8.66206C9.27885 8.67688 9.28801 8.68577 9.29718 8.68577H9.81663C9.82579 8.68577 9.83496 8.67688 9.83496 8.66206C9.83496 8.65021 9.82579 8.64132 9.81357 8.64132H9.81663Z" fill="#FFFF00" stroke="black" stroke-width="0.0666669"/>
<path d="M9.62671 8.63789C9.62671 8.54012 9.55643 8.51345 9.55643 8.51345C9.55643 8.51345 9.48615 8.54308 9.48615 8.63789H9.62671ZM9.80393 8.37123H9.30588C9.29671 8.37123 9.28754 8.38308 9.28754 8.39493C9.28754 8.40382 9.29671 8.41271 9.30588 8.41271H9.80393C9.8131 8.41271 9.82227 8.40382 9.82227 8.39197C9.82227 8.38308 9.8131 8.37419 9.80393 8.37419V8.37123ZM9.79171 8.41567H9.32115C9.31199 8.41567 9.30282 8.42456 9.30282 8.43641C9.30282 8.44826 9.31199 8.45715 9.32115 8.45715H9.79477C9.80699 8.45715 9.8131 8.44826 9.8131 8.43641C9.8131 8.42456 9.80699 8.41567 9.79477 8.41567H9.79171ZM9.63893 8.1016H9.60227V8.1253H9.57477V8.1016H9.53504V8.12826H9.50754V8.09863H9.47088V8.15789C9.47088 8.16974 9.47699 8.17567 9.48615 8.17567H9.6206C9.62977 8.17567 9.63893 8.16974 9.63893 8.16085V8.1016ZM9.49838 8.1816L9.48921 8.37123H9.6206L9.61143 8.17863H9.49838" fill="#FFFF00"/>
<path d="M9.49838 8.1816L9.48921 8.37123H9.6206L9.61143 8.17863H9.49838M9.62671 8.63789C9.62671 8.54012 9.55643 8.51345 9.55643 8.51345C9.55643 8.51345 9.48615 8.54308 9.48615 8.63789H9.62671ZM9.80393 8.37123H9.30588C9.29671 8.37123 9.28754 8.38308 9.28754 8.39493C9.28754 8.40382 9.29671 8.41271 9.30588 8.41271H9.80393C9.8131 8.41271 9.82227 8.40382 9.82227 8.39197C9.82227 8.38308 9.8131 8.37419 9.80393 8.37419V8.37123ZM9.79171 8.41567H9.32115C9.31199 8.41567 9.30282 8.42456 9.30282 8.43641C9.30282 8.44826 9.31199 8.45715 9.32115 8.45715H9.79477C9.80699 8.45715 9.8131 8.44826 9.8131 8.43641C9.8131 8.42456 9.80699 8.41567 9.79477 8.41567H9.79171ZM9.63893 8.1016H9.60227V8.1253H9.57477V8.1016H9.53504V8.12826H9.50754V8.09863H9.47088V8.15789C9.47088 8.16974 9.47699 8.17567 9.48615 8.17567H9.6206C9.62977 8.17567 9.63893 8.16974 9.63893 8.16085V8.1016Z" stroke="black" stroke-width="0.0666669"/>
<path d="M9.65805 8.27051V8.37125H9.78027V8.27051H9.65805Z" fill="#FFFF00" stroke="black" stroke-width="0.0666669"/>
<path d="M9.65805 8.27051V8.37125H9.78027V8.27051H9.65805Z" fill="#FFFF00" stroke="black" stroke-width="0.0666669"/>
<path d="M9.80078 8.19336H9.76411V8.22299H9.73661V8.19336H9.69995V8.22299H9.67245V8.19336H9.63578V8.25262C9.63578 8.26447 9.64189 8.2704 9.65106 8.2704H9.78245C9.78731 8.2704 9.79197 8.26852 9.79541 8.26519C9.79885 8.26186 9.80078 8.25733 9.80078 8.25262V8.19336Z" fill="#FFFF00" stroke="black" stroke-width="0.0666669"/>
<path d="M9.80078 8.19336H9.76411V8.22299H9.73661V8.19336H9.69995V8.22299H9.67245V8.19336H9.63578V8.25262C9.63578 8.26447 9.64189 8.2704 9.65106 8.2704H9.78245C9.78731 8.2704 9.79197 8.26852 9.79541 8.26519C9.79885 8.26186 9.80078 8.25733 9.80078 8.25262V8.19336Z" fill="#FFFF00" stroke="black" stroke-width="0.0666669"/>
<path d="M9.56836 8.24038C9.56836 8.22261 9.54086 8.22261 9.54086 8.24038V8.28779H9.56836V8.24038Z" fill="black"/>
<path d="M9.73047 8.3063C9.73047 8.28852 9.70602 8.28852 9.70602 8.3063V8.34186H9.73047V8.3063Z" fill="black"/>
<path d="M9.73047 8.3063C9.73047 8.28852 9.70602 8.28852 9.70602 8.3063V8.34186H9.73047V8.3063Z" fill="black"/>
<path d="M9.13073 11.4507C9.24795 11.3337 9.19227 11.2246 9.19227 11.2246C9.19012 11.2225 9.06939 11.1635 8.95002 11.2785L9.12856 11.4528" fill="#FFFF00"/>
<path d="M9.34914 11.3825L9.22743 11.529L9.13705 11.4407C9.24995 11.332 9.18125 11.2312 9.18125 11.2312C9.1791 11.2291 9.0713 11.1702 8.96276 11.2705L8.87239 11.1823L9.02855 11.0653L9.35131 11.3804L9.34914 11.3825ZM9.23171 11.5373L8.86591 11.1801C8.85946 11.1738 8.84649 11.1738 8.8378 11.1822C8.82695 11.1926 8.82689 11.2052 8.83335 11.2115L9.19915 11.5687C9.2056 11.575 9.21857 11.575 9.22942 11.5646C9.23811 11.5562 9.23817 11.5437 9.22956 11.5352L9.23171 11.5373Z" fill="#FFFF00" stroke="black" stroke-width="0.0666669"/>
<path d="M9.10017 11.4051C9.17179 11.3361 9.14185 11.269 9.14185 11.269C9.14185 11.269 9.07068 11.2416 9.00123 11.3085L9.10017 11.4051ZM9.42024 11.3388L9.06965 10.9965C9.0632 10.9902 9.04807 10.9922 9.03939 11.0006C9.03288 11.0068 9.03282 11.0194 9.03927 11.0257L9.38986 11.3681C9.39631 11.3744 9.40928 11.3744 9.41796 11.3661C9.42447 11.3598 9.42453 11.3472 9.41807 11.3409L9.42024 11.3388ZM9.37909 11.3618L9.04785 11.0383C9.0414 11.032 9.02844 11.032 9.01976 11.0403C9.01108 11.0487 9.01102 11.0613 9.01747 11.0676L9.35085 11.3931C9.35946 11.4015 9.37027 11.3995 9.37895 11.3911C9.38763 11.3828 9.38984 11.3723 9.38124 11.3639L9.37909 11.3618ZM9.50159 11.0352L9.47578 11.01L9.45842 11.0268L9.43906 11.0079L9.45642 10.9911L9.42846 10.9638L9.40893 10.9826L9.38957 10.9637L9.41127 10.9428L9.38546 10.9176L9.34206 10.9594C9.33338 10.9678 9.33334 10.9762 9.33979 10.9825L9.43443 11.0749C9.44088 11.0812 9.45168 11.0833 9.45819 11.077L9.50159 11.0352ZM9.34405 10.995L9.19871 11.1225L9.29119 11.2128L9.42581 11.0707L9.34623 10.993" fill="#FFFF00"/>
<path d="M9.34405 10.995L9.19871 11.1225L9.29119 11.2128L9.42581 11.0707L9.34623 10.993M9.10017 11.4051C9.17179 11.3361 9.14185 11.269 9.14185 11.269C9.14185 11.269 9.07068 11.2416 9.00123 11.3085L9.10017 11.4051ZM9.42024 11.3388L9.06965 10.9965C9.0632 10.9902 9.04807 10.9922 9.03939 11.0006C9.03288 11.0068 9.03282 11.0194 9.03927 11.0257L9.38986 11.3681C9.39631 11.3744 9.40928 11.3744 9.41796 11.3661C9.42447 11.3598 9.42453 11.3472 9.41807 11.3409L9.42024 11.3388ZM9.37909 11.3618L9.04785 11.0383C9.0414 11.032 9.02844 11.032 9.01976 11.0403C9.01108 11.0487 9.01102 11.0613 9.01747 11.0676L9.35085 11.3931C9.35946 11.4015 9.37027 11.3995 9.37895 11.3911C9.38763 11.3827 9.38984 11.3723 9.38124 11.3639L9.37909 11.3618ZM9.50159 11.0352L9.47578 11.01L9.45842 11.0268L9.43906 11.0079L9.45642 10.9911L9.42846 10.9638L9.40893 10.9826L9.38957 10.9637L9.41127 10.9428L9.38546 10.9176L9.34206 10.9594C9.33338 10.9678 9.33334 10.9762 9.33979 10.9825L9.43443 11.0749C9.44088 11.0812 9.45168 11.0833 9.45819 11.077L9.50159 11.0352Z" stroke="black" stroke-width="0.0666669"/>
<path d="M9.39052 11.167L9.31672 11.238L9.40277 11.322L9.47656 11.251L9.39052 11.167Z" fill="#FFFF00" stroke="black" stroke-width="0.0666669"/>
<path d="M9.39052 11.167L9.31672 11.238L9.40277 11.322L9.47656 11.251L9.39052 11.167Z" fill="#FFFF00" stroke="black" stroke-width="0.0666669"/>
<path d="M9.54883 11.2114L9.52301 11.1862L9.5013 11.2071L9.48193 11.1882L9.50364 11.1673L9.47782 11.1421L9.45611 11.163L9.43675 11.1441L9.45846 11.1232L9.43264 11.098L9.38922 11.1398C9.38053 11.1481 9.38049 11.1565 9.38695 11.1628L9.47947 11.2532C9.4829 11.2565 9.48755 11.2584 9.49242 11.2584C9.49728 11.2584 9.50195 11.2566 9.50541 11.2532L9.54883 11.2114Z" fill="#FFFF00" stroke="black" stroke-width="0.0666669"/>
<path d="M9.54883 11.2114L9.52301 11.1862L9.5013 11.2071L9.48193 11.1882L9.50364 11.1673L9.47782 11.1421L9.45611 11.163L9.43675 11.1441L9.45846 11.1232L9.43264 11.098L9.38922 11.1398C9.38053 11.1481 9.38049 11.1565 9.38695 11.1628L9.47947 11.2532C9.4829 11.2565 9.48755 11.2584 9.49242 11.2584C9.49728 11.2584 9.50195 11.2566 9.50541 11.2532L9.54883 11.2114Z" fill="#FFFF00" stroke="black" stroke-width="0.0666669"/>
<path d="M9.34961 11.0851C9.36263 11.0726 9.34328 11.0537 9.33026 11.0662L9.29555 11.0996L9.3149 11.1185L9.34961 11.0851Z" fill="black"/>
<path d="M9.41602 11.2428C9.42904 11.2303 9.41183 11.2135 9.39882 11.226L9.37278 11.2511L9.38998 11.2679L9.41602 11.2428Z" fill="black"/>
<path d="M9.41602 11.2428C9.42904 11.2303 9.41183 11.2135 9.39882 11.226L9.37278 11.2511L9.38998 11.2679L9.41602 11.2428Z" fill="black"/>
<path d="M7.94044 10.072C7.93989 10.1345 7.96392 10.1949 8.00766 10.2408C8.02807 10.263 8.05301 10.2807 8.0809 10.293C8.10878 10.3052 8.139 10.3117 8.16961 10.312C8.23377 10.312 8.29183 10.2823 8.33155 10.2408C8.37529 10.1949 8.39933 10.1345 8.39877 10.072V9.75195H7.94044V10.072Z" fill="#003399"/>
<path d="M8.04779 9.91799C8.0731 9.91799 8.09362 9.89809 8.09362 9.87355C8.09362 9.849 8.0731 9.8291 8.04779 9.8291C8.02247 9.8291 8.00195 9.849 8.00195 9.87355C8.00195 9.89809 8.02247 9.91799 8.04779 9.91799Z" fill="white"/>
<path d="M8.30169 9.91799C8.32701 9.91799 8.34753 9.89809 8.34753 9.87355C8.34753 9.849 8.32701 9.8291 8.30169 9.8291C8.27638 9.8291 8.25586 9.849 8.25586 9.87355C8.25586 9.89809 8.27638 9.91799 8.30169 9.91799Z" fill="white"/>
<path d="M8.17279 10.0366C8.1981 10.0366 8.21862 10.0167 8.21862 9.9922C8.21862 9.96765 8.1981 9.94775 8.17279 9.94775C8.14747 9.94775 8.12695 9.96765 8.12695 9.9922C8.12695 10.0167 8.14747 10.0366 8.17279 10.0366Z" fill="white"/>
<path d="M8.04779 10.1607C8.0731 10.1607 8.09362 10.1408 8.09362 10.1162C8.09362 10.0917 8.0731 10.0718 8.04779 10.0718C8.02247 10.0718 8.00195 10.0917 8.00195 10.1162C8.00195 10.1408 8.02247 10.1607 8.04779 10.1607Z" fill="white"/>
<path d="M8.30169 10.1607C8.32701 10.1607 8.34753 10.1408 8.34753 10.1162C8.34753 10.0917 8.32701 10.0718 8.30169 10.0718C8.27638 10.0718 8.25586 10.0917 8.25586 10.1162C8.25586 10.1408 8.27638 10.1607 8.30169 10.1607Z" fill="white"/>
<path d="M7.94044 10.072C7.93989 10.1345 7.96392 10.1949 8.00766 10.2408C8.02807 10.263 8.05301 10.2807 8.0809 10.293C8.10878 10.3052 8.139 10.3117 8.16961 10.312C8.23377 10.312 8.29183 10.2823 8.33155 10.2408C8.37529 10.1949 8.39933 10.1345 8.39877 10.072V9.75195H7.94044V10.072Z" fill="#003399"/>
<path d="M8.04779 9.91799C8.0731 9.91799 8.09362 9.89809 8.09362 9.87355C8.09362 9.849 8.0731 9.8291 8.04779 9.8291C8.02247 9.8291 8.00195 9.849 8.00195 9.87355C8.00195 9.89809 8.02247 9.91799 8.04779 9.91799Z" fill="white"/>
<path d="M8.30169 9.91799C8.32701 9.91799 8.34753 9.89809 8.34753 9.87355C8.34753 9.849 8.32701 9.8291 8.30169 9.8291C8.27638 9.8291 8.25586 9.849 8.25586 9.87355C8.25586 9.89809 8.27638 9.91799 8.30169 9.91799Z" fill="white"/>
<path d="M8.17279 10.0366C8.1981 10.0366 8.21862 10.0167 8.21862 9.9922C8.21862 9.96765 8.1981 9.94775 8.17279 9.94775C8.14747 9.94775 8.12695 9.96765 8.12695 9.9922C8.12695 10.0167 8.14747 10.0366 8.17279 10.0366Z" fill="white"/>
<path d="M8.04779 10.1607C8.0731 10.1607 8.09362 10.1408 8.09362 10.1162C8.09362 10.0917 8.0731 10.0718 8.04779 10.0718C8.02247 10.0718 8.00195 10.0917 8.00195 10.1162C8.00195 10.1408 8.02247 10.1607 8.04779 10.1607Z" fill="white"/>
<path d="M8.30169 10.1607C8.32701 10.1607 8.34753 10.1408 8.34753 10.1162C8.34753 10.0917 8.32701 10.0718 8.30169 10.0718C8.27638 10.0718 8.25586 10.0917 8.25586 10.1162C8.25586 10.1408 8.27638 10.1607 8.30169 10.1607Z" fill="white"/>
<path d="M7.94044 10.072C7.93989 10.1345 7.96392 10.1949 8.00766 10.2408C8.02807 10.263 8.05301 10.2807 8.0809 10.293C8.10878 10.3052 8.139 10.3117 8.16961 10.312C8.23377 10.312 8.29183 10.2823 8.33155 10.2408C8.37529 10.1949 8.39933 10.1345 8.39877 10.072V9.75195H7.94044V10.072Z" fill="#003399"/>
<path d="M8.04779 9.91799C8.0731 9.91799 8.09362 9.89809 8.09362 9.87355C8.09362 9.849 8.0731 9.8291 8.04779 9.8291C8.02247 9.8291 8.00195 9.849 8.00195 9.87355C8.00195 9.89809 8.02247 9.91799 8.04779 9.91799Z" fill="white"/>
<path d="M8.30169 9.91799C8.32701 9.91799 8.34753 9.89809 8.34753 9.87355C8.34753 9.849 8.32701 9.8291 8.30169 9.8291C8.27638 9.8291 8.25586 9.849 8.25586 9.87355C8.25586 9.89809 8.27638 9.91799 8.30169 9.91799Z" fill="white"/>
<path d="M8.17279 10.0366C8.1981 10.0366 8.21862 10.0167 8.21862 9.9922C8.21862 9.96765 8.1981 9.94775 8.17279 9.94775C8.14747 9.94775 8.12695 9.96765 8.12695 9.9922C8.12695 10.0167 8.14747 10.0366 8.17279 10.0366Z" fill="white"/>
<path d="M8.04779 10.1607C8.0731 10.1607 8.09362 10.1408 8.09362 10.1162C8.09362 10.0917 8.0731 10.0718 8.04779 10.0718C8.02247 10.0718 8.00195 10.0917 8.00195 10.1162C8.00195 10.1408 8.02247 10.1607 8.04779 10.1607Z" fill="white"/>
<path d="M8.30169 10.1607C8.32701 10.1607 8.34753 10.1408 8.34753 10.1162C8.34753 10.0917 8.32701 10.0718 8.30169 10.0718C8.27638 10.0718 8.25586 10.0917 8.25586 10.1162C8.25586 10.1408 8.27638 10.1607 8.30169 10.1607Z" fill="white"/>
<path d="M7.94044 10.072C7.93989 10.1345 7.96392 10.1949 8.00766 10.2408C8.02807 10.263 8.05301 10.2807 8.0809 10.293C8.10878 10.3052 8.139 10.3117 8.16961 10.312C8.23377 10.312 8.29183 10.2823 8.33155 10.2408C8.37529 10.1949 8.39933 10.1345 8.39877 10.072V9.75195H7.94044V10.072Z" fill="#003399"/>
<path d="M8.04779 9.91799C8.0731 9.91799 8.09362 9.89809 8.09362 9.87355C8.09362 9.849 8.0731 9.8291 8.04779 9.8291C8.02247 9.8291 8.00195 9.849 8.00195 9.87355C8.00195 9.89809 8.02247 9.91799 8.04779 9.91799Z" fill="white"/>
<path d="M8.30169 9.91799C8.32701 9.91799 8.34753 9.89809 8.34753 9.87355C8.34753 9.849 8.32701 9.8291 8.30169 9.8291C8.27638 9.8291 8.25586 9.849 8.25586 9.87355C8.25586 9.89809 8.27638 9.91799 8.30169 9.91799Z" fill="white"/>
<path d="M8.17279 10.0366C8.1981 10.0366 8.21862 10.0167 8.21862 9.9922C8.21862 9.96765 8.1981 9.94775 8.17279 9.94775C8.14747 9.94775 8.12695 9.96765 8.12695 9.9922C8.12695 10.0167 8.14747 10.0366 8.17279 10.0366Z" fill="white"/>
<path d="M8.04779 10.1607C8.0731 10.1607 8.09362 10.1408 8.09362 10.1162C8.09362 10.0917 8.0731 10.0718 8.04779 10.0718C8.02247 10.0718 8.00195 10.0917 8.00195 10.1162C8.00195 10.1408 8.02247 10.1607 8.04779 10.1607Z" fill="white"/>
<path d="M8.30169 10.1607C8.32701 10.1607 8.34753 10.1408 8.34753 10.1162C8.34753 10.0917 8.32701 10.0718 8.30169 10.0718C8.27638 10.0718 8.25586 10.0917 8.25586 10.1162C8.25586 10.1408 8.27638 10.1607 8.30169 10.1607Z" fill="white"/>
<path d="M7.94044 10.072C7.93989 10.1345 7.96392 10.1949 8.00766 10.2408C8.02807 10.263 8.05301 10.2807 8.0809 10.293C8.10878 10.3052 8.139 10.3117 8.16961 10.312C8.23377 10.312 8.29183 10.2823 8.33155 10.2408C8.37529 10.1949 8.39933 10.1345 8.39877 10.072V9.75195H7.94044V10.072Z" fill="#003399"/>
<path d="M8.04779 9.91799C8.0731 9.91799 8.09362 9.89809 8.09362 9.87355C8.09362 9.849 8.0731 9.8291 8.04779 9.8291C8.02247 9.8291 8.00195 9.849 8.00195 9.87355C8.00195 9.89809 8.02247 9.91799 8.04779 9.91799Z" fill="white"/>
<path d="M8.30169 9.91799C8.32701 9.91799 8.34753 9.89809 8.34753 9.87355C8.34753 9.849 8.32701 9.8291 8.30169 9.8291C8.27638 9.8291 8.25586 9.849 8.25586 9.87355C8.25586 9.89809 8.27638 9.91799 8.30169 9.91799Z" fill="white"/>
<path d="M8.17279 10.0366C8.1981 10.0366 8.21862 10.0167 8.21862 9.9922C8.21862 9.96765 8.1981 9.94775 8.17279 9.94775C8.14747 9.94775 8.12695 9.96765 8.12695 9.9922C8.12695 10.0167 8.14747 10.0366 8.17279 10.0366Z" fill="white"/>
<path d="M8.04779 10.1607C8.0731 10.1607 8.09362 10.1408 8.09362 10.1162C8.09362 10.0917 8.0731 10.0718 8.04779 10.0718C8.02247 10.0718 8.00195 10.0917 8.00195 10.1162C8.00195 10.1408 8.02247 10.1607 8.04779 10.1607Z" fill="white"/>
<path d="M8.30169 10.1607C8.32701 10.1607 8.34753 10.1408 8.34753 10.1162C8.34753 10.0917 8.32701 10.0718 8.30169 10.0718C8.27638 10.0718 8.25586 10.0917 8.25586 10.1162C8.25586 10.1408 8.27638 10.1607 8.30169 10.1607Z" fill="white"/>
</svg>
