<svg width="32" height="32" viewBox="0 0 32 32" fill="none" xmlns="http://www.w3.org/2000/svg">
<rect width="32" height="32" rx="6" fill="#34A98F"/>
<path d="M20 7.60001C19.7791 7.60001 19.6 7.7791 19.6 8.00001C19.6 8.22093 19.7791 8.40001 20 8.40001V7.60001ZM22 8.00001V7.60001V8.00001ZM8 24H7.6H8ZM10 8.00001V7.60001V8.00001ZM12 8.40001C12.2209 8.40001 12.4 8.22093 12.4 8.00001C12.4 7.7791 12.2209 7.60001 12 7.60001V8.40001ZM20 8.40001H22V7.60001H20V8.40001ZM22 8.40001C22.4243 8.40001 22.8313 8.56858 23.1314 8.86864L23.6971 8.30296C23.247 7.85287 22.6365 7.60001 22 7.60001V8.40001ZM23.1314 8.86864C23.4314 9.1687 23.6 9.57567 23.6 10H24.4C24.4 9.36349 24.1471 8.75304 23.6971 8.30296L23.1314 8.86864ZM23.6 10V24H24.4V10H23.6ZM23.6 24C23.6 24.4243 23.4314 24.8313 23.1314 25.1314L23.6971 25.6971C24.1471 25.247 24.4 24.6365 24.4 24H23.6ZM23.1314 25.1314C22.8313 25.4314 22.4243 25.6 22 25.6V26.4C22.6365 26.4 23.247 26.1471 23.6971 25.6971L23.1314 25.1314ZM22 25.6H10V26.4H22V25.6ZM10 25.6C9.57565 25.6 9.16869 25.4314 8.86863 25.1314L8.30294 25.6971C8.75303 26.1471 9.36348 26.4 10 26.4V25.6ZM8.86863 25.1314C8.56857 24.8313 8.4 24.4243 8.4 24H7.6C7.6 24.6365 7.85286 25.247 8.30294 25.6971L8.86863 25.1314ZM8.4 24V10H7.6V24H8.4ZM8.4 10C8.4 9.57567 8.56857 9.1687 8.86863 8.86864L8.30294 8.30296C7.85286 8.75304 7.6 9.36349 7.6 10H8.4ZM8.86863 8.86864C9.16869 8.56858 9.57565 8.40001 10 8.40001V7.60001C9.36348 7.60001 8.75303 7.85287 8.30294 8.30296L8.86863 8.86864ZM10 8.40001H12V7.60001H10V8.40001ZM13.0007 6.4H19.0007V5.6H13.0007V6.4ZM19.0007 6.4C19.332 6.4 19.6007 6.66863 19.6007 7H20.4007C20.4007 6.2268 19.7738 5.6 19.0007 5.6V6.4ZM19.6007 7V9H20.4007V7H19.6007ZM19.6007 9C19.6007 9.33137 19.332 9.6 19.0007 9.6V10.4C19.7738 10.4 20.4007 9.7732 20.4007 9H19.6007ZM19.0007 9.6H13.0007V10.4H19.0007V9.6ZM13.0007 9.6C12.6693 9.6 12.4007 9.33137 12.4007 9H11.6007C11.6007 9.7732 12.2275 10.4 13.0007 10.4V9.6ZM12.4007 9V7H11.6007V9H12.4007ZM12.4007 7C12.4007 6.66863 12.6693 6.4 13.0007 6.4V5.6C12.2275 5.6 11.6007 6.2268 11.6007 7H12.4007ZM9.26573 13.5524H16.7657V12.7524H9.26573V13.5524ZM9.26573 17.0523H14.7657V16.2523H9.26573V17.0523ZM9.26573 21.0523H12.7657V20.2523H9.26573V21.0523Z" fill="white"/>
</svg>
