<svg width="32" height="32" viewBox="0 0 32 32" fill="none" xmlns="http://www.w3.org/2000/svg">
<rect width="32" height="32" rx="6" fill="#34A98F"/>
<path d="M13.2314 20.3607C13.8361 21.1637 14.5321 21.9609 15.3228 22.7405C15.6825 23.0952 16.2498 23.113 16.6272 22.7774C17.4894 22.0108 18.2436 21.1983 18.8918 20.3607M13.2314 20.3607C7.98519 13.3944 9.61364 5.99999 15.9587 5.99999C22.5937 5.99999 23.8748 13.922 18.8918 20.3607M13.2314 20.3607H10.3013C9.87019 20.3607 9.48543 20.6333 9.3393 21.0423L8.06117 24.6194C7.82107 25.2914 8.31482 26 9.02312 26H22.9762C23.7033 26 24.1981 25.2563 23.9223 24.5778L22.4682 21.0007C22.3108 20.6136 21.937 20.3607 21.5221 20.3607H18.8918M18.8352 12.0663C18.8352 13.652 17.5604 14.9374 15.9879 14.9374C14.4154 14.9374 13.1407 13.652 13.1407 12.0663C13.1407 10.4805 14.4154 9.19508 15.9879 9.19508C17.5604 9.19508 18.8352 10.4805 18.8352 12.0663Z" stroke="white" stroke-width="0.8"/>
</svg>
