<svg width="32" height="32" viewBox="0 0 32 32" fill="none" xmlns="http://www.w3.org/2000/svg">
<rect width="32" height="32" rx="6" fill="#34A98F"/>
<circle cx="20" cy="16" r="0.5" stroke="white"/>
<circle cx="16" cy="16" r="0.5" stroke="white"/>
<circle cx="12" cy="16" r="0.5" stroke="white"/>
<path d="M16.0236 26C21.5334 26 26 21.5228 26 16C26 10.4771 21.5334 6 16.0236 6C10.5137 6 6.04715 10.4771 6.04715 16C6.04715 17.5997 6.42188 19.1116 7.08815 20.4525C7.26521 20.8088 7.32414 21.2161 7.22149 21.6006L6.62729 23.8267C5.62813 26.175 5.59821 26.13 8.21537 25.4185L10.4362 24.8229C10.8198 24.72 11.2261 24.7791 11.5816 24.9565C12.9193 25.6244 14.4276 26 16.0236 26Z" stroke="white" stroke-width="0.8"/>
</svg>
