<svg width="32" height="32" viewBox="0 0 32 32" fill="none" xmlns="http://www.w3.org/2000/svg">
<rect width="32" height="32" rx="6" fill="#34A98F"/>
<path d="M9.24667 19.9034L8.84667 19.9037V19.9037L9.24667 19.9034ZM9.44951 7.01197L9.80561 7.19417L9.80561 7.19416L9.44951 7.01197ZM10.2628 6.20205L10.4438 6.55876L10.4438 6.55876L10.2628 6.20205ZM24.9835 6.20205L24.8025 6.55875L24.8025 6.55876L24.9835 6.20205ZM25.7973 7.01197L25.4412 7.19413L25.4412 7.19419L25.7973 7.01197ZM9.44951 21.6712L9.09341 21.8534L9.09342 21.8534L9.44951 21.6712ZM10.2628 22.4821L10.4438 22.1254L10.4438 22.1253L10.2628 22.4821ZM24.9835 22.4821L24.8026 22.1253L24.8025 22.1254L24.9835 22.4821ZM25.7973 21.6712L25.4412 21.489L25.4412 21.4891L25.7973 21.6712ZM13.6844 14.7475L13.3935 14.4729C13.3893 14.4774 13.3852 14.4819 13.3812 14.4865L13.6844 14.7475ZM13.6857 14.7461L13.9766 15.0206C13.9808 15.0162 13.9849 15.0116 13.9889 15.007L13.6857 14.7461ZM14.5102 13.9771L14.3771 13.5999L14.377 13.6L14.5102 13.9771ZM15.1442 13.9817L15.2827 13.6064L15.2826 13.6064L15.1442 13.9817ZM15.959 14.7629L16.2658 14.5062L15.959 14.7629ZM18.4453 17.7339L18.752 17.4772L18.752 17.4772L18.4453 17.7339ZM19.2043 18.4656L19.0573 18.8376L19.0574 18.8377L19.2043 18.4656ZM19.8107 18.4919L19.6979 18.1081L19.6978 18.1082L19.8107 18.4919ZM20.6378 17.8277L20.9201 18.1111H20.9201L20.6378 17.8277ZM21.1004 17.367L20.8181 17.0836H20.8181L21.1004 17.367ZM21.9417 16.6926L21.8313 16.3082L21.8311 16.3082L21.9417 16.6926ZM22.5551 16.727L22.7073 16.3571L22.7071 16.357L22.5551 16.727ZM23.3164 17.4892L23.6282 17.2387L23.6282 17.2387L23.3164 17.4892ZM25.6884 21.0807C25.827 21.2527 26.0788 21.2799 26.2509 21.1414C26.4229 21.0028 26.4501 20.751 26.3116 20.5789L25.6884 21.0807ZM9.24662 8.93679H8V9.73679H9.24662V8.93679ZM5.6 11.3368V24H6.4V11.3368H5.6ZM8 26.4H20.6077V25.6H8V26.4ZM23.0077 24V22.6839H22.2077V24H23.0077ZM20.6077 26.4C21.9332 26.4 23.0077 25.3255 23.0077 24H22.2077C22.2077 24.8837 21.4914 25.6 20.6077 25.6V26.4ZM5.6 24C5.6 25.3255 6.67452 26.4 8 26.4V25.6C7.11634 25.6 6.4 24.8837 6.4 24H5.6ZM8 8.93679C6.67452 8.93679 5.6 10.0113 5.6 11.3368H6.4C6.4 10.4531 7.11634 9.73679 8 9.73679V8.93679ZM9.64667 19.9031C9.64662 19.8434 9.64662 19.7818 9.64662 19.7181H8.84662C8.84662 19.7817 8.84662 19.8436 8.84667 19.9037L9.64667 19.9031ZM9.64662 19.7181V8.96622H8.84662V19.7181H9.64662ZM9.64662 8.96622C9.64662 8.44049 9.64693 8.07024 9.67064 7.78117C9.69397 7.49678 9.73791 7.32648 9.80561 7.19417L9.09342 6.82977C8.95822 7.094 8.90072 7.38172 8.87332 7.71577C8.84631 8.04513 8.84662 8.45374 8.84662 8.96622H9.64662ZM9.80561 7.19416C9.9455 6.92075 10.1687 6.69836 10.4438 6.55876L10.0818 5.84534C9.65641 6.06119 9.31045 6.40557 9.09341 6.82979L9.80561 7.19416ZM10.4438 6.55876C10.5772 6.49105 10.7489 6.4472 11.0348 6.42394C11.3253 6.40031 11.6973 6.4 12.2252 6.4V5.6C11.7105 5.6 11.3004 5.59969 10.9699 5.62657C10.6349 5.65383 10.3466 5.711 10.0818 5.84535L10.4438 6.55876ZM12.2252 6.4H23.0218V5.6H12.2252V6.4ZM23.0218 6.4C23.5496 6.4 23.9215 6.40031 24.2119 6.42394C24.4976 6.44719 24.6691 6.49103 24.8025 6.55875L25.1645 5.84535C24.8998 5.71102 24.6117 5.65383 24.2768 5.62657C23.9464 5.59969 23.5365 5.6 23.0218 5.6V6.4ZM24.8025 6.55876C25.0779 6.69848 25.3015 6.92098 25.4412 7.19413L26.1534 6.82982C25.9363 6.40534 25.5897 6.06107 25.1645 5.84535L24.8025 6.55876ZM25.4412 7.19419C25.5088 7.32632 25.5527 7.49637 25.576 7.78028C25.5997 8.06888 25.6 8.43845 25.6 8.96317H26.4C26.4 8.4517 26.4003 8.04375 26.3733 7.71484C26.3459 7.38123 26.2885 7.09378 26.1534 6.82976L25.4412 7.19419ZM25.6 8.96317V19.7208H26.4V8.96317H25.6ZM25.6 19.7208C25.6 20.1747 25.5998 20.5134 25.5841 20.7862L26.3828 20.8323C26.4002 20.5313 26.4 20.166 26.4 19.7208H25.6ZM8.84667 19.9037C8.84702 20.3576 8.84981 20.7261 8.87875 21.0292C8.90814 21.3371 8.96648 21.6053 9.09341 21.8534L9.80561 21.489C9.74209 21.3649 9.69938 21.2072 9.67513 20.9532C9.65044 20.6945 9.64703 20.3652 9.64667 19.9031L8.84667 19.9037ZM9.09342 21.8534C9.31023 22.2772 9.65597 22.6227 10.0818 22.8388L10.4438 22.1253C10.1691 21.986 9.94572 21.7629 9.80561 21.489L9.09342 21.8534ZM10.0818 22.8388C10.3463 22.973 10.6344 23.0301 10.969 23.0574C11.299 23.0842 11.7084 23.0839 12.2221 23.0839V22.2839C11.6953 22.2839 11.324 22.2836 11.0339 22.26C10.7485 22.2368 10.5771 22.193 10.4438 22.1254L10.0818 22.8388ZM12.2221 23.0839H23.025V22.2839H12.2221V23.0839ZM23.025 23.0839C23.5386 23.0839 23.9479 23.0842 24.2777 23.0574C24.6122 23.0301 24.9 22.973 25.1646 22.8388L24.8025 22.1254C24.6692 22.193 24.498 22.2368 24.2128 22.26C23.9229 22.2836 23.5518 22.2839 23.025 22.2839V23.0839ZM25.1645 22.8388C25.5901 22.6229 25.9365 22.2774 26.1534 21.8534L25.4412 21.4891C25.3012 21.7626 25.0774 21.9859 24.8026 22.1253L25.1645 22.8388ZM26.1534 21.8534C26.306 21.5552 26.3601 21.2258 26.3828 20.8323L25.5841 20.7862C25.5636 21.1414 25.5181 21.3387 25.4412 21.489L26.1534 21.8534ZM9.54983 20.1643L13.9876 15.0084L13.3812 14.4865L8.9435 19.6424L9.54983 20.1643ZM13.9753 15.022L13.9766 15.0206L13.3948 14.4715L13.3935 14.4729L13.9753 15.022ZM13.9889 15.007C14.1903 14.773 14.325 14.617 14.4374 14.5072C14.5471 14.4001 14.6057 14.3677 14.6434 14.3543L14.377 13.6C14.181 13.6692 14.0241 13.7926 13.8784 13.935C13.7354 14.0746 13.5747 14.2619 13.3825 14.4852L13.9889 15.007ZM14.6433 14.3543C14.7606 14.3129 14.8888 14.3139 15.0058 14.357L15.2826 13.6064C14.9908 13.4988 14.6706 13.4964 14.3771 13.5999L14.6433 14.3543ZM15.0058 14.357C15.0436 14.3709 15.1018 14.4042 15.2101 14.5129C15.3211 14.6244 15.4538 14.7823 15.6523 15.0196L16.2658 14.5062C16.0764 14.2798 15.9181 14.0901 15.7769 13.9484C15.633 13.8039 15.4777 13.6784 15.2827 13.6064L15.0058 14.357ZM15.6523 15.0196L18.1385 17.9906L18.752 17.4772L16.2658 14.5062L15.6523 15.0196ZM18.1385 17.9906C18.3137 18.1999 18.4611 18.3766 18.5932 18.5099C18.7283 18.6461 18.8741 18.7652 19.0573 18.8376L19.3513 18.0936C19.3152 18.0793 19.261 18.0472 19.1612 17.9466C19.0585 17.8429 18.936 17.6971 18.752 17.4772L18.1385 17.9906ZM19.0574 18.8377C19.335 18.9472 19.6398 18.9591 19.9235 18.8757L19.6978 18.1082C19.5824 18.1421 19.4605 18.1367 19.3511 18.0935L19.0574 18.8377ZM19.9234 18.8757C20.1129 18.82 20.2692 18.7144 20.4168 18.5903C20.5612 18.469 20.725 18.3054 20.9201 18.1111L20.3555 17.5443C20.1507 17.7483 20.0145 17.8834 19.9021 17.9779C19.7929 18.0697 19.7356 18.097 19.6979 18.1081L19.9234 18.8757ZM20.9201 18.1111L21.3826 17.6505L20.8181 17.0836L20.3555 17.5443L20.9201 18.1111ZM21.3826 17.6505C21.5911 17.4428 21.7299 17.3051 21.8445 17.209C21.9558 17.1156 22.0141 17.088 22.0522 17.0771L21.8311 16.3082C21.6388 16.3635 21.4801 16.4704 21.3302 16.5962C21.1834 16.7194 21.0168 16.8857 20.8181 17.0836L21.3826 17.6505ZM22.0521 17.0771C22.1671 17.0441 22.291 17.051 22.4031 17.097L22.7071 16.357C22.4298 16.2431 22.121 16.225 21.8313 16.3082L22.0521 17.0771ZM22.403 17.097C22.4398 17.1121 22.4946 17.1459 22.5947 17.2507C22.6978 17.3586 22.8204 17.5105 23.0046 17.7397L23.6282 17.2387C23.4526 17.0201 23.3055 16.8366 23.1733 16.6981C23.0381 16.5566 22.8922 16.4332 22.7073 16.3571L22.403 17.097ZM23.0045 17.7397L25.6716 21.0597L26.2953 20.5587L23.6282 17.2387L23.0045 17.7397ZM25.6719 21.0601L25.6884 21.0807L26.3116 20.5789L26.295 20.5584L25.6719 21.0601ZM20.4155 11.1613C20.1208 11.1613 19.8848 10.9239 19.8848 10.6344H19.0848C19.0848 11.3688 19.6821 11.9613 20.4155 11.9613V11.1613ZM19.8848 10.6344C19.8848 10.345 20.1208 10.1075 20.4155 10.1075V9.30754C19.6821 9.30754 19.0848 9.90005 19.0848 10.6344H19.8848ZM20.4155 10.1075C20.7102 10.1075 20.9463 10.345 20.9463 10.6344H21.7463C21.7463 9.90005 21.1489 9.30754 20.4155 9.30754V10.1075ZM20.9463 10.6344C20.9463 10.9239 20.7102 11.1613 20.4155 11.1613V11.9613C21.1489 11.9613 21.7463 11.3688 21.7463 10.6344H20.9463Z" fill="white"/>
</svg>
