<svg width="32" height="32" viewBox="0 0 32 32" fill="none" xmlns="http://www.w3.org/2000/svg">
<rect width="32" height="32" rx="6" fill="#34A98F"/>
<path d="M10.166 13.2726C9.94504 13.2726 9.76596 13.4517 9.76596 13.6726C9.76596 13.8935 9.94504 14.0726 10.166 14.0726V13.2726ZM13.502 13.2726C13.2811 13.2726 13.102 13.4517 13.102 13.6726C13.102 13.8935 13.2811 14.0726 13.502 14.0726V13.2726ZM16.8296 13.2726C16.6087 13.2726 16.4296 13.4517 16.4296 13.6726C16.4296 13.8935 16.6087 14.0726 16.8296 14.0726V13.2726ZM20.1659 13.2726C19.945 13.2726 19.7659 13.4517 19.7659 13.6726C19.7659 13.8935 19.945 14.0726 20.1659 14.0726V13.2726ZM10.166 16.6002C9.94504 16.6002 9.76596 16.7793 9.76596 17.0002C9.76596 17.2211 9.94504 17.4002 10.166 17.4002V16.6002ZM13.502 16.6002C13.2811 16.6002 13.102 16.7793 13.102 17.0002C13.102 17.2211 13.2811 17.4002 13.502 17.4002V16.6002ZM16.8296 16.6002C16.6087 16.6002 16.4296 16.7793 16.4296 17.0002C16.4296 17.2211 16.6087 17.4002 16.8296 17.4002V16.6002ZM20.1659 16.6002C19.945 16.6002 19.7659 16.7793 19.7659 17.0002C19.7659 17.2211 19.945 17.4002 20.1659 17.4002V16.6002ZM8.1593 10.7361H23.8318V9.93609H8.1593V10.7361ZM23.9318 10.8361V24.8405H24.7318V10.8361H23.9318ZM23.8318 24.9405H8.1593V25.7405H23.8318V24.9405ZM8.0593 24.8405V10.8361H7.2593V24.8405H8.0593ZM8.1593 24.9405C8.10407 24.9405 8.0593 24.8957 8.0593 24.8405H7.2593C7.2593 25.3375 7.66225 25.7405 8.1593 25.7405V24.9405ZM23.9318 24.8405C23.9318 24.8957 23.887 24.9405 23.8318 24.9405V25.7405C24.3288 25.7405 24.7318 25.3375 24.7318 24.8405H23.9318ZM23.8318 10.7361C23.887 10.7361 23.9318 10.7809 23.9318 10.8361H24.7318C24.7318 10.339 24.3288 9.93609 23.8318 9.93609V10.7361ZM8.1593 9.93609C7.66225 9.93609 7.2593 10.339 7.2593 10.8361H8.0593C8.0593 10.7809 8.10407 10.7361 8.1593 10.7361V9.93609ZM6 25.7406H26V24.9406H6V25.7406ZM9.82756 7.4H22.1638V6.6H9.82756V7.4ZM22.2638 7.5V9.83624H23.0638V7.5H22.2638ZM22.1638 9.93624H9.82756V10.7362H22.1638V9.93624ZM9.72756 9.83624V7.5H8.92756V9.83624H9.72756ZM9.82756 9.93624C9.77233 9.93624 9.72756 9.89147 9.72756 9.83624H8.92756C8.92756 10.3333 9.33051 10.7362 9.82756 10.7362V9.93624ZM22.2638 9.83624C22.2638 9.89147 22.219 9.93624 22.1638 9.93624V10.7362C22.6609 10.7362 23.0638 10.3333 23.0638 9.83624H22.2638ZM22.1638 7.4C22.219 7.4 22.2638 7.44477 22.2638 7.5H23.0638C23.0638 7.00294 22.6609 6.6 22.1638 6.6V7.4ZM9.82756 6.6C9.33051 6.6 8.92756 7.00294 8.92756 7.5H9.72756C9.72756 7.44477 9.77233 7.4 9.82756 7.4V6.6ZM12.334 20.7363H19.6746V19.9363H12.334V20.7363ZM19.7746 20.8363V24.8406H20.5746V20.8363H19.7746ZM19.6746 24.9406H12.334V25.7406H19.6746V24.9406ZM12.234 24.8406V20.8363H11.434V24.8406H12.234ZM12.334 24.9406C12.2788 24.9406 12.234 24.8959 12.234 24.8406H11.434C11.434 25.3377 11.8369 25.7406 12.334 25.7406V24.9406ZM19.7746 24.8406C19.7746 24.8959 19.7298 24.9406 19.6746 24.9406V25.7406C20.1717 25.7406 20.5746 25.3377 20.5746 24.8406H19.7746ZM19.6746 20.7363C19.7298 20.7363 19.7746 20.781 19.7746 20.8363H20.5746C20.5746 20.3392 20.1717 19.9363 19.6746 19.9363V20.7363ZM12.334 19.9363C11.8369 19.9363 11.434 20.3392 11.434 20.8363H12.234C12.234 20.781 12.2788 20.7363 12.334 20.7363V19.9363ZM10.166 14.0726H11.8341V13.2726H10.166V14.0726ZM13.502 14.0726H15.1702V13.2726H13.502V14.0726ZM16.8296 14.0726H18.4977V13.2726H16.8296V14.0726ZM20.1659 14.0726H21.834V13.2726H20.1659V14.0726ZM10.166 17.4002H11.8341V16.6002H10.166V17.4002ZM13.502 17.4002H15.1702V16.6002H13.502V17.4002ZM16.8296 17.4002H18.4977V16.6002H16.8296V17.4002ZM20.1659 17.4002H21.834V16.6002H20.1659V17.4002ZM15.6 20.3363V25.3406H16.4V20.3363H15.6Z" fill="white"/>
</svg>
