<svg width="32" height="32" viewBox="0 0 32 32" fill="none" xmlns="http://www.w3.org/2000/svg">
<rect width="32" height="32" rx="6" fill="#34A98F"/>
<path d="M6 15.6918C5.77909 15.6918 5.6 15.8709 5.6 16.0918C5.6 16.3127 5.77909 16.4918 6 16.4918L6 15.6918ZM18.7273 16.4918C18.9482 16.4918 19.1273 16.3127 19.1273 16.0918C19.1273 15.8709 18.9482 15.6918 18.7273 15.6918V16.4918ZM18.9341 15.8418L18.6883 16.1575L18.6883 16.1575L18.9341 15.8418ZM14.2457 11.6844C14.0714 11.5487 13.8201 11.5799 13.6844 11.7543C13.5487 11.9286 13.5799 12.1799 13.7543 12.3156L14.2457 11.6844ZM13.7542 19.684C13.5799 19.8198 13.5487 20.0711 13.6844 20.2454C13.8201 20.4197 14.0715 20.451 14.2458 20.3152L13.7542 19.684ZM18.9341 16.1575L19.1798 16.4731H19.1798L18.9341 16.1575ZM6 16.4918L18.7273 16.4918V15.6918L6 15.6918L6 16.4918ZM23.5988 24.7818H16.9079V25.5818H23.5988V24.7818ZM16.9079 7.4H23.5988V6.6H16.9079V7.4ZM23.5988 7.4C24.7034 7.4 25.5988 8.29543 25.5988 9.4H26.3988C26.3988 7.8536 25.1452 6.6 23.5988 6.6V7.4ZM25.5988 22.7818C25.5988 23.8864 24.7034 24.7818 23.5988 24.7818V25.5818C25.1452 25.5818 26.3988 24.3282 26.3988 22.7818H25.5988ZM19.1798 15.5262L14.2457 11.6844L13.7543 12.3156L18.6883 16.1575L19.1798 15.5262ZM14.2458 20.3152L19.1798 16.4731L18.6883 15.8419L13.7542 19.684L14.2458 20.3152ZM18.6883 16.1575C18.5855 16.0774 18.5855 15.9219 18.6883 15.8419L19.1798 16.4731C19.4883 16.2328 19.4883 15.7664 19.1798 15.5262L18.6883 16.1575ZM25.5988 9.4V22.7818H26.3988V9.4H25.5988Z" fill="white"/>
</svg>
