<svg width="32" height="32" viewBox="0 0 32 32" fill="none" xmlns="http://www.w3.org/2000/svg">
<rect width="32" height="32" rx="6" fill="#34A98F"/>
<path d="M6 18.0716V7C6 6.44772 6.44772 6 7 6H25C25.5523 6 26 6.44772 26 7V18.0716M6 18.0716V25C6 25.5523 6.44772 26 7 26H25C25.5523 26 26 25.5523 26 25V18.0716M6 18.0716H11.4239C11.9169 18.0716 12.3302 18.4348 12.4979 18.8984C12.9399 20.1203 14.0207 21.6497 16.1318 21.6497C18.1917 21.6497 19.1442 20.1936 19.5012 18.9879C19.6505 18.4837 20.0804 18.0716 20.6062 18.0716H26M9.45574 13.7495H22.2994M9.45574 10.096H22.2994" stroke="white" stroke-width="0.8" stroke-linecap="round"/>
</svg>
