<svg width="32" height="32" viewBox="0 0 32 32" fill="none" xmlns="http://www.w3.org/2000/svg">
<rect width="32" height="32" rx="6" fill="#34A98F"/>
<path d="M6 10.676V10C6 8.89543 6.89543 8 8 8H24C25.1046 8 26 8.89543 26 10V11.0941M6 10.676V21.8258M6 10.676L14.1649 16.2783M26 11.0941V21.8258M26 11.0941L18.1438 16.2783M26 21.8258V22C26 23.1046 25.1046 24 24 24H8C6.89543 24 6 23.1046 6 22V21.8258M26 21.8258L18.1438 16.2783M18.1438 16.2783L16.1155 17.6167L14.1649 16.2783M6 21.8258C8.72164 19.9766 14.1649 16.2783 14.1649 16.2783" stroke="white" stroke-width="0.8" stroke-linejoin="round"/>
</svg>
