<svg width="32" height="32" viewBox="0 0 32 32" fill="none" xmlns="http://www.w3.org/2000/svg">
<rect width="32" height="32" rx="6" fill="#34A98F"/>
<path d="M14.0192 20.2282C13.7627 19.5668 13.2944 19.0193 12.6945 18.6793C12.0945 18.3394 11.4003 18.2283 10.7307 18.365C10.061 18.5018 9.45764 18.8778 9.02389 19.4287C8.59014 19.9797 8.35299 20.6713 8.35307 21.385C8.35307 21.701 8.29104 22.0136 8.17082 22.3035C8.0506 22.5934 7.87475 22.8543 7.65417 23.0702C7.43359 23.286 7.17298 23.4522 6.8885 23.5583C6.60403 23.6645 6.30173 23.7084 6.00037 23.6874C6.48507 24.5682 7.2342 25.2571 8.13145 25.6469C9.02871 26.0368 10.0239 26.1059 10.9625 25.8435C11.9011 25.581 12.7307 25.0018 13.3224 24.1956C13.9141 23.3894 14.2348 22.4014 14.2348 21.385C14.2348 20.9758 14.1584 20.5851 14.0192 20.2282ZM14.0192 20.2282C15.1848 19.8127 16.2995 19.2551 17.3404 18.5669M12.3968 18.5412C12.7941 17.3193 13.3278 16.1506 13.9868 15.0595M17.3394 18.5669C19.1983 17.338 20.7895 15.714 22.0096 13.8002L25.8092 7.83772C25.9547 7.61063 26.0204 7.33772 25.995 7.06559C25.9696 6.79347 25.8547 6.53901 25.6699 6.34567C25.4851 6.15233 25.2418 6.03211 24.9817 6.00553C24.7216 5.97895 24.4607 6.04767 24.2437 6.19995L18.5442 10.1759C16.7145 11.4522 15.1618 13.1168 13.9868 15.0616C15.4785 15.7598 16.6721 17.0084 17.3394 18.5689" stroke="white" stroke-width="0.8" stroke-linecap="round" stroke-linejoin="round"/>
</svg>
