<svg width="32" height="32" viewBox="0 0 32 32" fill="none" xmlns="http://www.w3.org/2000/svg">
<rect width="32" height="32" rx="6" fill="#34A98F"/>
<path d="M12.3201 10.1919C11.4455 10.3478 9.66337 11.0069 9.53135 12.3964C10.7525 13.5376 14.165 15.1353 18.0462 12.3964C17.8922 11.784 17.2211 10.4858 15.3069 10.1919M20.2739 20.5129C19.3993 20.6688 17.6172 21.3279 17.4851 22.7174C18.7063 23.8586 22.1188 25.4563 26 22.7174C25.846 22.1051 25.1749 20.8069 23.2607 20.5129M8.78878 22.2832C7.91419 22.4391 6.13201 23.0982 6 24.4877C7.22112 25.6289 10.6337 27.2266 14.5149 24.4877C14.3608 23.8753 13.6898 22.5771 11.7756 22.2832M15.7525 14.9683L18.0297 18.0579M12.7162 15.1186L12.2211 17.4066M14.0693 21.3313L17.9472 19.9952M13.7228 6C15.6502 6 16.11 7.60327 16.099 8.4049C16.0495 9.1787 15.5215 10.7263 13.8053 10.7263C12.0891 10.7263 11.5061 9.12304 11.4291 8.3214C11.4016 7.5476 11.8218 6 13.7228 6ZM21.6766 16.321C23.604 16.321 24.0638 17.9243 24.0528 18.726C24.0033 19.4998 23.4753 21.0474 21.7591 21.0474C20.0429 21.0474 19.4599 19.4441 19.3829 18.6424C19.3553 17.8686 19.7756 16.321 21.6766 16.321ZM10.1914 18.0913C12.1188 18.0913 12.5787 19.6946 12.5677 20.4962C12.5182 21.27 11.9901 22.8176 10.2739 22.8176C8.55777 22.8176 7.97471 21.2144 7.8977 20.4127C7.8702 19.6389 8.29044 18.0913 10.1914 18.0913Z" stroke="white" stroke-width="0.8" stroke-linecap="round" stroke-linejoin="round"/>
</svg>
