<svg width="24" height="24" viewBox="0 0 24 24" fill="none" xmlns="http://www.w3.org/2000/svg">
<g id="Frame 2613489">
<g id="Outline Icon">
<path id="Vector" d="M18 7.33331H11.3333C10.8914 7.33384 10.4678 7.50961 10.1554 7.82205C9.84292 8.1345 9.66716 8.55811 9.66663 8.99998V13C9.66716 13.4418 9.84292 13.8655 10.1554 14.1779C10.4678 14.4904 10.8914 14.6661 11.3333 14.6666H12.44L13.384 16.1766C13.4139 16.2249 13.4556 16.2647 13.5052 16.2923C13.5547 16.3199 13.6105 16.3344 13.6673 16.3344C13.724 16.3344 13.7799 16.3199 13.8294 16.2923C13.879 16.2647 13.9207 16.2249 13.9506 16.1766L14.8933 14.6666H18C18.4418 14.6661 18.8654 14.4904 19.1779 14.1779C19.4903 13.8655 19.6661 13.4418 19.6666 13V8.99998C19.6661 8.55811 19.4903 8.1345 19.1779 7.82205C18.8654 7.50961 18.4418 7.33384 18 7.33331ZM19 13C19 13.2652 18.8946 13.5195 18.7071 13.7071C18.5195 13.8946 18.2652 14 18 14H14.7083C14.6518 14 14.5962 14.0144 14.5467 14.0418C14.4973 14.0692 14.4556 14.1087 14.4256 14.1566L13.6666 15.371L12.9076 14.1566C12.8777 14.1087 12.836 14.0692 12.7865 14.0418C12.7371 14.0144 12.6815 14 12.625 14H11.3333C11.0681 14 10.8137 13.8946 10.6262 13.7071C10.4386 13.5195 10.3333 13.2652 10.3333 13V8.99998C10.3333 8.73476 10.4386 8.48041 10.6262 8.29287C10.8137 8.10534 11.0681 7.99998 11.3333 7.99998H18C18.2652 7.99998 18.5195 8.10534 18.7071 8.29287C18.8946 8.48041 19 8.73476 19 8.99998V13Z" fill="#333333"/>
<path id="Vector_2" d="M17.3333 9.66669H12C11.9116 9.66669 11.8268 9.70181 11.7643 9.76432C11.7017 9.82683 11.6666 9.91161 11.6666 10C11.6666 10.0884 11.7017 10.1732 11.7643 10.2357C11.8268 10.2982 11.9116 10.3334 12 10.3334H17.3333C17.4217 10.3334 17.5065 10.2982 17.569 10.2357C17.6315 10.1732 17.6666 10.0884 17.6666 10C17.6666 9.91161 17.6315 9.82683 17.569 9.76432C17.5065 9.70181 17.4217 9.66669 17.3333 9.66669Z" fill="#333333"/>
<path id="Vector_3" d="M17.3333 11.3333H12C11.9116 11.3333 11.8268 11.3684 11.7643 11.4309C11.7017 11.4935 11.6666 11.5782 11.6666 11.6666C11.6666 11.7551 11.7017 11.8398 11.7643 11.9023C11.8268 11.9649 11.9116 12 12 12H17.3333C17.4217 12 17.5065 11.9649 17.569 11.9023C17.6315 11.8398 17.6666 11.7551 17.6666 11.6666C17.6666 11.5782 17.6315 11.4935 17.569 11.4309C17.5065 11.3684 17.4217 11.3333 17.3333 11.3333Z" fill="#333333"/>
<path id="Vector_4" d="M16 15.6667C15.9116 15.6667 15.8268 15.7018 15.7643 15.7643C15.7018 15.8268 15.6667 15.9116 15.6667 16V17.6667H5.66667V5.66667H15.6667V6.33333C15.6667 6.42174 15.7018 6.50652 15.7643 6.56904C15.8268 6.63155 15.9116 6.66667 16 6.66667C16.0884 6.66667 16.1732 6.63155 16.2357 6.56904C16.2982 6.50652 16.3333 6.42174 16.3333 6.33333V4C16.3328 3.46973 16.1219 2.96133 15.747 2.58637C15.372 2.21141 14.8636 2.00053 14.3333 2H7C6.46973 2.00053 5.96133 2.21141 5.58637 2.58637C5.21141 2.96133 5.00053 3.46973 5 4V20C5.00053 20.5303 5.21141 21.0387 5.58637 21.4136C5.96133 21.7886 6.46973 21.9995 7 22H14.3333C14.8636 21.9995 15.372 21.7886 15.747 21.4136C16.1219 21.0387 16.3328 20.5303 16.3333 20V16C16.3333 15.9116 16.2982 15.8268 16.2357 15.7643C16.1732 15.7018 16.0884 15.6667 16 15.6667ZM7 2.66667H14.3333C14.687 2.66667 15.0261 2.80714 15.2761 3.05719C15.5262 3.30724 15.6667 3.64638 15.6667 4V5H5.66667V4C5.66667 3.64638 5.80714 3.30724 6.05719 3.05719C6.30724 2.80714 6.64638 2.66667 7 2.66667ZM14.3333 21.3333H7C6.64638 21.3333 6.30724 21.1929 6.05719 20.9428C5.80714 20.6928 5.66667 20.3536 5.66667 20V18.3333H15.6667V20C15.6667 20.3536 15.5262 20.6928 15.2761 20.9428C15.0261 21.1929 14.687 21.3333 14.3333 21.3333Z" fill="#333333"/>
<path id="Vector_5" d="M9.49996 4.16667H11.8333C11.9217 4.16667 12.0065 4.13155 12.069 4.06904C12.1315 4.00652 12.1666 3.92174 12.1666 3.83333C12.1666 3.74493 12.1315 3.66014 12.069 3.59763C12.0065 3.53512 11.9217 3.5 11.8333 3.5H9.49996C9.41155 3.5 9.32677 3.53512 9.26426 3.59763C9.20174 3.66014 9.16663 3.74493 9.16663 3.83333C9.16663 3.92174 9.20174 4.00652 9.26426 4.06904C9.32677 4.13155 9.41155 4.16667 9.49996 4.16667Z" fill="#333333"/>
<path id="Vector_6" d="M10.6667 18.6667C10.4359 18.6667 10.2104 18.7351 10.0185 18.8633C9.82664 18.9915 9.67711 19.1737 9.58881 19.3869C9.50051 19.6001 9.4774 19.8346 9.52242 20.061C9.56743 20.2873 9.67855 20.4951 9.84171 20.6583C10.0049 20.8215 10.2128 20.9326 10.4391 20.9776C10.6654 21.0226 10.9 20.9995 11.1131 20.9112C11.3263 20.8229 11.5085 20.6734 11.6367 20.4815C11.7649 20.2897 11.8333 20.0641 11.8333 19.8334C11.8333 19.5239 11.7104 19.2272 11.4916 19.0084C11.2728 18.7896 10.9761 18.6667 10.6667 18.6667ZM10.6667 20.3334C10.5678 20.3334 10.4711 20.304 10.3889 20.2491C10.3067 20.1941 10.2426 20.1161 10.2047 20.0247C10.1669 19.9333 10.157 19.8328 10.1763 19.7358C10.1956 19.6388 10.2432 19.5497 10.3131 19.4798C10.383 19.4099 10.4721 19.3623 10.5691 19.343C10.6661 19.3237 10.7666 19.3336 10.858 19.3714C10.9494 19.4093 11.0275 19.4733 11.0824 19.5556C11.1373 19.6378 11.1667 19.7345 11.1667 19.8334C11.1667 19.966 11.114 20.0931 11.0202 20.1869C10.9265 20.2807 10.7993 20.3334 10.6667 20.3334Z" fill="#333333"/>
</g>
</g>
</svg>
