<svg width="24" height="24" viewBox="0 0 24 24" fill="none" xmlns="http://www.w3.org/2000/svg">
<g id="Frame 2613557">
<g id="Group">
<path id="Vector" d="M21.5441 21.9979C21.4544 21.9979 21.3946 21.9678 21.3349 21.9377L10.6927 15.9176L2.44197 16.0982C2.26261 16.0982 2.08324 15.9778 2.02345 15.7972C1.96367 15.6166 2.02346 15.4059 2.14303 15.2855L17.6878 2.10159C17.8074 2.01129 17.9868 1.98119 18.1362 2.01129C18.2857 2.07149 18.4053 2.19189 18.4352 2.34239L21.9925 21.4561C22.0224 21.6367 21.9626 21.8173 21.8132 21.9076C21.7235 21.9678 21.6338 21.9979 21.5441 21.9979ZM10.8122 15.0447C10.9019 15.0447 10.9617 15.0748 11.0215 15.1049L20.9163 20.7036L17.6878 3.2755L3.69751 15.1651L10.8122 15.0447Z" fill="#333333"/>
<path id="Vector_2" d="M10.8122 21.9961C10.7823 21.9961 10.7524 21.9961 10.6926 21.9961C10.4833 21.9359 10.3638 21.7553 10.3638 21.5446V15.4944C10.3638 15.4041 10.3937 15.3439 10.4236 15.2837L17.5981 2.25028C17.7176 2.03957 17.9867 1.94927 18.1959 2.06967C18.4052 2.19008 18.4949 2.46098 18.3753 2.67168L11.2307 15.6148V19.7386L12.845 16.6683C12.9645 16.4576 13.2336 16.3673 13.4428 16.4877C13.6521 16.6081 13.7418 16.879 13.6222 17.0897L11.1709 21.7553C11.1111 21.9058 10.9616 21.9961 10.8122 21.9961Z" fill="#333333"/>
</g>
</g>
</svg>
