<svg width="24" height="24" viewBox="0 0 24 24" fill="none" xmlns="http://www.w3.org/2000/svg">
<g id="Frame 2613488">
<g id="Group">
<path id="Vector" d="M17.4355 13.4736L15.5161 12.0727C15.2752 11.8962 14.9782 11.8233 14.6812 11.871C14.3842 11.9158 14.1236 12.0755 13.9499 12.3165L13.3559 13.129C13.3251 13.171 13.3363 13.1318 13.3223 13.1851C13.3195 13.1907 13.2858 13.2355 13.1794 13.2523C13 13.2803 12.4621 13.2467 11.2993 12.3165L11.1872 12.2352C9.96277 11.4199 9.76664 10.9183 9.73862 10.739C9.72461 10.6465 9.74702 10.6017 9.74422 10.5989C9.78345 10.5737 9.77224 10.5737 9.80306 10.5345L10.3971 9.7219C10.5736 9.48094 10.6464 9.18393 10.5988 8.88693C10.5512 8.58993 10.3943 8.32935 10.1533 8.15283L8.20037 6.72666C7.70163 6.36242 6.99836 6.47169 6.63411 6.97043L6.0345 7.79419C5.50494 8.51988 5.36204 9.51176 5.66185 10.386C6.12416 11.7337 7.30376 13.1654 9.16983 14.6448C9.19505 14.6757 9.22307 14.7009 9.25669 14.7261C9.30432 14.7597 9.35196 14.7933 9.39959 14.8242C9.44442 14.8606 9.49205 14.8942 9.53688 14.9306C9.5677 14.9559 9.60413 14.9755 9.64055 14.9895C11.6187 16.3148 13.3419 17.0012 14.768 17.0321C14.7877 17.0321 14.8045 17.0321 14.8241 17.0321C15.7095 17.0321 16.5529 16.5978 17.088 15.8609L17.6876 15.0371C17.8641 14.7961 17.937 14.4991 17.8894 14.2021C17.8417 13.9051 17.6764 13.6502 17.4355 13.4736ZM17.0012 14.544L16.4015 15.3677C16.0149 15.8973 15.4069 16.2027 14.7764 16.1915C13.8714 16.1719 12.294 15.7992 9.88712 14.1461C7.58115 12.3585 6.74338 10.9687 6.44918 10.1142C6.23624 9.49775 6.3343 8.79727 6.70696 8.29013L7.30937 7.46637C7.3542 7.40472 7.41864 7.3655 7.49149 7.35429C7.56434 7.34308 7.63999 7.35989 7.70163 7.40472L9.65456 8.83089C9.7162 8.87572 9.75543 8.94017 9.76664 9.01302C9.77785 9.08587 9.76103 9.16152 9.7162 9.22316L9.14181 10.0105C9.00732 10.1562 8.87283 10.4224 8.89525 10.7586C8.94008 11.4339 9.53688 12.1427 10.7081 12.9217L10.7921 12.9805C11.9017 13.8687 12.7619 14.2218 13.4175 14.0564C13.7453 13.9752 13.9583 13.7678 14.0564 13.5941L14.6307 12.8068C14.7204 12.6807 14.8969 12.6555 15.023 12.7452L16.9423 14.1461C17.004 14.1909 17.0432 14.2554 17.0544 14.3282C17.0628 14.4095 17.046 14.4851 17.0012 14.544Z" fill="#333333"/>
<path id="Vector_2" d="M11.7422 2C6.37097 2 2 6.37097 2 11.7422C2 14.0454 2.81255 16.2645 4.29476 18.0185L2.56598 21.3892C2.49033 21.5377 2.50995 21.7198 2.61642 21.8487C2.69767 21.9468 2.81816 22 2.93864 22C2.97786 22 3.01989 21.9944 3.05912 21.9832L7.69627 20.6046C8.97114 21.1874 10.3301 21.4816 11.7422 21.4816C17.1135 21.4816 21.4844 17.1107 21.4844 11.7394C21.4844 6.36817 17.1135 2 11.7422 2ZM11.7422 20.6411C10.4029 20.6411 9.11404 20.3497 7.90922 19.7753C7.81395 19.7305 7.70748 19.722 7.60941 19.7529L3.7624 20.896L5.17176 18.1474C5.25021 17.9933 5.22779 17.8055 5.11011 17.6739C3.64752 16.0403 2.84057 13.9305 2.84057 11.7394C2.84057 6.83048 6.83329 2.83777 11.7422 2.83777C16.6512 2.83777 20.6439 6.83048 20.6439 11.7394C20.6439 16.6484 16.6512 20.6411 11.7422 20.6411Z" fill="#333333"/>
</g>
</g>
</svg>
