<svg width="24" height="24" viewBox="0 0 24 24" fill="none" xmlns="http://www.w3.org/2000/svg">
<g id="material-symbols-light:mail-outline">
<path id="Vector" d="M4.616 19C4.15533 19 3.771 18.846 3.463 18.538C3.155 18.23 3.00067 17.8453 3 17.384V6.616C3 6.15533 3.15433 5.771 3.463 5.463C3.77167 5.155 4.15567 5.00067 4.615 5H19.385C19.845 5 20.229 5.15433 20.537 5.463C20.845 5.77167 20.9993 6.156 21 6.616V17.385C21 17.845 20.8457 18.2293 20.537 18.538C20.2283 18.8467 19.8443 19.0007 19.385 19H4.616ZM12 12.116L4 6.885V17.385C4 17.5643 4.05767 17.7117 4.173 17.827C4.28833 17.9423 4.436 18 4.616 18H19.385C19.5643 18 19.7117 17.9423 19.827 17.827C19.9423 17.7117 20 17.564 20 17.384V6.884L12 12.116ZM12 11L19.692 6H4.308L12 11ZM4 6.885V6V17.385C4 17.5643 4.05767 17.7117 4.173 17.827C4.28833 17.9423 4.436 18 4.616 18H4V6.885Z" fill="#333333"/>
</g>
</svg>
