<svg width="32" height="32" viewBox="0 0 32 32" fill="none" xmlns="http://www.w3.org/2000/svg">
<g id="1.TH.REVIEW.ANSWERED">
<path id="Vector" d="M22.6708 9.34147L13.5018 18.5044L9.33408 14.3394M29.3332 10.6339V17.287C29.3332 17.7194 29.3165 18.1353 29.2664 18.5344C28.8826 23.0253 26.2293 25.2541 21.3398 25.2541H20.6723C20.2552 25.2541 19.8547 25.4537 19.6043 25.7863L17.6018 28.4476C16.7174 29.6285 15.2823 29.6285 14.3978 28.4476L12.3953 25.7863C12.1784 25.5036 11.6945 25.2541 11.3273 25.2541H10.6598C5.33652 25.2541 2.6665 23.9401 2.6665 17.287V10.6339C2.6665 5.76046 4.91934 3.11585 9.40828 2.7333C9.80878 2.6834 10.226 2.66675 10.6598 2.66675H21.3398C26.6632 2.66675 29.3332 5.32801 29.3332 10.6339Z" stroke="#333333" stroke-width="0.8" stroke-miterlimit="10" stroke-linecap="round" stroke-linejoin="round"/>
</g>
</svg>
