<svg width="360" height="256" viewBox="0 0 360 256" fill="none" xmlns="http://www.w3.org/2000/svg">
<g clip-path="url(#clip0_2631_17473)">
<path d="M191.026 191.406C190.255 196.82 186.192 200.965 181.31 200.965C176.427 200.965 172.36 196.82 171.593 191.406H146.729V253.89H215.891V191.406L191.026 191.406Z" fill="#E6E6E6"/>
<path d="M154.767 253.664H147.932V255.064H154.767V253.664Z" fill="#CCCCCC"/>
<path d="M215.285 253.898H208.45V255.299H215.285V253.898Z" fill="#CCCCCC"/>
<path d="M320.401 193.041H42.2182C40.0909 193.041 38.3604 191.035 38.3604 188.568V4.47358C38.3604 2.00679 40.0909 0 42.2182 0H320.401C322.529 0 324.259 2.00679 324.259 4.47358V188.573C324.259 191.04 322.529 193.046 320.401 193.046L320.401 193.041Z" fill="#333333"/>
<path d="M317.621 7.92969H45.3965V186.049H317.621V7.92969Z" fill="white"/>
<path d="M0 255.538C0 255.791 0.174361 255.998 0.396682 255.998H359.603C359.821 255.998 360 255.796 360 255.538C360 255.28 359.826 255.078 359.603 255.078H0.396682C0.178725 255.078 0 255.28 0 255.538Z" fill="#333333"/>
<path d="M80.2501 51.5585H72.9109C71.1484 51.5585 69.7148 49.8697 69.7148 47.7935V39.1478C69.7148 37.0716 71.1484 35.3828 72.9109 35.3828H80.2501C82.0126 35.3828 83.4461 37.0716 83.4461 39.1478V47.7935C83.4461 49.8697 82.0126 51.5585 80.2501 51.5585Z" fill="#34A98F"/>
<path d="M114.251 51.5585H106.912C105.149 51.5585 103.716 49.8697 103.716 47.7935V39.1478C103.716 37.0716 105.149 35.3828 106.912 35.3828H114.251C116.014 35.3828 117.447 37.0716 117.447 39.1478V47.7935C117.447 49.8697 116.014 51.5585 114.251 51.5585Z" fill="#34A98F"/>
<path d="M148.689 51.5585H141.349C139.587 51.5585 138.153 49.8697 138.153 47.7935V39.1478C138.153 37.0716 139.587 35.3828 141.349 35.3828H148.689C150.451 35.3828 151.885 37.0716 151.885 39.1478V47.7935C151.885 49.8697 150.451 51.5585 148.689 51.5585Z" fill="#34A98F"/>
<path d="M183.562 51.5585H176.222C174.46 51.5585 173.026 49.8697 173.026 47.7935V39.1478C173.026 37.0716 174.46 35.3828 176.222 35.3828H183.562C185.324 35.3828 186.758 37.0716 186.758 39.1478V47.7935C186.758 49.8697 185.324 51.5585 183.562 51.5585Z" fill="#E6E6E6"/>
<path d="M217.563 51.5585H210.223C208.461 51.5585 207.027 49.8697 207.027 47.7935V39.1478C207.027 37.0716 208.461 35.3828 210.223 35.3828H217.563C219.325 35.3828 220.759 37.0716 220.759 39.1478V47.7935C220.759 49.8697 219.325 51.5585 217.563 51.5585Z" fill="#E6E6E6"/>
<path d="M252 51.5585H244.661C242.898 51.5585 241.465 49.8697 241.465 47.7935V39.1478C241.465 37.0716 242.898 35.3828 244.661 35.3828H252C253.763 35.3828 255.196 37.0716 255.196 39.1478V47.7935C255.196 49.8697 253.763 51.5585 252 51.5585Z" fill="#E6E6E6"/>
<path d="M286.001 51.5585H278.662C276.899 51.5585 275.466 49.8697 275.466 47.7935V39.1478C275.466 37.0716 276.899 35.3828 278.662 35.3828H286.001C287.764 35.3828 289.197 37.0716 289.197 39.1478V47.7935C289.197 49.8697 287.764 51.5585 286.001 51.5585Z" fill="#E6E6E6"/>
<path d="M80.2501 82.3944H72.9109C71.1484 82.3944 69.7148 80.7057 69.7148 78.6294V69.9838C69.7148 67.9075 71.1484 66.2188 72.9109 66.2188H80.2501C82.0126 66.2188 83.4461 67.9075 83.4461 69.9838V78.6294C83.4461 80.7057 82.0126 82.3944 80.2501 82.3944Z" fill="#E6E6E6"/>
<path d="M114.251 82.3944H106.912C105.149 82.3944 103.716 80.7057 103.716 78.6294V69.9838C103.716 67.9075 105.149 66.2188 106.912 66.2188H114.251C116.014 66.2188 117.447 67.9075 117.447 69.9838V78.6294C117.447 80.7057 116.014 82.3944 114.251 82.3944Z" fill="#E6E6E6"/>
<path d="M148.689 82.3944H141.349C139.587 82.3944 138.153 80.7057 138.153 78.6294V69.9838C138.153 67.9075 139.587 66.2188 141.349 66.2188H148.689C150.451 66.2188 151.885 67.9075 151.885 69.9838V78.6294C151.885 80.7057 150.451 82.3944 148.689 82.3944Z" fill="#E6E6E6"/>
<path d="M183.562 82.3944H176.222C174.46 82.3944 173.026 80.7057 173.026 78.6294V69.9838C173.026 67.9075 174.46 66.2188 176.222 66.2188H183.562C185.324 66.2188 186.758 67.9075 186.758 69.9838V78.6294C186.758 80.7057 185.324 82.3944 183.562 82.3944Z" fill="#E6E6E6"/>
<path d="M217.563 82.3944H210.223C208.461 82.3944 207.027 80.7057 207.027 78.6294V69.9838C207.027 67.9075 208.461 66.2188 210.223 66.2188H217.563C219.325 66.2188 220.759 67.9075 220.759 69.9838V78.6294C220.759 80.7057 219.325 82.3944 217.563 82.3944Z" fill="#E6E6E6"/>
<path d="M252 82.3944H244.661C242.898 82.3944 241.465 80.7057 241.465 78.6294V69.9838C241.465 67.9075 242.898 66.2188 244.661 66.2188H252C253.763 66.2188 255.196 67.9075 255.196 69.9838V78.6294C255.196 80.7057 253.763 82.3944 252 82.3944Z" fill="#E6E6E6"/>
<path d="M286.001 82.3944H278.662C276.899 82.3944 275.466 80.7057 275.466 78.6294V69.9838C275.466 67.9075 276.899 66.2188 278.662 66.2188H286.001C287.764 66.2188 289.197 67.9075 289.197 69.9838V78.6294C289.197 80.7057 287.764 82.3944 286.001 82.3944Z" fill="#E6E6E6"/>
<path d="M80.2501 113.23H72.9109C71.1484 113.23 69.7148 111.542 69.7148 109.465V100.82C69.7148 98.7434 71.1484 97.0547 72.9109 97.0547H80.2501C82.0126 97.0547 83.4461 98.7434 83.4461 100.82V109.465C83.4461 111.542 82.0126 113.23 80.2501 113.23Z" fill="#E6E6E6"/>
<path d="M114.251 113.23H106.912C105.149 113.23 103.716 111.542 103.716 109.465V100.82C103.716 98.7434 105.149 97.0547 106.912 97.0547H114.251C116.014 97.0547 117.447 98.7434 117.447 100.82V109.465C117.447 111.542 116.014 113.23 114.251 113.23Z" fill="#E6E6E6"/>
<path d="M148.689 113.23H141.349C139.587 113.23 138.153 111.542 138.153 109.465V100.82C138.153 98.7434 139.587 97.0547 141.349 97.0547H148.689C150.451 97.0547 151.885 98.7434 151.885 100.82V109.465C151.885 111.542 150.451 113.23 148.689 113.23Z" fill="#E6E6E6"/>
<path d="M183.562 113.23H176.222C174.46 113.23 173.026 111.542 173.026 109.465V100.82C173.026 98.7434 174.46 97.0547 176.222 97.0547H183.562C185.324 97.0547 186.758 98.7434 186.758 100.82V109.465C186.758 111.542 185.324 113.23 183.562 113.23Z" fill="#E6E6E6"/>
<path d="M217.563 113.23H210.223C208.461 113.23 207.027 111.542 207.027 109.465V100.82C207.027 98.7434 208.461 97.0547 210.223 97.0547H217.563C219.325 97.0547 220.759 98.7434 220.759 100.82V109.465C220.759 111.542 219.325 113.23 217.563 113.23Z" fill="#E6E6E6"/>
<path d="M252 113.23H244.661C242.898 113.23 241.465 111.542 241.465 109.465V100.82C241.465 98.7434 242.898 97.0547 244.661 97.0547H252C253.763 97.0547 255.196 98.7434 255.196 100.82V109.465C255.196 111.542 253.763 113.23 252 113.23Z" fill="#E6E6E6"/>
<path d="M286.001 113.23H278.662C276.899 113.23 275.466 111.542 275.466 109.465V100.82C275.466 98.7434 276.899 97.0547 278.662 97.0547H286.001C287.764 97.0547 289.197 98.7434 289.197 100.82V109.465C289.197 111.542 287.764 113.23 286.001 113.23Z" fill="#E6E6E6"/>
</g>
<defs>
<clipPath id="clip0_2631_17473">
<rect width="360" height="256" fill="white"/>
</clipPath>
</defs>
</svg>
