<svg width="360" height="256" viewBox="0 0 360 256" fill="none" xmlns="http://www.w3.org/2000/svg">
<path d="M176.069 126.697C170.953 144.444 156.016 156.867 140.434 167.42C138.259 168.894 136.082 170.334 133.905 171.74C133.89 171.747 133.875 171.76 133.86 171.767C133.756 171.834 133.651 171.902 133.553 171.969C133.104 172.259 132.654 172.549 132.209 172.835L132.453 172.945C132.453 172.945 132.694 173.073 132.431 172.966C132.353 172.933 132.271 172.904 132.193 172.871C123.141 169.22 113.928 165.3 106.991 158.461C99.7949 151.359 95.5896 140.22 99.4862 130.89C99.9984 129.668 100.645 128.507 101.415 127.428C101.731 126.976 102.071 126.543 102.426 126.118C104.575 123.495 107.385 121.491 110.565 120.313C113.745 119.136 117.182 118.827 120.521 119.417C123.861 120.008 126.983 121.478 129.566 123.675C132.149 125.873 134.101 128.718 135.22 131.92C136.364 121.261 127.576 112.333 119.118 105.746C110.656 99.1617 101.042 91.9914 99.4059 81.3922C98.4923 75.4949 100.543 69.7799 104.279 65.1921C104.394 65.0527 104.51 64.9135 104.629 64.7779C109.176 59.4344 115.572 56.0032 122.539 55.1695C135.514 53.821 148.117 60.6888 157.542 69.7098C172.713 84.2241 181.885 106.518 176.069 126.697Z" fill="#CCCCCC"/>
<path d="M151.681 103.483C154.171 107.357 156.083 111.573 157.356 115.999C158.433 119.955 158.912 124.05 158.778 128.147C158.545 136.57 155.953 144.8 151.876 152.13C148.721 157.688 144.877 162.826 140.434 167.42C138.259 168.893 136.082 170.333 133.905 171.739C133.89 171.746 133.875 171.76 133.86 171.766C133.756 171.834 133.651 171.901 133.553 171.969C133.104 172.258 132.654 172.548 132.209 172.834C132.209 172.834 132.694 173.072 132.431 172.965C132.353 172.932 132.271 172.903 132.193 172.87C133.004 166.218 132.209 159.469 129.875 153.188C127.541 146.907 123.735 141.277 118.777 136.77C113.806 132.331 107.858 129.13 101.415 127.427C101.731 126.975 102.072 126.542 102.426 126.117C104.914 126.815 107.336 127.731 109.663 128.856C117.98 132.85 124.791 139.416 129.086 147.582C132.941 154.997 134.6 163.358 133.868 171.683C134.24 171.346 134.612 171.002 134.974 170.661C141.852 164.248 147.962 156.887 152.096 148.392C155.683 141.198 157.446 133.232 157.23 125.196C156.892 116.433 153.401 108.317 148.346 101.252C142.932 93.6898 136.143 86.9995 128.894 81.2037C121.469 75.2567 113.344 70.2406 104.701 66.2673C104.506 66.1763 104.353 66.0139 104.275 65.8136C104.196 65.6133 104.198 65.3905 104.279 65.1913C104.336 65.0125 104.462 64.8637 104.629 64.7771C104.715 64.7401 104.808 64.723 104.901 64.7269C104.995 64.7309 105.086 64.7559 105.168 64.8C106.235 65.2913 107.295 65.7893 108.346 66.3089C117.103 70.6368 125.287 76.0356 132.712 82.3815C139.884 88.4961 146.636 95.482 151.681 103.483Z" fill="white"/>
<path d="M258.039 37.7148H17.6182V38.6785H258.039V37.7148Z" fill="#333333"/>
<path d="M25.8107 34.3227C27.4073 34.3227 28.7016 33.0284 28.7016 31.4318C28.7016 29.8353 27.4073 28.541 25.8107 28.541C24.2142 28.541 22.9199 29.8353 22.9199 31.4318C22.9199 33.0284 24.2142 34.3227 25.8107 34.3227Z" fill="#333333"/>
<path d="M34.1213 34.3227C35.7179 34.3227 37.0121 33.0284 37.0121 31.4318C37.0121 29.8353 35.7179 28.541 34.1213 28.541C32.5247 28.541 31.2305 29.8353 31.2305 31.4318C31.2305 33.0284 32.5247 34.3227 34.1213 34.3227Z" fill="#333333"/>
<path d="M42.4309 34.3227C44.0274 34.3227 45.3217 33.0284 45.3217 31.4318C45.3217 29.8353 44.0274 28.541 42.4309 28.541C40.8343 28.541 39.54 29.8353 39.54 31.4318C39.54 33.0284 40.8343 34.3227 42.4309 34.3227Z" fill="#333333"/>
<path d="M255.286 24.3961L20.6447 24.0056C19.7507 24.0055 18.8933 24.3601 18.2605 24.9915C17.6278 25.623 17.2715 26.4797 17.2698 27.3737L17.0052 186.371C17.0048 187.264 17.3587 188.121 17.9893 188.754C18.6199 189.386 19.4756 189.743 20.3689 189.746L201.869 190.058C201.826 189.739 201.696 189.467 201.499 189.031L20.3705 188.784C19.7322 188.782 19.1207 188.527 18.6701 188.075C18.2195 187.623 17.9667 187.011 17.9672 186.372L18.2317 27.3753C18.2332 26.7365 18.4879 26.1245 18.9399 25.6731C19.3919 25.2218 20.0043 24.9681 20.6431 24.9676L255.284 25.3581C255.923 25.3598 256.536 25.6151 256.987 26.068C257.439 26.5209 257.692 27.1344 257.692 27.7738L257.576 93.1196C257.89 92.9727 258.334 92.9411 258.654 92.9727L258.654 27.7754C258.655 26.8807 258.301 26.0223 257.669 25.3886C257.037 24.755 256.18 24.398 255.286 24.3961Z" fill="#333333"/>
<g clip-path="url(#clip0_2434_79130)">
<path d="M267.309 183.542C279.869 183.542 290.05 173.36 290.05 160.8C290.05 148.241 279.869 138.059 267.309 138.059C254.749 138.059 244.567 148.241 244.567 160.8C244.567 173.36 254.749 183.542 267.309 183.542Z" fill="#FFD6C5"/>
<path d="M254.254 186.902L253.226 176.517L273.743 172.68L285.858 202.177L264.788 226.407L249.776 196.91L254.254 186.902Z" fill="#FFD6C5"/>
<path d="M252.897 181.717L257.383 182.73C257.383 182.73 253.857 171.549 255.054 170.482C256.25 169.414 259.183 171.096 259.183 171.096L262.265 174.551L266.019 170.729C266.019 170.729 270.095 165.662 271.691 164.238C273.286 162.815 270.723 157.532 270.723 157.532C270.723 157.532 294.398 151.148 285.588 139.665C285.588 139.665 280.423 130.662 278.742 133.595C277.06 136.528 275.054 131.87 275.054 131.87L268.93 133.034C268.93 133.034 256.843 125.908 245.371 141.154C233.899 156.4 252.897 181.717 252.897 181.717Z" fill="#333333"/>
<path d="M310.079 216.638C297.651 226.714 282.276 232.19 266.055 232.19C251.243 232.19 237.135 227.623 225.333 219.158C225.354 218.937 225.375 218.718 225.394 218.5C225.707 215.076 225.986 211.747 226.171 208.987C226.884 198.271 251.886 191.128 251.886 191.128C251.886 191.128 251.999 191.241 252.225 191.439C253.606 192.65 259.207 197.043 269.031 198.271C277.791 199.366 280.674 194.17 281.546 191.681C281.81 190.923 281.889 190.414 281.889 190.414L307.604 202.558C309.281 204.955 309.937 210.117 310.066 215.919C310.072 216.158 310.077 216.395 310.079 216.638Z" fill="#34A98F"/>
<path d="M315.592 112.597C302.36 99.3657 284.767 92.0784 266.055 92.0784C247.343 92.0784 229.75 99.3657 216.518 112.597C203.286 125.829 195.999 143.422 195.999 162.134C195.999 179.214 202.07 195.361 213.194 208.11C214.256 209.33 215.364 210.517 216.518 211.671C216.789 211.942 217.063 212.213 217.34 212.477C218.077 213.191 218.828 213.889 219.591 214.565C220.055 214.979 220.524 215.384 220.998 215.782C221.369 216.096 221.741 216.404 222.117 216.707C222.125 216.714 222.13 216.72 222.138 216.725C223.184 217.568 224.248 218.379 225.333 219.158C237.134 227.623 251.243 232.19 266.055 232.19C282.276 232.19 297.651 226.715 310.079 216.638C311.093 215.816 312.086 214.963 313.061 214.081C313.922 213.301 314.765 212.498 315.592 211.671C315.852 211.41 316.113 211.147 316.369 210.881C317.08 210.149 317.77 209.403 318.444 208.647C329.866 195.816 336.111 179.456 336.111 162.134C336.111 143.422 328.823 125.829 315.592 112.597ZM318.273 207.992C317.614 208.74 316.94 209.477 316.25 210.196C315.175 211.315 314.067 212.4 312.921 213.446C312.487 213.846 312.047 214.236 311.602 214.623C311.096 215.063 310.585 215.495 310.066 215.919C305.976 219.277 301.496 222.174 296.706 224.534C294.812 225.469 292.871 226.319 290.885 227.081C283.171 230.041 274.799 231.663 266.055 231.663C257.617 231.663 249.526 230.151 242.038 227.386C238.965 226.254 235.994 224.908 233.142 223.367C232.723 223.141 232.307 222.911 231.893 222.677C229.718 221.445 227.614 220.099 225.594 218.645C225.528 218.598 225.459 218.547 225.393 218.5C223.955 217.462 222.557 216.369 221.206 215.221C220.711 214.802 220.221 214.378 219.739 213.944C218.954 213.246 218.185 212.527 217.435 211.789C216.012 210.396 214.653 208.945 213.355 207.436C202.87 195.258 196.526 179.424 196.526 162.134C196.526 123.796 227.716 92.6051 266.055 92.6051C304.393 92.6051 335.584 123.796 335.584 162.134C335.584 179.69 329.044 195.745 318.273 207.992Z" fill="#333333"/>
</g>
<path d="M326.921 117.001C349.374 117.385 349.371 150.784 326.92 151.164C304.467 150.78 304.471 117.381 326.921 117.001Z" fill="#34A98F"/>
<path d="M326.922 143.384C326.604 143.384 326.298 143.257 326.073 143.032C325.848 142.807 325.722 142.502 325.721 142.184V135.819C325.721 135.677 325.665 135.541 325.565 135.441C325.464 135.341 325.328 135.284 325.186 135.284H318.822C318.503 135.284 318.198 135.158 317.973 134.932C317.748 134.707 317.621 134.402 317.621 134.083C317.621 133.765 317.748 133.46 317.973 133.234C318.198 133.009 318.503 132.883 318.822 132.883H325.186C325.328 132.883 325.464 132.826 325.565 132.726C325.665 132.626 325.721 132.49 325.721 132.348V125.983C325.721 125.665 325.848 125.359 326.073 125.134C326.298 124.909 326.603 124.783 326.922 124.783C327.24 124.783 327.545 124.909 327.771 125.134C327.996 125.359 328.122 125.665 328.122 125.983V132.348C328.122 132.49 328.179 132.626 328.279 132.726C328.379 132.826 328.515 132.883 328.657 132.883H335.022C335.34 132.883 335.646 133.009 335.871 133.234C336.096 133.46 336.222 133.765 336.222 134.083C336.222 134.402 336.096 134.707 335.871 134.932C335.646 135.157 335.34 135.284 335.022 135.284H328.657C328.515 135.284 328.379 135.341 328.279 135.441C328.179 135.541 328.122 135.677 328.122 135.819V142.184C328.122 142.502 327.995 142.807 327.77 143.032C327.545 143.257 327.24 143.384 326.922 143.384Z" fill="white"/>
<defs>
<clipPath id="clip0_2434_79130">
<rect width="140.112" height="140.112" fill="white" transform="translate(195.999 92.0781)"/>
</clipPath>
</defs>
</svg>
