<svg width="278" height="548" viewBox="0 0 278 548" fill="none" xmlns="http://www.w3.org/2000/svg">
<path d="M20.0381 509.873H257.912V509.873C257.912 521.953 248.118 531.746 236.038 531.746H41.9115C29.8311 531.746 20.0381 521.953 20.0381 509.873V509.873Z" fill="white"/>
<path d="M20.0381 25.9248C20.0381 18.3746 26.1588 12.2539 33.709 12.2539H244.241C251.791 12.2539 257.912 18.3746 257.912 25.9248V42.3299H20.0381V25.9248Z" fill="white"/>
<path fill-rule="evenodd" clip-rule="evenodd" d="M214.215 27.5703H213.56C213.199 27.5703 212.906 27.8529 212.906 28.2014V33.6708C212.906 34.0193 213.199 34.3019 213.56 34.3019H214.215C214.576 34.3019 214.869 34.0193 214.869 33.6708V28.2014C214.869 27.8529 214.576 27.5703 214.215 27.5703ZM210.48 29.0429H211.135C211.496 29.0429 211.789 29.3254 211.789 29.674V33.6708C211.789 34.0194 211.496 34.3019 211.135 34.3019H210.48C210.119 34.3019 209.826 34.0194 209.826 33.6708V29.674C209.826 29.3254 210.119 29.0429 210.48 29.0429ZM208.055 30.5154H207.401C207.039 30.5154 206.746 30.798 206.746 31.1465V33.6709C206.746 34.0194 207.039 34.3019 207.401 34.3019H208.055C208.416 34.3019 208.709 34.0194 208.709 33.6709V31.1465C208.709 30.798 208.416 30.5154 208.055 30.5154ZM204.975 31.777H204.321C203.959 31.777 203.666 32.0596 203.666 32.4081V33.6703C203.666 34.0188 203.959 34.3014 204.321 34.3014H204.975C205.337 34.3014 205.63 34.0188 205.63 33.6703V32.4081C205.63 32.0596 205.337 31.777 204.975 31.777Z" fill="#333333"/>
<path fill-rule="evenodd" clip-rule="evenodd" d="M223.003 28.8879C224.387 28.888 225.717 29.4324 226.72 30.4087C226.796 30.4841 226.916 30.4832 226.991 30.4066L227.713 29.6606C227.75 29.6218 227.771 29.5692 227.771 29.5144C227.771 29.4597 227.749 29.4074 227.711 29.369C225.079 26.7859 220.927 26.7859 218.295 29.369C218.257 29.4073 218.235 29.4597 218.235 29.5144C218.234 29.5691 218.255 29.6217 218.293 29.6606L219.015 30.4066C219.089 30.4833 219.21 30.4842 219.285 30.4087C220.288 29.4324 221.619 28.8879 223.003 28.8879ZM223.003 31.3147C223.763 31.3147 224.496 31.6041 225.06 32.1266C225.136 32.2008 225.256 32.1992 225.33 32.123L226.051 31.377C226.089 31.3378 226.111 31.2847 226.11 31.2296C226.109 31.1744 226.087 31.1218 226.049 31.0835C224.333 29.4487 221.675 29.4487 219.959 31.0835C219.92 31.1218 219.898 31.1744 219.898 31.2296C219.897 31.2848 219.918 31.3379 219.956 31.377L220.677 32.123C220.751 32.1992 220.871 32.2008 220.948 32.1266C221.511 31.6044 222.243 31.315 223.003 31.3147ZM224.447 32.9481C224.449 33.0034 224.427 33.0568 224.389 33.0955L223.142 34.3845C223.105 34.4224 223.055 34.4437 223.003 34.4437C222.951 34.4437 222.901 34.4224 222.865 34.3845L221.617 33.0955C221.579 33.0567 221.558 33.0034 221.559 32.9481C221.56 32.8928 221.583 32.8404 221.623 32.8033C222.42 32.1134 223.586 32.1134 224.383 32.8033C224.423 32.8404 224.446 32.8928 224.447 32.9481Z" fill="#333333"/>
<g clip-path="url(#clip0_4454_8346)">
<rect opacity="0.4" x="231.417" y="27.5715" width="13.4632" height="6.73158" rx="1.96338" stroke="#333333" stroke-width="0.560965"/>
<path opacity="0.5" d="M245.722 29.8164V32.0603C246.174 31.8702 246.468 31.4281 246.468 30.9383C246.468 30.4485 246.174 30.0064 245.722 29.8164" fill="#333333"/>
<rect x="232.275" y="28.4121" width="9.53641" height="5.04869" rx="1.12193" fill="#333333"/>
</g>
<path d="M40.2731 35.6178C39.6536 35.6178 39.0939 35.4611 38.5938 35.1476C38.1012 34.8341 37.7131 34.3788 37.4295 33.7818C37.1458 33.1772 37.004 32.4458 37.004 31.5874C37.004 30.7291 37.1458 30.0014 37.4295 29.4043C37.7131 28.7998 38.1012 28.3407 38.5938 28.0273C39.0939 27.7138 39.6536 27.5571 40.2731 27.5571C40.9001 27.5571 41.4598 27.7138 41.9524 28.0273C42.445 28.3407 42.8332 28.7998 43.1168 29.4043C43.4079 30.0014 43.5534 30.7291 43.5534 31.5874C43.5534 32.4458 43.4079 33.1772 43.1168 33.7818C42.8332 34.3788 42.445 34.8341 41.9524 35.1476C41.4598 35.4611 40.9001 35.6178 40.2731 35.6178ZM40.2731 34.3527C40.6388 34.3527 40.956 34.2557 41.2247 34.0616C41.4934 33.8601 41.7024 33.5541 41.8517 33.1436C42.0084 32.7331 42.0868 32.2144 42.0868 31.5874C42.0868 30.953 42.0084 30.4343 41.8517 30.0313C41.7024 29.6208 41.4934 29.3185 41.2247 29.1244C40.956 28.9229 40.6388 28.8222 40.2731 28.8222C39.9223 28.8222 39.6089 28.9229 39.3327 29.1244C39.064 29.3185 38.8513 29.6208 38.6946 30.0313C38.5453 30.4343 38.4706 30.953 38.4706 31.5874C38.4706 32.2144 38.5453 32.7331 38.6946 33.1436C38.8513 33.5541 39.064 33.8601 39.3327 34.0616C39.6089 34.2557 39.9223 34.3527 40.2731 34.3527ZM47.1791 27.5571C47.8956 27.5571 48.5039 27.7101 49.0039 28.0161C49.5115 28.3146 49.8996 28.7512 50.1683 29.3259C50.437 29.9007 50.5713 30.6097 50.5713 31.4531C50.5713 32.3487 50.4071 33.1063 50.0787 33.7258C49.7578 34.3453 49.3099 34.8155 48.7352 35.1364C48.1605 35.4573 47.4925 35.6178 46.7313 35.6178C46.3357 35.6178 45.9588 35.5768 45.6005 35.4947C45.2423 35.4126 44.9325 35.2857 44.6713 35.114L45.2087 34.0169C45.4251 34.1587 45.6602 34.2594 45.914 34.3191C46.1677 34.3714 46.429 34.3975 46.6977 34.3975C47.4366 34.3975 48.0225 34.1699 48.4554 33.7146C48.8882 33.2593 49.1047 32.5876 49.1047 31.6994C49.1047 31.5576 49.101 31.3934 49.0935 31.2068C49.086 31.0127 49.0599 30.8187 49.0151 30.6246L49.4629 31.1172C49.3361 31.4232 49.1532 31.6807 48.9144 31.8897C48.6755 32.0912 48.3956 32.2442 48.0747 32.3487C47.7538 32.4532 47.3992 32.5055 47.0111 32.5055C46.5036 32.5055 46.0446 32.4084 45.6341 32.2144C45.2311 32.0129 44.9101 31.733 44.6713 31.3747C44.4324 31.009 44.313 30.5836 44.313 30.0984C44.313 29.576 44.4399 29.1282 44.6937 28.755C44.9474 28.3743 45.2908 28.0795 45.7237 27.8705C46.164 27.6616 46.6492 27.5571 47.1791 27.5571ZM47.2574 28.699C46.9589 28.699 46.6939 28.755 46.4626 28.8669C46.2312 28.9714 46.0483 29.1244 45.914 29.3259C45.7871 29.52 45.7237 29.7551 45.7237 30.0313C45.7237 30.4418 45.8655 30.7664 46.1491 31.0053C46.4327 31.2441 46.8134 31.3635 47.291 31.3635C47.6045 31.3635 47.8807 31.3076 48.1195 31.1956C48.3583 31.0762 48.5449 30.9157 48.6793 30.7142C48.8136 30.5052 48.8808 30.2738 48.8808 30.0201C48.8808 29.7738 48.8173 29.5536 48.6905 29.3595C48.5636 29.158 48.3807 28.9975 48.1419 28.8781C47.903 28.7587 47.6082 28.699 47.2574 28.699ZM52.4292 31.3187C52.1755 31.3187 51.959 31.2329 51.7799 31.0613C51.6008 30.8821 51.5112 30.6582 51.5112 30.3895C51.5112 30.1059 51.6008 29.882 51.7799 29.7178C51.959 29.5461 52.1755 29.4603 52.4292 29.4603C52.683 29.4603 52.8994 29.5461 53.0786 29.7178C53.2577 29.882 53.3473 30.1059 53.3473 30.3895C53.3473 30.6582 53.2577 30.8821 53.0786 31.0613C52.8994 31.2329 52.683 31.3187 52.4292 31.3187ZM52.4292 35.5842C52.1755 35.5842 51.959 35.4984 51.7799 35.3267C51.6008 35.1476 51.5112 34.9237 51.5112 34.655C51.5112 34.3714 51.6008 34.1475 51.7799 33.9833C51.959 33.8116 52.1755 33.7258 52.4292 33.7258C52.683 33.7258 52.8994 33.8116 53.0786 33.9833C53.2577 34.1475 53.3473 34.3714 53.3473 34.655C53.3473 34.9237 53.2577 35.1476 53.0786 35.3267C52.8994 35.4984 52.683 35.5842 52.4292 35.5842ZM54.1773 33.7258V32.7182L58.0397 27.669H59.5959L55.7895 32.7182L55.0617 32.4943H61.2752V33.7258H54.1773ZM58.4764 35.5059V33.7258L58.5211 32.4943V30.9157H59.887V35.5059H58.4764ZM62.8574 35.5059V28.2288L63.4955 28.8893H61.2005V27.669H64.3128V35.5059H62.8574Z" fill="#333333"/>
<g filter="url(#filter0_d_4454_8346)">
<g filter="url(#filter1_bd_4454_8346)">
<path fill-rule="evenodd" clip-rule="evenodd" d="M270.106 49.9799C270.106 21.1838 255.763 3.06548 221.766 2.78516H56.7171C23.7812 2.78516 7.34814 20.2706 7.34814 49.9799V498.307C7.34814 522.982 26.3886 540.79 56.0335 540.79H221.766C251.022 540.79 269.788 523.867 270.402 498.307L270.106 49.9799ZM83.9546 18.1772C83.9097 16.0174 83.0348 14.9375 81.3298 14.9375H53.2834C35.6573 14.9375 20.7374 29.2024 20.7374 46.7989V495.239C20.7374 513.851 36.4816 528.938 55.1246 528.938H223.082C241.725 528.938 256.838 513.851 256.838 495.239V46.7989C256.838 29.2024 242.55 14.9375 224.924 14.9375H196.859L196.689 14.9833C194.979 15.4661 194.476 16.2585 194.32 17.5393C194.115 19.2206 193.967 22.8968 193.876 25.1626L193.876 25.1632L193.876 25.1688C193.86 25.5538 193.847 25.8979 193.834 26.1843L193.823 26.4014C193.421 33.1853 187.79 38.5042 180.957 38.5042H96.8451L96.6298 38.5024C89.6109 38.3877 83.9564 32.6716 83.9564 25.6371V18.3547L83.9546 18.1772ZM221.766 3.39794C255.763 3.67826 268.879 21.1838 268.879 49.98L269.174 498.307C268.56 523.867 251.022 540.178 221.766 540.178H56.0336C26.3887 540.178 8.57572 522.982 8.57572 498.307V49.98C8.57572 20.2707 23.7813 3.39794 56.7171 3.39794H221.766ZM266.571 55.0995C266.571 20.1571 252.999 5.43769 218.112 5.43769C218.112 5.43769 193.042 5.42418 166.042 5.42418C166.017 5.4239 165.986 5.42327 165.95 5.42254C165.413 5.41169 163.734 5.37775 163.46 6.09055C163.167 6.85161 163.3 9.49982 163.3 9.49982C163.3 10.5432 162.382 11.5505 161.249 11.5505H116.592C115.46 11.5505 114.541 10.6324 114.541 9.49982C114.541 9.49982 114.52 6.64078 114.169 6.08763C113.731 5.39896 112.662 5.41639 112.266 5.42283C112.234 5.42335 112.207 5.4238 112.185 5.4238C86.1975 5.4238 58.831 5.42418 58.831 5.42418C23.9436 5.42418 11.1519 22.2077 11.1519 57.1502V491.869C11.1519 520.766 27.5927 537.758 58.831 537.833L216.703 537.847C248.304 537.847 266.571 523.498 266.571 492.532V55.0995Z" fill="white" fill-opacity="0.3"/>
</g>
<path fill-rule="evenodd" clip-rule="evenodd" d="M270.23 148.793C270.306 146.91 270.715 143.865 270.715 143.865H271.519C272.199 143.865 272.748 144.411 272.744 145.092L272.44 206.941C272.437 207.618 271.889 208.168 271.207 208.168L270.505 208.167C270.468 208.15 270.318 207.929 270.222 205.559L270.202 161.596C270.203 154.918 270.208 149.948 270.22 149.124L270.23 148.793Z" fill="url(#paint0_linear_4454_8346)"/>
<mask id="mask0_4454_8346" style="mask-type:luminance" maskUnits="userSpaceOnUse" x="270" y="143" width="3" height="66">
<path fill-rule="evenodd" clip-rule="evenodd" d="M270.23 148.793C270.306 146.91 270.715 143.865 270.715 143.865H271.519C272.199 143.865 272.748 144.411 272.744 145.092L272.44 206.941C272.437 207.618 271.889 208.168 271.207 208.168L270.505 208.167C270.468 208.15 270.318 207.929 270.222 205.559L270.202 161.596C270.203 154.918 270.208 149.948 270.22 149.124L270.23 148.793Z" fill="white"/>
</mask>
<g mask="url(#mask0_4454_8346)">
<path fill-rule="evenodd" clip-rule="evenodd" d="M273.555 143.432C273.555 143.432 272.163 142.37 272.163 148.742C272.163 181.587 272.163 202.385 272.163 202.28C272.163 207.496 272.768 208.212 273.005 208.502L273.699 207.128C272.822 205.826 272.679 204.238 272.679 201.761C272.679 199.756 273.005 152.718 273.005 151.192C273.005 148.238 273.313 145.399 273.555 145.411V143.432Z" fill="#CBCBCB"/>
</g>
<path fill-rule="evenodd" clip-rule="evenodd" d="M7.51054 181.994C7.4346 180.111 7.0259 177.066 7.0259 177.066H6.22142C5.54155 177.066 4.99469 177.615 5.00004 178.298V216.187C5.00536 216.867 5.85169 217.473 6.53366 217.473L7.23568 217.472C7.273 217.455 7.42234 217.234 7.51905 214.864L7.53871 189.636C7.53781 185.868 7.53278 183.005 7.52036 182.318L7.51054 181.994Z" fill="url(#paint1_linear_4454_8346)"/>
<mask id="mask1_4454_8346" style="mask-type:luminance" maskUnits="userSpaceOnUse" x="5" y="177" width="3" height="41">
<path fill-rule="evenodd" clip-rule="evenodd" d="M7.51054 181.994C7.4346 180.111 7.0259 177.066 7.0259 177.066H6.22142C5.54155 177.066 4.99469 177.615 5.00004 178.298V216.187C5.00536 216.867 5.85169 217.473 6.53366 217.473L7.23568 217.472C7.273 217.455 7.42234 217.234 7.51905 214.864L7.53871 189.636C7.53781 185.868 7.53278 183.005 7.52036 182.318L7.51054 181.994Z" fill="white"/>
</mask>
<g mask="url(#mask1_4454_8346)">
<path fill-rule="evenodd" clip-rule="evenodd" d="M4.18508 178.612V176.633L4.22055 176.611C4.43476 176.499 5.54738 176.186 5.57663 181.719L5.57721 211.585C5.57721 216.802 4.97279 217.518 4.73553 217.807L4.04199 216.433C4.88738 215.178 5.05062 213.657 5.0612 211.328L5.06178 184.42C5.06178 181.466 4.42786 178.6 4.18508 178.612Z" fill="#CBCBCB"/>
</g>
<path fill-rule="evenodd" clip-rule="evenodd" d="M7.51054 130.525C7.4346 128.643 7.0259 125.598 7.0259 125.598H6.22142C5.54155 125.598 4.99469 126.146 5.00004 126.829V164.756C5.00536 165.436 5.85169 166.004 6.53366 166.004L7.23568 166.003C7.273 165.986 7.42234 165.765 7.51905 163.395L7.53871 138.167C7.53781 134.399 7.53278 131.536 7.52036 130.849L7.51054 130.525Z" fill="url(#paint2_linear_4454_8346)"/>
<mask id="mask2_4454_8346" style="mask-type:luminance" maskUnits="userSpaceOnUse" x="5" y="125" width="3" height="42">
<path fill-rule="evenodd" clip-rule="evenodd" d="M7.51054 130.525C7.4346 128.643 7.0259 125.598 7.0259 125.598H6.22142C5.54155 125.598 4.99469 126.146 5.00004 126.829V164.756C5.00536 165.436 5.85169 166.004 6.53366 166.004L7.23568 166.003C7.273 165.986 7.42234 165.765 7.51905 163.395L7.53871 138.167C7.53781 134.399 7.53278 131.536 7.52036 130.849L7.51054 130.525Z" fill="white"/>
</mask>
<g mask="url(#mask2_4454_8346)">
<path fill-rule="evenodd" clip-rule="evenodd" d="M4.18508 127.144V125.164L4.22055 125.142C4.43476 125.031 5.54738 124.718 5.57663 130.25L5.57721 160.117C5.57721 165.333 4.97279 166.049 4.73553 166.339L4.04199 164.965C4.88738 163.709 5.05062 162.188 5.0612 159.86L5.06178 132.951C5.06178 129.997 4.42786 127.131 4.18508 127.144Z" fill="#CBCBCB"/>
</g>
<path fill-rule="evenodd" clip-rule="evenodd" d="M7.51054 91.3106C7.4346 89.4277 7.0259 86.3828 7.0259 86.3828H6.22142C5.54155 86.3828 4.99469 86.931 5.00004 87.6142L5.03483 105.875C5.04015 106.555 5.85169 107.182 6.53366 107.182L7.23568 107.182C7.273 107.164 7.42234 106.943 7.51905 104.574L7.53871 98.9521C7.53781 95.1843 7.53278 92.3215 7.52036 91.6345L7.51054 91.3106Z" fill="url(#paint3_linear_4454_8346)"/>
<mask id="mask3_4454_8346" style="mask-type:luminance" maskUnits="userSpaceOnUse" x="5" y="86" width="3" height="22">
<path fill-rule="evenodd" clip-rule="evenodd" d="M7.51054 91.3106C7.4346 89.4277 7.0259 86.3828 7.0259 86.3828H6.22142C5.54155 86.3828 4.99469 86.931 5.00004 87.6142L5.03483 105.875C5.04015 106.555 5.85169 107.182 6.53366 107.182L7.23568 107.182C7.273 107.164 7.42234 106.943 7.51905 104.574L7.53871 98.9521C7.53781 95.1843 7.53278 92.3215 7.52036 91.6345L7.51054 91.3106Z" fill="white"/>
</mask>
<g mask="url(#mask3_4454_8346)">
<path fill-rule="evenodd" clip-rule="evenodd" d="M5.24151 87.6607C5.24151 87.6607 5.12492 87.018 4.99998 86.806C4.78465 86.4405 4.2207 85.9281 4.2207 85.9281C4.43889 85.8044 5.85799 85.551 5.88723 91.0834L5.88782 101.343C5.88782 106.559 4.97294 107.227 4.73568 107.517L4.79705 106.704C5.52676 105.394 5.40079 103.671 5.41138 101.343V93.908C5.41138 90.954 5.30988 87.9929 5.24151 87.6607Z" fill="#CBCBCB"/>
</g>
<ellipse cx="99.1042" cy="24.0222" rx="3.78709" ry="3.79248" transform="rotate(-74 99.1042 24.0222)" fill="url(#paint4_linear_4454_8346)" fill-opacity="0.5" stroke="url(#paint5_linear_4454_8346)" stroke-width="0.377534"/>
<ellipse cx="99.1043" cy="24.0219" rx="2.52473" ry="2.52832" transform="rotate(-74 99.1043 24.0219)" fill="url(#paint6_linear_4454_8346)" fill-opacity="0.5"/>
<mask id="mask4_4454_8346" style="mask-type:luminance" maskUnits="userSpaceOnUse" x="96" y="21" width="6" height="6">
<ellipse cx="99.1043" cy="24.0219" rx="2.52473" ry="2.52832" transform="rotate(-74 99.1043 24.0219)" fill="white"/>
</mask>
<g mask="url(#mask4_4454_8346)">
</g>
<g filter="url(#filter2_d_4454_8346)">
<path fill-rule="evenodd" clip-rule="evenodd" d="M116.773 7.52539C115.891 7.52539 115.177 8.24 115.177 9.12153V9.12153C115.177 10.003 115.891 10.7177 116.773 10.7177H161.072C161.954 10.7177 162.668 10.003 162.668 9.12153V9.12153C162.668 8.24 161.954 7.52539 161.072 7.52539H116.773Z" fill="#E4E1E1" fill-opacity="0.328973"/>
<path d="M161.072 10.5468H116.773C115.986 10.5468 115.347 9.90867 115.347 9.12153C115.347 8.33438 115.986 7.69628 116.773 7.69628H161.072C161.859 7.69628 162.497 8.33438 162.497 9.12153C162.497 9.90867 161.859 10.5468 161.072 10.5468Z" stroke="url(#paint7_linear_4454_8346)" stroke-width="0.341772"/>
</g>
</g>
<defs>
<filter id="filter0_d_4454_8346" x="0.215189" y="-0.392405" width="277.519" height="549.57" filterUnits="userSpaceOnUse" color-interpolation-filters="sRGB">
<feFlood flood-opacity="0" result="BackgroundImageFix"/>
<feColorMatrix in="SourceAlpha" type="matrix" values="0 0 0 0 0 0 0 0 0 0 0 0 0 0 0 0 0 0 127 0" result="hardAlpha"/>
<feOffset dy="2.39241"/>
<feGaussianBlur stdDeviation="2.39241"/>
<feComposite in2="hardAlpha" operator="out"/>
<feColorMatrix type="matrix" values="0 0 0 0 0 0 0 0 0 0 0 0 0 0 0 0 0 0 0.15 0"/>
<feBlend mode="normal" in2="BackgroundImageFix" result="effect1_dropShadow_4454_8346"/>
<feBlend mode="normal" in="SourceGraphic" in2="effect1_dropShadow_4454_8346" result="shape"/>
</filter>
<filter id="filter1_bd_4454_8346" x="-31.6712" y="-36.2342" width="341.092" height="616.045" filterUnits="userSpaceOnUse" color-interpolation-filters="sRGB">
<feFlood flood-opacity="0" result="BackgroundImageFix"/>
<feGaussianBlur in="BackgroundImageFix" stdDeviation="19.5097"/>
<feComposite in2="SourceAlpha" operator="in" result="effect1_backgroundBlur_4454_8346"/>
<feColorMatrix in="SourceAlpha" type="matrix" values="0 0 0 0 0 0 0 0 0 0 0 0 0 0 0 0 0 0 127 0" result="hardAlpha"/>
<feOffset dy="0.683544"/>
<feColorMatrix type="matrix" values="0 0 0 0 1 0 0 0 0 1 0 0 0 0 1 0 0 0 0.5 0"/>
<feBlend mode="normal" in2="effect1_backgroundBlur_4454_8346" result="effect2_dropShadow_4454_8346"/>
<feBlend mode="normal" in="SourceGraphic" in2="effect2_dropShadow_4454_8346" result="shape"/>
</filter>
<filter id="filter2_d_4454_8346" x="115.177" y="7.52539" width="47.4917" height="3.19141" filterUnits="userSpaceOnUse" color-interpolation-filters="sRGB">
<feFlood flood-opacity="0" result="BackgroundImageFix"/>
<feColorMatrix in="SourceAlpha" type="matrix" values="0 0 0 0 0 0 0 0 0 0 0 0 0 0 0 0 0 0 127 0" result="hardAlpha"/>
<feOffset/>
<feColorMatrix type="matrix" values="0 0 0 0 1 0 0 0 0 1 0 0 0 0 1 0 0 0 0.5 0"/>
<feBlend mode="normal" in2="BackgroundImageFix" result="effect1_dropShadow_4454_8346"/>
<feBlend mode="normal" in="SourceGraphic" in2="effect1_dropShadow_4454_8346" result="shape"/>
</filter>
<linearGradient id="paint0_linear_4454_8346" x1="270.202" y1="143.811" x2="267.468" y2="207.997" gradientUnits="userSpaceOnUse">
<stop stop-color="#B9B9B9"/>
<stop offset="0.0907565" stop-color="white"/>
<stop offset="0.906424" stop-color="white"/>
<stop offset="1" stop-color="#C9C9C9"/>
</linearGradient>
<linearGradient id="paint1_linear_4454_8346" x1="5" y1="177.032" x2="3.91769" y2="217.41" gradientUnits="userSpaceOnUse">
<stop stop-color="#B9B9B9"/>
<stop offset="0.0907565" stop-color="white"/>
<stop offset="0.906424" stop-color="white"/>
<stop offset="1" stop-color="#C9C9C9"/>
</linearGradient>
<linearGradient id="paint2_linear_4454_8346" x1="5" y1="125.564" x2="3.91769" y2="165.941" gradientUnits="userSpaceOnUse">
<stop stop-color="#B9B9B9"/>
<stop offset="0.0907565" stop-color="white"/>
<stop offset="0.906424" stop-color="white"/>
<stop offset="1" stop-color="#C9C9C9"/>
</linearGradient>
<linearGradient id="paint3_linear_4454_8346" x1="5" y1="86.3653" x2="4.71307" y2="107.161" gradientUnits="userSpaceOnUse">
<stop stop-color="#B9B9B9"/>
<stop offset="0.0907565" stop-color="white"/>
<stop offset="0.906424" stop-color="white"/>
<stop offset="1" stop-color="#C9C9C9"/>
</linearGradient>
<linearGradient id="paint4_linear_4454_8346" x1="97.8283" y1="19.7331" x2="94.618" y2="25.3378" gradientUnits="userSpaceOnUse">
<stop stop-color="#FDFDFD"/>
<stop offset="1" stop-color="#E2E2E2"/>
</linearGradient>
<linearGradient id="paint5_linear_4454_8346" x1="96.273" y1="19.4887" x2="94.789" y2="28.1224" gradientUnits="userSpaceOnUse">
<stop stop-color="white"/>
<stop offset="1" stop-color="white"/>
</linearGradient>
<linearGradient id="paint6_linear_4454_8346" x1="102.813" y1="26.8499" x2="102.306" y2="21.2406" gradientUnits="userSpaceOnUse">
<stop stop-color="white"/>
<stop offset="1" stop-color="#D8D8D8"/>
</linearGradient>
<linearGradient id="paint7_linear_4454_8346" x1="162.668" y1="10.7177" x2="162.668" y2="7.52539" gradientUnits="userSpaceOnUse">
<stop stop-color="white" stop-opacity="0.2"/>
<stop offset="1" stop-color="#B1B1B1"/>
</linearGradient>
<clipPath id="clip0_4454_8346">
<rect width="15.3312" height="7.29255" fill="white" transform="translate(231.137 27.291)"/>
</clipPath>
</defs>
</svg>
