<svg width="129" height="125" viewBox="0 0 129 125" fill="none" xmlns="http://www.w3.org/2000/svg">
<g filter="url(#filter0_d_5568_14032)">
<g clip-path="url(#clip0_5568_14032)">
<rect x="0.814941" y="30.2053" width="52.7081" height="83.0333" rx="3.61014" transform="rotate(-22.6124 0.814941 30.2053)" fill="#CACACA"/>
<g clip-path="url(#clip1_5568_14032)">
<path d="M21.8976 28.8044C20.9375 29.2043 20.4849 30.303 20.8848 31.2631L21.6078 32.9988L21.6123 33.0097C19.5683 34.0011 18.3074 36.1239 18.4391 38.4114L18.8003 44.658C17.7588 45.7029 17.3866 47.3155 17.9898 48.7638L21.2431 56.5746L22.3275 59.1782C22.7274 60.1383 23.8262 60.5909 24.7862 60.191L26.522 59.468C27.4821 59.0682 27.9347 57.9694 27.5348 57.0093L26.4503 54.4057L43.8077 47.1761L44.8922 49.7798C45.2921 50.7398 46.3908 51.1924 47.3509 50.7925L49.0866 50.0696C50.0467 49.6697 50.4993 48.571 50.0994 47.6109L49.0149 45.0073L45.7616 37.1964C45.1584 35.7482 43.7515 34.8766 42.2762 34.88L38.0963 30.2239C36.5652 28.5193 34.1679 27.9137 32.0267 28.6719L32.0222 28.661L31.2993 26.9253C30.8994 25.9652 29.8006 25.5126 28.8406 25.9125L21.8976 28.8044ZM23.3466 36.3483L33.1752 32.2545C33.9129 31.9473 34.7635 32.1404 35.2968 32.733L38.3979 36.1898L22.4617 42.8275L22.192 38.1914C22.1469 37.3954 22.6089 36.6555 23.3466 36.3483ZM23.197 46.5949C23.6574 46.4032 24.175 46.4021 24.6361 46.5921C25.0972 46.782 25.464 47.1473 25.6557 47.6077C25.8475 48.068 25.8485 48.5857 25.6585 49.0468C25.4686 49.5079 25.1033 49.8746 24.6429 50.0664C24.1826 50.2581 23.6649 50.2591 23.2038 50.0692C22.7427 49.8793 22.376 49.514 22.1842 49.0536C21.9925 48.5933 21.9915 48.0756 22.1814 47.6145C22.3713 47.1534 22.7367 46.7866 23.197 46.5949ZM39.5416 41.824C39.3499 41.3637 39.3489 40.846 39.5388 40.3849C39.7287 39.9238 40.0941 39.5571 40.5544 39.3653C41.0148 39.1736 41.5324 39.1726 41.9935 39.3625C42.4546 39.5524 42.8214 39.9177 43.0131 40.3781C43.2049 40.8384 43.2059 41.3561 43.0159 41.8172C42.826 42.2783 42.4607 42.6451 42.0003 42.8368C41.54 43.0285 41.0223 43.0295 40.5612 42.8396C40.1001 42.6497 39.7334 42.2844 39.5416 41.824Z" fill="#494949"/>
</g>
</g>
<rect x="0.932959" y="30.2539" width="52.5276" height="82.8528" rx="3.51989" transform="rotate(-22.6124 0.932959 30.2539)" stroke="#BCBCBC" stroke-width="0.180507"/>
</g>
<g filter="url(#filter1_d_5568_14032)">
<g clip-path="url(#clip2_5568_14032)">
<rect width="52.7081" height="83.0333" rx="3.61014" transform="matrix(-0.965926 -0.258819 -0.258819 0.965926 125.004 40.9116)" fill="#777777"/>
<path d="M78.7129 92.4499C80.1109 93.9928 81.1861 95.8194 81.8724 97.8168C82.0822 98.4271 82.2546 99.0549 82.3875 99.6885C82.8297 99.2092 83.3 98.7656 83.7947 98.3511C85.4132 96.9944 87.2768 95.9846 89.2705 95.3846C91.9155 94.5864 94.7848 94.5029 97.5978 95.2849L98.096 95.4233C98.6546 95.5786 98.978 96.1703 98.8183 96.7449C96.689 104.405 88.9303 108.934 81.4826 106.864L80.4711 106.583L79.4596 106.302C72.012 104.232 67.7034 96.3485 69.8327 88.688C69.9924 88.1134 70.5748 87.7735 71.1333 87.9288L71.6315 88.0672C74.4445 88.8491 76.8591 90.4013 78.7129 92.4499ZM87.5154 83.8731C88.0623 84.9675 89.5571 88.4441 89.3945 93.5734C87.1714 94.1599 85.0706 95.2041 83.2364 96.6347C82.4035 94.4627 81.1414 92.4893 79.5414 90.8346C82.044 86.3558 85.1185 84.1492 86.1567 83.4955C86.3861 83.3529 86.66 83.3231 86.9166 83.3944C87.1733 83.4658 87.3925 83.6327 87.5154 83.8731Z" fill="#FAFAFA"/>
</g>
<rect x="-0.110538" y="0.0638189" width="52.5276" height="82.8528" rx="3.51989" transform="matrix(-0.965926 -0.258819 -0.258819 0.965926 124.803 40.8852)" stroke="#BCBCBC" stroke-width="0.180507"/>
</g>
<g filter="url(#filter2_d_5568_14032)">
<rect x="40.3291" y="1.99818" width="52.7081" height="83.0333" rx="3.61014" fill="url(#paint0_linear_5568_14032)"/>
<rect x="40.4194" y="2.08844" width="52.5276" height="82.8528" rx="3.51989" stroke="#BCBCBC" stroke-width="0.180507"/>
<path d="M64.4405 43.6675L67.4078 42.1445H77.8022V47.9465H71.0567C69.7699 47.0339 68.2069 46.496 66.5205 46.496C64.8342 46.496 63.277 47.0339 61.9844 47.9465H55.2388V44.0785H62.76C63.3417 44.0785 63.9175 43.9395 64.4405 43.6675ZM51.4783 44.0785V61.4845C51.4783 63.618 53.1647 65.3525 55.2388 65.3525H77.8022C79.8764 65.3525 81.5628 63.618 81.5628 61.4845V42.1445C81.5628 40.011 79.8764 38.2765 77.8022 38.2765H67.4078C66.8261 38.2765 66.2502 38.4155 65.7273 38.6874L62.76 40.2105H60.8797V39.2435C60.8797 38.7116 60.4566 38.2765 59.9395 38.2765H56.179C55.6619 38.2765 55.2388 38.7116 55.2388 39.2435V40.2105C53.1647 40.2105 51.4783 41.945 51.4783 44.0785ZM61.3498 54.7155C61.3498 53.3049 61.8945 51.9522 62.8642 50.9547C63.834 49.9573 65.1492 49.397 66.5205 49.397C67.8919 49.397 69.2071 49.9573 70.1768 50.9547C71.1465 51.9522 71.6913 53.3049 71.6913 54.7155C71.6913 56.1261 71.1465 57.4788 70.1768 58.4763C69.2071 59.4737 67.8919 60.034 66.5205 60.034C65.1492 60.034 63.834 59.4737 62.8642 58.4763C61.8945 57.4788 61.3498 56.1261 61.3498 54.7155Z" fill="#777777"/>
</g>
<defs>
<filter id="filter0_d_5568_14032" x="-0.629116" y="8.4952" width="86.3585" height="102.693" filterUnits="userSpaceOnUse" color-interpolation-filters="sRGB">
<feFlood flood-opacity="0" result="BackgroundImageFix"/>
<feColorMatrix in="SourceAlpha" type="matrix" values="0 0 0 0 0 0 0 0 0 0 0 0 0 0 0 0 0 0 127 0" result="hardAlpha"/>
<feOffset dx="1.44406" dy="1.44406"/>
<feGaussianBlur stdDeviation="1.44406"/>
<feComposite in2="hardAlpha" operator="out"/>
<feColorMatrix type="matrix" values="0 0 0 0 0.317647 0 0 0 0 0.301961 0 0 0 0 0.270588 0 0 0 0.25 0"/>
<feBlend mode="normal" in2="BackgroundImageFix" result="effect1_dropShadow_5568_14032"/>
<feBlend mode="normal" in="SourceGraphic" in2="effect1_dropShadow_5568_14032" result="shape"/>
</filter>
<filter id="filter1_d_5568_14032" x="51.157" y="25.8257" width="78.1791" height="99.6221" filterUnits="userSpaceOnUse" color-interpolation-filters="sRGB">
<feFlood flood-opacity="0" result="BackgroundImageFix"/>
<feColorMatrix in="SourceAlpha" type="matrix" values="0 0 0 0 0 0 0 0 0 0 0 0 0 0 0 0 0 0 127 0" result="hardAlpha"/>
<feOffset dx="1.44406" dy="1.44406"/>
<feGaussianBlur stdDeviation="1.44406"/>
<feComposite in2="hardAlpha" operator="out"/>
<feColorMatrix type="matrix" values="0 0 0 0 0.317647 0 0 0 0 0.301961 0 0 0 0 0.270588 0 0 0 0.25 0"/>
<feBlend mode="normal" in2="BackgroundImageFix" result="effect1_dropShadow_5568_14032"/>
<feBlend mode="normal" in="SourceGraphic" in2="effect1_dropShadow_5568_14032" result="shape"/>
</filter>
<filter id="filter2_d_5568_14032" x="38.885" y="0.554127" width="58.4842" height="88.8095" filterUnits="userSpaceOnUse" color-interpolation-filters="sRGB">
<feFlood flood-opacity="0" result="BackgroundImageFix"/>
<feColorMatrix in="SourceAlpha" type="matrix" values="0 0 0 0 0 0 0 0 0 0 0 0 0 0 0 0 0 0 127 0" result="hardAlpha"/>
<feOffset dx="1.44406" dy="1.44406"/>
<feGaussianBlur stdDeviation="1.44406"/>
<feComposite in2="hardAlpha" operator="out"/>
<feColorMatrix type="matrix" values="0 0 0 0 0.317647 0 0 0 0 0.301961 0 0 0 0 0.270588 0 0 0 0.25 0"/>
<feBlend mode="normal" in2="BackgroundImageFix" result="effect1_dropShadow_5568_14032"/>
<feBlend mode="normal" in="SourceGraphic" in2="effect1_dropShadow_5568_14032" result="shape"/>
</filter>
<linearGradient id="paint0_linear_5568_14032" x1="40.3291" y1="1.99818" x2="105.51" y2="13.3377" gradientUnits="userSpaceOnUse">
<stop stop-color="#F3F3F3"/>
<stop offset="1" stop-color="#FAFAFA"/>
</linearGradient>
<clipPath id="clip0_5568_14032">
<rect x="0.814941" y="30.2053" width="52.7081" height="83.0333" rx="3.61014" transform="rotate(-22.6124 0.814941 30.2053)" fill="white"/>
</clipPath>
<clipPath id="clip1_5568_14032">
<rect width="36.1014" height="36.1014" fill="white" transform="translate(7.54932 31.5217) rotate(-22.6124)"/>
</clipPath>
<clipPath id="clip2_5568_14032">
<rect width="52.7081" height="83.0333" rx="3.61014" transform="matrix(-0.965926 -0.258819 -0.258819 0.965926 125.004 40.9116)" fill="white"/>
</clipPath>
</defs>
</svg>
