<svg width="235" height="31" viewBox="0 0 235 31" fill="none" xmlns="http://www.w3.org/2000/svg">
<g clip-path="url(#clip0_1310_59705)">
<rect width="235" height="30" transform="translate(0 0.830017)" fill="#BFBFBF"/>
<rect width="235" height="10" transform="translate(0 20.83)" fill="#F3F3F3"/>
<path d="M51.75 5.83002L40.25 25.83H194.75L182.75 5.83002H51.75Z" fill="#F3F3F3"/>
<circle cx="10" cy="10.83" r="2" fill="#D9D9D9"/>
<circle cx="18" cy="10.83" r="2" fill="#D9D9D9"/>
<circle cx="26" cy="10.83" r="2" fill="#D9D9D9"/>
<rect x="52" y="9.83002" width="12" height="12" rx="1" fill="white"/>
<path d="M61.6658 12.9981H54.3296C54.0534 12.9981 53.8296 13.2219 53.8296 13.4981V20.0003C53.8296 20.2764 54.0534 20.5003 54.3296 20.5003H61.6658C61.942 20.5003 62.1658 20.2764 62.1658 20.0003V13.4981C62.1658 13.2219 61.942 12.9981 61.6658 12.9981Z" stroke="#333333" stroke-width="0.8" stroke-miterlimit="10"/>
<path d="M53 20.5003H63" stroke="#333333" stroke-width="0.8" stroke-miterlimit="10"/>
<path d="M60.8317 11.33H55.1636C54.8874 11.33 54.6636 11.5539 54.6636 11.83V12.4981C54.6636 12.7743 54.8874 12.9981 55.1636 12.9981H60.8317C61.1078 12.9981 61.3317 12.7743 61.3317 12.4981V11.83C61.3317 11.5539 61.1078 11.33 60.8317 11.33Z" stroke="#333333" stroke-width="0.8" stroke-miterlimit="10"/>
<path d="M59.5873 17.9981H56.417C56.1408 17.9981 55.917 18.222 55.917 18.4981V20.0003C55.917 20.2765 56.1408 20.5003 56.417 20.5003H59.5873C59.8634 20.5003 60.0873 20.2765 60.0873 20.0003V18.4981C60.0873 18.222 59.8634 17.9981 59.5873 17.9981Z" stroke="#333333" stroke-width="0.8" stroke-miterlimit="10"/>
<path d="M55.083 14.6663H55.9171" stroke="#333333" stroke-width="0.8" stroke-miterlimit="10" stroke-linecap="round"/>
<path d="M56.751 14.6663H57.585" stroke="#333333" stroke-width="0.8" stroke-miterlimit="10" stroke-linecap="round"/>
<path d="M58.415 14.6663H59.2491" stroke="#333333" stroke-width="0.8" stroke-miterlimit="10" stroke-linecap="round"/>
<path d="M60.083 14.6663H60.9171" stroke="#333333" stroke-width="0.8" stroke-miterlimit="10" stroke-linecap="round"/>
<path d="M55.083 16.3301H55.9171" stroke="#333333" stroke-width="0.8" stroke-miterlimit="10" stroke-linecap="round"/>
<path d="M56.751 16.3301H57.585" stroke="#333333" stroke-width="0.8" stroke-miterlimit="10" stroke-linecap="round"/>
<path d="M58.415 16.3301H59.2491" stroke="#333333" stroke-width="0.8" stroke-miterlimit="10" stroke-linecap="round"/>
<path d="M60.083 16.3301H60.9171" stroke="#333333" stroke-width="0.8" stroke-miterlimit="10" stroke-linecap="round"/>
<path d="M58 17.9981V20.5003" stroke="#333333" stroke-width="0.8" stroke-miterlimit="10"/>
<path d="M70.03 19.33L68.06 14.03H68.97L70.72 18.83H70.29L72.11 14.03H72.92L74.7 18.83H74.28L76.07 14.03H76.93L74.95 19.33H74.03L72.36 14.95H72.64L70.95 19.33H70.03ZM78.946 19.33L76.976 14.03H77.886L79.636 18.83H79.206L81.026 14.03H81.836L83.616 18.83H83.196L84.986 14.03H85.846L83.866 19.33H82.946L81.276 14.95H81.556L79.866 19.33H78.946ZM87.862 19.33L85.892 14.03H86.802L88.552 18.83H88.122L89.942 14.03H90.752L92.532 18.83H92.112L93.902 14.03H94.762L92.782 19.33H91.862L90.192 14.95H90.472L88.782 19.33H87.862ZM95.6341 19.39C95.4475 19.39 95.2875 19.3267 95.1541 19.2C95.0208 19.0667 94.9541 18.9 94.9541 18.7C94.9541 18.5 95.0208 18.3367 95.1541 18.21C95.2875 18.0834 95.4475 18.02 95.6341 18.02C95.8141 18.02 95.9675 18.0834 96.0941 18.21C96.2275 18.3367 96.2941 18.5 96.2941 18.7C96.2941 18.9 96.2275 19.0667 96.0941 19.2C95.9675 19.3267 95.8141 19.39 95.6341 19.39Z" fill="#333333"/>
<path d="M174.551 12.3811C174.599 12.3332 174.655 12.2952 174.718 12.2693C174.78 12.2434 174.847 12.23 174.915 12.23C174.983 12.23 175.05 12.2434 175.112 12.2693C175.175 12.2952 175.231 12.3332 175.279 12.3811L178 15.1031L180.721 12.3811C180.769 12.3333 180.826 12.2953 180.888 12.2695C180.951 12.2436 181.017 12.2303 181.085 12.2303C181.153 12.2303 181.22 12.2436 181.282 12.2695C181.345 12.2953 181.401 12.3333 181.449 12.3811C181.497 12.4289 181.535 12.4856 181.561 12.5481C181.587 12.6106 181.6 12.6775 181.6 12.7451C181.6 12.8127 181.587 12.8797 181.561 12.9421C181.535 13.0046 181.497 13.0613 181.449 13.1091L178.727 15.8301L181.449 18.5512C181.497 18.599 181.535 18.6557 181.561 18.7182C181.587 18.7806 181.6 18.8476 181.6 18.9152C181.6 18.9828 181.587 19.0497 181.561 19.1122C181.535 19.1747 181.497 19.2314 181.449 19.2792C181.401 19.327 181.345 19.365 181.282 19.3908C181.22 19.4167 181.153 19.43 181.085 19.43C181.017 19.43 180.951 19.4167 180.888 19.3908C180.826 19.365 180.769 19.327 180.721 19.2792L178 16.5572L175.279 19.2792C175.231 19.327 175.174 19.365 175.112 19.3908C175.05 19.4167 174.983 19.43 174.915 19.43C174.847 19.43 174.78 19.4167 174.718 19.3908C174.656 19.365 174.599 19.327 174.551 19.2792C174.503 19.2314 174.465 19.1747 174.439 19.1122C174.413 19.0497 174.4 18.9828 174.4 18.9152C174.4 18.8476 174.413 18.7806 174.439 18.7182C174.465 18.6557 174.503 18.599 174.551 18.5512L177.273 15.8301L174.551 13.1091C174.503 13.0614 174.465 13.0046 174.439 12.9422C174.413 12.8797 174.4 12.8127 174.4 12.7451C174.4 12.6775 174.413 12.6105 174.439 12.548C174.465 12.4856 174.503 12.4288 174.551 12.3811Z" fill="#333333"/>
</g>
<defs>
<clipPath id="clip0_1310_59705">
<rect width="235" height="30" fill="white" transform="translate(0 0.830017)"/>
</clipPath>
</defs>
</svg>
