<svg width="222" height="264" viewBox="0 0 222 264" fill="none" xmlns="http://www.w3.org/2000/svg">
<g opacity="0.5" clip-path="url(#clip0_5476_11144)">
<path d="M179.47 217.512C174.471 232.153 168.043 246.762 159.807 260.667C159.625 260.98 159.44 261.287 159.253 261.599L138.865 255.149C138.983 254.854 139.111 254.524 139.249 254.163C147.472 232.897 197.086 103.324 194.859 77.7773C195.099 79.8685 202.86 149.073 179.47 217.512Z" fill="#E6E6E6"/>
<path d="M163.744 261.912C163.467 262.195 163.183 262.476 162.896 262.751L147.602 257.912C147.808 257.662 148.049 257.367 148.326 257.034C152.856 251.502 166.323 234.94 179.473 217.513C193.605 198.786 207.374 179.063 209.304 170.959C208.916 172.802 196.848 228.9 163.744 261.912Z" fill="#E6E6E6"/>
<path d="M171.39 46.1678C171.384 46.1678 171.379 46.1695 171.373 46.1697V13.3837C171.373 9.83414 169.963 6.42994 167.453 3.92C164.943 1.41007 161.539 0 157.989 0H55.3441C51.7945 0 48.3903 1.41007 45.8804 3.92C43.3704 6.42994 41.9603 9.83414 41.9603 13.3837V30.1915C41.677 30.1976 41.4072 30.3143 41.2089 30.5168C41.0105 30.7193 40.8993 30.9913 40.899 31.2748V39.5999C40.8993 39.8833 41.0105 40.1554 41.2088 40.3578C41.4072 40.5602 41.677 40.6769 41.9603 40.6829V49.4042H41.9059C41.7634 49.4042 41.6222 49.4323 41.4905 49.4869C41.3588 49.5414 41.2391 49.6214 41.1383 49.7222C41.0374 49.823 40.9575 49.9427 40.9029 50.0744C40.8484 50.2061 40.8203 50.3473 40.8203 50.4899V66.5885C40.8203 66.7311 40.8484 66.8722 40.9029 67.004C40.9575 67.1357 41.0374 67.2553 41.1383 67.3562C41.2391 67.457 41.3588 67.5369 41.4905 67.5915C41.6222 67.646 41.7634 67.6741 41.9059 67.6741H41.9603V74.068H41.9434C41.8008 74.068 41.6597 74.0961 41.528 74.1506C41.3963 74.2052 41.2766 74.2851 41.1758 74.3859C41.075 74.4868 40.995 74.6064 40.9404 74.7381C40.8859 74.8699 40.8578 75.011 40.8578 75.1536V91.4097C40.8578 91.5523 40.8859 91.6934 40.9404 91.8252C40.995 91.9569 41.075 92.0766 41.1758 92.1774C41.2766 92.2782 41.3963 92.3581 41.528 92.4127C41.6597 92.4673 41.8008 92.4953 41.9434 92.4953H41.9603V249.63C41.9603 253.18 43.3704 256.584 45.8804 259.094C48.3903 261.604 51.7945 263.014 55.3441 263.014H157.989C161.539 263.014 164.943 261.604 167.453 259.094C169.963 256.584 171.373 253.18 171.373 249.63V78.0487C171.379 78.0487 171.384 78.0504 171.39 78.0504C171.644 78.0504 171.895 78.0004 172.129 77.9032C172.364 77.8061 172.577 77.6637 172.757 77.4842C172.936 77.3047 173.079 77.0916 173.176 76.8571C173.273 76.6225 173.323 76.3712 173.323 76.1173V48.1011C173.323 47.5884 173.119 47.0966 172.757 46.7341C172.394 46.3715 171.902 46.1679 171.39 46.1678Z" fill="#3F3D56"/>
<path d="M163.379 17.1284V245.878C163.378 248.604 162.295 251.217 160.367 253.144C158.44 255.071 155.826 256.153 153.1 256.153H60.228C57.5025 256.153 54.8887 255.071 52.9611 253.144C51.0336 251.217 49.9502 248.604 49.9492 245.878V17.1284C49.9492 14.4023 51.0322 11.7878 52.9598 9.86018C54.8874 7.93254 57.5019 6.84961 60.228 6.84961H74.1255V8.65336C74.1265 10.8978 75.0185 13.05 76.6055 14.637C78.1926 16.2241 80.3448 17.1161 82.5892 17.1171H129.839C132.081 17.1121 134.229 16.2182 135.812 14.6315C137.395 13.0448 138.284 10.8948 138.284 8.65336V6.86836H153.1C155.823 6.86835 158.435 7.94872 160.362 9.8723C162.289 11.7959 163.374 14.4055 163.379 17.1284Z" fill="white"/>
<path d="M70.75 37.1221H60.625C60.3764 37.1221 60.1379 37.0233 59.9621 36.8475C59.7863 36.6717 59.6875 36.4332 59.6875 36.1846C59.6875 35.9359 59.7863 35.6975 59.9621 35.5217C60.1379 35.3458 60.3764 35.2471 60.625 35.2471H70.75C70.9986 35.2471 71.2371 35.3458 71.4129 35.5217C71.5887 35.6975 71.6875 35.9359 71.6875 36.1846C71.6875 36.4332 71.5887 36.6717 71.4129 36.8475C71.2371 37.0233 70.9986 37.1221 70.75 37.1221Z" fill="#3F3D56"/>
<path d="M70.75 39.7471H60.625C60.3764 39.7471 60.1379 39.6483 59.9621 39.4725C59.7863 39.2967 59.6875 39.0582 59.6875 38.8096C59.6875 38.5609 59.7863 38.3225 59.9621 38.1467C60.1379 37.9708 60.3764 37.8721 60.625 37.8721H70.75C70.9986 37.8721 71.2371 37.9708 71.4129 38.1467C71.5887 38.3225 71.6875 38.5609 71.6875 38.8096C71.6875 39.0582 71.5887 39.2967 71.4129 39.4725C71.2371 39.6483 70.9986 39.7471 70.75 39.7471Z" fill="#3F3D56"/>
<path d="M70.75 42.3721H60.625C60.3764 42.3721 60.1379 42.2733 59.9621 42.0975C59.7863 41.9217 59.6875 41.6832 59.6875 41.4346C59.6875 41.1859 59.7863 40.9475 59.9621 40.7717C60.1379 40.5958 60.3764 40.4971 60.625 40.4971H70.75C70.9986 40.4971 71.2371 40.5958 71.4129 40.7717C71.5887 40.9475 71.6875 41.1859 71.6875 41.4346C71.6875 41.6832 71.5887 41.9217 71.4129 42.0975C71.2371 42.2733 70.9986 42.3721 70.75 42.3721Z" fill="#3F3D56"/>
<path d="M149.237 39.7653H148.895L148.764 39.6566C149.195 39.1427 149.431 38.4935 149.432 37.8228C149.429 37.271 149.262 36.7325 148.953 36.2753C148.644 35.8182 148.206 35.4629 147.695 35.2545C147.184 35.0461 146.623 34.9939 146.083 35.1044C145.542 35.215 145.046 35.4834 144.658 35.8757C144.27 36.2679 144.007 36.7665 143.902 37.3083C143.798 37.85 143.856 38.4107 144.07 38.9194C144.284 39.428 144.644 39.8618 145.104 40.1659C145.564 40.47 146.105 40.6308 146.657 40.6278C147.325 40.6231 147.972 40.3872 148.487 39.9603L148.614 40.0691V40.4141L150.767 42.5703L151.412 41.9253L149.237 39.7653ZM146.657 39.7653C146.272 39.7668 145.896 39.6543 145.576 39.4421C145.256 39.2299 145.006 38.9275 144.857 38.5731C144.709 38.2188 144.669 37.8283 144.742 37.4512C144.816 37.0741 145 36.7273 145.27 36.4546C145.541 36.1819 145.886 35.9955 146.263 35.9191C146.639 35.8427 147.03 35.8797 147.385 36.0253C147.741 36.171 148.045 36.4188 148.26 36.7374C148.475 37.056 148.59 37.4311 148.591 37.8153L148.592 37.8228C148.593 38.0764 148.544 38.3278 148.449 38.5627C148.353 38.7976 148.212 39.0113 148.034 39.1917C147.856 39.3721 147.643 39.5156 147.41 39.614C147.176 39.7124 146.925 39.7638 146.672 39.7653C146.667 39.7653 146.662 39.7653 146.657 39.7653Z" fill="#3F3D56"/>
<path d="M91.377 71.6221H73.1875C72.0935 71.6221 71.0443 71.1875 70.2707 70.4139C69.4971 69.6403 69.0625 68.5911 69.0625 67.4971C69.0625 66.4031 69.4971 65.3538 70.2707 64.5803C71.0443 63.8067 72.0935 63.3721 73.1875 63.3721H91.377C92.471 63.3721 93.5203 63.8067 94.2938 64.5803C95.0674 65.3538 95.502 66.4031 95.502 67.4971C95.502 68.5911 95.0674 69.6403 94.2938 70.4139C93.5203 71.1875 92.471 71.6221 91.377 71.6221Z" fill="#34A98F"/>
<path d="M147.062 80.6221H71.3125C70.7158 80.6221 70.1435 80.385 69.7215 79.9631C69.2996 79.5411 69.0625 78.9688 69.0625 78.3721C69.0625 77.7753 69.2996 77.203 69.7215 76.7811C70.1435 76.3591 70.7158 76.1221 71.3125 76.1221H147.062C147.659 76.1221 148.232 76.3591 148.653 76.7811C149.075 77.203 149.312 77.7753 149.312 78.3721C149.312 78.9688 149.075 79.5411 148.653 79.9631C148.232 80.385 147.659 80.6221 147.062 80.6221Z" fill="#E6E6E6"/>
<path d="M99.1376 89.6221H71.3125C70.7158 89.6221 70.1435 89.385 69.7215 88.9631C69.2996 88.5411 69.0625 87.9688 69.0625 87.3721C69.0625 86.7753 69.2996 86.203 69.7215 85.7811C70.1435 85.3591 70.7158 85.1221 71.3125 85.1221H99.1376C99.7343 85.1221 100.307 85.3591 100.729 85.7811C101.151 86.203 101.388 86.7753 101.388 87.3721C101.388 87.9688 101.151 88.5411 100.729 88.9631C100.307 89.385 99.7343 89.6221 99.1376 89.6221Z" fill="#E6E6E6"/>
<path d="M91.377 171.372H73.1875C72.0935 171.372 71.0443 170.937 70.2707 170.164C69.4971 169.39 69.0625 168.341 69.0625 167.247C69.0625 166.153 69.4971 165.104 70.2707 164.33C71.0443 163.557 72.0935 163.122 73.1875 163.122H91.377C92.471 163.122 93.5203 163.557 94.2938 164.33C95.0674 165.104 95.502 166.153 95.502 167.247C95.502 168.341 95.0674 169.39 94.2938 170.164C93.5203 170.937 92.471 171.372 91.377 171.372Z" fill="#34A98F"/>
<path d="M147.062 180.372H71.3125C70.7158 180.372 70.1435 180.135 69.7215 179.713C69.2996 179.291 69.0625 178.719 69.0625 178.122C69.0625 177.525 69.2996 176.953 69.7215 176.531C70.1435 176.109 70.7158 175.872 71.3125 175.872H147.062C147.659 175.872 148.232 176.109 148.653 176.531C149.075 176.953 149.312 177.525 149.312 178.122C149.312 178.719 149.075 179.291 148.653 179.713C148.232 180.135 147.659 180.372 147.062 180.372Z" fill="#E6E6E6"/>
<path d="M99.1376 189.372H71.3125C70.7158 189.372 70.1435 189.135 69.7215 188.713C69.2996 188.291 69.0625 187.719 69.0625 187.122C69.0625 186.525 69.2996 185.953 69.7215 185.531C70.1435 185.109 70.7158 184.872 71.3125 184.872H99.1376C99.7343 184.872 100.307 185.109 100.729 185.531C101.151 185.953 101.388 186.525 101.388 187.122C101.388 187.719 101.151 188.291 100.729 188.713C100.307 189.135 99.7343 189.372 99.1376 189.372Z" fill="#E6E6E6"/>
<path d="M91.377 217.497H73.1875C72.0935 217.497 71.0443 217.062 70.2707 216.289C69.4971 215.515 69.0625 214.466 69.0625 213.372C69.0625 212.278 69.4971 211.229 70.2707 210.455C71.0443 209.682 72.0935 209.247 73.1875 209.247H91.377C92.471 209.247 93.5203 209.682 94.2938 210.455C95.0674 211.229 95.502 212.278 95.502 213.372C95.502 214.466 95.0674 215.515 94.2938 216.289C93.5203 217.062 92.471 217.497 91.377 217.497Z" fill="#34A98F"/>
<path d="M147.062 226.497H71.3125C70.7158 226.497 70.1435 226.26 69.7215 225.838C69.2996 225.416 69.0625 224.844 69.0625 224.247C69.0625 223.65 69.2996 223.078 69.7215 222.656C70.1435 222.234 70.7158 221.997 71.3125 221.997H147.062C147.659 221.997 148.232 222.234 148.653 222.656C149.075 223.078 149.312 223.65 149.312 224.247C149.312 224.844 149.075 225.416 148.653 225.838C148.232 226.26 147.659 226.497 147.062 226.497Z" fill="#E6E6E6"/>
<path d="M99.1376 235.497H71.3125C70.7158 235.497 70.1435 235.26 69.7215 234.838C69.2996 234.416 69.0625 233.844 69.0625 233.247C69.0625 232.65 69.2996 232.078 69.7215 231.656C70.1435 231.234 70.7158 230.997 71.3125 230.997H99.1376C99.7343 230.997 100.307 231.234 100.729 231.656C101.151 232.078 101.388 232.65 101.388 233.247C101.388 233.844 101.151 234.416 100.729 234.838C100.307 235.26 99.7343 235.497 99.1376 235.497Z" fill="#E6E6E6"/>
<path d="M157.75 147.935H13C12.1549 147.934 11.3447 147.597 10.7472 147C10.1496 146.402 9.81347 145.592 9.8125 144.747V105.372C9.81344 104.527 10.1496 103.717 10.7471 103.119C11.3447 102.522 12.1549 102.186 13 102.185H157.75C158.595 102.186 159.405 102.522 160.003 103.119C160.6 103.717 160.937 104.527 160.938 105.372V144.747C160.936 145.592 160.6 146.402 160.003 147C159.405 147.597 158.595 147.934 157.75 147.935Z" fill="#34A98F"/>
<path d="M64.4788 120.185H39.3336C37.7367 120.185 36.4375 118.334 36.4375 116.06C36.4375 113.785 37.7367 111.935 39.3336 111.935H64.4788C66.0758 111.935 67.375 113.785 67.375 116.06C67.375 118.334 66.0758 120.185 64.4788 120.185Z" fill="white"/>
<path d="M132.062 129.185H38.6875C38.0908 129.185 37.5185 128.948 37.0965 128.526C36.6746 128.104 36.4375 127.531 36.4375 126.935C36.4375 126.338 36.6746 125.766 37.0965 125.344C37.5185 124.922 38.0908 124.685 38.6875 124.685H132.062C132.659 124.685 133.232 124.922 133.653 125.344C134.075 125.766 134.312 126.338 134.312 126.935C134.312 127.531 134.075 128.104 133.653 128.526C133.232 128.948 132.659 129.185 132.062 129.185Z" fill="#E6E6E6"/>
<path d="M84.1376 138.185H38.6875C38.0908 138.185 37.5185 137.948 37.0965 137.526C36.6746 137.104 36.4375 136.531 36.4375 135.935C36.4375 135.338 36.6746 134.766 37.0965 134.344C37.5185 133.922 38.0908 133.685 38.6875 133.685H84.1376C84.7343 133.685 85.3066 133.922 85.7286 134.344C86.1505 134.766 86.3876 135.338 86.3876 135.935C86.3876 136.531 86.1505 137.104 85.7286 137.526C85.3066 137.948 84.7343 138.185 84.1376 138.185Z" fill="#E6E6E6"/>
<path d="M221.125 262.497H-75.125V263.247H221.125V262.497Z" fill="#3F3D56"/>
</g>
<defs>
<clipPath id="clip0_5476_11144">
<rect width="220.875" height="263.25" fill="white" transform="translate(0.25)"/>
</clipPath>
</defs>
</svg>
