<svg width="360" height="256" viewBox="0 0 360 256" fill="none" xmlns="http://www.w3.org/2000/svg">
<path d="M345.141 58.993H226.582C225.474 58.9917 224.411 58.5628 223.628 57.8004C222.844 57.038 222.404 56.0044 222.402 54.9262V42.512C222.404 41.4339 222.844 40.4002 223.628 39.6379C224.411 38.8755 225.474 38.4466 226.582 38.4453H345.141C346.249 38.4466 347.312 38.8755 348.095 39.6379C348.879 40.4002 349.319 41.4339 349.321 42.512V54.9262C349.319 56.0044 348.879 57.038 348.095 57.8004C347.312 58.5628 346.249 58.9917 345.141 58.993ZM226.582 38.8725C225.59 38.8735 224.64 39.2572 223.939 39.9393C223.238 40.6215 222.843 41.5463 222.842 42.511V54.9252C222.843 55.8899 223.238 56.8148 223.939 57.497C224.64 58.1791 225.59 58.5628 226.582 58.5638H345.141C346.133 58.5628 347.083 58.1791 347.784 57.497C348.485 56.8148 348.88 55.8899 348.881 54.9252V42.512C348.88 41.5472 348.486 40.622 347.785 39.9397C347.084 39.2573 346.133 38.8735 345.141 38.8725H226.582Z" fill="#CCCCCC"/>
<path d="M242.602 55.7896C241.164 55.7896 239.757 55.3745 238.561 54.5967C237.365 53.8189 236.432 52.7134 235.882 51.42C235.331 50.1266 235.187 48.7034 235.468 47.3303C235.749 45.9572 236.441 44.696 237.459 43.706C238.476 42.7161 239.772 42.0419 241.183 41.7688C242.594 41.4957 244.057 41.6359 245.386 42.1716C246.715 42.7074 247.851 43.6146 248.651 44.7787C249.45 45.9427 249.877 47.3112 249.877 48.7112C249.877 50.5885 249.11 52.3889 247.746 53.7164C246.382 55.0439 244.532 55.7896 242.602 55.7896Z" fill="#E6E6E6"/>
<path d="M334.408 54.4948H256.761C256.3 54.4872 255.86 54.3035 255.536 53.9832C255.213 53.6629 255.031 53.2317 255.031 52.7826C255.031 52.3334 255.213 51.9023 255.536 51.582C255.86 51.2617 256.3 51.0779 256.761 51.0703H334.408C334.869 51.0779 335.309 51.2617 335.633 51.582C335.956 51.9023 336.138 52.3334 336.138 52.7826C336.138 53.2317 335.956 53.6629 335.633 53.9832C335.309 54.3035 334.869 54.4872 334.408 54.4948Z" fill="#E6E6E6"/>
<path d="M309.105 47.2138H256.755C256.521 47.2177 256.289 47.1763 256.072 47.0919C255.855 47.0076 255.658 46.8821 255.491 46.7227C255.324 46.5634 255.192 46.3733 255.102 46.1636C255.011 45.954 254.965 45.7289 254.965 45.5016C254.965 45.2742 255.011 45.0492 255.102 44.8395C255.192 44.6299 255.324 44.4398 255.491 44.2804C255.658 44.121 255.855 43.9955 256.072 43.9112C256.289 43.8269 256.521 43.7855 256.755 43.7893H309.105C309.567 43.7969 310.007 43.9807 310.331 44.301C310.654 44.6212 310.835 45.0524 310.835 45.5016C310.835 45.9507 310.654 46.3819 310.331 46.7022C310.007 47.0225 309.567 47.2062 309.105 47.2138Z" fill="#E6E6E6"/>
<path d="M143.013 73.1178H24.4527C23.3447 73.1165 22.2825 72.6877 21.499 71.9253C20.7155 71.1629 20.2748 70.1293 20.2734 69.0511V56.6369C20.2748 55.5587 20.7155 54.5251 21.499 53.7627C22.2825 53.0004 23.3447 52.5715 24.4527 52.5702H143.013C144.121 52.5715 145.183 53.0004 145.966 53.7627C146.75 54.5251 147.19 55.5587 147.192 56.6369V69.0511C147.19 70.1293 146.75 71.1629 145.966 71.9253C145.183 72.6877 144.121 73.1165 143.013 73.1178ZM24.4527 52.9973C23.4613 52.9984 22.5108 53.3821 21.8098 54.0642C21.1088 54.7463 20.7145 55.6712 20.7134 56.6359V69.0501C20.7145 70.0148 21.1088 70.9397 21.8098 71.6218C22.5108 72.304 23.4613 72.6877 24.4527 72.6887H143.013C144.004 72.6877 144.954 72.304 145.655 71.6218C146.356 70.9397 146.751 70.0148 146.752 69.0501V56.6369C146.751 55.672 146.357 54.7469 145.656 54.0646C144.955 53.3822 144.004 52.9984 143.013 52.9973H24.4527Z" fill="#CCCCCC"/>
<path d="M40.4813 69.9223C39.0426 69.9223 37.6362 69.5071 36.4399 68.7293C35.2437 67.9515 34.3113 66.846 33.7608 65.5526C33.2102 64.2592 33.0661 62.836 33.3468 61.4629C33.6275 60.0898 34.3203 58.8286 35.3376 57.8387C36.3549 56.8487 37.6511 56.1746 39.0622 55.9015C40.4732 55.6283 41.9359 55.7685 43.2651 56.3043C44.5943 56.84 45.7303 57.7473 46.5296 58.9113C47.3289 60.0753 47.7556 61.4439 47.7556 62.8439C47.7556 64.7212 46.9892 66.5216 45.625 67.849C44.2608 69.1765 42.4106 69.9223 40.4813 69.9223Z" fill="#E6E6E6"/>
<path d="M132.283 68.6196H54.6363C54.1748 68.612 53.7348 68.4282 53.4112 68.1079C53.0876 67.7877 52.9062 67.3565 52.9062 66.9073C52.9062 66.4582 53.0876 66.027 53.4112 65.7067C53.7348 65.3864 54.1748 65.2027 54.6363 65.1951H132.283C132.744 65.2027 133.184 65.3864 133.508 65.7067C133.831 66.027 134.013 66.4582 134.013 66.9073C134.013 67.3565 133.831 67.7877 133.508 68.1079C133.184 68.4282 132.744 68.612 132.283 68.6196Z" fill="#E6E6E6"/>
<path d="M106.988 61.3543H54.6374C54.4038 61.3581 54.1718 61.3167 53.9548 61.2324C53.7379 61.1481 53.5403 61.0226 53.3737 60.8632C53.2071 60.7038 53.0748 60.5137 52.9845 60.3041C52.8942 60.0944 52.8477 59.8693 52.8477 59.642C52.8477 59.4147 52.8942 59.1896 52.9845 58.98C53.0748 58.7703 53.2071 58.5802 53.3737 58.4209C53.5403 58.2615 53.7379 58.136 53.9548 58.0516C54.1718 57.9673 54.4038 57.9259 54.6374 57.9298H106.988C107.45 57.9374 107.89 58.1211 108.213 58.4414C108.537 58.7617 108.718 59.1929 108.718 59.642C108.718 60.0912 108.537 60.5223 108.213 60.8426C107.89 61.1629 107.45 61.3467 106.988 61.3543Z" fill="#E6E6E6"/>
<path d="M122.739 127.641H4.17924C3.07125 127.64 2.00903 127.211 1.22556 126.449C0.442086 125.686 0.0013414 124.653 0 123.575V111.16C0.0013414 110.082 0.442086 109.049 1.22556 108.286C2.00903 107.524 3.07125 107.095 4.17924 107.094H122.739C123.847 107.095 124.909 107.524 125.693 108.286C126.476 109.049 126.917 110.082 126.918 111.16V123.575C126.917 124.653 126.476 125.686 125.693 126.449C124.909 127.211 123.847 127.64 122.739 127.641ZM4.17924 107.521C3.18786 107.522 2.23738 107.906 1.53636 108.588C0.835347 109.27 0.441046 110.195 0.439972 111.159V123.574C0.441046 124.538 0.835347 125.463 1.53636 126.145C2.23738 126.828 3.18786 127.211 4.17924 127.212H122.739C123.73 127.211 124.681 126.828 125.382 126.145C126.083 125.463 126.477 124.538 126.478 123.574V111.16C126.478 110.196 126.083 109.27 125.382 108.588C124.681 107.906 123.731 107.522 122.739 107.521H4.17924Z" fill="#CCCCCC"/>
<path d="M20.1922 124.454C18.7535 124.454 17.3471 124.039 16.1509 123.261C14.9546 122.483 14.0223 121.377 13.4717 120.084C12.9211 118.791 12.7771 117.367 13.0577 115.994C13.3384 114.621 14.0312 113.36 15.0486 112.37C16.0659 111.38 17.362 110.706 18.7731 110.433C20.1842 110.16 21.6468 110.3 22.976 110.836C24.3052 111.371 25.4413 112.279 26.2406 113.443C27.0399 114.607 27.4665 115.975 27.4665 117.375C27.4665 119.253 26.7001 121.053 25.3359 122.38C23.9717 123.708 22.1215 124.454 20.1922 124.454Z" fill="#E6E6E6"/>
<path d="M111.993 123.151H34.3472C33.8857 123.143 33.4457 122.96 33.1221 122.639C32.7985 122.319 32.6172 121.888 32.6172 121.439C32.6172 120.99 32.7985 120.559 33.1221 120.238C33.4457 119.918 33.8857 119.734 34.3472 119.727H111.993C112.455 119.734 112.895 119.918 113.219 120.238C113.542 120.559 113.724 120.99 113.724 121.439C113.724 121.888 113.542 122.319 113.219 122.639C112.895 122.96 112.455 123.143 111.993 123.151Z" fill="#E6E6E6"/>
<path d="M86.7031 115.886H34.3523C34.1187 115.89 33.8866 115.848 33.6697 115.764C33.4527 115.679 33.2552 115.554 33.0886 115.395C32.922 115.235 32.7897 115.045 32.6993 114.836C32.609 114.626 32.5625 114.401 32.5625 114.173C32.5625 113.946 32.609 113.721 32.6993 113.511C32.7897 113.302 32.922 113.112 33.0886 112.952C33.2552 112.793 33.4527 112.667 33.6697 112.583C33.8866 112.499 34.1187 112.457 34.3523 112.461H86.7031C87.1646 112.469 87.6046 112.653 87.9282 112.973C88.2518 113.293 88.4331 113.724 88.4331 114.173C88.4331 114.623 88.2518 115.054 87.9282 115.374C87.6046 115.694 87.1646 115.878 86.7031 115.886Z" fill="#E6E6E6"/>
<path d="M244.611 121.302H152.278C151.415 121.3 150.588 120.558 149.978 119.241C149.368 117.923 149.024 116.137 149.023 114.273V92.8176C149.024 90.9542 149.368 89.1678 149.978 87.8502C150.588 86.5325 151.415 85.7913 152.278 85.7891H244.611C245.474 85.7913 246.301 86.5325 246.911 87.8502C247.521 89.1678 247.864 90.9542 247.866 92.8176V114.273C247.864 116.137 247.521 117.923 246.911 119.241C246.301 120.558 245.474 121.3 244.611 121.302ZM152.278 86.5273C151.506 86.5291 150.766 87.1922 150.22 88.3712C149.674 89.5502 149.367 91.1486 149.366 92.8159V114.272C149.367 115.939 149.674 117.537 150.22 118.716C150.766 119.895 151.506 120.558 152.278 120.56H244.611C245.383 120.558 246.123 119.895 246.669 118.716C247.215 117.537 247.522 115.939 247.523 114.272V92.8176C247.522 91.15 247.215 89.5511 246.669 88.3718C246.123 87.1925 245.383 86.5291 244.611 86.5273H152.278Z" fill="#CCCCCC"/>
<path d="M183.936 115.788C181.449 115.788 179.018 115.07 176.951 113.726C174.883 112.382 173.272 110.471 172.32 108.236C171.369 106 171.12 103.54 171.605 101.167C172.09 98.7943 173.287 96.6144 175.046 94.9035C176.804 93.1926 179.044 92.0274 181.483 91.5554C183.922 91.0833 186.449 91.3256 188.747 92.2516C191.044 93.1775 193.008 94.7455 194.389 96.7574C195.77 98.7692 196.508 101.134 196.508 103.554C196.508 106.799 195.183 109.91 192.825 112.205C190.468 114.499 187.27 115.788 183.936 115.788Z" fill="#E6E6E6"/>
<path d="M250.431 113.411H206.273C206.01 113.398 205.76 113.08 205.576 112.527C205.392 111.973 205.289 111.228 205.289 110.452C205.289 109.675 205.392 108.93 205.576 108.377C205.76 107.823 206.01 107.505 206.273 107.492H250.431C250.694 107.505 250.944 107.823 251.128 108.377C251.312 108.93 251.415 109.675 251.415 110.452C251.415 111.228 251.312 111.973 251.128 112.527C250.944 113.08 250.694 113.398 250.431 113.411Z" fill="#E6E6E6"/>
<path d="M248.514 101.075H206.718C206.531 101.081 206.346 101.01 206.173 100.864C206 100.718 205.842 100.501 205.709 100.226C205.576 99.9505 205.47 99.6221 205.398 99.2598C205.326 98.8975 205.289 98.5085 205.289 98.1157C205.289 97.7228 205.326 97.3339 205.398 96.9716C205.47 96.6093 205.576 96.2808 205.709 96.0054C205.842 95.7299 206 95.513 206.173 95.3673C206.346 95.2216 206.531 95.15 206.718 95.1567H248.514C248.882 95.1698 249.233 95.4874 249.492 96.0409C249.75 96.5944 249.895 97.3395 249.895 98.1157C249.895 98.8918 249.75 99.637 249.492 100.19C249.233 100.744 248.882 101.061 248.514 101.075Z" fill="#E6E6E6"/>
<path d="M313.349 115.38H244.218C243.572 115.379 242.953 114.946 242.496 114.178C242.039 113.409 241.782 112.367 241.781 111.28V98.7641C241.782 97.6771 242.039 96.635 242.496 95.8664C242.953 95.0978 243.572 94.6654 244.218 94.6641H313.349C313.995 94.6654 314.615 95.0978 315.071 95.8664C315.528 96.635 315.785 97.6771 315.786 98.7641V111.28C315.785 112.367 315.528 113.409 315.071 114.178C314.615 114.946 313.995 115.379 313.349 115.38ZM244.218 95.0947C243.64 95.0958 243.086 95.4826 242.677 96.1703C242.268 96.858 242.038 97.7905 242.038 98.7631V111.279C242.038 112.251 242.268 113.184 242.677 113.872C243.086 114.559 243.64 114.946 244.218 114.947H313.349C313.927 114.946 314.482 114.559 314.89 113.872C315.299 113.184 315.529 112.251 315.53 111.279V98.7641C315.529 97.7913 315.299 96.8586 314.89 96.1707C314.482 95.4827 313.927 95.0958 313.349 95.0947H244.218Z" fill="#CCCCCC"/>
<path d="M301.31 110.945H243.079C242.733 110.937 242.403 110.752 242.16 110.429C241.917 110.106 241.781 109.671 241.781 109.219C241.781 108.766 241.917 108.331 242.16 108.008C242.403 107.685 242.733 107.5 243.079 107.492H301.31C301.656 107.5 301.986 107.685 302.228 108.008C302.471 108.331 302.607 108.766 302.607 109.219C302.607 109.671 302.471 110.106 302.228 110.429C301.986 110.752 301.656 110.937 301.31 110.945Z" fill="#E6E6E6"/>
<path d="M276.164 103.546H242.918C242.77 103.55 242.622 103.508 242.484 103.423C242.347 103.338 242.221 103.212 242.115 103.051C242.01 102.89 241.926 102.699 241.868 102.487C241.811 102.276 241.781 102.049 241.781 101.82C241.781 101.591 241.811 101.364 241.868 101.153C241.926 100.941 242.01 100.75 242.115 100.589C242.221 100.428 242.347 100.302 242.484 100.217C242.622 100.132 242.77 100.09 242.918 100.094H276.164C276.457 100.102 276.737 100.287 276.942 100.61C277.148 100.933 277.263 101.367 277.263 101.82C277.263 102.273 277.148 102.708 276.942 103.03C276.737 103.353 276.457 103.538 276.164 103.546Z" fill="#E6E6E6"/>
<path d="M354.895 171.446H236.335C235.228 171.445 234.165 171.016 233.382 170.254C232.598 169.491 232.158 168.458 232.156 167.379V154.965C232.158 153.887 232.598 152.853 233.382 152.091C234.165 151.329 235.228 150.9 236.335 150.898H354.895C356.003 150.9 357.066 151.329 357.849 152.091C358.632 152.853 359.073 153.887 359.075 154.965V167.379C359.073 168.458 358.632 169.491 357.849 170.254C357.066 171.016 356.003 171.445 354.895 171.446ZM236.335 151.326C235.344 151.327 234.394 151.71 233.693 152.392C232.992 153.075 232.597 153.999 232.596 154.964V167.378C232.597 168.343 232.992 169.268 233.693 169.95C234.394 170.632 235.344 171.016 236.335 171.017H354.895C355.887 171.016 356.837 170.632 357.538 169.95C358.239 169.268 358.634 168.343 358.635 167.378V154.965C358.634 154 358.24 153.075 357.539 152.393C356.838 151.71 355.887 151.327 354.895 151.326H236.335Z" fill="#CCCCCC"/>
<path d="M252.352 168.251C250.914 168.251 249.507 167.835 248.311 167.058C247.115 166.28 246.182 165.174 245.632 163.881C245.081 162.588 244.937 161.164 245.218 159.791C245.499 158.418 246.191 157.157 247.209 156.167C248.226 155.177 249.522 154.503 250.933 154.23C252.344 153.957 253.807 154.097 255.136 154.633C256.465 155.168 257.601 156.076 258.401 157.24C259.2 158.404 259.627 159.772 259.627 161.172C259.627 163.049 258.86 164.85 257.496 166.177C256.132 167.505 254.282 168.251 252.352 168.251Z" fill="#E6E6E6"/>
<path d="M344.15 166.948H266.503C266.042 166.94 265.602 166.757 265.278 166.436C264.955 166.116 264.773 165.685 264.773 165.236C264.773 164.787 264.955 164.355 265.278 164.035C265.602 163.715 266.042 163.531 266.503 163.523H344.15C344.611 163.531 345.051 163.715 345.375 164.035C345.698 164.355 345.88 164.787 345.88 165.236C345.88 165.685 345.698 166.116 345.375 166.436C345.051 166.757 344.611 166.94 344.15 166.948Z" fill="#E6E6E6"/>
<path d="M318.855 159.675H266.505C266.271 159.679 266.039 159.637 265.822 159.553C265.605 159.469 265.408 159.343 265.241 159.184C265.074 159.024 264.942 158.834 264.852 158.625C264.761 158.415 264.715 158.19 264.715 157.963C264.715 157.735 264.761 157.51 264.852 157.3C264.942 157.091 265.074 156.901 265.241 156.741C265.408 156.582 265.605 156.456 265.822 156.372C266.039 156.288 266.271 156.246 266.505 156.25H318.855C319.317 156.258 319.757 156.442 320.081 156.762C320.404 157.082 320.585 157.513 320.585 157.963C320.585 158.412 320.404 158.843 320.081 159.163C319.757 159.483 319.317 159.667 318.855 159.675Z" fill="#E6E6E6"/>
<path d="M227.518 57.1457C217.626 48.7986 205.521 43.5067 192.676 41.9138C179.831 40.321 166.8 42.4959 155.169 48.1739C143.538 53.852 133.808 62.7883 127.163 73.8955C120.517 85.0027 117.244 97.8019 117.741 110.736C118.237 123.669 122.482 136.18 129.959 146.745C137.436 157.31 147.823 165.474 159.855 170.244C171.888 175.013 185.047 176.183 197.732 173.61C210.417 171.037 222.081 164.832 231.304 155.752L313.203 224.858C314.449 225.911 316.062 226.426 317.688 226.29C319.315 226.154 320.82 225.377 321.873 224.131C322.927 222.885 323.442 221.272 323.306 219.646C323.17 218.019 322.393 216.514 321.147 215.461L321.138 215.453L239.239 146.347C248.753 132.692 252.825 115.976 250.657 99.4759C248.489 82.9753 240.237 67.8791 227.518 57.1457ZM222.238 139.692C215.858 147.254 207.379 152.753 197.873 155.496C188.367 158.238 178.261 158.1 168.834 155.099C159.406 152.098 151.08 146.369 144.909 138.636C138.738 130.903 134.998 121.514 134.163 111.656C133.327 101.797 135.434 91.9129 140.217 83.252C144.999 74.5911 152.243 67.5429 161.031 62.9987C169.819 58.4545 179.758 56.6183 189.59 57.7224C199.421 58.8266 208.705 62.8213 216.266 69.2017C221.287 73.438 225.424 78.6218 228.441 84.457C231.459 90.2922 233.297 96.6645 233.852 103.21C234.406 109.756 233.666 116.347 231.673 122.606C229.681 128.866 226.475 134.672 222.238 139.692Z" fill="#333333"/>
<path opacity="0.3" d="M151.749 145.669C142.153 137.571 135.953 126.16 134.38 113.702C132.808 101.244 135.978 88.6507 143.261 78.4219C142.304 79.3851 141.38 80.3939 140.487 81.4482C136.251 86.4688 133.045 92.2747 131.052 98.5343C129.059 104.794 128.319 111.385 128.874 117.93C129.428 124.476 131.267 130.848 134.284 136.684C137.301 142.519 141.438 147.703 146.459 151.939C151.48 156.175 157.285 159.381 163.545 161.374C169.805 163.366 176.395 164.107 182.941 163.552C189.487 162.998 195.859 161.159 201.694 158.142C207.53 155.125 212.713 150.988 216.95 145.967C217.84 144.911 218.679 143.83 219.466 142.724C210.608 151.624 198.728 156.867 186.183 157.413C173.638 157.958 161.347 153.766 151.749 145.669Z" fill="black"/>
</svg>
