<svg width="32" height="32" viewBox="0 0 32 32" fill="none" xmlns="http://www.w3.org/2000/svg">
<path d="M20.0436 25.3865L4.13701 28.0416C4.05794 28.0548 4 28.1232 4 28.2034V31.8101C4 31.9102 4.08889 31.9869 4.18792 31.9723L25.015 28.9044C25.0551 28.8985 25.0916 28.8779 25.1174 28.8467L27.9623 25.4092C27.9867 25.3797 28 25.3428 28 25.3046V8.12165C28 8.01895 27.9067 7.94152 27.8058 7.96045L20.3144 9.3651C20.2369 9.37964 20.1806 9.44738 20.1806 9.5263V25.2247C20.1806 25.3049 20.1227 25.3733 20.0436 25.3865Z" fill="#016FFF"/>
<path d="M4 6.88342V23.8175C4 23.9175 4.08867 23.9942 4.1876 23.9798L11.7293 22.884C11.8091 22.8724 11.8686 22.8046 11.8697 22.724L12.103 6.68202C12.1042 6.60216 12.1627 6.53475 12.2416 6.52237L27.549 4.12146C27.6287 4.10895 27.6876 4.0402 27.6876 3.95943V0.195448C27.6876 0.0934783 27.5955 0.0162235 27.4951 0.0339208L6.93937 3.65642C6.90376 3.6627 6.87122 3.68057 6.84681 3.70725L4.04299 6.77273C4.01534 6.80296 4 6.84245 4 6.88342Z" fill="#016FFF"/>
</svg>
