<svg width="24" height="24" viewBox="0 0 24 24" fill="none" xmlns="http://www.w3.org/2000/svg">
<g id="1.TH.HUESPEDES">
<path id="Vector" d="M8.03603 19.6301C8.03815 19.8015 8.04386 19.969 8.05274 20.1318C8.07997 20.6308 8.50707 21 9.0069 21H21.0164C21.51 21 21.9336 20.6414 21.9692 20.1491C22.2102 16.8125 21.1403 11.4658 15.0819 11.451C12.5834 11.4449 10.9186 12.3529 9.83787 13.657M8.03603 19.6301H2.96245C2.45615 19.6301 2.02369 19.251 2.00599 18.745C1.8455 14.1562 4.91979 11.2461 9.83787 13.657M8.03603 19.6301C8.01247 17.7311 8.42868 15.3573 9.83787 13.657M18.509 6.59597C18.509 8.58197 16.8591 10.1919 14.8238 10.1919C12.7885 10.1919 11.1385 8.58197 11.1385 6.59597C11.1385 4.60997 12.7885 3 14.8238 3C16.8591 3 18.509 4.60997 18.509 6.59597ZM9.52815 8.61052C9.52815 10.0625 8.32188 11.2395 6.83388 11.2395C5.34587 11.2395 4.13961 10.0625 4.13961 8.61052C4.13961 7.15857 5.34587 5.98153 6.83388 5.98153C8.32188 5.98153 9.52815 7.15857 9.52815 8.61052Z" stroke="#333333" stroke-width="0.9"/>
</g>
</svg>
