<svg width="12" height="21" viewBox="0 0 12 21" fill="none" xmlns="http://www.w3.org/2000/svg">
<g id="door_tag-hotel-heart-love-valentine">
<path id="Vector" d="M6.99402 2.74595L6.995 2.74595C8.28587 2.74595 9.45 3.66734 9.45 4.93508V6.67856C9.45 7.94407 8.29358 8.86738 7.00565 8.86769L6.99402 2.74595ZM6.99402 2.74595L4.99402 2.7503L4.99322 2.7503C3.7074 2.75538 2.55 3.67731 2.55 4.93943V5.37856C2.55 5.55129 2.36259 5.79812 2 5.79812H1C0.637414 5.79812 0.45 5.55129 0.45 5.37856V4.94377C0.45 2.8493 2.42741 1.04595 5 1.04595H7C9.57259 1.04595 11.55 2.8493 11.55 4.94377V18.8568C11.55 19.5122 10.9176 20.1459 10 20.1459H2C1.08242 20.1459 0.45 19.5122 0.45 18.8568V11.9003C0.45 10.2881 1.97289 8.87601 3.99589 8.87203L7.005 8.86769L6.99402 2.74595Z" stroke="#333333" stroke-width="0.9"/>
</g>
</svg>
