<svg width="22" height="24" viewBox="0 0 22 24" fill="none" xmlns="http://www.w3.org/2000/svg">
<path d="M18.3332 10.6461V14.8043C18.3332 15.0746 18.3227 15.3345 18.2915 15.584C18.0516 18.3908 16.3932 19.7838 13.3373 19.7838H12.9202C12.6594 19.7838 12.4091 19.9086 12.2527 20.1165L11.0011 21.7798C10.4483 22.5178 9.55136 22.5178 8.99859 21.7798L7.74701 20.1165C7.61142 19.9397 7.30897 19.7838 7.07952 19.7838H6.66234C3.33527 19.7838 1.6665 18.9626 1.6665 14.8043V10.6461C1.6665 7.60024 3.07452 5.94735 5.88011 5.70825C6.13043 5.67706 6.39117 5.66666 6.66234 5.66666H13.3373C16.6644 5.66666 18.3332 7.32995 18.3332 10.6461Z" stroke="#333333" stroke-width="0.8" stroke-miterlimit="10" stroke-linecap="round" stroke-linejoin="round"/>
<circle cx="15" cy="7" r="5.6" fill="#FFC506" stroke="white" stroke-width="1.2"/>
</svg>
