<svg width="24" height="24" viewBox="0 0 24 24" fill="none" xmlns="http://www.w3.org/2000/svg">
<g id="1.TH.PROMOCIONA">
<path id="Vector" d="M13 15V7M13 15L18.504 18.145C18.6561 18.2319 18.8283 18.2773 19.0034 18.2767C19.1785 18.2761 19.3504 18.2295 19.5019 18.1416C19.6533 18.0537 19.7791 17.9276 19.8665 17.7759C19.9539 17.6242 19.9999 17.4521 20 17.277V4.72301C19.9999 4.54789 19.9539 4.37585 19.8665 4.22412C19.7791 4.07238 19.6533 3.94626 19.5019 3.85838C19.3504 3.77049 19.1785 3.72393 19.0034 3.72333C18.8283 3.72274 18.6561 3.76815 18.504 3.85501L13 7M13 15H10M13 7H7C5.93913 7 4.92172 7.42143 4.17157 8.17158C3.42143 8.92172 3 9.93914 3 11C3 12.0609 3.42143 13.0783 4.17157 13.8284C4.92172 14.5786 5.93913 15 7 15M10 15V19.5C10 19.8978 9.84196 20.2794 9.56066 20.5607C9.27936 20.842 8.89782 21 8.5 21C8.10217 21 7.72064 20.842 7.43934 20.5607C7.15803 20.2794 7 19.8978 7 19.5V15M10 15H7" stroke="white" stroke-width="0.8" stroke-linecap="round" stroke-linejoin="round"/>
</g>
</svg>
