<svg width="20" height="20" viewBox="0 0 20 20" fill="none" xmlns="http://www.w3.org/2000/svg">
<g id="1.TH.ANSWER.REVIEW">
<path id="Vector" d="M14.9639 12.9317C14.9889 12.7321 14.9972 12.5241 14.9972 12.3078V8.97976C14.9972 6.3257 13.6626 4.99449 11.0015 4.99449H5.66274C5.44585 4.99449 5.23731 5.00282 5.0371 5.02778M14.9639 12.9317C14.772 15.1781 13.4457 16.293 11.0015 16.293H10.6678C10.4593 16.293 10.2591 16.3929 10.134 16.5593L9.13293 17.8905C8.69082 18.4812 7.97342 18.4812 7.5313 17.8905L6.53027 16.5593C6.42183 16.4178 6.17993 16.293 5.9964 16.293H5.66274C3.00169 16.293 1.66699 15.6357 1.66699 12.3078V8.97976C1.66699 6.54202 2.79315 5.21914 5.0371 5.02778M14.9639 12.9317C17.2078 12.7404 18.3335 11.4258 18.3335 8.97976V5.65178C18.3335 2.99771 16.9988 1.6665 14.3377 1.6665H8.99897C6.55485 1.6665 5.22896 2.78971 5.0371 5.02778" stroke="#333333" stroke-width="0.8" stroke-linecap="round" stroke-linejoin="round"/>
</g>
</svg>
