<svg width="24" height="24" viewBox="0 0 24 24" fill="none" xmlns="http://www.w3.org/2000/svg">
<g id="1.TH.DASHBOARD">
<path id="Vector" d="M4 2.6H8.93286C9.70606 2.6 10.3329 3.2268 10.3329 4V8.93286C10.3329 9.70606 9.70606 10.3329 8.93286 10.3329H4C3.2268 10.3329 2.6 9.70606 2.6 8.93286V4C2.6 3.2268 3.2268 2.6 4 2.6ZM15.0671 2.6H20C20.7732 2.6 21.4 3.2268 21.4 4V8.93286C21.4 9.70606 20.7732 10.3329 20 10.3329H15.0671C14.2939 10.3329 13.6671 9.70606 13.6671 8.93286V4C13.6671 3.2268 14.2939 2.6 15.0671 2.6ZM15.0671 13.667H20C20.7732 13.667 21.4 14.2938 21.4 15.067V19.9999C21.4 20.7731 20.7732 21.3999 20 21.3999H15.0671C14.2939 21.3999 13.6671 20.7731 13.6671 19.9999V15.067C13.6671 14.2938 14.2939 13.667 15.0671 13.667ZM4 13.667H8.93286C9.70606 13.667 10.3329 14.2938 10.3329 15.067V19.9999C10.3329 20.7731 9.70606 21.3999 8.93286 21.3999H4C3.2268 21.3999 2.6 20.7731 2.6 19.9999V15.067C2.6 14.2938 3.2268 13.667 4 13.667Z" stroke="#333333" stroke-width="1.2"/>
</g>
</svg>
