<svg width="16" height="16" viewBox="0 0 16 16" fill="none" xmlns="http://www.w3.org/2000/svg">
<g id="1.TH.CLOSE">
<path id="Vector" d="M3.40136 3.40161C3.46504 3.33776 3.5407 3.28711 3.62399 3.25255C3.70728 3.21798 3.79657 3.2002 3.88674 3.2002C3.97692 3.2002 4.06621 3.21798 4.1495 3.25255C4.23279 3.28711 4.30844 3.33776 4.37212 3.40161L8.00013 7.03099L11.6281 3.40161C11.6919 3.33786 11.7676 3.2873 11.8508 3.25281C11.9341 3.21831 12.0234 3.20055 12.1135 3.20055C12.2037 3.20055 12.2929 3.21831 12.3762 3.25281C12.4595 3.2873 12.5352 3.33786 12.5989 3.40161C12.6626 3.46535 12.7132 3.54102 12.7477 3.6243C12.7822 3.70758 12.8 3.79684 12.8 3.88699C12.8 3.97713 12.7822 4.06639 12.7477 4.14967C12.7132 4.23295 12.6626 4.30862 12.5989 4.37237L8.96952 8.00038L12.5989 11.6284C12.6626 11.6921 12.7132 11.7678 12.7477 11.8511C12.7822 11.9344 12.8 12.0236 12.8 12.1138C12.8 12.2039 12.7822 12.2932 12.7477 12.3765C12.7132 12.4597 12.6626 12.5354 12.5989 12.5991C12.5352 12.6629 12.4595 12.7134 12.3762 12.7479C12.2929 12.7824 12.2037 12.8002 12.1135 12.8002C12.0234 12.8002 11.9341 12.7824 11.8508 12.7479C11.7676 12.7134 11.6919 12.6629 11.6281 12.5991L8.00013 8.96976L4.37212 12.5991C4.30838 12.6629 4.23271 12.7134 4.14943 12.7479C4.06615 12.7824 3.97688 12.8002 3.88674 12.8002C3.7966 12.8002 3.70734 12.7824 3.62406 12.7479C3.54077 12.7134 3.4651 12.6629 3.40136 12.5991C3.33762 12.5354 3.28706 12.4597 3.25256 12.3765C3.21807 12.2932 3.20031 12.2039 3.20031 12.1138C3.20031 12.0236 3.21807 11.9344 3.25256 11.8511C3.28706 11.7678 3.33762 11.6921 3.40136 11.6284L7.03074 8.00038L3.40136 4.37237C3.33752 4.30868 3.28686 4.23303 3.2523 4.14974C3.21774 4.06645 3.19995 3.97716 3.19995 3.88699C3.19995 3.79681 3.21774 3.70752 3.2523 3.62423C3.28686 3.54094 3.33752 3.46529 3.40136 3.40161Z" fill="#34A98F"/>
</g>
</svg>
