<svg width="16" height="16" viewBox="0 0 16 16" fill="none" xmlns="http://www.w3.org/2000/svg">
<g id="1.TH.REVIEW.ANSWERED">
<path id="Vector" d="M11.3356 4.67069L6.75114 9.25214L4.66729 7.16966M14.6668 5.31688V8.64344C14.6668 8.85967 14.6585 9.06758 14.6335 9.26717C14.4415 11.5126 13.1149 12.627 10.6702 12.627H10.3364C10.1278 12.627 9.92757 12.7268 9.80242 12.8931L8.80116 14.2237C8.35894 14.8142 7.64138 14.8142 7.19916 14.2237L6.1979 12.8931C6.08943 12.7517 5.84747 12.627 5.66391 12.627H5.33017C2.66851 12.627 1.3335 11.97 1.3335 8.64344V5.31688C1.3335 2.88019 2.45991 1.55788 4.70439 1.3666C4.90464 1.34165 5.11323 1.33333 5.33017 1.33333H10.6702C13.3318 1.33333 14.6668 2.66396 14.6668 5.31688Z" stroke="#333333" stroke-width="0.8" stroke-miterlimit="10" stroke-linecap="round" stroke-linejoin="round"/>
</g>
</svg>
