<svg width="16" height="16" viewBox="0 0 16 16" fill="none" xmlns="http://www.w3.org/2000/svg">
<g id="1.TH.HUESPEDES">
<path id="Vector" d="M5.35703 13.0867C5.35721 13.1014 5.35743 13.116 5.35769 13.1306C5.3666 13.6304 5.79522 14 6.29506 14H13.7246C14.2182 14 14.6436 13.6398 14.6612 13.1465C14.7409 10.916 13.924 7.64346 10.0542 7.63402C8.38863 7.62996 7.27876 8.23527 6.55825 9.10464M5.35703 13.0867H2.27044C1.76414 13.0867 1.32783 12.7071 1.33339 12.2008C1.36508 9.3146 3.38653 7.54987 6.55825 9.10464M5.35703 13.0867C5.34132 11.8207 5.6188 10.2382 6.55825 9.10464M12.339 4.39731C12.339 5.72131 11.2391 6.79463 9.88219 6.79463C8.52532 6.79463 7.42535 5.72131 7.42535 4.39731C7.42535 3.07331 8.52532 2 9.88219 2C11.2391 2 12.339 3.07331 12.339 4.39731ZM6.35177 5.74035C6.35177 6.70831 5.5476 7.493 4.55559 7.493C3.56359 7.493 2.75941 6.70831 2.75941 5.74035C2.75941 4.77238 3.56359 3.98769 4.55559 3.98769C5.5476 3.98769 6.35177 4.77238 6.35177 5.74035Z" stroke="#333333" stroke-width="0.8"/>
</g>
</svg>
