<svg width="20" height="20" viewBox="0 0 20 20" fill="none" xmlns="http://www.w3.org/2000/svg">
<g id="1.TH.SUSCRIPCI&#195;&#147;N">
<path id="Vector" d="M8.51187 9.20936L8.35798 10.4963C8.27998 11.1486 8.84144 11.6976 9.49184 11.605L10.6727 11.4369C10.8823 11.4071 11.0771 11.3114 11.2289 11.1638L13.2384 9.20936M8.51187 9.20936V9.20936C8.53616 9.00621 8.62532 8.81631 8.76612 8.66787L14.7421 2.36724C15.1128 1.97642 15.7264 1.94943 16.13 2.30621L17.5255 3.53994C17.9615 3.92539 17.9775 4.60026 17.5603 5.006L13.2384 9.20936M8.51187 9.20936H2.66669C2.1144 9.20936 1.66669 9.65708 1.66669 10.2094V17.3333C1.66669 17.8856 2.1144 18.3333 2.66669 18.3333H17.3334C17.8856 18.3333 18.3334 17.8856 18.3334 17.3333V10.2094C18.3334 9.65708 17.8856 9.20936 17.3334 9.20936H13.2384M9.71325 15.0524H14.6643" stroke="#8A8A8A" stroke-width="0.8" stroke-linecap="round"/>
</g>
</svg>
