<svg width="16" height="16" viewBox="0 0 16 16" fill="none" xmlns="http://www.w3.org/2000/svg">
<g id="1.TH.PINPOINT">
<path id="Pin point" fill-rule="evenodd" clip-rule="evenodd" d="M10.206 12.01C10.932 11.06 11.642 10.002 12.166 8.94C12.695 7.867 13 6.862 13 6C13 4.67392 12.4732 3.40215 11.5355 2.46447C10.5979 1.52678 9.32608 1 8 1C6.67392 1 5.40215 1.52678 4.46447 2.46447C3.52678 3.40215 3 4.67392 3 6C3 6.862 3.304 7.867 3.834 8.94C4.358 10.002 5.068 11.06 5.794 12.01C6.48268 12.9056 7.21908 13.7635 8 14.58C8.7809 13.7635 9.5173 12.9056 10.206 12.01ZM14 6C14 10.314 8 16 8 16C8 16 2 10.314 2 6C2 4.4087 2.63214 2.88258 3.75736 1.75736C4.88258 0.632141 6.4087 0 8 0C9.5913 0 11.1174 0.632141 12.2426 1.75736C13.3679 2.88258 14 4.4087 14 6ZM6.58579 7.41421C6.96086 7.78929 7.46957 8 8 8C8.53043 8 9.03914 7.78929 9.41421 7.41421C9.78929 7.03914 10 6.53043 10 6C10 5.46957 9.78929 4.96086 9.41421 4.58579C9.03914 4.21071 8.53043 4 8 4C7.46957 4 6.96086 4.21071 6.58579 4.58579C6.21071 4.96086 6 5.46957 6 6C6 6.53043 6.21071 7.03914 6.58579 7.41421ZM10.1213 8.12132C9.55871 8.68393 8.79565 9 8 9C7.20435 9 6.44129 8.68393 5.87868 8.12132C5.31607 7.55871 5 6.79565 5 6C5 5.20435 5.31607 4.44129 5.87868 3.87868C6.44129 3.31607 7.20435 3 8 3C8.79565 3 9.55871 3.31607 10.1213 3.87868C10.6839 4.44129 11 5.20435 11 6C11 6.79565 10.6839 7.55871 10.1213 8.12132Z" fill="#34A98F"/>
</g>
</svg>
