<svg width="14" height="14" viewBox="0 0 14 14" fill="none" xmlns="http://www.w3.org/2000/svg">
<g id="Group">
<path id="Vector" d="M11.7882 2.66158C11.5011 2.38616 11.0312 2.38388 10.7418 2.66158L8.90625 4.42267C9.13851 4.64609 9.72217 5.20551 9.95443 5.42836L11.7899 3.66727C12.0794 3.38957 12.077 2.93871 11.7876 2.66158H11.7882Z" fill="#333333"/>
<path id="Vector_2" d="M8.44373 4.86676L8.0459 5.24847C8.15608 5.35418 9.09408 6.25416 9.09408 6.25416L9.49192 5.87245L8.44373 4.86676Z" fill="#333333"/>
<path id="Vector_3" d="M7.58327 5.69177L0.820162 12.1807C0.145986 12.851 1.16796 13.835 1.86834 13.1864L8.63084 6.69805C8.52006 6.59291 7.58266 5.69236 7.58266 5.69236L7.58327 5.69177Z" fill="#333333"/>
<path id="Vector_4" d="M13.3154 6.70858C12.7919 6.57087 12.306 6.34802 12.1279 5.81374L11.9981 5.44519C11.9713 5.34005 11.7985 5.34119 11.7664 5.44519L11.6366 5.81374C11.5139 6.17546 11.2131 6.46458 10.8355 6.58629L10.449 6.70857C10.3406 6.74 10.3418 6.9 10.449 6.93085L10.8331 7.05541C11.2125 7.17541 11.5139 7.46398 11.6365 7.82625L11.7664 8.1948C11.7962 8.29823 11.9706 8.30223 11.998 8.1948L12.1279 7.82625C12.3054 7.29141 12.7925 7.06912 13.3154 6.93141C13.366 6.91827 13.4012 6.87141 13.3988 6.82056C13.4012 6.7697 13.3684 6.72513 13.3154 6.7097L13.3154 6.70858Z" fill="#333333"/>
<path id="Vector_5" d="M1.51216 4.25489L1.89391 4.37718C2.27328 4.49717 2.57463 4.78574 2.6991 5.14972L2.82655 5.51599C2.84382 5.56628 2.88968 5.59485 2.94447 5.59828C2.99569 5.59828 3.04393 5.56514 3.06001 5.51828L3.18746 5.14743C3.35838 4.62001 3.85567 4.38517 4.37679 4.25487C4.48697 4.22173 4.48399 4.06402 4.37441 4.03089L3.99266 3.9086C3.61328 3.78861 3.31194 3.50004 3.18747 3.13606L3.06002 2.76978C3.04156 2.72121 2.9951 2.68978 2.9421 2.6875C2.89088 2.6875 2.84264 2.72064 2.82656 2.7675L2.69911 3.13835C2.57166 3.50006 2.2709 3.78919 1.89571 3.90918L1.50918 4.03147C1.3996 4.06461 1.40079 4.22403 1.51156 4.25545L1.51216 4.25489Z" fill="#333333"/>
<path id="Vector_6" d="M4.77335 2.68247L5.30816 2.85333C5.84535 3.02647 6.27356 3.43732 6.45401 3.95273L6.63209 4.46585C6.64698 4.51442 6.6976 4.54528 6.74763 4.54585C6.79825 4.54585 6.84709 4.51271 6.86317 4.46585L7.04124 3.95273C7.2217 3.43732 7.64991 3.02647 8.18709 2.85333L8.71953 2.68477C8.82792 2.6522 8.83268 2.49049 8.71953 2.46249L8.18709 2.28935C7.64811 2.1185 7.2199 1.70765 7.04124 1.18996L6.86317 0.676831C6.82982 0.574548 6.66425 0.573406 6.62972 0.679117L6.45403 1.18996C6.27358 1.70537 5.84537 2.11622 5.30818 2.28936L4.77337 2.46022C4.66558 2.49221 4.66258 2.65219 4.77335 2.68247Z" fill="#333333"/>
</g>
</svg>
