<svg width="16" height="16" viewBox="0 0 16 16" fill="none" xmlns="http://www.w3.org/2000/svg">
<g id="1.TH.ID">
<path id="icon" d="M9.48116 4.48873C9.26024 4.48873 9.08116 4.66781 9.08116 4.88873C9.08116 5.10964 9.26024 5.28873 9.48116 5.28873V4.48873ZM9.48116 6.71095C9.26024 6.71095 9.08116 6.89003 9.08116 7.11095C9.08116 7.33186 9.26024 7.51095 9.48116 7.51095V6.71095ZM5.79792 8.18683L5.79691 8.58682L5.79792 8.18683ZM3.55553 10.8795L3.9555 10.8747L3.55553 10.8795ZM4.12898 8.91306L3.81681 8.66296H3.81681L4.12898 8.91306ZM7.99904 10.694L8.39898 10.687L7.99904 10.694ZM2.81449 3.0665H13.1849V2.2665H2.81449V3.0665ZM14.2663 4.14799V11.5554H15.0663V4.14799H14.2663ZM13.1849 12.6369H2.81449V13.4369H13.1849V12.6369ZM1.73301 11.5554V4.14799H0.933008V11.5554H1.73301ZM2.81449 12.6369C2.2172 12.6369 1.73301 12.1527 1.73301 11.5554H0.933008C0.933008 12.5945 1.77538 13.4369 2.81449 13.4369V12.6369ZM14.2663 11.5554C14.2663 12.1527 13.7821 12.6369 13.1849 12.6369V13.4369C14.224 13.4369 15.0663 12.5945 15.0663 11.5554H14.2663ZM13.1849 3.0665C13.7821 3.0665 14.2663 3.5507 14.2663 4.14799H15.0663C15.0663 3.10887 14.224 2.2665 13.1849 2.2665V3.0665ZM2.81449 2.2665C1.77538 2.2665 0.933008 3.10887 0.933008 4.14799H1.73301C1.73301 3.5507 2.2172 3.0665 2.81449 3.0665V2.2665ZM9.48116 5.28873H12.4441V4.48873H9.48116V5.28873ZM9.48116 7.51095H12.4441V6.71095H9.48116V7.51095ZM4.03924 11.7305H7.32094V10.9305H4.03924V11.7305ZM8.39898 10.687C8.38872 10.1031 8.26307 9.39048 7.87162 8.81128C7.46414 8.20835 6.79353 7.78934 5.79893 7.78683L5.79691 8.58682C6.53265 8.58868 6.95308 8.88087 7.2088 9.25924C7.48057 9.66136 7.5903 10.2002 7.5991 10.701L8.39898 10.687ZM5.79893 7.78683C4.88808 7.78453 4.24062 8.13397 3.81681 8.66296L4.44115 9.16316C4.70526 8.8335 5.11747 8.58511 5.79691 8.58682L5.79893 7.78683ZM3.81681 8.66296C3.28523 9.32647 3.14756 10.2171 3.15556 10.8843L3.9555 10.8747C3.94851 10.2916 4.07576 9.61923 4.44115 9.16316L3.81681 8.66296ZM6.48865 6.07267C6.48865 6.50911 6.13912 6.85653 5.71579 6.85653V7.65653C6.58797 7.65653 7.28865 6.94388 7.28865 6.07267H6.48865ZM5.71579 6.85653C5.29245 6.85653 4.94292 6.50911 4.94292 6.07267H4.14292C4.14292 6.94388 4.84361 7.65653 5.71579 7.65653V6.85653ZM4.94292 6.07267C4.94292 5.63623 5.29245 5.28881 5.71579 5.28881V4.48881C4.84361 4.48881 4.14292 5.20146 4.14292 6.07267H4.94292ZM5.71579 5.28881C6.13912 5.28881 6.48865 5.63623 6.48865 6.07267H7.28865C7.28865 5.20146 6.58796 4.48881 5.71579 4.48881V5.28881ZM7.32094 11.7305C7.86798 11.7305 8.41007 11.3189 8.39898 10.687L7.5991 10.701C7.60089 10.8031 7.50795 10.9305 7.32094 10.9305V11.7305ZM4.03924 10.9305C4.00844 10.9305 3.98467 10.919 3.97095 10.9065C3.95904 10.8956 3.95563 10.8859 3.9555 10.8747L3.15556 10.8843C3.16164 11.3917 3.59202 11.7305 4.03924 11.7305V10.9305Z" fill="#333333"/>
</g>
</svg>
