<svg width="24" height="24" viewBox="0 0 24 24" fill="none" xmlns="http://www.w3.org/2000/svg">
<circle cx="12" cy="12" r="11.5" stroke="#333333"/>
<path d="M11.7931 7.48239C11.7931 7.35717 11.7332 7.23708 11.6266 7.14854C11.52 7.06 11.3754 7.01025 11.2247 7.01025C11.0739 7.01025 10.9293 7.06 10.8227 7.14854C10.7161 7.23708 10.6562 7.35717 10.6562 7.48239V12.6759C10.6563 12.7592 10.6828 12.8409 10.7331 12.9129C10.7834 12.9848 10.8557 13.0445 10.9427 13.0857L14.9217 14.9743C15.0523 15.0329 15.2053 15.0468 15.348 15.0129C15.4908 14.9791 15.6119 14.9002 15.6855 14.7932C15.7592 14.6862 15.7795 14.5594 15.7421 14.4401C15.7048 14.3208 15.6127 14.2184 15.4856 14.1547L11.7931 12.4021V7.48239Z" fill="#333333"/>
<path d="M11.75 20.5L8.66896 17.8846L7.94444 21.8605L11.75 20.5ZM14.5746 19.329C14.3881 19.3799 14.2781 19.5723 14.329 19.7588C14.3799 19.9452 14.5723 20.0552 14.7588 20.0043L14.5746 19.329ZM8.77461 19.6079C5.60346 18.4065 3.35 15.341 3.35 11.75H2.65C2.65 15.6414 5.09237 18.9614 8.5266 20.2625L8.77461 19.6079ZM3.35 11.75C3.35 7.11081 7.11081 3.35 11.75 3.35V2.65C6.72421 2.65 2.65 6.72421 2.65 11.75H3.35ZM11.75 3.35C16.3892 3.35 20.15 7.11081 20.15 11.75H20.85C20.85 6.72421 16.7758 2.65 11.75 2.65V3.35ZM20.15 11.75C20.15 13.1627 19.8467 14.762 19.0029 16.1517C18.1642 17.5331 16.7802 18.7275 14.5746 19.329L14.7588 20.0043C17.1365 19.3559 18.6691 18.0503 19.6013 16.515C20.5283 14.988 20.85 13.254 20.85 11.75H20.15Z" fill="#333333"/>
</svg>
