<svg width="24" height="24" viewBox="0 0 24 24" fill="none" xmlns="http://www.w3.org/2000/svg">
<g id="1.TH.DIRECTORIO">
<g id="Vector">
<path d="M20.3847 2H5.22491C4.33693 2 3.61288 2.70143 3.61288 3.56163V4.42838H3.21579C2.5441 4.42838 2 4.95547 2 5.60615C2 6.25684 2.5441 6.78393 3.21579 6.78393H3.61204V7.6253H3.21579C2.5441 7.6253 2 8.15239 2 8.80308C2 9.45376 2.5441 9.98085 3.21579 9.98085H3.61204V10.8222H3.21579C2.5441 10.8222 2 11.3493 2 12C2 12.6507 2.5441 13.1778 3.21579 13.1778H3.61204V14.0192H3.21579C2.5441 14.0192 2 14.5462 2 15.1969C2 15.8476 2.5441 16.3747 3.21579 16.3747H3.61204V17.2161H3.21579C2.5441 17.2161 2 17.7432 2 18.3938C2 19.0445 2.5441 19.5716 3.21579 19.5716H3.61204V20.4384C3.61204 21.2986 4.33611 22 5.22407 22H20.3871C21.2751 22 21.9992 21.2986 21.9992 20.4384L22 3.56159C22 2.70137 21.2761 2 20.3847 2ZM2.64219 5.60617C2.64219 5.30171 2.89819 5.05371 3.21248 5.05371H4.95632C5.27062 5.05371 5.52662 5.30171 5.52662 5.60617C5.52662 5.91064 5.27062 6.15863 4.95632 6.15863H3.21586C2.89817 6.16191 2.64219 5.91064 2.64219 5.60617ZM2.64219 8.80314C2.64219 8.49868 2.89819 8.25068 3.21248 8.25068H4.95632C5.27062 8.25068 5.52662 8.49868 5.52662 8.80314C5.52662 9.1076 5.27062 9.3556 4.95632 9.3556H3.21586C2.89817 9.3556 2.64219 9.1076 2.64219 8.80314ZM2.64219 12.0001C2.64219 11.6956 2.89819 11.4476 3.21248 11.4476H4.95632C5.27062 11.4476 5.52662 11.6956 5.52662 12.0001C5.52662 12.3046 5.27062 12.5526 4.95632 12.5526H3.21586C2.89817 12.5526 2.64219 12.3046 2.64219 12.0001ZM2.64219 15.1971C2.64219 14.8926 2.89819 14.6446 3.21248 14.6446H4.95632C5.27062 14.6446 5.52662 14.8926 5.52662 15.1971C5.52662 15.5015 5.27062 15.7495 4.95632 15.7495H3.21586C2.89817 15.7495 2.64219 15.5015 2.64219 15.1971ZM2.64219 18.394C2.64219 18.0896 2.89819 17.8416 3.21248 17.8416H4.95632C5.27062 17.8416 5.52662 18.0896 5.52662 18.394C5.52662 18.6985 5.27062 18.9465 4.95632 18.9465H3.21586C2.89817 18.9465 2.64219 18.6985 2.64219 18.394ZM4.25762 20.4386V19.5718H4.95888C5.63057 19.5718 6.17467 19.0447 6.17467 18.394C6.17467 17.7434 5.63057 17.2163 4.95888 17.2163H4.25762V16.3749H4.95888C5.63057 16.3749 6.17467 15.8478 6.17467 15.1971C6.17467 14.5464 5.63057 14.0193 4.95888 14.0193H4.25762V13.178H4.95888C5.63057 13.178 6.17467 12.6509 6.17467 12.0002C6.17467 11.3495 5.63057 10.8224 4.95888 10.8224H4.25762V9.98104H4.95888C5.63057 9.98104 6.17467 9.45395 6.17467 8.80326C6.17467 8.15258 5.63057 7.62549 4.95888 7.62549H4.25762V6.78411H4.95888C5.63057 6.78411 6.17467 6.25703 6.17467 5.60634C6.17467 4.95565 5.63057 4.42857 4.95888 4.42857H4.25762V3.56182C4.25762 3.04453 4.6902 2.62548 5.22418 2.62548H8.33076V21.3748H5.22418C4.6902 21.3748 4.25762 20.9558 4.25762 20.4386ZM18.3656 21.3749H8.9773V2.62556H18.4519C18.9859 2.62556 19.4185 3.04462 19.4185 3.5619V20.4387C19.4185 20.956 18.9859 21.375 18.4519 21.375L18.3656 21.3749ZM21.3547 20.4386C21.3547 20.9558 20.9222 21.3749 20.3882 21.3749H19.7326C19.9353 21.1114 20.0637 20.7905 20.0637 20.4386V3.56177C20.0637 3.20901 19.9395 2.88571 19.7326 2.62544H20.3848C20.9188 2.62544 21.3514 3.04449 21.3514 3.56177V20.4386H21.3547Z" fill="#333333"/>
<path d="M15.3969 8.42279C15.7839 8.09867 16.0264 7.61988 16.0264 7.08951C16.0264 6.11144 15.2068 5.31836 14.1981 5.31836C13.1884 5.31836 12.3697 6.11228 12.3697 7.08951C12.3697 7.62315 12.6156 8.09867 12.9992 8.42279C11.6034 8.86722 10.5516 10.0605 10.381 11.5437C10.3616 11.7278 10.4207 11.912 10.5483 12.052C10.6759 12.1886 10.8567 12.268 11.0468 12.268H17.3488C17.5389 12.268 17.7189 12.1886 17.8473 12.052C17.9749 11.9153 18.0374 11.7278 18.0146 11.547C17.8456 10.0606 16.7936 8.8672 15.3969 8.42279ZM13.0143 7.08951C13.0143 6.45766 13.5449 5.94365 14.1971 5.94365C14.8494 5.94365 15.38 6.45764 15.38 7.08951C15.38 7.72138 14.8494 8.23537 14.1971 8.23537C13.5457 8.23537 13.0143 7.72056 13.0143 7.08951ZM17.3468 11.6419H11.0447L11.0219 11.6133C11.1985 10.0451 12.5655 8.8607 14.1979 8.8607C15.8303 8.8607 17.1964 10.045 17.367 11.6353C17.3569 11.6418 17.3502 11.6419 17.3468 11.6419Z" fill="#333333"/>
<path d="M17.4218 14.7241H10.9729C10.7963 14.7241 10.6518 14.8641 10.6518 15.0351C10.6518 15.2062 10.7963 15.3462 10.9729 15.3462H17.4218C17.5984 15.3462 17.7429 15.2062 17.7429 15.0351C17.7437 14.8641 17.5992 14.7241 17.4218 14.7241Z" fill="#333333"/>
<path d="M17.4218 16.3901H10.9729C10.7963 16.3901 10.6518 16.5301 10.6518 16.7012C10.6518 16.8722 10.7963 17.0122 10.9729 17.0122H17.4218C17.5984 17.0122 17.7429 16.8722 17.7429 16.7012C17.7437 16.5301 17.5992 16.3901 17.4218 16.3901Z" fill="#333333"/>
<path d="M17.4218 18.0605H10.9729C10.7963 18.0605 10.6518 18.2005 10.6518 18.3716C10.6518 18.5426 10.7963 18.6826 10.9729 18.6826H17.4218C17.5984 18.6826 17.7429 18.5426 17.7429 18.3716C17.7437 18.1997 17.5992 18.0605 17.4218 18.0605Z" fill="#333333"/>
</g>
</g>
</svg>
