<svg width="20" height="20" viewBox="0 0 20 20" fill="none" xmlns="http://www.w3.org/2000/svg">
<g id="1.TH.PlusCircle">
<path id="Vector" d="M9.99984 1.66675C5.39775 1.66675 1.6665 5.39748 1.6665 10.0001C1.6665 14.6027 5.39723 18.3334 9.99984 18.3334C14.6024 18.3334 18.3332 14.6027 18.3332 10.0001C18.3332 5.39748 14.6024 1.66675 9.99984 1.66675ZM9.99984 17.3084C5.979 17.3084 2.70817 14.0209 2.70817 10.0001C2.70817 5.97925 5.979 2.70841 9.99984 2.70841C14.0207 2.70841 17.2915 5.97925 17.2915 10.0001C17.2915 14.0209 14.0207 17.3084 9.99984 17.3084ZM13.6457 9.47925H10.5207V6.35425C10.5207 6.06675 10.2873 5.83341 9.99984 5.83341C9.71234 5.83341 9.479 6.06675 9.479 6.35425V9.47925H6.354C6.0665 9.47925 5.83317 9.71258 5.83317 10.0001C5.83317 10.2876 6.0665 10.5209 6.354 10.5209H9.479V13.6459C9.479 13.9334 9.71234 14.1667 9.99984 14.1667C10.2873 14.1667 10.5207 13.9334 10.5207 13.6459V10.5209H13.6457C13.9332 10.5209 14.1665 10.2876 14.1665 10.0001C14.1665 9.71258 13.9332 9.47925 13.6457 9.47925Z" fill="#333333"/>
</g>
</svg>
