<svg width="24" height="24" viewBox="0 0 24 24" fill="none" xmlns="http://www.w3.org/2000/svg">
<g id="1.TH.CAMERA">
<path id="Vector" d="M22 17.1691V7.64155V7.48407C22 6.55887 21.252 5.79116 20.3071 5.79116H17.315C16.6457 4.8069 15.8189 3.99982 14.874 3.99982H9.5C8.55512 3.99982 7.72835 4.8069 7.05906 5.79116H3.69291C2.76772 5.79116 2 6.53919 2 7.48407V8.52738C2 8.52738 2 8.52738 2 8.54706V16.2636C2 16.2636 2 16.2636 2 16.2833V17.3266C2 18.2518 2.74803 19.0195 3.69291 19.0195H20.3071C21.2323 19.0195 22 18.2715 22 17.3266V17.1691ZM9.5 4.76753H14.8937C15.3858 4.76753 15.9173 5.2006 16.4094 5.81084H7.98425C8.47638 5.18092 8.98819 4.76753 9.5 4.76753ZM7.5315 12.5038C7.5315 9.9447 9.53937 7.85808 12 7.85808C14.4606 7.85808 16.4685 9.9447 16.4685 12.5038C16.4685 15.0628 14.4606 17.1494 12 17.1494C9.53937 17.1494 7.5315 15.0628 7.5315 12.5038ZM8.12205 8.92108C7.29528 9.86596 6.78346 11.1258 6.78346 12.5038C6.78346 13.803 7.23622 14.9841 7.96457 15.929H2.74803V8.92108H8.12205ZM17.2165 12.5038C17.2165 11.1258 16.7047 9.86596 15.878 8.92108H21.252V15.929H16.0354C16.7638 14.9841 17.2165 13.803 17.2165 12.5038ZM21.252 8.17305H15.1102C14.2441 7.50375 13.1614 7.11005 12 7.11005C10.8386 7.11005 9.75591 7.50375 8.88976 8.17305H2.74803V7.66123C2.74803 7.051 3.24016 6.55887 3.85039 6.55887H20.1496C20.7598 6.55887 21.252 7.051 21.252 7.66123V8.17305ZM20.1496 18.2715H3.85039C3.24016 18.2715 2.74803 17.7793 2.74803 17.1691V16.6573H8.69291C9.59842 17.425 10.7598 17.8975 12 17.8975C13.2402 17.8975 14.4213 17.425 15.3071 16.6573H21.252V17.1691C21.252 17.7793 20.7598 18.2715 20.1496 18.2715Z" fill="#333333"/>
<path id="Vector_2" d="M12.0001 16.323C14.0473 16.323 15.7009 14.6104 15.7009 12.5041C15.7009 10.3978 14.0473 8.68524 12.0001 8.68524C9.95286 8.68524 8.29932 10.3978 8.29932 12.5041C8.29932 14.6104 9.95286 16.323 12.0001 16.323ZM12.0001 9.41359C13.634 9.41359 14.9725 10.7915 14.9725 12.5041C14.9725 14.1971 13.634 15.5947 12.0001 15.5947C10.3662 15.5947 9.02766 14.2167 9.02766 12.5041C9.02766 10.7915 10.3662 9.41359 12.0001 9.41359Z" fill="#333333"/>
</g>
</svg>
