<svg width="24" height="24" viewBox="0 0 24 24" fill="none" xmlns="http://www.w3.org/2000/svg">
<g id="1.TH.Emojis">
<g id="Vector">
<path d="M24 12C24 18.6273 18.6273 24 12 24C5.37333 24 0 18.6273 0 12C0 5.37333 5.37333 0 12 0C18.6273 0 24 5.37333 24 12Z" fill="#34A98F"/>
<path d="M7.66667 12C8.58714 12 9.33333 10.3584 9.33333 8.33333C9.33333 6.30829 8.58714 4.66667 7.66667 4.66667C6.74619 4.66667 6 6.30829 6 8.33333C6 10.3584 6.74619 12 7.66667 12Z" fill="white"/>
<path d="M16.3333 12C17.2538 12 18 10.3584 18 8.33333C18 6.30829 17.2538 4.66667 16.3333 4.66667C15.4129 4.66667 14.6667 6.30829 14.6667 8.33333C14.6667 10.3584 15.4129 12 16.3333 12Z" fill="white"/>
<path d="M12 14.6667C9.58467 14.6667 7.982 14.3853 6 14C5.54733 13.9127 4.66667 14 4.66667 15.3333C4.66667 18 7.73 21.3333 12 21.3333C16.2693 21.3333 19.3333 18 19.3333 15.3333C19.3333 14 18.4527 13.912 18 14C16.018 14.3853 14.4153 14.6667 12 14.6667Z" fill="white"/>
</g>
</g>
</svg>
