<svg width="24" height="24" viewBox="0 0 24 24" fill="none" xmlns="http://www.w3.org/2000/svg">
<g id="Filtros">
<g id="Vector">
<path fill-rule="evenodd" clip-rule="evenodd" d="M16.6572 4.37553C16.4233 4.37553 16.1917 4.42161 15.9756 4.51112C15.7595 4.60064 15.5631 4.73185 15.3977 4.89725C15.2323 5.06266 15.1011 5.25902 15.0116 5.47513C14.922 5.69124 14.876 5.92287 14.876 6.15678C14.876 6.3907 14.922 6.62233 15.0116 6.83844C15.1011 7.05455 15.2323 7.25091 15.3977 7.41632C15.5631 7.58172 15.7595 7.71293 15.9756 7.80245C16.1917 7.89196 16.4233 7.93804 16.6572 7.93804C17.1296 7.93804 17.5827 7.75037 17.9168 7.41632C18.2508 7.08227 18.4385 6.6292 18.4385 6.15678C18.4385 5.68437 18.2508 5.2313 17.9168 4.89725C17.5827 4.5632 17.1296 4.37553 16.6572 4.37553ZM13.7479 5.56303C13.8841 4.89193 14.2482 4.28857 14.7784 3.85519C15.3087 3.42181 15.9724 3.18506 16.6572 3.18506C17.342 3.18506 18.0058 3.42181 18.536 3.85519C19.0662 4.28857 19.4303 4.89193 19.5666 5.56303H22.001V6.75053H19.5666C19.4303 7.42164 19.0662 8.025 18.536 8.45838C18.0058 8.89176 17.342 9.12851 16.6572 9.12851C15.9724 9.12851 15.3087 8.89176 14.7784 8.45838C14.2482 8.025 13.8841 7.42164 13.7479 6.75053H3.00098V5.56303H13.7479ZM8.34473 10.313C7.87231 10.313 7.41924 10.5007 7.08519 10.8348C6.75114 11.1688 6.56348 11.6219 6.56348 12.0943C6.56348 12.5667 6.75114 13.0198 7.08519 13.3538C7.41924 13.6879 7.87231 13.8755 8.34473 13.8755C8.81714 13.8755 9.27021 13.6879 9.60426 13.3538C9.93831 13.0198 10.126 12.5667 10.126 12.0943C10.126 11.6219 9.93831 11.1688 9.60426 10.8348C9.27021 10.5007 8.81714 10.313 8.34473 10.313ZM5.43535 11.5005C5.57163 10.8294 5.93572 10.2261 6.46595 9.79269C6.99617 9.35931 7.65992 9.12256 8.34473 9.12256C9.02953 9.12256 9.69328 9.35931 10.2235 9.79269C10.7537 10.2261 11.1178 10.8294 11.2541 11.5005H22.001V12.688H11.2541C11.1178 13.3591 10.7537 13.9625 10.2235 14.3959C9.69328 14.8293 9.02953 15.066 8.34473 15.066C7.65992 15.066 6.99617 14.8293 6.46595 14.3959C5.93572 13.9625 5.57163 13.3591 5.43535 12.688H3.00098V11.5005H5.43535ZM16.6572 16.2505C16.1848 16.2505 15.7317 16.4382 15.3977 16.7723C15.0636 17.1063 14.876 17.5594 14.876 18.0318C14.876 18.5042 15.0636 18.9573 15.3977 19.2913C15.7317 19.6254 16.1848 19.813 16.6572 19.813C17.1296 19.813 17.5827 19.6254 17.9168 19.2913C18.2508 18.9573 18.4385 18.5042 18.4385 18.0318C18.4385 17.5594 18.2508 17.1063 17.9168 16.7723C17.5827 16.4382 17.1296 16.2505 16.6572 16.2505ZM13.7479 17.438C13.8841 16.7669 14.2482 16.1636 14.7784 15.7302C15.3087 15.2968 15.9724 15.0601 16.6572 15.0601C17.342 15.0601 18.0058 15.2968 18.536 15.7302C19.0662 16.1636 19.4303 16.7669 19.5666 17.438H22.001V18.6255H19.5666C19.4303 19.2966 19.0662 19.9 18.536 20.3334C18.0058 20.7668 17.342 21.0035 16.6572 21.0035C15.9724 21.0035 15.3087 20.7668 14.7784 20.3334C14.2482 19.9 13.8841 19.2966 13.7479 18.6255H3.00098V17.438H13.7479Z" fill="#333333"/>
<path d="M8.50112 10C11.0011 10 11.0013 14.0005 8.50125 14.0005C6.00123 14.0005 5.50098 10.0002 8.50112 10Z" fill="#333333"/>
<path d="M16.6224 3.5C19.7937 3.5 19.7939 8.5 16.6226 8.5C13.4513 8.5 12.8167 3.50026 16.6224 3.5Z" fill="#333333"/>
<path d="M16.6224 15.5C19.7937 15.5 19.7939 20.5 16.6226 20.5C13.4513 20.5 12.8167 15.5003 16.6224 15.5Z" fill="#333333"/>
</g>
</g>
</svg>
