<svg width="24" height="24" viewBox="0 0 24 24" fill="none" xmlns="http://www.w3.org/2000/svg">
<g id="1.TH.icon.instalaciones">
<path id="Vector" d="M6.16596 9.27261C5.94504 9.27261 5.76596 9.45169 5.76596 9.67261C5.76596 9.89352 5.94504 10.0726 6.16596 10.0726V9.27261ZM9.50205 9.27261C9.28113 9.27261 9.10205 9.45169 9.10205 9.67261C9.10205 9.89352 9.28113 10.0726 9.50205 10.0726V9.27261ZM12.8296 9.27261C12.6087 9.27261 12.4296 9.45169 12.4296 9.67261C12.4296 9.89352 12.6087 10.0726 12.8296 10.0726V9.27261ZM16.1659 9.27261C15.945 9.27261 15.7659 9.45169 15.7659 9.67261C15.7659 9.89352 15.945 10.0726 16.1659 10.0726V9.27261ZM6.16596 12.6002C5.94504 12.6002 5.76596 12.7793 5.76596 13.0002C5.76596 13.2211 5.94504 13.4002 6.16596 13.4002V12.6002ZM9.50205 12.6002C9.28113 12.6002 9.10205 12.7793 9.10205 13.0002C9.10205 13.2211 9.28113 13.4002 9.50205 13.4002V12.6002ZM12.8296 12.6002C12.6087 12.6002 12.4296 12.7793 12.4296 13.0002C12.4296 13.2211 12.6087 13.4002 12.8296 13.4002V12.6002ZM16.1659 12.6002C15.945 12.6002 15.7659 12.7793 15.7659 13.0002C15.7659 13.2211 15.945 13.4002 16.1659 13.4002V12.6002ZM4.1593 6.73609H19.8318V5.93609H4.1593V6.73609ZM19.9318 6.83609V20.8405H20.7318V6.83609H19.9318ZM19.8318 20.9405H4.1593V21.7405H19.8318V20.9405ZM4.0593 20.8405V6.83609H3.2593V20.8405H4.0593ZM4.1593 20.9405C4.10407 20.9405 4.0593 20.8957 4.0593 20.8405H3.2593C3.2593 21.3375 3.66225 21.7405 4.1593 21.7405V20.9405ZM19.9318 20.8405C19.9318 20.8957 19.887 20.9405 19.8318 20.9405V21.7405C20.3288 21.7405 20.7318 21.3375 20.7318 20.8405H19.9318ZM19.8318 6.73609C19.887 6.73609 19.9318 6.78086 19.9318 6.83609H20.7318C20.7318 6.33903 20.3288 5.93609 19.8318 5.93609V6.73609ZM4.1593 5.93609C3.66225 5.93609 3.2593 6.33904 3.2593 6.83609H4.0593C4.0593 6.78086 4.10407 6.73609 4.1593 6.73609V5.93609ZM2 21.7406H22V20.9406H2V21.7406ZM5.82756 3.4H18.1638V2.6H5.82756V3.4ZM18.2638 3.5V5.83624H19.0638V3.5H18.2638ZM18.1638 5.93624H5.82756V6.73624H18.1638V5.93624ZM5.72756 5.83624V3.5H4.92756V5.83624H5.72756ZM5.82756 5.93624C5.77233 5.93624 5.72756 5.89147 5.72756 5.83624H4.92756C4.92756 6.3333 5.33051 6.73624 5.82756 6.73624V5.93624ZM18.2638 5.83624C18.2638 5.89147 18.219 5.93624 18.1638 5.93624V6.73624C18.6609 6.73624 19.0638 6.3333 19.0638 5.83624H18.2638ZM18.1638 3.4C18.219 3.4 18.2638 3.44477 18.2638 3.5H19.0638C19.0638 3.00294 18.6609 2.6 18.1638 2.6V3.4ZM5.82756 2.6C5.33051 2.6 4.92756 3.00294 4.92756 3.5H5.72756C5.72756 3.44477 5.77233 3.4 5.82756 3.4V2.6ZM8.334 16.7363H15.6746V15.9363H8.334V16.7363ZM15.7746 16.8363V20.8406H16.5746V16.8363H15.7746ZM15.6746 20.9406H8.334V21.7406H15.6746V20.9406ZM8.234 20.8406V16.8363H7.434V20.8406H8.234ZM8.334 20.9406C8.27877 20.9406 8.234 20.8959 8.234 20.8406H7.434C7.434 21.3377 7.83695 21.7406 8.334 21.7406V20.9406ZM15.7746 20.8406C15.7746 20.8959 15.7298 20.9406 15.6746 20.9406V21.7406C16.1717 21.7406 16.5746 21.3377 16.5746 20.8406H15.7746ZM15.6746 16.7363C15.7298 16.7363 15.7746 16.781 15.7746 16.8363H16.5746C16.5746 16.3392 16.1717 15.9363 15.6746 15.9363V16.7363ZM8.334 15.9363C7.83694 15.9363 7.434 16.3392 7.434 16.8363H8.234C8.234 16.781 8.27877 16.7363 8.334 16.7363V15.9363ZM6.16596 10.0726H7.83408V9.27261H6.16596V10.0726ZM9.50205 10.0726H11.1702V9.27261H9.50205V10.0726ZM12.8296 10.0726H14.4977V9.27261H12.8296V10.0726ZM16.1659 10.0726H17.834V9.27261H16.1659V10.0726ZM6.16596 13.4002H7.83408V12.6002H6.16596V13.4002ZM9.50205 13.4002H11.1702V12.6002H9.50205V13.4002ZM12.8296 13.4002H14.4977V12.6002H12.8296V13.4002ZM16.1659 13.4002H17.834V12.6002H16.1659V13.4002ZM11.6 16.3363V21.3406H12.4V16.3363H11.6Z" fill="#333333"/>
</g>
</svg>
