<svg width="16" height="16" viewBox="0 0 16 16" fill="none" xmlns="http://www.w3.org/2000/svg">
<g id="1.TH.REVIEW">
<path id="Vector" d="M8.38094 1.24724C8.22938 0.92436 7.77014 0.924363 7.61857 1.24724L5.67386 5.39L1.31142 6.06049C0.972752 6.11254 0.834716 6.52572 1.07409 6.77088L4.24338 10.0168L3.49693 14.5932C3.44034 14.9402 3.80868 15.1996 4.11632 15.0295L7.99976 12.882L11.8832 15.0295C12.1908 15.1996 12.5592 14.9402 12.5026 14.5932L11.7561 10.0168L14.9254 6.77088C15.1648 6.52572 15.0268 6.11254 14.6881 6.06049L10.3257 5.39L8.38094 1.24724ZM5.66052 5.41842C5.66054 5.41837 5.66057 5.41832 5.66059 5.41826L5.66052 5.41842L5.71384 5.44345L5.66052 5.41842ZM10.3389 5.4182C10.3389 5.41828 10.339 5.41835 10.339 5.41842L10.2857 5.44345L10.339 5.41842L10.3389 5.4182Z" fill="white" stroke="white" stroke-width="0.48" stroke-linecap="round" stroke-linejoin="round"/>
</g>
</svg>
