<svg width="24" height="24" viewBox="0 0 24 24" fill="none" xmlns="http://www.w3.org/2000/svg">
<g id="1.TH.Referidos">
<path id="Vector" d="M8.32013 6.19188C7.44554 6.34776 5.66337 7.00688 5.53135 8.39638C6.75248 9.53759 10.165 11.1353 14.0462 8.39638C13.8922 7.78402 13.2211 6.48581 11.3069 6.19188M16.2739 16.5129C15.3993 16.6688 13.6172 17.3279 13.4851 18.7174C14.7063 19.8586 18.1188 21.4563 22 18.7174C21.846 18.1051 21.1749 16.8069 19.2607 16.5129M4.78878 18.2832C3.91419 18.4391 2.13201 19.0982 2 20.4877C3.22112 21.6289 6.63366 23.2266 10.5149 20.4877C10.3608 19.8753 9.68977 18.5771 7.77558 18.2832M11.7525 10.9683L14.0297 14.0579M8.71617 11.1186L8.22112 13.4066M10.0693 17.3313L13.9472 15.9952M9.72279 2C11.6502 2 12.11 3.60327 12.099 4.4049C12.0495 5.1787 11.5215 6.7263 9.80529 6.7263C8.08912 6.7263 7.50606 5.12304 7.42906 4.3214C7.40155 3.5476 7.8218 2 9.72279 2ZM17.6766 12.321C19.604 12.321 20.0638 13.9243 20.0528 14.726C20.0033 15.4998 19.4753 17.0474 17.7591 17.0474C16.0429 17.0474 15.4599 15.4441 15.3829 14.6424C15.3553 13.8686 15.7756 12.321 17.6766 12.321ZM6.19143 14.0913C8.11883 14.0913 8.57867 15.6946 8.56767 16.4962C8.51817 17.27 7.99011 18.8176 6.27394 18.8176C4.55777 18.8176 3.97471 17.2144 3.8977 16.4127C3.8702 15.6389 4.29044 14.0913 6.19143 14.0913Z" stroke="#333333" stroke-width="0.8" stroke-linecap="round" stroke-linejoin="round"/>
</g>
</svg>
