<svg width="24" height="24" viewBox="0 0 24 24" fill="none" xmlns="http://www.w3.org/2000/svg">
<g id="1.TH.Filters">
<path id="Vector" fill-rule="evenodd" clip-rule="evenodd" d="M16.375 3.33623C16.1288 3.33623 15.885 3.38794 15.6575 3.48842C15.43 3.58889 15.2233 3.73616 15.0492 3.92182C14.8751 4.10747 14.737 4.32788 14.6427 4.57045C14.5485 4.81302 14.5 5.073 14.5 5.33556C14.5 5.59812 14.5485 5.8581 14.6427 6.10067C14.737 6.34324 14.8751 6.56365 15.0492 6.7493C15.2233 6.93496 15.43 7.08223 15.6575 7.1827C15.885 7.28318 16.1288 7.33489 16.375 7.33489C16.8723 7.33489 17.3492 7.12425 17.7008 6.7493C18.0525 6.37435 18.25 5.86582 18.25 5.33556C18.25 4.8053 18.0525 4.29677 17.7008 3.92182C17.3492 3.54687 16.8723 3.33623 16.375 3.33623ZM13.3125 4.66912C13.4559 3.91584 13.8392 3.23861 14.3973 2.75217C14.9555 2.26573 15.6542 2 16.375 2C17.0958 2 17.7945 2.26573 18.3527 2.75217C18.9108 3.23861 19.2941 3.91584 19.4375 4.66912H22V6.002H19.4375C19.2941 6.75528 18.9108 7.43251 18.3527 7.91895C17.7945 8.40539 17.0958 8.67112 16.375 8.67112C15.6542 8.67112 14.9555 8.40539 14.3973 7.91895C13.8392 7.43251 13.4559 6.75528 13.3125 6.002H2V4.66912H13.3125ZM7.625 10.0007C7.12772 10.0007 6.65081 10.2113 6.29917 10.5863C5.94754 10.9612 5.75 11.4697 5.75 12C5.75 12.5303 5.94754 13.0388 6.29917 13.4137C6.65081 13.7887 7.12772 13.9993 7.625 13.9993C8.12228 13.9993 8.59919 13.7887 8.95083 13.4137C9.30246 13.0388 9.5 12.5303 9.5 12C9.5 11.4697 9.30246 10.9612 8.95083 10.5863C8.59919 10.2113 8.12228 10.0007 7.625 10.0007ZM4.5625 11.3336C4.70595 10.5803 5.08921 9.90305 5.64734 9.41661C6.20547 8.93017 6.90415 8.66444 7.625 8.66444C8.34585 8.66444 9.04453 8.93017 9.60266 9.41661C10.1608 9.90305 10.5441 10.5803 10.6875 11.3336H22V12.6664H10.6875C10.5441 13.4197 10.1608 14.0969 9.60266 14.5834C9.04453 15.0698 8.34585 15.3356 7.625 15.3356C6.90415 15.3356 6.20547 15.0698 5.64734 14.5834C5.08921 14.0969 4.70595 13.4197 4.5625 12.6664H2V11.3336H4.5625ZM16.375 16.6651C15.8777 16.6651 15.4008 16.8758 15.0492 17.2507C14.6975 17.6256 14.5 18.1342 14.5 18.6644C14.5 19.1947 14.6975 19.7032 15.0492 20.0782C15.4008 20.4531 15.8777 20.6638 16.375 20.6638C16.8723 20.6638 17.3492 20.4531 17.7008 20.0782C18.0525 19.7032 18.25 19.1947 18.25 18.6644C18.25 18.1342 18.0525 17.6256 17.7008 17.2507C17.3492 16.8758 16.8723 16.6651 16.375 16.6651ZM13.3125 17.998C13.4559 17.2447 13.8392 16.5675 14.3973 16.0811C14.9555 15.5946 15.6542 15.3289 16.375 15.3289C17.0958 15.3289 17.7945 15.5946 18.3527 16.0811C18.9108 16.5675 19.2941 17.2447 19.4375 17.998H22V19.3309H19.4375C19.2941 20.0842 18.9108 20.7614 18.3527 21.2478C17.7945 21.7343 17.0958 22 16.375 22C15.6542 22 14.9555 21.7343 14.3973 21.2478C13.8392 20.7614 13.4559 20.0842 13.3125 19.3309H2V17.998H13.3125Z" fill="#333333"/>
</g>
</svg>
