<svg width="24" height="24" viewBox="0 0 24 24" fill="none" xmlns="http://www.w3.org/2000/svg">
<g id="1.TH.INFO">
<circle id="Vector" cx="12" cy="12" r="9.6" stroke="#333333" stroke-width="0.8"/>
<path id="Vector_2" fill-rule="evenodd" clip-rule="evenodd" d="M11.5617 9.58175C10.6755 9.99459 9.92181 10.7065 9.16752 11.7474C9.05995 11.8958 9.0556 11.986 9.16611 12.0657C9.2438 12.1218 9.28895 12.1039 9.40211 11.9832C9.41725 11.9669 9.41725 11.9669 9.43274 11.9501C9.53056 11.8442 9.60936 11.7543 9.77769 11.5588C10.3339 10.9129 10.6055 10.6471 11.0277 10.4039C11.3931 10.1935 11.7142 10.5027 11.653 10.8984C11.6359 11.0095 11.6063 11.0915 11.5302 11.2675C11.4999 11.3375 11.4872 11.368 11.473 11.4053C11.3357 11.766 11.2202 12.067 10.978 12.6954L10.9664 12.7255C10.8932 12.9155 10.8932 12.9155 10.82 13.1055C10.5028 13.9298 10.3103 14.4353 10.1118 14.9699L10.1001 15.0013C10.0646 15.0966 10.0292 15.192 9.99398 15.2874C9.76644 15.9045 9.6363 16.3054 9.53733 16.7319C9.52187 16.7982 9.52188 16.7982 9.50621 16.8657C9.45045 17.1069 9.4206 17.2623 9.40392 17.4221C9.37506 17.6984 9.39826 17.9246 9.48508 18.1148C9.58333 18.3299 9.79443 18.4838 10.0353 18.5188C10.4365 18.577 10.8236 18.5729 11.1552 18.4975C11.3418 18.455 11.5265 18.3995 11.7076 18.3314C12.2321 18.1342 12.7374 17.8265 13.2269 17.4197C13.6551 17.0628 14.0603 16.6281 14.4851 16.0877C14.5221 16.0409 14.5221 16.0409 14.559 15.9942C14.6873 15.8306 14.7502 15.7243 14.7736 15.6121C14.7992 15.4903 14.6961 15.3668 14.6138 15.4081C14.5731 15.4285 14.5306 15.4708 14.4657 15.5526C14.4193 15.6121 14.3941 15.6439 14.3688 15.6725C14.2681 15.7866 14.1617 15.9033 14.0465 16.0267C13.8565 16.2299 13.6634 16.4288 13.3834 16.712C13.2408 16.8562 13.0614 16.9822 12.8686 17.077C12.5599 17.2287 12.2815 17.0375 12.315 16.6954C12.337 16.4696 12.3917 16.2361 12.4736 16.0103C12.6523 15.5169 12.7984 15.1181 13.1216 14.239C13.2618 13.8578 13.3224 13.6931 13.398 13.4869C13.6221 12.876 13.8011 12.3841 13.9713 11.9096C14.1816 11.3234 14.3004 10.8864 14.3554 10.4352C14.397 10.0948 14.3023 9.76931 14.0863 9.54553C13.8469 9.29744 13.5063 9.18316 13.0822 9.18818C12.6129 9.19375 12.0654 9.3471 11.5617 9.58175ZM14.774 5.53569C13.9307 5.20757 12.9187 5.77128 12.7492 6.66413C12.6264 7.31125 12.8681 7.86996 13.3615 8.10397C14.3396 8.56784 15.5135 7.82457 15.5135 6.7412C15.5136 6.13855 15.2562 5.72331 14.774 5.53569Z" fill="#333333"/>
</g>
</svg>
