<svg width="24" height="24" viewBox="0 0 24 24" fill="none" xmlns="http://www.w3.org/2000/svg">
<g clip-path="url(#clip0_5666_47918)">
<circle cx="12" cy="12" r="11.5" fill="#F3F3F3" stroke="#999999"/>
<path d="M10 17.2588C10 17.0289 10.0453 16.8014 10.1332 16.5891C10.2212 16.3767 10.3501 16.1838 10.5126 16.0213C10.6751 15.8588 10.868 15.7299 11.0803 15.642C11.2926 15.554 11.5202 15.5088 11.75 15.5088C11.9798 15.5088 12.2074 15.554 12.4197 15.642C12.632 15.7299 12.8249 15.8588 12.9874 16.0213C13.1499 16.1838 13.2788 16.3767 13.3668 16.5891C13.4547 16.8014 13.5 17.0289 13.5 17.2588C13.5 17.7229 13.3156 18.168 12.9874 18.4962C12.6592 18.8244 12.2141 19.0088 11.75 19.0088C11.2859 19.0088 10.8408 18.8244 10.5126 18.4962C10.1844 18.168 10 17.7229 10 17.2588ZM10.1715 6.75C10.1482 6.52922 10.1716 6.30601 10.2401 6.09485C10.3086 5.88369 10.4208 5.68929 10.5693 5.52428C10.7178 5.35926 10.8994 5.22731 11.1022 5.13699C11.305 5.04667 11.5245 5 11.7465 5C11.9685 5 12.188 5.04667 12.3908 5.13699C12.5936 5.22731 12.7752 5.35926 12.9237 5.52428C13.0722 5.68929 13.1844 5.88369 13.2529 6.09485C13.3214 6.30601 13.3448 6.52922 13.3215 6.75L12.709 12.8873C12.6884 13.1284 12.5781 13.353 12.3999 13.5166C12.2216 13.6803 11.9885 13.7711 11.7465 13.7711C11.5045 13.7711 11.2714 13.6803 11.0931 13.5166C10.9149 13.353 10.8046 13.1284 10.784 12.8873L10.1715 6.75Z" fill="#999999"/>
</g>
<defs>
<clipPath id="clip0_5666_47918">
<rect width="24" height="24" fill="white"/>
</clipPath>
</defs>
</svg>
