<svg width="32" height="32" viewBox="0 0 32 32" fill="none" xmlns="http://www.w3.org/2000/svg">
<rect width="32" height="32" rx="6" fill="#34A98F"/>
<path d="M14.6093 7.56141C15.236 6.44775 16.8904 6.48543 17.4482 7.67371L19.4062 11.8446L19.4589 11.9286C19.5208 12.0041 19.6092 12.055 19.708 12.0702L24.1689 12.7557C25.4557 12.9536 25.9798 14.5235 25.0703 15.455L21.7822 18.8231C21.6935 18.914 21.6534 19.0416 21.6738 19.1669L22.4404 23.87C22.6487 25.1472 21.3419 26.1127 20.1972 25.5839L20.0869 25.5282L16.1933 23.3749C16.073 23.3085 15.9269 23.3085 15.8066 23.3749L11.913 25.5282C10.7441 26.1746 9.3445 25.1883 9.55952 23.87L10.3261 19.1669C10.3414 19.0728 10.3232 18.9774 10.2753 18.8973L10.2177 18.8231L6.92964 15.455C6.02013 14.5235 6.54425 12.9536 7.83101 12.7557L12.2919 12.0702L12.3867 12.0438C12.4767 12.0059 12.5512 11.9351 12.5937 11.8446L14.5517 7.67371L14.6093 7.56141ZM16.3623 8.18348C16.2272 7.89578 15.8348 7.87774 15.6679 8.12977L15.6376 8.18348L13.6796 12.3554C13.4814 12.7774 13.1103 13.0882 12.6679 13.2138L12.4746 13.2567L8.01363 13.9423C7.69193 13.9917 7.56066 14.3842 7.78804 14.6171L11.0761 17.9852L11.2001 18.1278C11.4677 18.4759 11.5823 18.9215 11.5107 19.3602L10.7441 24.0634C10.6904 24.3929 11.0398 24.6398 11.332 24.4784L15.2255 22.3251C15.7073 22.0586 16.2926 22.0586 16.7744 22.3251L20.6679 24.4784L20.7236 24.5038C21.0025 24.6083 21.3062 24.3722 21.2558 24.0634L20.4892 19.3602C20.4074 18.8588 20.5689 18.3487 20.9238 17.9852L24.2119 14.6171C24.4392 14.3842 24.308 13.9917 23.9863 13.9423L19.5253 13.2567C19.0646 13.1858 18.6614 12.9179 18.416 12.5292L18.3203 12.3554L16.3623 8.18348Z" fill="white"/>
</svg>
