<svg width="16" height="16" viewBox="0 0 16 16" fill="none" xmlns="http://www.w3.org/2000/svg">
<g id="Group 3421">
<path id="Vector" d="M7.99998 14.6667C11.6819 14.6667 14.6666 11.6819 14.6666 8.00001C14.6666 4.31811 11.6819 1.33334 7.99998 1.33334C4.31808 1.33334 1.33331 4.31811 1.33331 8.00001C1.33331 11.6819 4.31808 14.6667 7.99998 14.6667Z" stroke="#333333" stroke-width="0.8"/>
<path id="Vector_2" d="M6.75 5.91669C6.75 5.22633 7.30967 4.66669 8 4.66669C8.69033 4.66669 9.25 5.22633 9.25 5.91669C9.25 6.37499 9.00333 6.77569 8.6356 6.99329C8.31867 7.18075 8 7.46515 8 7.83335V8.66669" stroke="#333333" stroke-width="0.8" stroke-linecap="round"/>
<path id="Vector_3" d="M8.45551 10.7778C8.45551 11.0294 8.25155 11.2333 7.99995 11.2333C7.74836 11.2333 7.5444 11.0294 7.5444 10.7778C7.5444 10.5262 7.74836 10.3222 7.99995 10.3222C8.25155 10.3222 8.45551 10.5262 8.45551 10.7778Z" fill="#333333" stroke="#333333" stroke-width="0.2"/>
</g>
</svg>
