<svg width="32" height="32" viewBox="0 0 32 32" fill="none" xmlns="http://www.w3.org/2000/svg">
<rect width="32" height="32" rx="6" fill="#34A98F"/>
<path d="M20.0002 17C19.4479 17 19.0002 16.5523 19.0002 16C19.0002 15.4477 19.4479 15 20.0002 15C20.5525 15 21.0002 15.4477 21.0002 16C21.0002 16.5523 20.5525 17 20.0002 17Z" fill="white"/>
<path d="M16.0002 17C15.4479 17 15.0002 16.5523 15.0002 16C15.0002 15.4477 15.4479 15 16.0002 15C16.5525 15 17.0002 15.4477 17.0002 16C17.0002 16.5523 16.5525 17 16.0002 17Z" fill="white"/>
<path d="M12.0002 17C11.4479 17 11.0002 16.5523 11.0002 16C11.0002 15.4477 11.4479 15 12.0002 15C12.5525 15 13.0002 15.4477 13.0002 16C13.0002 16.5523 12.5525 17 12.0002 17Z" fill="white"/>
<path d="M25.4006 16C25.4006 10.8072 21.2007 6.59961 16.0237 6.59961C10.8466 6.59968 6.64767 10.8072 6.64767 16C6.64767 17.505 6.99931 18.9258 7.62521 20.1855L7.70627 20.3652C7.8528 20.7323 7.91112 21.1417 7.84494 21.5508L7.80099 21.7549L7.20724 23.9814L7.1965 24.0225L7.1799 24.0615C6.9695 24.556 6.81482 24.9176 6.71506 25.1875C7.02913 25.1197 7.45976 25.0024 8.05783 24.8398L8.05978 24.8389L10.2805 24.2432L10.4856 24.1992C10.9627 24.1217 11.4401 24.2154 11.8498 24.4199L12.3283 24.6416C13.4617 25.1294 14.7105 25.4004 16.0237 25.4004C21.2007 25.4004 25.4006 21.1928 25.4006 16ZM26.5998 16C26.5998 21.8528 21.8661 26.5996 16.0237 26.5996C14.4384 26.5996 12.9334 26.2496 11.5822 25.6221L11.3137 25.4932C11.1015 25.3873 10.879 25.351 10.677 25.3838L10.592 25.4023L8.37131 25.998L8.37033 25.9971C7.73194 26.1706 7.21451 26.3167 6.83713 26.3896C6.64875 26.4261 6.45478 26.4527 6.27756 26.4463C6.10921 26.4402 5.84898 26.4008 5.64279 26.1963C5.42439 25.9795 5.39322 25.706 5.40158 25.5225C5.40987 25.3411 5.45981 25.1527 5.51584 24.9805C5.6262 24.6412 5.82291 24.184 6.05881 23.6299L6.64182 21.4463L6.66037 21.3604C6.68862 21.1859 6.66577 20.9964 6.59201 20.8115L6.55099 20.7197C5.84442 19.2977 5.44748 17.6944 5.44748 16C5.44748 10.1472 10.1812 5.40047 16.0237 5.40039C21.8661 5.40039 26.5998 10.1471 26.5998 16Z" fill="white"/>
</svg>
