<svg width="24" height="24" viewBox="0 0 24 24" fill="none" xmlns="http://www.w3.org/2000/svg">
<g id="1.TH.MMRESE&#195;&#145;AS">
<path id="Vector" d="M11.0948 3.92837C11.4547 3.16162 12.5453 3.16162 12.9052 3.92838L14.8635 8.10005C15.0051 8.40163 15.2875 8.6129 15.6168 8.66351L20.0777 9.34914C20.882 9.47275 21.2098 10.4539 20.6413 11.0361L17.3527 14.4042C17.1309 14.6314 17.0302 14.9505 17.0813 15.2638L17.8484 19.9672C17.9828 20.7911 17.1081 21.4073 16.3776 21.0033L12.4839 18.8501C12.1828 18.6836 11.8172 18.6836 11.5161 18.8501L7.62245 21.0033C6.89189 21.4073 6.01718 20.7911 6.15157 19.9672L6.91872 15.2638C6.96983 14.9505 6.86909 14.6314 6.64727 14.4042L3.35869 11.0361C2.79024 10.4539 3.11804 9.47275 3.92229 9.34914L8.38318 8.66351C8.71247 8.6129 8.99492 8.40163 9.13649 8.10005L11.0948 3.92837Z" stroke="#333333" stroke-width="1.2" stroke-linecap="round" stroke-linejoin="round"/>
</g>
</svg>
