<svg width="24" height="24" viewBox="0 0 24 24" fill="none" xmlns="http://www.w3.org/2000/svg">
<g id="1.TH.TextosLegales">
<g id="Vector">
<mask id="path-1-inside-1_5150_1200" fill="white">
<path fill-rule="evenodd" clip-rule="evenodd" d="M6.43694 2.00008C6.35215 2.00008 6.27057 2.03367 6.21057 2.09305L2.09437 6.0993C2.02638 6.16571 1.99199 6.25868 2.00158 6.35243V20.5736C2.00158 21.3588 2.66148 21.9994 3.46613 21.9994H16.6512C17.2567 21.9994 17.7814 21.6393 18.0022 21.1228C18.0702 20.9643 17.9942 20.7822 17.8326 20.715C17.7542 20.6822 17.6654 20.6814 17.5863 20.7135C17.5071 20.7447 17.4447 20.8064 17.4119 20.883C17.2887 21.1713 16.9992 21.3744 16.6512 21.3744H3.46616C3.00384 21.3744 2.6423 21.0221 2.6423 20.5736V6.63442H5.29381C6.09848 6.63442 6.75596 5.99379 6.75596 5.20862V2.62578H16.6511C17.1134 2.62578 17.4749 2.97735 17.4749 3.42579V11.1977H17.4757C17.4749 11.2805 17.5093 11.361 17.5693 11.4196C17.6293 11.4782 17.7117 11.5118 17.7965 11.511C17.9732 11.5102 18.1164 11.3704 18.1156 11.1977V3.4258C18.1156 2.64063 17.4565 2.00078 16.6519 2.00078H6.44389C6.44149 2 6.43909 2 6.43669 2L6.43694 2.00008ZM6.11859 3.06493V5.20956C6.11859 5.65801 5.75706 6.00957 5.29473 6.00957H3.09596L6.11859 3.06493ZM5.95782 8.0236C5.87223 8.02282 5.79064 8.05563 5.73065 8.11501C5.66986 8.1736 5.63626 8.25407 5.63706 8.33689C5.63706 8.4197 5.67066 8.49939 5.73145 8.55799C5.79144 8.61581 5.87303 8.64862 5.95782 8.64862H14.1597C14.2445 8.64862 14.3261 8.61581 14.3861 8.55799C14.4469 8.4994 14.4805 8.41971 14.4813 8.33689C14.4813 8.25408 14.4477 8.17361 14.3869 8.11501C14.3269 8.05563 14.2453 8.02282 14.1597 8.0236H5.95782ZM5.95782 10.8564V10.8557C5.87303 10.8557 5.79144 10.8885 5.73145 10.9463C5.67066 11.0049 5.63706 11.0846 5.63706 11.1674C5.63626 11.2502 5.66986 11.3307 5.73065 11.3893C5.79064 11.4479 5.87222 11.4815 5.95781 11.4807H14.1597C14.2453 11.4815 14.3269 11.4479 14.3869 11.3893C14.4477 11.3307 14.4813 11.2502 14.4813 11.1674C14.4805 11.0846 14.4469 11.0049 14.3861 10.9463C14.3261 10.8885 14.2445 10.8557 14.1597 10.8557L5.95782 10.8564ZM16.1658 11.3049C15.9186 11.3049 15.6723 11.3963 15.4851 11.5791C15.2188 11.8393 15.142 12.219 15.2556 12.5479L12.3335 15.4003C11.9968 15.2894 11.6081 15.3652 11.3417 15.6253C10.9682 15.9902 10.9666 16.5902 11.3401 16.9542L13.8972 19.4511C14.2708 19.8159 14.8858 19.8159 15.2594 19.4511C15.5257 19.1909 15.6025 18.8104 15.4889 18.4807L16.1792 17.8065L19.4852 21.566C20.0235 22.1777 20.9913 22.1136 21.5617 21.5566C22.132 20.9995 22.1512 20.0956 21.5873 19.5448V19.5455C21.5817 19.5401 21.5753 19.5338 21.5689 19.5291L17.7224 16.3001L18.4095 15.629C18.747 15.7399 19.1366 15.6657 19.4029 15.4055C19.7764 15.0407 19.7764 14.4391 19.4029 14.0743L16.8458 11.5774C16.6594 11.3946 16.4123 11.304 16.1659 11.304L16.1658 11.3049ZM16.165 11.9237C16.2466 11.9237 16.3282 11.9557 16.3938 12.0197L18.9509 14.5166C19.0813 14.6439 19.0813 14.8361 18.9509 14.9642C18.8205 15.0916 18.6245 15.0916 18.4934 14.9642L15.9362 12.4658C15.8059 12.3385 15.8059 12.1471 15.9362 12.0189C16.0018 11.9549 16.0834 11.9228 16.165 11.9228V11.9237ZM15.6371 13.0581L17.8862 15.2549L15.1059 17.9705L12.8568 15.7737L15.6371 13.0581ZM5.95781 13.6893C5.87303 13.6885 5.79144 13.7213 5.73145 13.7799C5.67066 13.8377 5.63706 13.9174 5.63626 14.0002C5.63626 14.0838 5.66986 14.1635 5.73065 14.2221C5.79064 14.2815 5.87222 14.3143 5.95781 14.3135H12.1809C12.2656 14.3135 12.3472 14.2807 12.4064 14.2213C12.4664 14.1628 12.5 14.0831 12.4992 14.0002C12.4992 13.8284 12.3568 13.6893 12.1809 13.6893L5.95781 13.6893ZM12.0215 15.9697C12.0983 15.9697 12.1751 15.9979 12.2383 16.0541L14.8075 18.5627C14.9379 18.6901 14.9379 18.8815 14.8075 19.0096C14.6771 19.137 14.4811 19.137 14.35 19.0096L11.7928 16.5128C11.6625 16.3854 11.6625 16.1932 11.7928 16.0651C11.8584 16.0011 11.94 15.969 12.0216 15.969L12.0215 15.9697ZM17.2687 16.7432L21.1336 19.9862C21.4464 20.2917 21.4432 20.7894 21.108 21.1167C20.7737 21.4433 20.2394 21.4651 19.9698 21.1581L16.6327 17.3635L17.2687 16.7432Z"/>
</mask>
<path fill-rule="evenodd" clip-rule="evenodd" d="M6.43694 2.00008C6.35215 2.00008 6.27057 2.03367 6.21057 2.09305L2.09437 6.0993C2.02638 6.16571 1.99199 6.25868 2.00158 6.35243V20.5736C2.00158 21.3588 2.66148 21.9994 3.46613 21.9994H16.6512C17.2567 21.9994 17.7814 21.6393 18.0022 21.1228C18.0702 20.9643 17.9942 20.7822 17.8326 20.715C17.7542 20.6822 17.6654 20.6814 17.5863 20.7135C17.5071 20.7447 17.4447 20.8064 17.4119 20.883C17.2887 21.1713 16.9992 21.3744 16.6512 21.3744H3.46616C3.00384 21.3744 2.6423 21.0221 2.6423 20.5736V6.63442H5.29381C6.09848 6.63442 6.75596 5.99379 6.75596 5.20862V2.62578H16.6511C17.1134 2.62578 17.4749 2.97735 17.4749 3.42579V11.1977H17.4757C17.4749 11.2805 17.5093 11.361 17.5693 11.4196C17.6293 11.4782 17.7117 11.5118 17.7965 11.511C17.9732 11.5102 18.1164 11.3704 18.1156 11.1977V3.4258C18.1156 2.64063 17.4565 2.00078 16.6519 2.00078H6.44389C6.44149 2 6.43909 2 6.43669 2L6.43694 2.00008ZM6.11859 3.06493V5.20956C6.11859 5.65801 5.75706 6.00957 5.29473 6.00957H3.09596L6.11859 3.06493ZM5.95782 8.0236C5.87223 8.02282 5.79064 8.05563 5.73065 8.11501C5.66986 8.1736 5.63626 8.25407 5.63706 8.33689C5.63706 8.4197 5.67066 8.49939 5.73145 8.55799C5.79144 8.61581 5.87303 8.64862 5.95782 8.64862H14.1597C14.2445 8.64862 14.3261 8.61581 14.3861 8.55799C14.4469 8.4994 14.4805 8.41971 14.4813 8.33689C14.4813 8.25408 14.4477 8.17361 14.3869 8.11501C14.3269 8.05563 14.2453 8.02282 14.1597 8.0236H5.95782ZM5.95782 10.8564V10.8557C5.87303 10.8557 5.79144 10.8885 5.73145 10.9463C5.67066 11.0049 5.63706 11.0846 5.63706 11.1674C5.63626 11.2502 5.66986 11.3307 5.73065 11.3893C5.79064 11.4479 5.87222 11.4815 5.95781 11.4807H14.1597C14.2453 11.4815 14.3269 11.4479 14.3869 11.3893C14.4477 11.3307 14.4813 11.2502 14.4813 11.1674C14.4805 11.0846 14.4469 11.0049 14.3861 10.9463C14.3261 10.8885 14.2445 10.8557 14.1597 10.8557L5.95782 10.8564ZM16.1658 11.3049C15.9186 11.3049 15.6723 11.3963 15.4851 11.5791C15.2188 11.8393 15.142 12.219 15.2556 12.5479L12.3335 15.4003C11.9968 15.2894 11.6081 15.3652 11.3417 15.6253C10.9682 15.9902 10.9666 16.5902 11.3401 16.9542L13.8972 19.4511C14.2708 19.8159 14.8858 19.8159 15.2594 19.4511C15.5257 19.1909 15.6025 18.8104 15.4889 18.4807L16.1792 17.8065L19.4852 21.566C20.0235 22.1777 20.9913 22.1136 21.5617 21.5566C22.132 20.9995 22.1512 20.0956 21.5873 19.5448V19.5455C21.5817 19.5401 21.5753 19.5338 21.5689 19.5291L17.7224 16.3001L18.4095 15.629C18.747 15.7399 19.1366 15.6657 19.4029 15.4055C19.7764 15.0407 19.7764 14.4391 19.4029 14.0743L16.8458 11.5774C16.6594 11.3946 16.4123 11.304 16.1659 11.304L16.1658 11.3049ZM16.165 11.9237C16.2466 11.9237 16.3282 11.9557 16.3938 12.0197L18.9509 14.5166C19.0813 14.6439 19.0813 14.8361 18.9509 14.9642C18.8205 15.0916 18.6245 15.0916 18.4934 14.9642L15.9362 12.4658C15.8059 12.3385 15.8059 12.1471 15.9362 12.0189C16.0018 11.9549 16.0834 11.9228 16.165 11.9228V11.9237ZM15.6371 13.0581L17.8862 15.2549L15.1059 17.9705L12.8568 15.7737L15.6371 13.0581ZM5.95781 13.6893C5.87303 13.6885 5.79144 13.7213 5.73145 13.7799C5.67066 13.8377 5.63706 13.9174 5.63626 14.0002C5.63626 14.0838 5.66986 14.1635 5.73065 14.2221C5.79064 14.2815 5.87222 14.3143 5.95781 14.3135H12.1809C12.2656 14.3135 12.3472 14.2807 12.4064 14.2213C12.4664 14.1628 12.5 14.0831 12.4992 14.0002C12.4992 13.8284 12.3568 13.6893 12.1809 13.6893L5.95781 13.6893ZM12.0215 15.9697C12.0983 15.9697 12.1751 15.9979 12.2383 16.0541L14.8075 18.5627C14.9379 18.6901 14.9379 18.8815 14.8075 19.0096C14.6771 19.137 14.4811 19.137 14.35 19.0096L11.7928 16.5128C11.6625 16.3854 11.6625 16.1932 11.7928 16.0651C11.8584 16.0011 11.94 15.969 12.0216 15.969L12.0215 15.9697ZM17.2687 16.7432L21.1336 19.9862C21.4464 20.2917 21.4432 20.7894 21.108 21.1167C20.7737 21.4433 20.2394 21.4651 19.9698 21.1581L16.6327 17.3635L17.2687 16.7432Z" fill="white" stroke="white" stroke-width="0.400005" mask="url(#path-1-inside-1_5150_1200)"/>
</g>
</g>
</svg>
