<svg width="14" height="16" viewBox="0 0 14 16" fill="none" xmlns="http://www.w3.org/2000/svg">
<g id="Group 3434">
<path id="Vector" d="M5.2498 7.72721C5.52511 9.47184 5.02073 10.4257 3.59636 10.6263C2.01355 10.8492 1.36136 9.8394 1.08605 8.09477C0.715734 5.74716 1.58605 4.28705 2.82698 4.193C3.95636 4.10758 4.97417 5.98287 5.2498 7.72721Z" stroke="#333333" stroke-width="0.8" stroke-miterlimit="10"/>
<path id="Vector_2" d="M5.98865 12.5693C6.08647 13.5598 5.52428 14.4842 4.67615 14.6425C3.8199 14.802 2.84147 14.1553 2.64209 13.1785C2.44272 12.2017 3.19678 12.1499 4.12084 11.9818C5.0449 11.8136 5.87053 11.3747 5.98865 12.5693Z" stroke="#333333" stroke-width="0.8" stroke-miterlimit="10"/>
<path id="Vector_3" d="M8.74989 4.86986C8.47458 6.61449 8.97895 7.56836 10.403 7.76895C11.9861 7.99187 12.638 6.98205 12.9133 5.23741C13.284 2.88951 12.4133 1.42136 11.1727 1.33565C10.0352 1.25708 9.02552 3.12522 8.74989 4.86986Z" stroke="#333333" stroke-width="0.8" stroke-miterlimit="10"/>
<path id="Vector_4" d="M8.01103 9.71201C7.91322 10.7022 8.4754 11.6269 9.32353 11.7852C10.1798 11.9447 11.1582 11.298 11.3576 10.3212C11.557 9.34445 10.8029 9.29267 9.87884 9.12422C8.95478 8.95576 8.12915 8.51708 8.01103 9.71201Z" stroke="#333333" stroke-width="0.8" stroke-miterlimit="10"/>
</g>
</svg>
