<svg width="24" height="24" viewBox="0 0 24 24" fill="none" xmlns="http://www.w3.org/2000/svg">
<g id="1.TH.PINTEREST.COLOR">
<path id="Vector" d="M17.9249 4.04951C16.5237 2.7279 14.5845 2 12.4646 2C9.22639 2 7.23473 3.30411 6.13418 4.39806C4.77781 5.74624 4.00006 7.53637 4.00006 9.30951C4.00006 11.5358 4.9479 13.2446 6.53516 13.8803C6.64171 13.9232 6.74894 13.9448 6.85407 13.9448C7.18893 13.9448 7.45425 13.7295 7.54617 13.3842C7.59977 13.1861 7.7239 12.6974 7.77789 12.4853C7.89344 12.0663 7.80008 11.8648 7.54808 11.573C7.08901 11.0394 6.87522 10.4083 6.87522 9.58701C6.87522 7.1475 8.72414 4.55482 12.1509 4.55482C14.87 4.55482 16.559 6.07312 16.559 8.51712C16.559 10.0594 16.2208 11.4877 15.6067 12.5391C15.1799 13.2696 14.4294 14.1404 13.2773 14.1404C12.7791 14.1404 12.3316 13.9394 12.0492 13.5888C11.7825 13.2575 11.6945 12.8294 11.8018 12.3833C11.923 11.8792 12.0883 11.3534 12.2483 10.8451C12.54 9.91678 12.8158 9.03994 12.8158 8.34036C12.8158 7.14379 12.067 6.33976 10.9527 6.33976C9.53663 6.33976 8.42721 7.75282 8.42721 9.55674C8.42721 10.4414 8.66653 11.1032 8.77487 11.3572C8.59647 12.0998 7.53623 16.5147 7.33513 17.3472C7.21883 17.8332 6.51834 21.6716 7.67778 21.9777C8.98047 22.3216 10.1449 18.5832 10.2634 18.1607C10.3595 17.8172 10.6956 16.5181 10.9016 15.7195C11.5304 16.3146 12.543 16.717 13.5283 16.717C15.3856 16.717 17.056 15.8958 18.2318 14.4049C19.3721 12.9588 20.0001 10.9432 20.0001 8.72978C20 6.99937 19.2436 5.29342 17.9249 4.04951Z" fill="#D7143A"/>
</g>
</svg>
