<svg width="16" height="17" viewBox="0 0 16 17" fill="none" xmlns="http://www.w3.org/2000/svg">
<g id="1.TH.CLOCK">
<g id="Union">
<mask id="path-1-inside-1_1665_1157" fill="white">
<path d="M12.9497 13.4573C11.637 14.7701 9.85652 15.5076 8 15.5076C6.14348 15.5076 4.36301 14.7701 3.05025 13.4573C1.7375 12.1446 1 10.3641 1 8.50757C1 6.65105 1.7375 4.87058 3.05025 3.55782C4.36301 2.24507 6.14348 1.50757 8 1.50757C9.85652 1.50757 11.637 2.24507 12.9497 3.55782C14.2625 4.87058 15 6.65105 15 8.50757C15 10.3641 14.2625 12.1446 12.9497 13.4573Z"/>
</mask>
<path d="M12.9497 3.55782L12.3841 4.12351L12.9497 3.55782ZM3.05025 3.55782L3.61594 4.12351L3.61594 4.12351L3.05025 3.55782ZM3.05025 13.4573L3.61594 12.8916L3.05025 13.4573ZM8 16.3076C10.0687 16.3076 12.0526 15.4858 13.5154 14.023L12.3841 12.8916C11.2213 14.0544 9.64434 14.7076 8 14.7076V16.3076ZM13.5154 14.023C14.9782 12.5602 15.8 10.5763 15.8 8.50757H14.2C14.2 10.1519 13.5468 11.7289 12.3841 12.8916L13.5154 14.023ZM15.8 8.50757C15.8 6.43888 14.9782 4.45492 13.5154 2.99214L12.3841 4.12351C13.5468 5.28623 14.2 6.86323 14.2 8.50757H15.8ZM13.5154 2.99214C12.0526 1.52935 10.0687 0.707568 8 0.707568V2.30757C9.64434 2.30757 11.2213 2.96078 12.3841 4.12351L13.5154 2.99214ZM8 0.707568C5.93131 0.707568 3.94735 1.52935 2.48457 2.99214L3.61594 4.12351C4.77866 2.96078 6.35566 2.30757 8 2.30757V0.707568ZM2.48457 2.99214C1.02178 4.45492 0.2 6.43888 0.2 8.50757H1.8C1.8 6.86323 2.45321 5.28623 3.61594 4.12351L2.48457 2.99214ZM0.2 8.50757C0.2 10.5763 1.02178 12.5602 2.48457 14.023L3.61594 12.8916C2.45321 11.7289 1.8 10.1519 1.8 8.50757H0.2ZM2.48457 14.023C3.94735 15.4858 5.93131 16.3076 8 16.3076V14.7076C6.35566 14.7076 4.77866 14.0544 3.61594 12.8916L2.48457 14.023Z" fill="#34A98F" mask="url(#path-1-inside-1_1665_1157)"/>
</g>
<path id="Union_2" d="M7.875 4.94507C7.875 4.82904 7.82891 4.71776 7.74686 4.63571C7.66481 4.55366 7.55353 4.50757 7.4375 4.50757C7.32147 4.50757 7.21019 4.55366 7.12814 4.63571C7.04609 4.71776 7 4.82904 7 4.94507V9.75757C7.00002 9.83468 7.02043 9.91042 7.05915 9.97711C7.09788 10.0438 7.15354 10.0991 7.2205 10.1373L10.283 11.8873C10.3835 11.9416 10.5013 11.9545 10.6111 11.9231C10.721 11.8918 10.8142 11.8187 10.8709 11.7195C10.9275 11.6203 10.9432 11.5029 10.9144 11.3923C10.8857 11.2818 10.8148 11.1868 10.717 11.1278L7.875 9.50382V4.94507Z" fill="#34A98F"/>
</g>
</svg>
