<svg width="24" height="24" viewBox="0 0 24 24" fill="none" xmlns="http://www.w3.org/2000/svg">
<path d="M9.70833 17.2174H14.2917M9.70833 18.9565H14.2917M9.70833 15.5H14.2917M12.9167 2H11.0833C8.55333 2 6.5 3.94783 6.5 6.34783V6.78261C6.5 7.26087 6.9125 7.65217 7.41667 7.65217H8.33333C8.8375 7.65217 9.25 7.26087 9.25 6.78261V6.34348C9.25 5.38696 10.0704 4.6087 11.0788 4.60435L12.9121 4.6C13.925 4.6 14.75 5.37826 14.75 6.33913V8.08261C14.75 9.04348 13.9296 9.82174 12.9212 9.82174L10.1621 9.82609C8.13625 9.83043 6.5 11.387 6.5 13.3043V20.2609C6.5 21.2217 7.32042 22 8.33333 22H15.6667C16.6796 22 17.5 21.2217 17.5 20.2609V6.34783C17.5 3.94783 15.4467 2 12.9167 2Z" stroke="#333333" stroke-width="1.2" stroke-linecap="round"/>
</svg>
