<svg width="22" height="24" viewBox="0 0 22 24" fill="none" xmlns="http://www.w3.org/2000/svg">
<path d="M14.9628 16.9317C14.9879 16.732 14.9962 16.524 14.9962 16.3077V12.9797C14.9962 10.3257 13.6615 8.99448 11.0005 8.99448H5.66174C5.44486 8.99448 5.23631 9.00281 5.03611 9.02776M14.9628 16.9317C14.771 19.1781 13.4446 20.2929 11.0005 20.2929H10.6668C10.4583 20.2929 10.2581 20.3928 10.1329 20.5592L9.13192 21.8904C8.68981 22.4811 7.97241 22.4811 7.5303 21.8904L6.52927 20.5592C6.42083 20.4177 6.17893 20.2929 5.99541 20.2929H5.66174C3.00071 20.2929 1.66602 19.6357 1.66602 16.3077V12.9797C1.66602 10.542 2.79217 9.21912 5.03611 9.02776M14.9628 16.9317C17.2068 16.7403 18.3324 15.4258 18.3324 12.9797V9.65176C18.3324 6.9977 16.9977 5.6665 14.3367 5.6665H8.99796C6.55385 5.6665 5.22797 6.7897 5.03611 9.02776M11.6658 12.3333L7.08238 16.9167L4.99902 14.8333" stroke="#333333" stroke-width="0.8" stroke-miterlimit="10" stroke-linecap="round" stroke-linejoin="round"/>
<circle cx="15" cy="7" r="5.6" fill="#FFC506" stroke="white" stroke-width="1.2"/>
</svg>
