<svg width="22" height="24" viewBox="0 0 22 24" fill="none" xmlns="http://www.w3.org/2000/svg">
<path d="M14.9639 16.9317C14.9889 16.7321 14.9972 16.5241 14.9972 16.3078V12.9798C14.9972 10.3257 13.6626 8.99449 11.0015 8.99449H5.66274C5.44585 8.99449 5.23731 9.00282 5.0371 9.02778M14.9639 16.9317C14.772 19.1781 13.4457 20.293 11.0015 20.293H10.6678C10.4593 20.293 10.2591 20.3929 10.134 20.5593L9.13293 21.8905C8.69082 22.4812 7.97342 22.4812 7.5313 21.8905L6.53027 20.5593C6.42183 20.4178 6.17993 20.293 5.9964 20.293H5.66274C3.00169 20.293 1.66699 19.6357 1.66699 16.3078V12.9798C1.66699 10.542 2.79315 9.21914 5.0371 9.02778M14.9639 16.9317C17.2078 16.7404 18.3335 15.4258 18.3335 12.9798V9.65178C18.3335 6.99771 16.9988 5.6665 14.3377 5.6665H8.99897C6.55485 5.6665 5.22896 6.78971 5.0371 9.02778" stroke="#333333" stroke-width="0.8" stroke-linecap="round" stroke-linejoin="round"/>
<circle cx="15" cy="7" r="5.6" fill="#FFC506" stroke="white" stroke-width="1.2"/>
</svg>
