<svg width="17" height="16" viewBox="0 0 17 16" fill="none" xmlns="http://www.w3.org/2000/svg">
<path d="M1.83334 4.4506V4.4506C1.83334 3.46534 2.63206 2.66663 3.61732 2.66663H13.1667C14.2712 2.66663 15.1667 3.56206 15.1667 4.66663V4.72934M1.83334 4.4506V11.8838M1.83334 4.4506L7.27662 8.1855M15.1667 4.72934V11.8838M15.1667 4.72934L9.92919 8.1855M15.1667 11.8838V11.8838C15.1667 12.6843 14.5177 13.3333 13.7172 13.3333H3.28282C2.4823 13.3333 1.83334 12.6843 1.83334 11.8838V11.8838M15.1667 11.8838L9.92919 8.1855M9.92919 8.1855L8.57703 9.07778L7.27662 8.1855M1.83334 11.8838C3.64777 10.651 7.27662 8.1855 7.27662 8.1855" stroke="#333333" stroke-width="0.8" stroke-linejoin="round"/>
</svg>
