<svg width="24" height="24" viewBox="0 0 24 24" fill="none" xmlns="http://www.w3.org/2000/svg">
<path d="M12.0051 2.15134C7.89268 2.15134 6.68995 2.15558 6.45616 2.17497C5.61222 2.24512 5.08707 2.378 4.51495 2.66285C4.07404 2.88179 3.72631 3.13558 3.38313 3.49134C2.75813 4.14012 2.37934 4.93831 2.24222 5.88709C2.17556 6.3477 2.15616 6.44164 2.15222 8.79437C2.15071 9.57861 2.15222 10.6107 2.15222 11.9951C2.15222 16.1042 2.15677 17.3057 2.17647 17.5391C2.24465 18.3603 2.37344 18.8769 2.64616 19.4421C3.16738 20.5239 4.16283 21.336 5.33556 21.6391C5.74162 21.7436 6.1901 21.8012 6.76586 21.8285C7.0098 21.8391 9.49616 21.8466 11.984 21.8466C14.4719 21.8466 16.9598 21.8436 17.1977 21.8315C17.8643 21.8001 18.2515 21.7482 18.6795 21.6375C19.8598 21.333 20.8371 20.533 21.3689 19.436C21.6363 18.8845 21.7719 18.3482 21.8333 17.5698C21.8466 17.4001 21.8522 14.6945 21.8522 11.9925C21.8522 9.29013 21.8462 6.58952 21.8328 6.41982C21.7707 5.62891 21.6351 5.09709 21.359 4.53497C21.1325 4.07482 20.881 3.73119 20.5159 3.37982C19.8642 2.7574 19.0672 2.37861 18.1175 2.24164C17.6574 2.17512 17.5657 2.15543 15.2112 2.15134H12.0051Z" fill="url(#paint0_radial_3394_2347)"/>
<path d="M12.0051 2.15134C7.89268 2.15134 6.68995 2.15558 6.45616 2.17497C5.61222 2.24512 5.08707 2.378 4.51495 2.66285C4.07404 2.88179 3.72631 3.13558 3.38313 3.49134C2.75813 4.14012 2.37934 4.93831 2.24222 5.88709C2.17556 6.3477 2.15616 6.44164 2.15222 8.79437C2.15071 9.57861 2.15222 10.6107 2.15222 11.9951C2.15222 16.1042 2.15677 17.3057 2.17647 17.5391C2.24465 18.3603 2.37344 18.8769 2.64616 19.4421C3.16738 20.5239 4.16283 21.336 5.33556 21.6391C5.74162 21.7436 6.1901 21.8012 6.76586 21.8285C7.0098 21.8391 9.49616 21.8466 11.984 21.8466C14.4719 21.8466 16.9598 21.8436 17.1977 21.8315C17.8643 21.8001 18.2515 21.7482 18.6795 21.6375C19.8598 21.333 20.8371 20.533 21.3689 19.436C21.6363 18.8845 21.7719 18.3482 21.8333 17.5698C21.8466 17.4001 21.8522 14.6945 21.8522 11.9925C21.8522 9.29013 21.8462 6.58952 21.8328 6.41982C21.7707 5.62891 21.6351 5.09709 21.359 4.53497C21.1325 4.07482 20.881 3.73119 20.5159 3.37982C19.8642 2.7574 19.0672 2.37861 18.1175 2.24164C17.6574 2.17512 17.5657 2.15543 15.2112 2.15134H12.0051Z" fill="url(#paint1_radial_3394_2347)"/>
<path d="M12.0006 4.72707C10.0255 4.72707 9.7776 4.73571 9.00184 4.77101C8.2276 4.80647 7.69911 4.92904 7.23669 5.10889C6.75836 5.29465 6.3526 5.54313 5.94836 5.94753C5.54381 6.35177 5.29533 6.75753 5.10896 7.23571C4.92866 7.69829 4.80593 8.22692 4.77108 9.00086C4.73639 9.77662 4.72729 10.0246 4.72729 11.9998C4.72729 13.975 4.73608 14.2221 4.77123 14.9978C4.80684 15.7721 4.92942 16.3006 5.10911 16.763C5.29502 17.2413 5.54351 17.6471 5.9479 18.0513C6.35199 18.4559 6.75775 18.705 7.23578 18.8907C7.69851 19.0706 8.22714 19.1931 9.00123 19.2286C9.77699 19.2639 10.0247 19.2725 11.9997 19.2725C13.975 19.2725 14.2221 19.2639 14.9979 19.2286C15.7721 19.1931 16.3012 19.0706 16.764 18.8907C17.2421 18.705 17.6473 18.4559 18.0514 18.0513C18.4559 17.6471 18.7044 17.2413 18.8908 16.7631C19.0696 16.3006 19.1923 15.7719 19.2287 14.998C19.2635 14.2222 19.2726 13.975 19.2726 11.9998C19.2726 10.0246 19.2635 9.77677 19.2287 9.00101C19.1923 8.22677 19.0696 7.69829 18.8908 7.23586C18.7044 6.75753 18.4559 6.35177 18.0514 5.94753C17.6468 5.54298 17.2423 5.2945 16.7635 5.10889C16.2999 4.92904 15.7711 4.80647 14.9968 4.77101C14.2211 4.73571 13.9741 4.72707 11.9984 4.72707H12.0006ZM11.3482 6.03768C11.5418 6.03738 11.7579 6.03768 12.0006 6.03768C13.9424 6.03768 14.1726 6.04465 14.9394 6.0795C15.6485 6.11192 16.0334 6.23041 16.2897 6.32995C16.6291 6.46177 16.8711 6.61935 17.1255 6.87389C17.38 7.12844 17.5376 7.37086 17.6697 7.71026C17.7693 7.96632 17.8879 8.35116 17.9202 9.06026C17.955 9.82692 17.9626 10.0572 17.9626 11.9981C17.9626 13.939 17.955 14.1693 17.9202 14.936C17.8877 15.6451 17.7693 16.03 17.6697 16.286C17.5379 16.6254 17.38 16.8671 17.1255 17.1215C16.8709 17.376 16.6293 17.5336 16.2897 17.6654C16.0337 17.7654 15.6485 17.8836 14.9394 17.916C14.1727 17.9509 13.9424 17.9584 12.0006 17.9584C10.0587 17.9584 9.82851 17.9509 9.06184 17.916C8.35275 17.8833 7.9679 17.7648 7.71139 17.6653C7.37199 17.5334 7.12957 17.3759 6.87502 17.1213C6.62048 16.8668 6.4629 16.625 6.33078 16.2854C6.23123 16.0293 6.1126 15.6445 6.08033 14.9354C6.04548 14.1687 6.03851 13.9384 6.03851 11.9963C6.03851 10.0542 6.04548 9.8251 6.08033 9.05844C6.11275 8.34935 6.23123 7.9645 6.33078 7.70813C6.4626 7.36874 6.62048 7.12632 6.87502 6.87177C7.12957 6.61723 7.37199 6.45965 7.71139 6.32753C7.96775 6.22753 8.35275 6.10935 9.06184 6.07677C9.73275 6.04647 9.99275 6.03738 11.3482 6.03586V6.03768ZM15.8827 7.24526C15.4009 7.24526 15.01 7.63571 15.01 8.11768C15.01 8.5995 15.4009 8.99041 15.8827 8.99041C16.3646 8.99041 16.7555 8.5995 16.7555 8.11768C16.7555 7.63586 16.3646 7.24495 15.8827 7.24495V7.24526ZM12.0006 8.26495C9.93805 8.26495 8.26578 9.93723 8.26578 11.9998C8.26578 14.0624 9.93805 15.7339 12.0006 15.7339C14.0632 15.7339 15.7349 14.0624 15.7349 11.9998C15.7349 9.93723 14.0632 8.26495 12.0006 8.26495ZM12.0006 9.57556C13.3394 9.57556 14.4249 10.6609 14.4249 11.9998C14.4249 13.3386 13.3394 14.424 12.0006 14.424C10.6617 14.424 9.57639 13.3386 9.57639 11.9998C9.57639 10.6609 10.6617 9.57556 12.0006 9.57556Z" fill="white"/>
<defs>
<radialGradient id="paint0_radial_3394_2347" cx="0" cy="0" r="1" gradientUnits="userSpaceOnUse" gradientTransform="translate(7.38457 23.3636) rotate(-90) scale(19.5195 18.1596)">
<stop stop-color="#FFDD55"/>
<stop offset="0.1" stop-color="#FFDD55"/>
<stop offset="0.5" stop-color="#FF543E"/>
<stop offset="1" stop-color="#C837AB"/>
</radialGradient>
<radialGradient id="paint1_radial_3394_2347" cx="0" cy="0" r="1" gradientUnits="userSpaceOnUse" gradientTransform="translate(-1.14842 3.57015) rotate(78.6776) scale(8.72539 35.9755)">
<stop stop-color="#3771C8"/>
<stop offset="0.128" stop-color="#3771C8"/>
<stop offset="1" stop-color="#6600FF" stop-opacity="0"/>
</radialGradient>
</defs>
</svg>
