<svg width="44" height="20" viewBox="0 0 44 20" fill="none" xmlns="http://www.w3.org/2000/svg">
<path d="M42.3332 10C42.3332 14.6023 38.6022 18.3334 33.9998 18.3334C29.398 18.3334 25.6665 14.6023 25.6665 10C25.6665 5.39817 29.398 1.66669 33.9998 1.66669C38.6022 1.66669 42.3332 5.39817 42.3332 10Z" fill="#FF6666"/>
<path d="M37.4651 15.4996C37.4443 15.4167 36.9244 13.4722 33.9998 13.4722C31.0748 13.4722 30.5554 15.4167 30.5346 15.4996C30.5224 15.5484 30.5265 15.5999 30.5463 15.6462C30.5661 15.6925 30.6005 15.7311 30.6443 15.756C30.6883 15.7807 30.739 15.7906 30.7891 15.7842C30.8391 15.7778 30.8857 15.7554 30.9221 15.7204C30.9309 15.7116 31.8267 14.8611 33.9998 14.8611C36.173 14.8611 37.0693 15.7116 37.0776 15.7199C37.1135 15.7553 37.1598 15.7782 37.2098 15.7849C37.2597 15.7917 37.3105 15.782 37.3545 15.7574C37.3986 15.7325 37.4333 15.6938 37.4533 15.6472C37.4733 15.6006 37.4775 15.5487 37.4651 15.4996ZM32.9383 9.67271C31.4313 8.16576 29.0096 8.14817 28.9072 8.14817C28.788 8.15344 28.6755 8.20449 28.5929 8.29069C28.5104 8.37689 28.4644 8.49159 28.4643 8.61091C28.4642 8.73023 28.5102 8.84498 28.5926 8.93126C28.6751 9.01754 28.7876 9.0687 28.9068 9.07409C28.9202 9.07409 29.798 9.08428 30.7508 9.4153C30.4762 9.71159 30.2961 10.1718 30.2961 10.6945C30.2961 11.5898 30.8142 12.3148 31.4535 12.3148C32.0929 12.3148 32.6109 11.5898 32.6109 10.6945C32.6109 10.6139 32.6022 10.5371 32.5938 10.4597C32.5998 10.4597 32.6054 10.463 32.6109 10.463C32.7026 10.4632 32.7922 10.4362 32.8685 10.3853C32.9448 10.3345 33.0042 10.2621 33.0393 10.1775C33.0743 10.0928 33.0835 9.9996 33.0655 9.90973C33.0475 9.81986 33.0032 9.73736 32.9383 9.67271ZM39.0924 8.14817C38.9901 8.14817 36.5688 8.16576 35.0614 9.67271C34.9965 9.73736 34.9522 9.81986 34.9342 9.90973C34.9162 9.9996 34.9253 10.0928 34.9604 10.1775C34.9955 10.2621 35.0549 10.3345 35.1312 10.3853C35.2074 10.4362 35.2971 10.4632 35.3887 10.463C35.3947 10.463 35.3998 10.4597 35.4054 10.4597C35.398 10.5371 35.3887 10.6139 35.3887 10.6945C35.3887 11.5898 35.9068 12.3148 36.5461 12.3148C37.1855 12.3148 37.7035 11.5898 37.7035 10.6945C37.7035 10.1718 37.5234 9.71159 37.2489 9.4153C37.8438 9.21227 38.4652 9.09732 39.0934 9.07409C39.1542 9.07403 39.2143 9.062 39.2705 9.03868C39.3266 9.01535 39.3776 8.9812 39.4206 8.93817C39.4635 8.89514 39.4976 8.84406 39.5208 8.78787C39.544 8.73168 39.5559 8.67147 39.5559 8.61067C39.5558 8.54987 39.5438 8.48968 39.5204 8.43354C39.4971 8.37739 39.463 8.32639 39.4199 8.28344C39.3769 8.24049 39.3258 8.20644 39.2696 8.18323C39.2134 8.16002 39.1532 8.14811 39.0924 8.14817Z" fill="white"/>
<path d="M21.9998 18.3334C26.6022 18.3334 30.3332 14.6024 30.3332 10C30.3332 5.39765 26.6022 1.66669 21.9998 1.66669C17.3975 1.66669 13.6665 5.39765 13.6665 10C13.6665 14.6024 17.3975 18.3334 21.9998 18.3334Z" fill="#EE9004"/>
<path d="M25.4651 14.3422C25.4443 14.2593 24.9244 12.3148 21.9998 12.3148C19.0748 12.3148 18.5554 14.2593 18.5346 14.3422C18.5091 14.4426 18.5545 14.5468 18.6443 14.5986C18.7346 14.65 18.8475 14.6347 18.9221 14.563C18.9309 14.5542 19.8267 13.7037 21.9998 13.7037C24.173 13.7037 25.0693 14.5542 25.0776 14.5625C25.1221 14.6065 25.1813 14.6297 25.2406 14.6297C25.2795 14.6297 25.3188 14.6199 25.3545 14.6C25.4452 14.5482 25.4906 14.4431 25.4651 14.3422Z" fill="white"/>
<path d="M19.2221 9.53706C19.8613 9.53706 20.3795 8.81159 20.3795 7.91669C20.3795 7.02178 19.8613 6.29632 19.2221 6.29632C18.5828 6.29632 18.0647 7.02178 18.0647 7.91669C18.0647 8.81159 18.5828 9.53706 19.2221 9.53706Z" fill="white"/>
<path d="M24.7776 9.53706C25.4168 9.53706 25.935 8.81159 25.935 7.91669C25.935 7.02178 25.4168 6.29632 24.7776 6.29632C24.1384 6.29632 23.6202 7.02178 23.6202 7.91669C23.6202 8.81159 24.1384 9.53706 24.7776 9.53706Z" fill="white"/>
<path d="M18.3332 10C18.3332 14.6023 14.6022 18.3334 9.99984 18.3334C5.39799 18.3334 1.6665 14.6023 1.6665 10C1.6665 5.39817 5.39799 1.66669 9.99984 1.66669C14.6022 1.66669 18.3332 5.39817 18.3332 10Z" fill="#FFD453"/>
<path d="M6.99058 10.9259C7.6298 10.9259 8.14799 10.2005 8.14799 9.30558C8.14799 8.41067 7.6298 7.68521 6.99058 7.68521C6.35136 7.68521 5.83317 8.41067 5.83317 9.30558C5.83317 10.2005 6.35136 10.9259 6.99058 10.9259Z" fill="white"/>
<path d="M13.0091 10.9259C13.6483 10.9259 14.1665 10.2005 14.1665 9.30558C14.1665 8.41067 13.6483 7.68521 13.0091 7.68521C12.3699 7.68521 11.8517 8.41067 11.8517 9.30558C11.8517 10.2005 12.3699 10.9259 13.0091 10.9259Z" fill="white"/>
<path d="M13.2406 13.7037H6.7591C6.50354 13.7037 6.29613 13.4968 6.29613 13.2408C6.29613 12.9847 6.50354 12.7778 6.7591 12.7778H13.2406C13.4966 12.7778 13.7035 12.9847 13.7035 13.2408C13.7035 13.4968 13.4966 13.7037 13.2406 13.7037Z" fill="white"/>
</svg>
