<svg width="24" height="24" viewBox="0 0 24 24" fill="none" xmlns="http://www.w3.org/2000/svg">
<g id="1.TH.COMUNICACIONES">
<path id="Vector 596" d="M2 14.0716V3C2 2.44772 2.44772 2 3 2H21C21.5523 2 22 2.44772 22 3V14.0716M2 14.0716V21C2 21.5523 2.44772 22 3 22H21C21.5523 22 22 21.5523 22 21V14.0716M2 14.0716H7.42388C7.91693 14.0716 8.33023 14.4348 8.49794 14.8984C8.93993 16.1203 10.0207 17.6497 12.1318 17.6497C14.1917 17.6497 15.1442 16.1936 15.5012 14.9879C15.6505 14.4837 16.0804 14.0716 16.6062 14.0716H22M5.45574 9.74953H18.2994M5.45574 6.09605H18.2994" stroke="#333333" stroke-width="0.8" stroke-linecap="round"/>
</g>
</svg>
