<svg width="20" height="20" viewBox="0 0 20 20" fill="none" xmlns="http://www.w3.org/2000/svg">
<path d="M20 10C20 15.5228 15.5228 20 10 20C4.47778 20 0 15.5228 0 10C0 4.47778 4.47778 0 10 0C15.5228 0 20 4.47778 20 10Z" fill="#BFBFBF"/>
<path d="M6.38889 11.1111C7.15595 11.1111 7.77778 10.2406 7.77778 9.16667C7.77778 8.09278 7.15595 7.22222 6.38889 7.22222C5.62183 7.22222 5 8.09278 5 9.16667C5 10.2406 5.62183 11.1111 6.38889 11.1111Z" fill="white"/>
<path d="M13.6111 11.1111C14.3782 11.1111 15 10.2406 15 9.16667C15 8.09278 14.3782 7.22222 13.6111 7.22222C12.844 7.22222 12.2222 8.09278 12.2222 9.16667C12.2222 10.2406 12.844 11.1111 13.6111 11.1111Z" fill="white"/>
</svg>
