<svg width="24" height="24" viewBox="0 0 24 24" fill="none" xmlns="http://www.w3.org/2000/svg">
<g id="1.TH.QR">
<path id="Vector" d="M5.33333 5.33333H10.3333V10.3333H5.33333V5.33333ZM18.6667 5.33333V10.3333H13.6667V5.33333H18.6667ZM13.6667 14.5H15.3333V12.8333H13.6667V11.1667H15.3333V12.8333H17V11.1667H18.6667V12.8333H17V14.5H18.6667V17H17V18.6667H15.3333V17H12.8333V18.6667H11.1667V15.3333H13.6667V14.5ZM15.3333 14.5V17H17V14.5H15.3333ZM5.33333 18.6667V13.6667H10.3333V18.6667H5.33333ZM7 7V8.66667H8.66667V7H7ZM15.3333 7V8.66667H17V7H15.3333ZM7 15.3333V17H8.66667V15.3333H7ZM5.33333 11.1667H7V12.8333H5.33333V11.1667ZM9.5 11.1667H12.8333V14.5H11.1667V12.8333H9.5V11.1667ZM11.1667 7H12.8333V10.3333H11.1667V7ZM3.66667 3.66667V7H2V3.66667C2 3.22464 2.17559 2.80072 2.48816 2.48816C2.80072 2.17559 3.22464 2 3.66667 2H7V3.66667H3.66667ZM20.3333 2C20.7754 2 21.1993 2.17559 21.5118 2.48816C21.8244 2.80072 22 3.22464 22 3.66667V7H20.3333V3.66667H17V2H20.3333ZM3.66667 17V20.3333H7V22H3.66667C3.22464 22 2.80072 21.8244 2.48816 21.5118C2.17559 21.1993 2 20.7754 2 20.3333V17H3.66667ZM20.3333 20.3333V17H22V20.3333C22 20.7754 21.8244 21.1993 21.5118 21.5118C21.1993 21.8244 20.7754 22 20.3333 22H17V20.3333H20.3333Z" fill="#333333"/>
</g>
</svg>
