<svg width="24" height="24" viewBox="0 0 24 24" fill="none" xmlns="http://www.w3.org/2000/svg">
<g id="1.TH Check-in">
<path id="icon" d="M2 11.6918C1.77909 11.6918 1.6 11.8709 1.6 12.0918C1.6 12.3127 1.77909 12.4918 2 12.4918L2 11.6918ZM14.7273 12.4918C14.9482 12.4918 15.1273 12.3127 15.1273 12.0918C15.1273 11.8709 14.9482 11.6918 14.7273 11.6918V12.4918ZM14.9341 11.8418L14.6883 12.1575L14.6883 12.1575L14.9341 11.8418ZM10.2457 7.68439C10.0714 7.54867 9.82011 7.57995 9.68439 7.75425C9.54867 7.92856 9.57995 8.17989 9.75425 8.31561L10.2457 7.68439ZM9.75424 15.684C9.57994 15.8198 9.54867 16.0711 9.6844 16.2454C9.82013 16.4197 10.0715 16.451 10.2458 16.3152L9.75424 15.684ZM14.9341 12.1575L15.1798 12.4731H15.1798L14.9341 12.1575ZM2 12.4918L14.7273 12.4918V11.6918L2 11.6918L2 12.4918ZM19.5988 20.7818H12.9079V21.5818H19.5988V20.7818ZM12.9079 3.4H19.5988V2.6H12.9079V3.4ZM19.5988 3.4C20.7034 3.4 21.5988 4.29543 21.5988 5.4H22.3988C22.3988 3.8536 21.1452 2.6 19.5988 2.6V3.4ZM21.5988 18.7818C21.5988 19.8864 20.7034 20.7818 19.5988 20.7818V21.5818C21.1452 21.5818 22.3988 20.3282 22.3988 18.7818H21.5988ZM15.1798 11.5262L10.2457 7.68439L9.75425 8.31561L14.6883 12.1575L15.1798 11.5262ZM10.2458 16.3152L15.1798 12.4731L14.6883 11.8419L9.75424 15.684L10.2458 16.3152ZM14.6883 12.1575C14.5855 12.0774 14.5855 11.9219 14.6883 11.8419L15.1798 12.4731C15.4883 12.2328 15.4883 11.7664 15.1798 11.5262L14.6883 12.1575ZM21.5988 5.4V18.7818H22.3988V5.4H21.5988Z" fill="#333333"/>
</g>
</svg>
