<svg width="16" height="16" viewBox="0 0 16 16" fill="none" xmlns="http://www.w3.org/2000/svg">
<g id="1.TH.WARNING">
<path id="Vector" d="M14.6023 13.2653L8.41216 2.2449C8.3199 2.08112 8.16068 2 7.99998 2C7.83927 2 7.67857 2.08112 7.5878 2.2449L1.39767 13.2653C1.21465 13.5929 1.4438 14 1.80985 14H14.1901C14.5562 14 14.7853 13.5929 14.6023 13.2653ZM7.52382 6.53061C7.52382 6.46327 7.57738 6.40816 7.64286 6.40816H8.3571C8.42257 6.40816 8.47614 6.46327 8.47614 6.53061V9.34694C8.47614 9.41429 8.42257 9.46939 8.3571 9.46939H7.64286C7.57738 9.46939 7.52382 9.41429 7.52382 9.34694V6.53061ZM7.99998 11.9184C7.81307 11.9144 7.63511 11.8353 7.50428 11.698C7.37344 11.5606 7.30017 11.376 7.30017 11.1837C7.30017 10.9914 7.37344 10.8067 7.50428 10.6694C7.63511 10.532 7.81307 10.4529 7.99998 10.449C8.18688 10.4529 8.36485 10.532 8.49568 10.6694C8.62651 10.8067 8.69979 10.9914 8.69979 11.1837C8.69979 11.376 8.62651 11.5606 8.49568 11.698C8.36485 11.8353 8.18688 11.9144 7.99998 11.9184Z" fill="#FF6666"/>
</g>
</svg>
