<svg width="24" height="24" viewBox="0 0 24 24" fill="none" xmlns="http://www.w3.org/2000/svg">
<g id="1.TH.HOME">
<path id="Vector" d="M8.66667 22V14C8.66667 12.8954 9.5621 12 10.6667 12H13.3333C14.4379 12 15.3333 12.8954 15.3333 14V22M22 20V10.0413C22 9.38868 21.6816 8.7771 21.1469 8.40285L13.1469 2.80285C12.4583 2.3208 11.5417 2.3208 10.8531 2.80285L2.85308 8.40285C2.31842 8.7771 2 9.38868 2 10.0413V20C2 20.5304 2.23413 21.0391 2.65087 21.4142C3.06762 21.7893 3.63285 22 4.22222 22H19.7778C20.3671 22 20.9324 21.7893 21.3491 21.4142C21.7659 21.0391 22 20.5304 22 20Z" stroke="#333333" stroke-width="0.8" stroke-linecap="round" stroke-linejoin="round"/>
</g>
</svg>
