<svg width="24" height="24" viewBox="0 0 24 24" fill="none" xmlns="http://www.w3.org/2000/svg">
<g id="1.TH.IMAGES">
<path id="Vector" d="M5.24667 15.9034L4.84667 15.9037V15.9037L5.24667 15.9034ZM5.44951 3.01197L5.80561 3.19417L5.80561 3.19416L5.44951 3.01197ZM6.26281 2.20205L6.4438 2.55876L6.44381 2.55876L6.26281 2.20205ZM20.9835 2.20205L20.8025 2.55875L20.8025 2.55876L20.9835 2.20205ZM21.7973 3.01197L21.4412 3.19413L21.4412 3.19419L21.7973 3.01197ZM5.44951 17.6712L5.09341 17.8534L5.09342 17.8534L5.44951 17.6712ZM6.26281 18.4821L6.44382 18.1254L6.44377 18.1253L6.26281 18.4821ZM20.9835 18.4821L20.8026 18.1253L20.8025 18.1254L20.9835 18.4821ZM21.7973 17.6712L21.4412 17.489L21.4412 17.4891L21.7973 17.6712ZM9.68439 10.7475L9.39348 10.4729C9.38929 10.4774 9.3852 10.4819 9.38122 10.4865L9.68439 10.7475ZM9.6857 10.7461L9.9766 11.0206C9.9808 11.0162 9.98489 11.0116 9.98888 11.007L9.6857 10.7461ZM10.5102 9.97715L10.3771 9.59995L10.377 9.59998L10.5102 9.97715ZM11.1442 9.98169L11.2827 9.60642L11.2826 9.60639L11.1442 9.98169ZM11.959 10.7629L12.2658 10.5062L11.959 10.7629ZM14.4453 13.7339L14.752 13.4772L14.752 13.4772L14.4453 13.7339ZM15.2043 14.4656L15.0573 14.8376L15.0574 14.8377L15.2043 14.4656ZM15.8107 14.4919L15.6979 14.1081L15.6978 14.1082L15.8107 14.4919ZM16.6378 13.8277L16.9201 14.1111H16.9201L16.6378 13.8277ZM17.1004 13.367L16.8181 13.0836H16.8181L17.1004 13.367ZM17.9417 12.6926L17.8313 12.3082L17.8311 12.3082L17.9417 12.6926ZM18.5551 12.727L18.7073 12.3571L18.7071 12.357L18.5551 12.727ZM19.3164 13.4892L19.6282 13.2387L19.6282 13.2387L19.3164 13.4892ZM21.6884 17.0807C21.827 17.2527 22.0788 17.2799 22.2509 17.1414C22.4229 17.0028 22.4501 16.751 22.3116 16.5789L21.6884 17.0807ZM5.24662 4.93679H4V5.73679H5.24662V4.93679ZM1.6 7.33679V20H2.4V7.33679H1.6ZM4 22.4H16.6077V21.6H4V22.4ZM19.0077 20V18.6839H18.2077V20H19.0077ZM16.6077 22.4C17.9332 22.4 19.0077 21.3255 19.0077 20H18.2077C18.2077 20.8837 17.4914 21.6 16.6077 21.6V22.4ZM1.6 20C1.6 21.3255 2.67452 22.4 4 22.4V21.6C3.11634 21.6 2.4 20.8837 2.4 20H1.6ZM4 4.93679C2.67452 4.93679 1.6 6.0113 1.6 7.33679H2.4C2.4 6.45313 3.11634 5.73679 4 5.73679V4.93679ZM5.64667 15.9031C5.64662 15.8434 5.64662 15.7818 5.64662 15.7181H4.84662C4.84662 15.7817 4.84662 15.8436 4.84667 15.9037L5.64667 15.9031ZM5.64662 15.7181V4.96622H4.84662V15.7181H5.64662ZM5.64662 4.96622C5.64662 4.44049 5.64693 4.07024 5.67064 3.78117C5.69397 3.49678 5.73791 3.32648 5.80561 3.19417L5.09342 2.82977C4.95822 3.094 4.90072 3.38172 4.87332 3.71577C4.84631 4.04513 4.84662 4.45374 4.84662 4.96622H5.64662ZM5.80561 3.19416C5.9455 2.92075 6.16867 2.69836 6.4438 2.55876L6.08182 1.84534C5.65641 2.06119 5.31045 2.40557 5.09341 2.82979L5.80561 3.19416ZM6.44381 2.55876C6.57724 2.49105 6.74886 2.4472 7.0348 2.42394C7.32532 2.40031 7.69735 2.4 8.22519 2.4V1.6C7.71049 1.6 7.30042 1.59969 6.96994 1.62657C6.63486 1.65383 6.34657 1.711 6.0818 1.84535L6.44381 2.55876ZM8.22519 2.4H19.0218V1.6H8.22519V2.4ZM19.0218 2.4C19.5496 2.4 19.9215 2.40031 20.2119 2.42394C20.4976 2.44719 20.6691 2.49103 20.8025 2.55875L21.1645 1.84535C20.8998 1.71102 20.6117 1.65383 20.2768 1.62657C19.9464 1.59969 19.5365 1.6 19.0218 1.6V2.4ZM20.8025 2.55876C21.0779 2.69848 21.3015 2.92098 21.4412 3.19413L22.1534 2.82982C21.9363 2.40534 21.5897 2.06107 21.1645 1.84535L20.8025 2.55876ZM21.4412 3.19419C21.5088 3.32632 21.5527 3.49637 21.576 3.78028C21.5997 4.06888 21.6 4.43845 21.6 4.96317H22.4C22.4 4.4517 22.4003 4.04375 22.3733 3.71484C22.3459 3.38123 22.2885 3.09378 22.1534 2.82976L21.4412 3.19419ZM21.6 4.96317V15.7208H22.4V4.96317H21.6ZM21.6 15.7208C21.6 16.1747 21.5998 16.5134 21.5841 16.7862L22.3828 16.8323C22.4002 16.5313 22.4 16.166 22.4 15.7208H21.6ZM4.84667 15.9037C4.84702 16.3576 4.84981 16.7261 4.87875 17.0292C4.90814 17.3371 4.96648 17.6053 5.09341 17.8534L5.80561 17.489C5.74209 17.3649 5.69938 17.2072 5.67513 16.9532C5.65044 16.6945 5.64703 16.3652 5.64667 15.9031L4.84667 15.9037ZM5.09342 17.8534C5.31023 18.2772 5.65597 18.6227 6.08185 18.8388L6.44377 18.1253C6.16911 17.986 5.94572 17.7629 5.80561 17.489L5.09342 17.8534ZM6.08179 18.8388C6.34634 18.973 6.63437 19.0301 6.969 19.0574C7.29904 19.0842 7.70845 19.0839 8.22212 19.0839V18.2839C7.6953 18.2839 7.32395 18.2836 7.0339 18.26C6.74845 18.2368 6.57707 18.193 6.44382 18.1254L6.08179 18.8388ZM8.22212 19.0839H19.025V18.2839H8.22212V19.0839ZM19.025 19.0839C19.5386 19.0839 19.9479 19.0842 20.2777 19.0574C20.6122 19.0301 20.9 18.973 21.1646 18.8388L20.8025 18.1254C20.6692 18.193 20.498 18.2368 20.2128 18.26C19.9229 18.2836 19.5518 18.2839 19.025 18.2839V19.0839ZM21.1645 18.8388C21.5901 18.6229 21.9365 18.2774 22.1534 17.8534L21.4412 17.4891C21.3012 17.7626 21.0774 17.9859 20.8026 18.1253L21.1645 18.8388ZM22.1534 17.8534C22.306 17.5552 22.3601 17.2258 22.3828 16.8323L21.5841 16.7862C21.5636 17.1414 21.5181 17.3387 21.4412 17.489L22.1534 17.8534ZM5.54983 16.1643L9.98755 11.0084L9.38122 10.4865L4.9435 15.6424L5.54983 16.1643ZM9.97529 11.022L9.9766 11.0206L9.39479 10.4715L9.39348 10.4729L9.97529 11.022ZM9.98888 11.007C10.1903 10.773 10.325 10.617 10.4374 10.5072C10.5471 10.4001 10.6057 10.3677 10.6434 10.3543L10.377 9.59998C10.181 9.66922 10.0241 9.79263 9.87837 9.93495C9.73537 10.0746 9.57467 10.2619 9.38252 10.4852L9.98888 11.007ZM10.6433 10.3543C10.7606 10.3129 10.8888 10.3139 11.0058 10.357L11.2826 9.60639C10.9908 9.49881 10.6706 9.49638 10.3771 9.59995L10.6433 10.3543ZM11.0058 10.357C11.0436 10.3709 11.1018 10.4042 11.2101 10.5129C11.3211 10.6244 11.4538 10.7823 11.6523 11.0196L12.2658 10.5062C12.0764 10.2798 11.9181 10.0901 11.7769 9.94835C11.633 9.80388 11.4777 9.67839 11.2827 9.60642L11.0058 10.357ZM11.6523 11.0196L14.1385 13.9906L14.752 13.4772L12.2658 10.5062L11.6523 11.0196ZM14.1385 13.9906C14.3137 14.1999 14.4611 14.3766 14.5932 14.5099C14.7283 14.6461 14.8741 14.7652 15.0573 14.8376L15.3513 14.0936C15.3152 14.0793 15.261 14.0472 15.1612 13.9466C15.0585 13.8429 14.936 13.6971 14.752 13.4772L14.1385 13.9906ZM15.0574 14.8377C15.335 14.9472 15.6398 14.9591 15.9235 14.8757L15.6978 14.1082C15.5824 14.1421 15.4605 14.1367 15.3511 14.0935L15.0574 14.8377ZM15.9234 14.8757C16.1129 14.82 16.2692 14.7144 16.4168 14.5903C16.5612 14.469 16.725 14.3054 16.9201 14.1111L16.3555 13.5443C16.1507 13.7483 16.0145 13.8834 15.9021 13.9779C15.7929 14.0697 15.7356 14.097 15.6979 14.1081L15.9234 14.8757ZM16.9201 14.1111L17.3826 13.6505L16.8181 13.0836L16.3555 13.5443L16.9201 14.1111ZM17.3826 13.6505C17.5911 13.4428 17.7299 13.3051 17.8445 13.209C17.9558 13.1156 18.0141 13.088 18.0522 13.0771L17.8311 12.3082C17.6388 12.3635 17.4801 12.4704 17.3302 12.5962C17.1834 12.7194 17.0168 12.8857 16.8181 13.0836L17.3826 13.6505ZM18.0521 13.0771C18.1671 13.0441 18.291 13.051 18.4031 13.097L18.7071 12.357C18.4298 12.2431 18.121 12.225 17.8313 12.3082L18.0521 13.0771ZM18.403 13.097C18.4398 13.1121 18.4946 13.1459 18.5947 13.2507C18.6978 13.3586 18.8204 13.5105 19.0046 13.7397L19.6282 13.2387C19.4526 13.0201 19.3055 12.8366 19.1733 12.6981C19.0381 12.5566 18.8922 12.4332 18.7073 12.3571L18.403 13.097ZM19.0045 13.7397L21.6716 17.0597L22.2953 16.5587L19.6282 13.2387L19.0045 13.7397ZM21.6719 17.0601L21.6884 17.0807L22.3116 16.5789L22.295 16.5584L21.6719 17.0601ZM16.4155 7.16131C16.1208 7.16131 15.8848 6.92385 15.8848 6.63443H15.0848C15.0848 7.3688 15.6821 7.96131 16.4155 7.96131V7.16131ZM15.8848 6.63443C15.8848 6.345 16.1208 6.10754 16.4155 6.10754V5.30754C15.6821 5.30754 15.0848 5.90005 15.0848 6.63443H15.8848ZM16.4155 6.10754C16.7102 6.10754 16.9463 6.345 16.9463 6.63443H17.7463C17.7463 5.90005 17.1489 5.30754 16.4155 5.30754V6.10754ZM16.9463 6.63443C16.9463 6.92385 16.7102 7.16131 16.4155 7.16131V7.96131C17.1489 7.96131 17.7463 7.3688 17.7463 6.63443H16.9463Z" fill="#333333"/>
</g>
</svg>
