<svg width="24" height="24" viewBox="0 0 24 24" fill="none" xmlns="http://www.w3.org/2000/svg">
<g id="1.TH.PLATAFORMAS.EXTERNAS">
<path id="Vector" d="M21.1871 17.5199V5.01772C21.1871 4.45565 20.7393 4 20.1871 4H3.87609C3.3238 4 2.87609 4.45565 2.87609 5.01772V17.5199M21.1871 17.5199H15.0827C14.817 17.5199 14.5623 17.6274 14.3747 17.8189L14.2346 17.9617C14.047 18.1531 13.7923 18.2607 13.5267 18.2607H10.4418C10.1761 18.2607 9.9214 18.1531 9.73379 17.9617L9.59375 17.8189C9.40615 17.6274 9.15142 17.5199 8.88578 17.5199H2.87609M21.1871 17.5199C21.636 17.5199 22 17.8903 22 18.3472V18.4906C22 18.8367 21.8189 19.1567 21.5246 19.3303L20.6226 19.8627C20.4702 19.9526 20.2971 20 20.1209 20H3.83202C3.65066 20 3.47272 19.9498 3.31723 19.8548L2.4658 19.3345C2.1768 19.1579 2 18.8399 2 18.4969V18.4115C2 17.9191 2.39224 17.5199 2.87609 17.5199M11.3608 11.3131C11.6369 11.5941 12.0846 11.5941 12.3608 11.3131L14.2787 9.36122C14.6692 8.96378 14.6692 8.31939 14.2787 7.92195L13.8179 7.453C13.4274 7.05555 12.7942 7.05555 12.4037 7.453L10.4858 9.40488C10.2096 9.68591 10.2096 10.1416 10.4858 10.4226M12.6108 10.2954C12.3346 10.0143 11.8869 10.0143 11.6108 10.2954L9.69289 12.2473C9.30237 12.6447 9.30237 13.2891 9.69289 13.6865L10.1537 14.1555C10.5442 14.5529 11.1774 14.5529 11.5679 14.1555L13.4858 12.2036C13.7619 11.9226 13.7619 11.4669 13.4858 11.1859M4.31255 6.53156V14.9239C4.31255 15.486 4.76026 15.9416 5.31255 15.9416H18.6164C19.1687 15.9416 19.6164 15.486 19.6164 14.9239V6.53156C19.6164 5.96949 19.1687 5.51384 18.6164 5.51384H5.31255C4.76026 5.51384 4.31255 5.96949 4.31255 6.53156Z" stroke="#333333" stroke-width="0.8"/>
</g>
</svg>
