<svg width="32" height="32" viewBox="0 0 32 32" fill="none" xmlns="http://www.w3.org/2000/svg">
<g id="1.TH.NOVEDADES.MM">
<path id="Vector" d="M15.8254 10.3506C18.2254 10.3506 20.1711 12.2962 20.1711 14.6962V16.6428C20.1711 17.0685 20.3273 17.4794 20.6101 17.7976L21.7188 19.045C22.4662 19.8857 21.8694 21.2148 20.7444 21.2148H10.9063C9.78137 21.2148 9.18452 19.8857 9.93187 19.045L11.0406 17.7976C11.3234 17.4794 11.4797 17.0685 11.4797 16.6428L11.4797 14.6962C11.4797 12.2962 13.4253 10.3506 15.8254 10.3506ZM15.8254 10.3506V8.17773M14.9562 23.8222H16.6944M28.8 16C28.8 23.0692 23.0693 28.8 16 28.8C8.93077 28.8 3.20001 23.0692 3.20001 16C3.20001 8.93071 8.93077 3.19995 16 3.19995C23.0693 3.19995 28.8 8.93071 28.8 16Z" stroke="#333333" stroke-width="1.2" stroke-linecap="round" stroke-linejoin="round"/>
</g>
</svg>
