<svg width="24" height="24" viewBox="0 0 24 24" fill="none" xmlns="http://www.w3.org/2000/svg">
<path d="M8.45654 10.9155H3C2.44772 10.9155 2 11.3632 2 11.9155V20.9886C2 21.5409 2.44771 21.9886 3 21.9886H8.45654C9.00882 21.9886 9.45654 21.5409 9.45654 20.9886V11.9155C9.45654 11.3632 9.00882 10.9155 8.45654 10.9155Z" stroke="#333333" stroke-width="1.2"/>
<path d="M21.0004 2H13.2694C12.7171 2 12.2694 2.44772 12.2694 3V12.0731C12.2694 12.6253 12.7171 13.0731 13.2694 13.0731H21.0004C21.5527 13.0731 22.0004 12.6253 22.0004 12.0731V3C22.0004 2.44772 21.5527 2 21.0004 2Z" stroke="#333333" stroke-width="1.2"/>
<path d="M8.46793 2H3.01139C2.45911 2 2.01139 2.44772 2.01139 3V7.1758C2.01139 7.72808 2.45911 8.1758 3.01139 8.1758H8.46793C9.02022 8.1758 9.46793 7.72808 9.46793 7.1758V3C9.46793 2.44772 9.02022 2 8.46793 2Z" stroke="#333333" stroke-width="1.2"/>
<path d="M21.0004 15.8128H13.2694C12.7171 15.8128 12.2694 16.2605 12.2694 16.8128V21C12.2694 21.5523 12.7171 22 13.2694 22H21.0004C21.5527 22 22.0004 21.5523 22.0004 21V16.8128C22.0004 16.2605 21.5527 15.8128 21.0004 15.8128Z" stroke="#333333" stroke-width="1.2"/>
</svg>
