<svg width="24" height="24" viewBox="0 0 24 24" fill="none" xmlns="http://www.w3.org/2000/svg">
<g id="1.TH.Home">
<path id="Vector" d="M21.349 10.8886L12.7854 2.32502C12.5688 2.10835 12.2844 2 12 2C11.7156 2 11.4313 2.10833 11.2146 2.32502L2.65105 10.8886C2.23126 11.3084 2 11.8667 2 12.4604V19.7781C2 21.0031 2.99689 22 4.22189 22H19.7772C21.0023 22 21.9991 21.0031 21.9991 19.7781L22.0002 12.4604C22.0002 11.8667 21.7688 11.3084 21.349 10.8886ZM9.77794 20.8887V15.3334C9.77794 14.7199 10.2748 14.2219 10.8894 14.2219H13.1113C13.7249 14.2219 14.2228 14.7188 14.2228 15.3334V20.8887H9.77794ZM20.8884 19.7782C20.8884 20.3918 20.3916 20.8897 19.777 20.8897H15.3332V15.3334C15.3332 14.1084 14.3363 13.1115 13.1113 13.1115H10.8894C9.66439 13.1115 8.66753 14.1084 8.66753 15.3334V20.8886H4.22162C3.60807 20.8886 3.11014 20.3907 3.11014 19.7772V12.4603C3.11014 12.1655 3.22681 11.8832 3.43516 11.6749L11.9998 3.11132L20.5633 11.6749C20.7717 11.8832 20.8883 12.1655 20.8883 12.4603L20.8884 19.7782Z" fill="white"/>
</g>
</svg>
