<svg width="16" height="16" viewBox="0 0 16 16" fill="none" xmlns="http://www.w3.org/2000/svg">
<g id="1.TH.Pais">
<path id="icon" d="M2.40119 6.40599L2.45436 6.2385C3.20087 3.88715 5.40106 2.1835 7.99707 2.1835C8.09606 2.1835 8.19221 2.18633 8.29072 2.19196L8.50748 2.20435L8.6152 2.39285L8.67752 2.50191L2.40119 6.40599ZM2.40119 6.40599L2.48858 6.55845M2.40119 6.40599L2.48858 6.55845M2.48858 6.55845L2.73325 6.98533C2.73327 6.98536 2.73328 6.98538 2.7333 6.98541C2.73332 6.98545 2.73334 6.98549 2.73337 6.98553C3.0011 7.45314 3.44013 7.79871 3.9601 7.94727L3.96036 7.94735M2.48858 6.55845L3.96036 7.94735M3.96036 7.94735L5.46817 8.37704L5.46821 8.37704M3.96036 7.94735L5.46821 8.37704M5.46821 8.37704C5.74338 8.45544 5.93301 8.7066 5.93301 8.99496V10.034C5.93301 10.4721 6.18021 10.871 6.57079 11.0663C6.69063 11.1262 6.76634 11.2482 6.76634 11.383V12.3986C6.76634 13.069 7.40731 13.5574 8.05521 13.3717C8.6118 13.2125 9.04296 12.7671 9.18447 12.2045L9.18461 12.2039M5.46821 8.37704L9.18461 12.2039M9.18461 12.2039L9.25752 11.9123L9.25766 11.9117M9.18461 12.2039L9.25766 11.9117M9.25766 11.9117C9.34062 11.5779 9.55828 11.291 9.85649 11.1212M9.25766 11.9117L9.85649 11.1212M6.50251 6.69728L6.5025 6.69726C6.44566 6.72537 6.41898 6.78811 6.43864 6.849C6.44889 6.87815 6.47055 6.90505 6.49929 6.92205L7.39489 7.43346C7.39505 7.43355 7.39522 7.43365 7.39539 7.43374C7.58782 7.54273 7.80613 7.60016 8.02572 7.60016H9.14811C9.58604 7.60016 10.0052 7.77591 10.3138 8.08451L10.4153 8.18607C10.7239 8.49467 10.8997 8.91379 10.8997 9.35173V9.56787C10.8997 10.158 10.5843 10.7084 10.0669 11.0017L10.067 11.0016L9.86947 10.6538L10.0667 11.0018L6.50251 6.69728ZM6.50251 6.69728L6.50649 6.69526L6.65872 6.61786M6.50251 6.69728L6.65872 6.61786M9.85649 11.1212L9.65853 10.7736L9.85606 11.1214L9.85649 11.1212ZM6.65872 6.61786C6.73733 6.57888 6.82636 6.57334 6.9038 6.5999L6.90753 6.60115L7.5117 6.80168L7.5126 6.80197C7.89475 6.9278 8.31741 6.78505 8.54083 6.44861C8.76205 6.11809 8.73732 5.68177 8.48443 5.37737L8.48389 5.37672L8.12988 4.95242C8.12986 4.9524 8.12985 4.95238 8.12983 4.95236C7.99383 4.7891 7.99649 4.55251 8.13302 4.39456L8.13399 4.39343L8.54284 3.91687L8.54338 3.91624C8.88154 3.52043 8.93643 2.95435 8.6777 2.50223L6.65872 6.61786ZM13.8003 8.40016H13.8163V8.00016C13.8163 6.97137 13.5478 6.00347 13.0781 5.16199L12.9064 4.85433L12.5795 4.98584L11.9132 5.25394L13.8003 8.40016ZM13.8003 8.40016C13.7919 8.52409 13.7796 8.6472 13.7634 8.76917L13.7041 9.21331L13.2695 9.10429L12.5138 8.91469C12.5134 8.9146 12.513 8.91451 12.5127 8.91442C12.1019 8.81328 11.7754 8.5077 11.6414 8.10952L11.641 8.10843L11.2009 6.78811L11.2007 6.7874C10.9963 6.17027 11.3081 5.49697 11.9129 5.25407L13.8003 8.40016ZM1.73301 8.00016C1.73301 6.33814 2.39324 4.74419 3.56847 3.56896C4.7437 2.39373 6.33765 1.7335 7.99967 1.7335C9.6617 1.7335 11.2556 2.39373 12.4309 3.56896C13.6061 4.74419 14.2663 6.33814 14.2663 8.00016C14.2663 9.66219 13.6061 11.2561 12.4309 12.4314C11.2556 13.6066 9.6617 14.2668 7.99967 14.2668C6.33765 14.2668 4.7437 13.6066 3.56847 12.4314C2.39324 11.2561 1.73301 9.66219 1.73301 8.00016Z" stroke="#333333" stroke-width="0.8"/>
</g>
</svg>
