<svg width="20" height="20" viewBox="0 0 20 20" fill="none" xmlns="http://www.w3.org/2000/svg">
<g id="1.TH.Settings">
<path id="Vector" d="M10 12.5C11.3807 12.5 12.5 11.3807 12.5 10C12.5 8.61925 11.3807 7.5 10 7.5C8.61925 7.5 7.5 8.61925 7.5 10C7.5 11.3807 8.61925 12.5 10 12.5Z" stroke="#8A8A8A" stroke-width="0.8" stroke-miterlimit="10" stroke-linecap="round" stroke-linejoin="round"/>
<path id="Vector_2" d="M1.66669 10.738V9.26188C1.66669 8.3896 2.37467 7.66833 3.24923 7.66833C4.75681 7.66833 5.37317 6.59476 4.61521 5.27795C4.1821 4.52309 4.4403 3.54178 5.19825 3.10564L6.6392 2.2753C7.2972 1.8811 8.14678 2.11594 8.53825 2.77854L8.62987 2.9379C9.3795 4.2547 10.6122 4.2547 11.3702 2.9379L11.4618 2.77854C11.8533 2.11594 12.7028 1.8811 13.3608 2.2753L14.8018 3.10564C15.5597 3.54178 15.8179 4.52309 15.3848 5.27795C14.6269 6.59476 15.2432 7.66833 16.7508 7.66833C17.617 7.66833 18.3334 8.38121 18.3334 9.26188V10.738C18.3334 11.6103 17.6254 12.3316 16.7508 12.3316C15.2432 12.3316 14.6269 13.4052 15.3848 14.722C15.8179 15.4853 15.5597 16.4582 14.8018 16.8943L13.3608 17.7247C12.7028 18.1189 11.8533 17.884 11.4618 17.2214L11.3702 17.0621C10.6205 15.7453 9.38783 15.7453 8.62987 17.0621L8.53825 17.2214C8.14678 17.884 7.2972 18.1189 6.6392 17.7247L5.19825 16.8943C4.4403 16.4582 4.1821 15.4769 4.61521 14.722C5.37317 13.4052 4.75681 12.3316 3.24923 12.3316C2.37467 12.3316 1.66669 11.6103 1.66669 10.738Z" stroke="#8A8A8A" stroke-width="0.8" stroke-miterlimit="10" stroke-linecap="round" stroke-linejoin="round"/>
</g>
</svg>
