<svg width="28" height="36" viewBox="0 0 28 36" fill="none" xmlns="http://www.w3.org/2000/svg">
<path d="M2 3.14287C2 1.40711 3.40711 0 5.14287 0C6.87862 0 8.28573 1.40711 8.28573 3.14287V32H2V3.14287Z" fill="#0B6357"/>
<g filter="url(#filter0_d_2715_1563)">
<path d="M8.00001 11.6365H2C2 23.2728 11 25.7882 20 24.3336L20 32.0001H26V15.5845C11 21.4027 8.00001 17.4547 8.00001 11.6365Z" fill="#34A98F"/>
</g>
<path d="M8.28573 11.6365H2C2 23.2728 11 25.7882 20 24.3336L26 15.5845C10.9999 21.4027 8.28573 17.4547 8.28573 11.6365Z" fill="#0B6357"/>
<path d="M20.0001 3.00001C20.0001 1.34315 21.3433 0 23.0001 0C24.657 0 26.0001 1.34315 26.0001 3.00001V8.63427C26.0001 10.2911 24.657 11.6343 23.0001 11.6343C21.3433 11.6343 20.0001 10.2911 20.0001 8.63427V3.00001Z" fill="#34A98F"/>
<defs>
<filter id="filter0_d_2715_1563" x="0.111444" y="11.6365" width="27.7771" height="24.1406" filterUnits="userSpaceOnUse" color-interpolation-filters="sRGB">
<feFlood flood-opacity="0" result="BackgroundImageFix"/>
<feColorMatrix in="SourceAlpha" type="matrix" values="0 0 0 0 0 0 0 0 0 0 0 0 0 0 0 0 0 0 127 0" result="hardAlpha"/>
<feOffset dy="1.88856"/>
<feGaussianBlur stdDeviation="0.944278"/>
<feComposite in2="hardAlpha" operator="out"/>
<feColorMatrix type="matrix" values="0 0 0 0 0 0 0 0 0 0 0 0 0 0 0 0 0 0 0.25 0"/>
<feBlend mode="normal" in2="BackgroundImageFix" result="effect1_dropShadow_2715_1563"/>
<feBlend mode="normal" in="SourceGraphic" in2="effect1_dropShadow_2715_1563" result="shape"/>
</filter>
</defs>
</svg>
