<svg width="24" height="24" viewBox="0 0 24 24" fill="none" xmlns="http://www.w3.org/2000/svg">
<g id="1.TH.EQUIPO">
<path id="Vector" fill-rule="evenodd" clip-rule="evenodd" d="M4.054 10.1361H3.57244C2.86487 10.1361 2.25932 10.6724 2.17626 11.3977C2.00932 12.8555 1.85692 14.7794 2.2364 16.3505C2.42755 17.1419 2.76153 17.8791 3.32843 18.4198C3.90374 18.9685 4.68212 19.2796 5.68906 19.2796C6.33466 19.2796 6.88344 19.0851 7.33598 18.7393C7.51407 18.6032 7.5504 18.3455 7.41711 18.1636C7.28383 17.9818 7.03141 17.9447 6.85331 18.0808C6.54408 18.3171 6.1657 18.4572 5.68906 18.4572C4.85625 18.4572 4.28386 18.2055 3.87832 17.8187C3.46437 17.4239 3.18742 16.8529 3.01852 16.1536C2.67789 14.7434 2.80887 12.9558 2.97636 11.4932C3.01106 11.1901 3.26587 10.9585 3.57244 10.9585H6.80212C7.02456 10.9585 7.20489 10.7744 7.20489 10.5473C7.20489 10.3202 7.02456 10.1361 6.80212 10.1361H6.52338H5.28869H4.054ZM4.23026 9.33608C4.54865 9.49644 4.90816 9.58671 5.28869 9.58671C5.66922 9.58671 6.02874 9.49644 6.34713 9.33608C7.12039 8.94662 7.65108 8.14374 7.65108 7.2165C7.65108 5.90747 6.5934 4.84629 5.28869 4.84629C3.98398 4.84629 2.9263 5.90747 2.9263 7.2165C2.9263 8.14374 3.45699 8.94662 4.23026 9.33608ZM17.7281 10.1419H17.6704C17.4479 10.1419 17.2676 10.326 17.2676 10.5531C17.2676 10.7802 17.4479 10.9643 17.6704 10.9643H20.4276C20.7342 10.9643 20.989 11.1958 21.0237 11.4989C21.1912 12.9608 21.3221 14.7473 20.9815 16.1567C20.8126 16.8555 20.5356 17.4261 20.1217 17.8207C19.7162 18.2072 19.1438 18.4588 18.3109 18.4588C17.8343 18.4588 17.4558 18.3187 17.1466 18.0826C16.9685 17.9465 16.7161 17.9837 16.5828 18.1656C16.4496 18.3474 16.486 18.6051 16.6641 18.7412C17.1166 19.0868 17.6654 19.2812 18.3109 19.2812C19.3178 19.2812 20.0961 18.9703 20.6714 18.4219C21.2383 17.8815 21.5724 17.1447 21.7635 16.3537C22.1431 14.7834 21.9907 12.8605 21.8238 11.4034C21.7407 10.6781 21.1351 10.1419 20.4276 10.1419H20.1702H18.9491H17.7281ZM17.9022 9.34185C18.2178 9.4986 18.5732 9.58671 18.9491 9.58671C19.3251 9.58671 19.6805 9.4986 19.996 9.34185C20.7756 8.95459 21.3115 8.14835 21.3115 7.2165C21.3115 5.90747 20.2539 4.84629 18.9491 4.84629C17.6444 4.84629 16.5868 5.90747 16.5868 7.2165C16.5868 8.14835 17.1227 8.95459 17.9022 9.34185ZM15.207 10.9123H9.33702C9.23886 10.9123 9.16497 10.9825 9.15556 11.0725C8.96119 12.9325 8.94315 15.3287 9.42208 17.2254C9.66152 18.1737 10.0091 18.9309 10.4613 19.4389C10.8908 19.9213 11.4294 20.2 12.1634 20.2C12.897 20.2 13.4467 19.9212 13.8916 19.4346C14.3581 18.9244 14.7231 18.1663 14.9836 17.2204C15.505 15.3278 15.541 12.9366 15.3888 11.0764C15.3813 10.9849 15.3069 10.9123 15.207 10.9123ZM12.4722 7.8885C13.5936 7.8885 14.5071 6.97575 14.5071 5.84425C14.5071 4.71275 13.5936 3.8 12.4722 3.8C11.3509 3.8 10.4374 4.71275 10.4374 5.84425C10.4374 6.97575 11.3509 7.8885 12.4722 7.8885ZM12.4722 8.6885C14.0379 8.6885 15.3071 7.41508 15.3071 5.84425C15.3071 4.27341 14.0379 3 12.4722 3C10.9066 3 9.63738 4.27341 9.63738 5.84425C9.63738 7.41508 10.9066 8.6885 12.4722 8.6885ZM5.28869 8.76426C6.16183 8.76426 6.84554 8.05782 6.84554 7.2165C6.84554 6.37517 6.16183 5.66874 5.28869 5.66874C4.41555 5.66874 3.73185 6.37517 3.73185 7.2165C3.73185 8.05782 4.41555 8.76426 5.28869 8.76426ZM20.506 7.2165C20.506 8.05782 19.8223 8.76426 18.9491 8.76426C18.076 8.76426 17.3923 8.05782 17.3923 7.2165C17.3923 6.37517 18.076 5.66874 18.9491 5.66874C19.8223 5.66874 20.506 6.37517 20.506 7.2165ZM15.207 10.1123H9.33702C8.83829 10.1123 8.41281 10.483 8.3599 10.9893C7.96233 14.7936 8.25371 21 12.1634 21C16.0656 21 16.4976 14.8173 16.1861 11.0111C16.1439 10.4952 15.7141 10.1123 15.207 10.1123Z" fill="#333333"/>
</g>
</svg>
