<svg width="16" height="16" viewBox="0 0 16 16" fill="none" xmlns="http://www.w3.org/2000/svg">
<g id="1.TH.CLOCK">
<g id="Union">
<mask id="path-1-inside-1_4389_4207" fill="white">
<path d="M12.9497 12.9497C11.637 14.2625 9.85652 15 8 15C6.14348 15 4.36301 14.2625 3.05025 12.9497C1.7375 11.637 1 9.85652 1 8C1 6.14348 1.7375 4.36301 3.05025 3.05025C4.36301 1.7375 6.14348 1 8 1C9.85652 1 11.637 1.7375 12.9497 3.05025C14.2625 4.36301 15 6.14348 15 8C15 9.85652 14.2625 11.637 12.9497 12.9497Z"/>
</mask>
<path d="M12.9497 3.05025L12.3841 3.61594L12.9497 3.05025ZM3.05025 3.05025L3.61594 3.61594L3.05025 3.05025ZM3.05025 12.9497L3.61594 12.3841L3.05025 12.9497ZM8 15.8C10.0687 15.8 12.0526 14.9782 13.5154 13.5154L12.3841 12.3841C11.2213 13.5468 9.64434 14.2 8 14.2V15.8ZM13.5154 13.5154C14.9782 12.0526 15.8 10.0687 15.8 8H14.2C14.2 9.64434 13.5468 11.2213 12.3841 12.3841L13.5154 13.5154ZM15.8 8C15.8 5.93131 14.9782 3.94735 13.5154 2.48457L12.3841 3.61594C13.5468 4.77866 14.2 6.35566 14.2 8H15.8ZM13.5154 2.48457C12.0526 1.02178 10.0687 0.2 8 0.2V1.8C9.64434 1.8 11.2213 2.45321 12.3841 3.61594L13.5154 2.48457ZM8 0.2C5.93131 0.2 3.94735 1.02178 2.48457 2.48457L3.61594 3.61594C4.77866 2.45321 6.35566 1.8 8 1.8V0.2ZM2.48457 2.48457C1.02178 3.94735 0.2 5.93131 0.2 8H1.8C1.8 6.35566 2.45321 4.77866 3.61594 3.61594L2.48457 2.48457ZM0.2 8C0.2 10.0687 1.02178 12.0526 2.48457 13.5154L3.61594 12.3841C2.45321 11.2213 1.8 9.64434 1.8 8H0.2ZM2.48457 13.5154C3.94735 14.9782 5.93131 15.8 8 15.8V14.2C6.35566 14.2 4.77866 13.5468 3.61594 12.3841L2.48457 13.5154Z" fill="#333333" mask="url(#path-1-inside-1_4389_4207)"/>
</g>
<path id="Union_2" d="M7.875 4.4375C7.875 4.32147 7.82891 4.21019 7.74686 4.12814C7.66481 4.04609 7.55353 4 7.4375 4C7.32147 4 7.21019 4.04609 7.12814 4.12814C7.04609 4.21019 7 4.32147 7 4.4375V9.25C7.00002 9.32712 7.02043 9.40285 7.05915 9.46954C7.09788 9.53623 7.15354 9.5915 7.2205 9.62975L10.283 11.3798C10.3835 11.4341 10.5013 11.4469 10.6111 11.4156C10.721 11.3842 10.8142 11.3111 10.8709 11.2119C10.9275 11.1127 10.9432 10.9953 10.9144 10.8848C10.8857 10.7742 10.8148 10.6793 10.717 10.6202L7.875 8.99625V4.4375Z" fill="#333333"/>
</g>
</svg>
