<svg width="24" height="24" viewBox="0 0 24 24" fill="none" xmlns="http://www.w3.org/2000/svg">
<g id="1.TH.Emojis">
<g id="Vector">
<path d="M12 24C18.6274 24 24 18.6274 24 12C24 5.37258 18.6274 0 12 0C5.37258 0 0 5.37258 0 12C0 18.6274 5.37258 24 12 24Z" fill="#FF6666"/>
<path d="M16.99 18.2527C16.96 18.1333 16.2113 15.3333 12 15.3333C7.788 15.3333 7.04 18.1333 7.01 18.2527C6.97333 18.3973 7.03867 18.5473 7.168 18.622C7.298 18.696 7.46067 18.674 7.568 18.5707C7.58067 18.558 8.87067 17.3333 12 17.3333C15.1293 17.3333 16.42 18.558 16.432 18.57C16.496 18.6333 16.5813 18.6667 16.6667 18.6667C16.7227 18.6667 16.7793 18.6527 16.8307 18.624C16.9613 18.5493 17.0267 18.398 16.99 18.2527Z" fill="white"/>
<path d="M8 11.3333C8.92047 11.3333 9.66667 10.2887 9.66667 9C9.66667 7.71134 8.92047 6.66667 8 6.66667C7.07952 6.66667 6.33333 7.71134 6.33333 9C6.33333 10.2887 7.07952 11.3333 8 11.3333Z" fill="white"/>
<path d="M16 11.3333C16.9205 11.3333 17.6667 10.2887 17.6667 9C17.6667 7.71134 16.9205 6.66667 16 6.66667C15.0795 6.66667 14.3333 7.71134 14.3333 9C14.3333 10.2887 15.0795 11.3333 16 11.3333Z" fill="white"/>
</g>
</g>
</svg>
