<svg width="20" height="20" viewBox="0 0 20 20" fill="none" xmlns="http://www.w3.org/2000/svg">
<path d="M14.9628 12.9317C14.9879 12.732 14.9962 12.524 14.9962 12.3077V8.97972C14.9962 6.32567 13.6615 4.99448 11.0005 4.99448H5.66174C5.44486 4.99448 5.23631 5.00281 5.03611 5.02776M14.9628 12.9317C14.771 15.1781 13.4446 16.2929 11.0005 16.2929H10.6668C10.4583 16.2929 10.2581 16.3928 10.1329 16.5592L9.13192 17.8904C8.68981 18.4811 7.97241 18.4811 7.5303 17.8904L6.52927 16.5592C6.42083 16.4177 6.17893 16.2929 5.99541 16.2929H5.66174C3.00071 16.2929 1.66602 15.6357 1.66602 12.3077V8.97972C1.66602 6.54199 2.79217 5.21912 5.03611 5.02776M14.9628 12.9317C17.2068 12.7403 18.3324 11.4258 18.3324 8.97972V5.65176C18.3324 2.9977 16.9977 1.6665 14.3367 1.6665H8.99796C6.55385 1.6665 5.22797 2.7897 5.03611 5.02776M11.6658 8.33326L7.08238 12.9167L4.99902 10.8333" stroke="#333333" stroke-width="0.8" stroke-miterlimit="10" stroke-linecap="round" stroke-linejoin="round"/>
</svg>
