<svg width="24" height="24" viewBox="0 0 24 24" fill="none" xmlns="http://www.w3.org/2000/svg">
<g id="1.TH.DESTINO">
<path id="Vector" d="M9.23142 16.3607C9.83611 17.1637 10.5321 17.9609 11.3228 18.7405C11.6825 19.0953 12.2498 19.113 12.6272 18.7774C13.4894 18.0108 14.2436 17.1983 14.8918 16.3607M9.23142 16.3607C3.98519 9.39444 5.61364 2 11.9587 2C18.5937 2 19.8748 9.92205 14.8918 16.3607M9.23142 16.3607H6.30126C5.87019 16.3607 5.48543 16.6334 5.3393 17.0423L4.06117 20.6194C3.82107 21.2914 4.31482 22 5.02312 22H18.9762C19.7033 22 20.1981 21.2563 19.9223 20.5778L18.4682 17.0007C18.3108 16.6136 17.937 16.3607 17.5221 16.3607H14.8918M14.8352 8.06626C14.8352 9.65196 13.5604 10.9374 11.9879 10.9374C10.4154 10.9374 9.14067 9.65196 9.14067 8.06626C9.14067 6.48056 10.4154 5.19509 11.9879 5.19509C13.5604 5.19509 14.8352 6.48056 14.8352 8.06626Z" stroke="#333333" stroke-width="0.8"/>
</g>
</svg>
