<svg width="24" height="24" viewBox="0 0 24 24" fill="none" xmlns="http://www.w3.org/2000/svg">
<g id="1.TH.Emojis">
<g id="Vector">
<path d="M24 12C24 18.6273 18.6273 24 12 24C5.37333 24 0 18.6273 0 12C0 5.37333 5.37333 0 12 0C18.6273 0 24 5.37333 24 12Z" fill="#FFD453"/>
<path d="M7.66667 13.3333C8.58714 13.3333 9.33333 12.2887 9.33333 11C9.33333 9.71134 8.58714 8.66667 7.66667 8.66667C6.74619 8.66667 6 9.71134 6 11C6 12.2887 6.74619 13.3333 7.66667 13.3333Z" fill="white"/>
<path d="M16.3333 13.3333C17.2538 13.3333 18 12.2887 18 11C18 9.71134 17.2538 8.66667 16.3333 8.66667C15.4129 8.66667 14.6667 9.71134 14.6667 11C14.6667 12.2887 15.4129 13.3333 16.3333 13.3333Z" fill="white"/>
<path d="M16.6667 17.3333H7.33333C6.96533 17.3333 6.66667 17.0353 6.66667 16.6667C6.66667 16.298 6.96533 16 7.33333 16H16.6667C17.0353 16 17.3333 16.298 17.3333 16.6667C17.3333 17.0353 17.0353 17.3333 16.6667 17.3333Z" fill="white"/>
</g>
</g>
</svg>
