<svg width="22" height="24" viewBox="0 0 22 24" fill="none" xmlns="http://www.w3.org/2000/svg">
<path d="M14.1696 9.83579L8.43905 15.5626L5.83423 12.9595M18.3337 10.6435V14.8018C18.3337 15.072 18.3232 15.3319 18.2919 15.5814C18.0521 18.3882 16.3937 19.7812 13.3378 19.7812H12.9206C12.6599 19.7812 12.4096 19.906 12.2531 20.1139L11.0016 21.7772C10.4488 22.5152 9.55185 22.5152 8.99907 21.7772L7.7475 20.1139C7.61191 19.9372 7.30946 19.7812 7.08001 19.7812H6.66283C3.33576 19.7812 1.66699 18.96 1.66699 14.8018V10.6435C1.66699 7.59764 3.07501 5.94475 5.8806 5.70565C6.13092 5.67447 6.39166 5.66406 6.66283 5.66406H13.3378C16.6649 5.66406 18.3337 7.32736 18.3337 10.6435Z" stroke="#333333" stroke-width="0.8" stroke-miterlimit="10" stroke-linecap="round" stroke-linejoin="round"/>
<circle cx="15" cy="7" r="5.6" fill="#FFC506" stroke="white" stroke-width="1.2"/>
</svg>
