<svg width="48" height="48" viewBox="0 0 48 48" fill="none" xmlns="http://www.w3.org/2000/svg">
<g id="1.TH.CLOCK">
<g id="Union">
<mask id="path-1-inside-1_2901_4173" fill="white">
<path d="M38.8492 38.8492C34.911 42.7875 29.5695 45 24 45C18.4305 45 13.089 42.7875 9.15076 38.8492C5.21249 34.911 3 29.5695 3 24C3 18.4305 5.21249 13.089 9.15076 9.15076C13.089 5.21249 18.4305 3 24 3C29.5695 3 34.911 5.21249 38.8492 9.15076C42.7875 13.089 45 18.4305 45 24C45 29.5695 42.7875 34.911 38.8492 38.8492Z"/>
</mask>
<path d="M24 45.8C29.7817 45.8 35.3266 43.5032 39.4149 39.4149L38.2836 38.2836C34.4953 42.0718 29.3574 44.2 24 44.2V45.8ZM39.4149 39.4149C43.5032 35.3266 45.8 29.7817 45.8 24H44.2C44.2 29.3574 42.0718 34.4953 38.2836 38.2836L39.4149 39.4149ZM45.8 24C45.8 18.2183 43.5032 12.6734 39.4149 8.58507L38.2836 9.71644C42.0718 13.5047 44.2 18.6426 44.2 24H45.8ZM39.4149 8.58507C35.3266 4.49678 29.7817 2.2 24 2.2V3.8C29.3574 3.8 34.4953 5.92821 38.2836 9.71644L39.4149 8.58507ZM24 2.2C18.2183 2.2 12.6734 4.49678 8.58507 8.58507L9.71644 9.71644C13.5047 5.92821 18.6426 3.8 24 3.8V2.2ZM8.58507 8.58507C4.49678 12.6734 2.2 18.2183 2.2 24H3.8C3.8 18.6426 5.92821 13.5047 9.71644 9.71644L8.58507 8.58507ZM2.2 24C2.2 29.7817 4.49678 35.3266 8.58507 39.4149L9.71644 38.2836C5.92821 34.4953 3.8 29.3574 3.8 24H2.2ZM8.58507 39.4149C12.6734 43.5032 18.2183 45.8 24 45.8V44.2C18.6426 44.2 13.5047 42.0718 9.71644 38.2836L8.58507 39.4149Z" fill="#333333" mask="url(#path-1-inside-1_2901_4173)"/>
</g>
<path id="Union_2" d="M23.625 13.3125C23.625 12.9644 23.4867 12.6306 23.2406 12.3844C22.9944 12.1383 22.6606 12 22.3125 12C21.9644 12 21.6306 12.1383 21.3844 12.3844C21.1383 12.6306 21 12.9644 21 13.3125V27.75C21.0001 27.9813 21.0613 28.2086 21.1775 28.4086C21.2936 28.6087 21.4606 28.7745 21.6615 28.8892L30.849 34.1392C31.1505 34.3022 31.5038 34.3407 31.8333 34.2467C32.1629 34.1526 32.4426 33.9333 32.6126 33.6358C32.7826 33.3382 32.8295 32.9859 32.7433 32.6543C32.657 32.3226 32.4445 32.0378 32.151 31.8607L23.625 26.9887V13.3125Z" fill="#333333"/>
</g>
</svg>
