<svg width="20" height="20" viewBox="0 0 20 20" fill="none" xmlns="http://www.w3.org/2000/svg">
<g id="1.TH.ROOM">
<path id="Vector" d="M18.2781 12.6713H1.6853M2.41691 9.55312L2.48129 3.74873C2.48386 3.51747 2.67127 3.33178 2.90061 3.33326L17.1325 3.42534C17.3615 3.42683 17.5465 3.61451 17.5465 3.84551V9.51136M4.14258 8.30022V6.53485C4.14258 6.30279 4.32913 6.11467 4.55924 6.11467H10.0232M10.0232 6.11467V7.46498M10.0232 6.11467H15.4736C15.6982 6.11467 15.8824 6.29414 15.89 6.52047L15.9453 8.14709M2.17748 16.5691H3.11843C3.34855 16.5691 3.5351 16.381 3.5351 16.149V14.943C3.5351 14.7109 3.72165 14.5228 3.95177 14.5228H16.0669C16.297 14.5228 16.4836 14.7109 16.4836 14.943V16.2464C16.4836 16.4785 16.6701 16.6666 16.9002 16.6666H17.9167C18.1468 16.6666 18.3334 16.4745 18.3335 16.2424L18.3335 16.2008C18.3372 9.10586 18.338 7.46502 10.2164 7.46502C0.218489 7.46502 1.74535 10.9608 1.75703 16.1418C1.75755 16.3764 1.94485 16.5691 2.17748 16.5691Z" stroke="#333333" stroke-width="0.8"/>
</g>
</svg>
