<svg width="22" height="24" viewBox="0 0 22 24" fill="none" xmlns="http://www.w3.org/2000/svg">
<path d="M13.333 6.93343C13.1121 6.93343 12.933 7.11251 12.933 7.33343C12.933 7.55434 13.1121 7.73343 13.333 7.73343V6.93343ZM14.9997 7.33343V6.93343V7.33343ZM3.33301 20.6667H2.93301H3.33301ZM4.99967 7.33343V6.93343V7.33343ZM6.66634 7.73343C6.88725 7.73343 7.06634 7.55434 7.06634 7.33343C7.06634 7.11251 6.88725 6.93343 6.66634 6.93343V7.73343ZM13.333 7.73343H14.9997V6.93343H13.333V7.73343ZM14.9997 7.73343C15.3356 7.73343 15.6578 7.86688 15.8953 8.10442L16.461 7.53874C16.0735 7.15116 15.5478 6.93343 14.9997 6.93343V7.73343ZM15.8953 8.10442C16.1329 8.34197 16.2663 8.66415 16.2663 9.00009H17.0663C17.0663 8.45198 16.8486 7.92631 16.461 7.53874L15.8953 8.10442ZM16.2663 9.00009V20.6667H17.0663V9.00009H16.2663ZM16.2663 20.6667C16.2663 21.0027 16.1329 21.3249 15.8953 21.5624L16.461 22.1281C16.8486 21.7405 17.0663 21.2149 17.0663 20.6667H16.2663ZM15.8953 21.5624C15.6578 21.8 15.3356 21.9334 14.9997 21.9334V22.7334C15.5478 22.7334 16.0735 22.5157 16.461 22.1281L15.8953 21.5624ZM14.9997 21.9334H4.99967V22.7334H14.9997V21.9334ZM4.99967 21.9334C4.66373 21.9334 4.34155 21.8 4.10401 21.5624L3.53832 22.1281C3.9259 22.5157 4.45156 22.7334 4.99967 22.7334V21.9334ZM4.10401 21.5624C3.86646 21.3249 3.73301 21.0027 3.73301 20.6667H2.93301C2.93301 21.2149 3.15075 21.7405 3.53832 22.1281L4.10401 21.5624ZM3.73301 20.6667V9.00009H2.93301V20.6667H3.73301ZM3.73301 9.00009C3.73301 8.66415 3.86646 8.34197 4.10401 8.10442L3.53832 7.53874C3.15075 7.92631 2.93301 8.45198 2.93301 9.00009H3.73301ZM4.10401 8.10442C4.34155 7.86688 4.66373 7.73343 4.99967 7.73343V6.93343C4.45156 6.93343 3.9259 7.15116 3.53832 7.53874L4.10401 8.10442ZM4.99967 7.73343H6.66634V6.93343H4.99967V7.73343ZM7.50022 6.06675H12.5002V5.26675H7.50022V6.06675ZM12.5002 6.06675C12.7395 6.06675 12.9335 6.26076 12.9335 6.50008H13.7335C13.7335 5.81893 13.1814 5.26675 12.5002 5.26675V6.06675ZM12.9335 6.50008V8.16675H13.7335V6.50008H12.9335ZM12.9335 8.16675C12.9335 8.40607 12.7395 8.60008 12.5002 8.60008V9.40008C13.1814 9.40008 13.7335 8.8479 13.7335 8.16675H12.9335ZM12.5002 8.60008H7.50022V9.40008H12.5002V8.60008ZM7.50022 8.60008C7.26089 8.60008 7.06688 8.40607 7.06688 8.16675H6.26688C6.26688 8.8479 6.81907 9.40008 7.50022 9.40008V8.60008ZM7.06688 8.16675V6.50008H6.26688V8.16675H7.06688ZM7.06688 6.50008C7.06688 6.26076 7.26089 6.06675 7.50022 6.06675V5.26675C6.81907 5.26675 6.26688 5.81893 6.26688 6.50008H7.06688ZM4.38779 12.027H10.6378V11.227H4.38779V12.027ZM4.38779 14.9437H8.97112V14.1437H4.38779V14.9437ZM4.38779 18.277H7.30445V17.477H4.38779V18.277Z" fill="#333333"/>
<circle cx="15" cy="7" r="5.6" fill="#FFC506" stroke="white" stroke-width="1.2"/>
</svg>
