<svg width="24" height="24" viewBox="0 0 24 24" fill="none" xmlns="http://www.w3.org/2000/svg">
<g id="1.TH.RESERVA">
<path id="Vector" d="M19.3501 11.556L22 9.37951L20.1379 3L10.8277 3.41279C8.21364 6.71513 6.60225 8.81103 8.21364 9.7923C9.53856 10.5991 10.3084 9.7923 12.2242 6.56502L19.3501 11.556ZM19.3501 11.556C19.6963 11.8875 20.7538 12.862 19.9231 13.7326C19.3376 14.3461 17.7758 13.57 16.7501 12.9013M16.7501 12.9013C16.5713 12.7847 16.4088 12.6714 16.2706 12.5693C16.4153 12.6594 16.5794 12.7717 16.7501 12.9013ZM16.7501 12.9013C17.6209 13.5626 18.6596 14.6739 18.1326 15.5901C17.5501 16.6029 15.8624 15.7169 14.9127 15.0238M14.9127 15.0238C14.8348 14.967 14.7619 14.9115 14.695 14.8584C14.7636 14.9102 14.8367 14.9654 14.9127 15.0238ZM14.9127 15.0238C15.7356 15.6561 16.8934 16.6562 16.2706 17.6353C15.4721 18.8906 13.8833 17.5603 13.1194 17.0537C13.8654 17.6729 15.2694 18.5547 14.4981 19.7931C13.6565 21.1441 12.7882 20.4475 10.5502 18.4399M3.96183 12.7097L2.7707 11.5186L5.97557 4.25722L9.66387 5.23291M8.14625 20.2305C7.45366 19.8055 7.21352 18.8859 7.60988 18.1765L8.94292 15.7907C9.33928 15.0813 10.2221 14.8508 10.9146 15.2758C11.6072 15.7008 11.8474 16.6204 11.451 17.3298L10.118 19.7156C9.72162 20.4249 8.83885 20.6555 8.14625 20.2305ZM5.74354 18.5187C5.05095 18.0937 4.81081 17.1741 5.20717 16.4647L6.54021 14.0789C6.93657 13.3695 7.81934 13.139 8.51193 13.564C9.20453 13.989 9.44467 14.9086 9.04831 15.618L7.71527 18.0038C7.31891 18.7131 6.43614 18.9437 5.74354 18.5187ZM3.24547 16.9853C2.55758 16.5632 2.31906 15.6498 2.71274 14.9453L4.05551 12.5421C4.44919 11.8375 5.32597 11.6085 6.01386 12.0307C6.70176 12.4528 6.94027 13.3662 6.5466 14.0707L5.20383 16.4739C4.81015 17.1785 3.93337 17.4074 3.24547 16.9853Z" stroke="#333333" stroke-width="0.8" stroke-linejoin="round"/>
</g>
</svg>
