<svg width="20" height="21" viewBox="0 0 20 21" fill="none" xmlns="http://www.w3.org/2000/svg">
<g id="1.TH.WARNING">
<path id="Vector" d="M18.2527 17.0816L10.5151 3.30612C10.3997 3.1014 10.2007 3 9.99984 3C9.79895 3 9.59807 3.1014 9.48461 3.30612L1.74696 17.0816C1.51817 17.4911 1.80462 18 2.26218 18H17.7375C18.1951 18 18.4815 17.4911 18.2527 17.0816ZM9.40463 8.66327C9.40463 8.57908 9.47159 8.5102 9.55343 8.5102H10.4462C10.5281 8.5102 10.595 8.57908 10.595 8.66327V12.1837C10.595 12.2679 10.5281 12.3367 10.4462 12.3367H9.55343C9.47159 12.3367 9.40463 12.2679 9.40463 12.1837V8.66327ZM9.99984 15.398C9.76621 15.3931 9.54375 15.2941 9.38021 15.1224C9.21667 14.9508 9.12507 14.72 9.12507 14.4796C9.12507 14.2392 9.21667 14.0084 9.38021 13.8367C9.54375 13.665 9.76621 13.5661 9.99984 13.5612C10.2335 13.5661 10.4559 13.665 10.6195 13.8367C10.783 14.0084 10.8746 14.2392 10.8746 14.4796C10.8746 14.72 10.783 14.9508 10.6195 15.1224C10.4559 15.2941 10.2335 15.3931 9.99984 15.398Z" fill="#FFC506"/>
</g>
</svg>
