<svg width="24" height="24" viewBox="0 0 24 24" fill="none" xmlns="http://www.w3.org/2000/svg">
<path d="M10.35 21.9C5.6 21.05 2 16.95 2 12C2 6.5 6.5 2 12 2C17.5 2 22 6.5 22 12C22 16.95 18.4 21.05 13.65 21.9L13.1 21.45H10.9L10.35 21.9Z" fill="url(#paint0_linear_3394_2004)"/>
<path d="M15.8999 14.8004L16.3499 12.0004H13.6999V10.0504C13.6999 9.25039 13.9999 8.65039 15.1999 8.65039H16.4999V6.10039C15.7999 6.00039 14.9999 5.90039 14.2999 5.90039C11.9999 5.90039 10.3999 7.30039 10.3999 9.80039V12.0004H7.8999V14.8004H10.3999V21.8504C10.9499 21.9504 11.4999 22.0004 12.0499 22.0004C12.5999 22.0004 13.1499 21.9504 13.6999 21.8504V14.8004H15.8999Z" fill="white"/>
<defs>
<linearGradient id="paint0_linear_3394_2004" x1="12.0005" y1="21.3045" x2="12.0005" y2="1.99632" gradientUnits="userSpaceOnUse">
<stop stop-color="#0062E0"/>
<stop offset="1" stop-color="#19AFFF"/>
</linearGradient>
</defs>
</svg>
