<svg width="24" height="24" viewBox="0 0 24 24" fill="none" xmlns="http://www.w3.org/2000/svg">
<g id="1.TH.Settings">
<g id="Vector">
<path d="M12 15C13.6569 15 15 13.6569 15 12C15 10.3431 13.6569 9 12 9C10.3431 9 9 10.3431 9 12C9 13.6569 10.3431 15 12 15Z" stroke="white" stroke-width="0.8" stroke-miterlimit="10" stroke-linecap="round" stroke-linejoin="round"/>
<path d="M2 12.8857V11.1143C2 10.0675 2.84958 9.20202 3.89905 9.20202C5.70815 9.20202 6.44778 7.91373 5.53823 6.33356C5.01849 5.42774 5.32834 4.25016 6.23788 3.72679L7.96702 2.73038C8.75662 2.25734 9.77611 2.53915 10.2459 3.33427L10.3558 3.5255C11.2554 5.10567 12.7346 5.10567 13.6442 3.5255L13.7541 3.33427C14.2239 2.53915 15.2434 2.25734 16.033 2.73038L17.7621 3.72679C18.6717 4.25016 18.9815 5.42774 18.4618 6.33356C17.5522 7.91373 18.2919 9.20202 20.101 9.20202C21.1404 9.20202 22 10.0575 22 11.1143V12.8857C22 13.9324 21.1504 14.798 20.101 14.798C18.2919 14.798 17.5522 16.0863 18.4618 17.6664C18.9815 18.5823 18.6717 19.7498 17.7621 20.2732L16.033 21.2696C15.2434 21.7427 14.2239 21.4608 13.7541 20.6657L13.6442 20.4745C12.7446 18.8943 11.2654 18.8943 10.3558 20.4745L10.2459 20.6657C9.77611 21.4608 8.75662 21.7427 7.96702 21.2696L6.23788 20.2732C5.32834 19.7498 5.01849 18.5723 5.53823 17.6664C6.44778 16.0863 5.70815 14.798 3.89905 14.798C2.84958 14.798 2 13.9324 2 12.8857Z" stroke="white" stroke-width="0.8" stroke-miterlimit="10" stroke-linecap="round" stroke-linejoin="round"/>
</g>
</g>
</svg>
