<svg width="12" height="12" viewBox="0 0 12 12" fill="none" xmlns="http://www.w3.org/2000/svg">
<g id="1.TH.REVIEW">
<path id="Vector" d="M6.21858 0.647394C6.1788 0.56265 6.09362 0.508537 6 0.508537C5.90638 0.508537 5.8212 0.56265 5.78142 0.647394L4.21386 3.98673L0.713319 4.52475C0.623889 4.53849 0.549649 4.60108 0.520979 4.6869C0.492309 4.77271 0.514022 4.86736 0.577232 4.9321L3.11706 7.53335L2.51719 11.2111C2.5023 11.3024 2.54085 11.3942 2.61645 11.4474C2.69205 11.5007 2.79142 11.5061 2.87235 11.4613L6 9.73176L9.12765 11.4613C9.20858 11.5061 9.30795 11.5007 9.38355 11.4474C9.45916 11.3942 9.4977 11.3024 9.48282 11.2111L8.88294 7.53335L11.4228 4.9321C11.486 4.86736 11.5077 4.77271 11.479 4.6869C11.4504 4.60108 11.3761 4.53849 11.2867 4.52475L7.78614 3.98673L6.21858 0.647394Z" fill="#FFC506" stroke="#FFC506" stroke-width="0.482927" stroke-linecap="round" stroke-linejoin="round"/>
</g>
</svg>
