<svg width="20" height="20" viewBox="0 0 20 20" fill="none" xmlns="http://www.w3.org/2000/svg">
<path d="M18.3337 9.9974C18.3337 14.5997 14.6026 18.3307 10.0003 18.3307C5.39847 18.3307 1.66699 14.5997 1.66699 9.9974C1.66699 5.39554 5.39847 1.66406 10.0003 1.66406C14.6026 1.66406 18.3337 5.39554 18.3337 9.9974Z" fill="#34A969"/>
<path d="M6.99107 9.9974C7.63028 9.9974 8.14847 8.85738 8.14847 7.4511C8.14847 6.04482 7.63028 4.9048 6.99107 4.9048C6.35185 4.9048 5.83366 6.04482 5.83366 7.4511C5.83366 8.85738 6.35185 9.9974 6.99107 9.9974Z" fill="white"/>
<path d="M13.0096 9.9974C13.6488 9.9974 14.167 8.85738 14.167 7.4511C14.167 6.04482 13.6488 4.9048 13.0096 4.9048C12.3704 4.9048 11.8522 6.04482 11.8522 7.4511C11.8522 8.85738 12.3704 9.9974 13.0096 9.9974Z" fill="white"/>
<path d="M10.0003 11.8492C8.32301 11.8492 7.21005 11.6539 5.83366 11.3863C5.51931 11.3256 4.90773 11.3863 4.90773 12.3122C4.90773 14.1641 7.03505 16.4789 10.0003 16.4789C12.9651 16.4789 15.0929 14.1641 15.0929 12.3122C15.0929 11.3863 14.4813 11.3252 14.167 11.3863C12.7906 11.6539 11.6776 11.8492 10.0003 11.8492Z" fill="white"/>
</svg>
