<svg width="16" height="16" viewBox="0 0 16 16" fill="none" xmlns="http://www.w3.org/2000/svg">
<g id="1.TH.WARNING">
<path id="Vector" d="M14.6025 13.2653L8.41234 2.2449C8.32009 2.08112 8.16087 2 8.00016 2C7.83946 2 7.67875 2.08112 7.58798 2.2449L1.39786 13.2653C1.21483 13.5929 1.44399 14 1.81004 14H14.1903C14.5563 14 14.7855 13.5929 14.6025 13.2653ZM7.524 6.53061C7.524 6.46327 7.57757 6.40816 7.64304 6.40816H8.35729C8.42276 6.40816 8.47633 6.46327 8.47633 6.53061V9.34694C8.47633 9.41429 8.42276 9.46939 8.35729 9.46939H7.64304C7.57757 9.46939 7.524 9.41429 7.524 9.34694V6.53061ZM8.00016 11.9184C7.81326 11.9144 7.63529 11.8353 7.50446 11.698C7.37363 11.5606 7.30035 11.376 7.30035 11.1837C7.30035 10.9914 7.37363 10.8067 7.50446 10.6694C7.63529 10.532 7.81326 10.4529 8.00016 10.449C8.18707 10.4529 8.36503 10.532 8.49586 10.6694C8.6267 10.8067 8.69998 10.9914 8.69998 11.1837C8.69998 11.376 8.6267 11.5606 8.49586 11.698C8.36503 11.8353 8.18707 11.9144 8.00016 11.9184Z" fill="#FF6666"/>
</g>
</svg>
