<svg width="24" height="24" viewBox="0 0 24 24" fill="none" xmlns="http://www.w3.org/2000/svg">
<g id="1.TH.SEGUIMIENTO">
<path id="Vector" d="M16 3.60001C15.7791 3.60001 15.6 3.7791 15.6 4.00001C15.6 4.22093 15.7791 4.40001 16 4.40001V3.60001ZM18 4.00001V3.60001V4.00001ZM4 20H3.6H4ZM6 4.00001V3.60001V4.00001ZM8 4.40001C8.22091 4.40001 8.4 4.22093 8.4 4.00001C8.4 3.7791 8.22091 3.60001 8 3.60001V4.40001ZM16 4.40001H18V3.60001H16V4.40001ZM18 4.40001C18.4243 4.40001 18.8313 4.56858 19.1314 4.86864L19.6971 4.30296C19.247 3.85287 18.6365 3.60001 18 3.60001V4.40001ZM19.1314 4.86864C19.4314 5.1687 19.6 5.57567 19.6 6.00001H20.4C20.4 5.36349 20.1471 4.75304 19.6971 4.30296L19.1314 4.86864ZM19.6 6.00001V20H20.4V6.00001H19.6ZM19.6 20C19.6 20.4243 19.4314 20.8313 19.1314 21.1314L19.6971 21.6971C20.1471 21.247 20.4 20.6365 20.4 20H19.6ZM19.1314 21.1314C18.8313 21.4314 18.4243 21.6 18 21.6V22.4C18.6365 22.4 19.247 22.1471 19.6971 21.6971L19.1314 21.1314ZM18 21.6H6V22.4H18V21.6ZM6 21.6C5.57565 21.6 5.16869 21.4314 4.86863 21.1314L4.30294 21.6971C4.75303 22.1471 5.36348 22.4 6 22.4V21.6ZM4.86863 21.1314C4.56857 20.8313 4.4 20.4243 4.4 20H3.6C3.6 20.6365 3.85286 21.247 4.30294 21.6971L4.86863 21.1314ZM4.4 20V6.00001H3.6V20H4.4ZM4.4 6.00001C4.4 5.57567 4.56857 5.1687 4.86863 4.86864L4.30294 4.30296C3.85286 4.75304 3.6 5.36349 3.6 6.00001H4.4ZM4.86863 4.86864C5.16869 4.56858 5.57565 4.40001 6 4.40001V3.60001C5.36348 3.60001 4.75303 3.85287 4.30294 4.30296L4.86863 4.86864ZM6 4.40001H8V3.60001H6V4.40001ZM9.00065 2.4H15.0007V1.6H9.00065V2.4ZM15.0007 2.4C15.332 2.4 15.6007 2.66863 15.6007 3H16.4007C16.4007 2.2268 15.7738 1.6 15.0007 1.6V2.4ZM15.6007 3V5H16.4007V3H15.6007ZM15.6007 5C15.6007 5.33137 15.332 5.6 15.0007 5.6V6.4C15.7738 6.4 16.4007 5.7732 16.4007 5H15.6007ZM15.0007 5.6H9.00065V6.4H15.0007V5.6ZM9.00065 5.6C8.66928 5.6 8.40065 5.33137 8.40065 5H7.60065C7.60065 5.7732 8.22745 6.4 9.00065 6.4V5.6ZM8.40065 5V3H7.60065V5H8.40065ZM8.40065 3C8.40065 2.66863 8.66928 2.4 9.00065 2.4V1.6C8.22745 1.6 7.60065 2.2268 7.60065 3H8.40065ZM5.26573 9.55235H12.7657V8.75235H5.26573V9.55235ZM5.26573 13.0523H10.7657V12.2523H5.26573V13.0523ZM5.26573 17.0523H8.76573V16.2523H5.26573V17.0523Z" fill="#333333"/>
</g>
</svg>
