<svg width="24" height="24" viewBox="0 0 24 24" fill="none" xmlns="http://www.w3.org/2000/svg">
<g id="1.TH.PERSONALIZAR">
<path id="Vector" d="M10.0192 16.2283C9.76274 15.5669 9.29444 15.0193 8.6945 14.6794C8.09456 14.3395 7.40032 14.2284 6.73068 14.3651C6.06104 14.5018 5.45767 14.8778 5.02392 15.4288C4.59016 15.9797 4.35302 16.6713 4.3531 17.3851C4.3531 17.7011 4.29106 18.0137 4.17084 18.3035C4.05062 18.5934 3.87477 18.8544 3.65419 19.0702C3.43361 19.2861 3.17301 19.4522 2.88853 19.5584C2.60405 19.6646 2.30176 19.7085 2.00039 19.6874C2.48509 20.5683 3.23422 21.2571 4.13147 21.647C5.02873 22.0369 6.02392 22.106 6.96254 21.8435C7.90117 21.5811 8.73072 21.0018 9.32242 20.1956C9.91412 19.3895 10.2349 18.4015 10.2349 17.3851C10.2349 16.9759 10.1584 16.5852 10.0192 16.2283ZM10.0192 16.2283C11.1848 15.8128 12.2995 15.2552 13.3404 14.5669M8.39681 14.5413C8.79409 13.3193 9.32779 12.1507 9.98685 11.0596M13.3395 14.5669C15.1983 13.3381 16.7895 11.714 18.0096 9.80024L21.8092 3.83778C21.9548 3.61069 22.0204 3.33778 21.995 3.06565C21.9696 2.79353 21.8547 2.53907 21.6699 2.34573C21.4851 2.15239 21.2419 2.03217 20.9817 2.00559C20.7216 1.97901 20.4607 2.04773 20.2437 2.20001L14.5442 6.176C12.7145 7.4523 11.1618 9.11687 9.98685 11.0616C11.4785 11.7598 12.6721 13.0084 13.3395 14.569" stroke="#333333" stroke-width="0.8" stroke-linecap="round" stroke-linejoin="round"/>
</g>
</svg>
