<svg width="24" height="24" viewBox="0 0 24 24" fill="none" xmlns="http://www.w3.org/2000/svg">
<g id="1.TH.PERSONALIZACION">
<path id="Vector" d="M10.2573 15.6735C10.2577 15.8962 10.2699 16.1188 10.294 16.3402C6.67453 15.9618 2 13.8441 2 9.89327C2 5.78908 7.16354 3.07347 11.7839 3H11.9307C14.1758 3 14.6088 3.46745 14.9254 3.80908C15.2966 4.20915 15.4963 4.73906 15.4814 5.2849C15.4814 6.03612 15.1951 6.44847 15.1951 6.95173C15.1951 9.18796 22 6.37041 22 10.56C21.9877 11.0846 21.837 11.5966 21.5633 12.0441C21.3699 11.7715 21.1552 11.5147 20.9211 11.2763C21.0206 11.0502 21.0754 10.807 21.0825 10.56C21.0825 9.24673 20.2568 8.99602 17.7769 8.90694C16.2997 8.85459 14.2776 8.78204 14.2776 6.95173C14.2864 6.64281 14.3389 6.33669 14.4336 6.04255C14.514 5.79778 14.5579 5.54248 14.5639 5.2849C14.5715 5.13125 14.5486 4.97762 14.4964 4.8329C14.4443 4.68818 14.364 4.55526 14.2602 4.44184C14.062 4.22786 13.7758 3.91837 11.9307 3.91837H11.7839C7.59659 3.98449 2.91747 6.45398 2.91747 9.89235C2.91747 13.1121 6.93234 15.0407 10.2701 15.4172C10.2674 15.5027 10.2573 15.5871 10.2573 15.6735ZM11.9087 6.94898C11.9087 7.22143 11.828 7.48777 11.6768 7.71431C11.5256 7.94084 11.3106 8.11741 11.0592 8.22167C10.8077 8.32593 10.531 8.35321 10.264 8.30006C9.99706 8.24691 9.75184 8.11571 9.55937 7.92306C9.36691 7.7304 9.23584 7.48494 9.18273 7.21773C9.12963 6.95051 9.15689 6.67353 9.26105 6.42181C9.36521 6.1701 9.5416 5.95495 9.76792 5.80359C9.99424 5.65222 10.2603 5.57143 10.5325 5.57143C10.8975 5.57143 11.2475 5.71656 11.5056 5.9749C11.7637 6.23324 11.9087 6.58363 11.9087 6.94898ZM10.9912 6.94898C10.9912 6.85816 10.9643 6.76938 10.9139 6.69387C10.8635 6.61836 10.7919 6.5595 10.7081 6.52475C10.6242 6.48999 10.532 6.4809 10.443 6.49862C10.354 6.51634 10.2723 6.56007 10.2081 6.62429C10.144 6.68851 10.1003 6.77032 10.0826 6.8594C10.0649 6.94847 10.074 7.0408 10.1087 7.1247C10.1434 7.20861 10.2022 7.28032 10.2776 7.33078C10.3531 7.38123 10.4418 7.40816 10.5325 7.40816C10.6542 7.40816 10.7708 7.35978 10.8569 7.27367C10.9429 7.18756 10.9912 7.07076 10.9912 6.94898ZM6.86261 10.1633C6.59042 10.1633 6.32434 10.0825 6.09803 9.93111C5.87171 9.77974 5.69532 9.56459 5.59116 9.31288C5.48699 9.06117 5.45974 8.78419 5.51284 8.51697C5.56594 8.24975 5.69701 8.00429 5.88948 7.81164C6.08195 7.61898 6.32716 7.48779 6.59412 7.43463C6.86108 7.38148 7.13779 7.40876 7.38926 7.51302C7.64073 7.61729 7.85566 7.79385 8.00688 8.02039C8.1581 8.24693 8.23882 8.51326 8.23882 8.78571C8.23882 9.15106 8.09383 9.50145 7.83574 9.75979C7.57765 10.0181 7.2276 10.1633 6.86261 10.1633ZM7.32134 8.78571C7.32134 8.6949 7.29444 8.60612 7.24403 8.5306C7.19363 8.45509 7.12198 8.39624 7.03816 8.36148C6.95434 8.32673 6.8621 8.31764 6.77311 8.33535C6.68413 8.35307 6.60239 8.3968 6.53823 8.46102C6.47408 8.52524 6.43039 8.60706 6.41269 8.69613C6.39499 8.7852 6.40407 8.87753 6.43879 8.96144C6.47351 9.04534 6.53231 9.11706 6.60775 9.16751C6.68319 9.21797 6.77188 9.2449 6.86261 9.2449C6.98427 9.2449 7.10095 9.19652 7.18698 9.11041C7.27301 9.02429 7.32134 8.9075 7.32134 8.78571ZM10.0738 12.4592C10.0738 12.7316 9.99305 12.998 9.84183 13.2245C9.69061 13.451 9.47568 13.6276 9.22421 13.7319C8.97274 13.8361 8.69603 13.8634 8.42907 13.8103C8.16211 13.7571 7.91689 13.6259 7.72443 13.4333C7.53196 13.2406 7.40089 12.9951 7.34779 12.7279C7.29469 12.4607 7.32194 12.1837 7.4261 11.932C7.53026 11.6803 7.70666 11.4652 7.93297 11.3138C8.15929 11.1624 8.42537 11.0816 8.69755 11.0816C9.06255 11.0816 9.41259 11.2268 9.67068 11.4851C9.92877 11.7434 10.0738 12.0938 10.0738 12.4592ZM9.15629 12.4592C9.15629 12.3684 9.12939 12.2796 9.07898 12.2041C9.02857 12.1286 8.95693 12.0697 8.87311 12.035C8.78928 12.0002 8.69705 11.9911 8.60806 12.0088C8.51907 12.0265 8.43733 12.0703 8.37318 12.1345C8.30902 12.1987 8.26533 12.2805 8.24763 12.3696C8.22993 12.4587 8.23902 12.551 8.27374 12.6349C8.30846 12.7188 8.36726 12.7905 8.44269 12.841C8.51813 12.8914 8.60683 12.9184 8.69755 12.9184C8.81922 12.9184 8.9359 12.87 9.02193 12.7839C9.10796 12.6978 9.15629 12.581 9.15629 12.4592ZM16.0896 16.3127L15.0951 15.3135L14.418 15.9912L16.0896 17.6645L19.3081 14.4456L18.631 13.7688L16.0896 16.3127ZM21.8174 15.6735C21.8174 16.727 21.5053 17.7568 20.9206 18.6327C20.3359 19.5087 19.5048 20.1914 18.5325 20.5945C17.5601 20.9977 16.4902 21.1032 15.4579 20.8976C14.4257 20.6921 13.4775 20.1848 12.7333 19.4399C11.9891 18.695 11.4823 17.7459 11.277 16.7126C11.0717 15.6794 11.177 14.6084 11.5798 13.6351C11.9826 12.6618 12.6646 11.8299 13.5397 11.2446C14.4148 10.6593 15.4436 10.3469 16.4961 10.3469C17.9074 10.3469 19.2609 10.9081 20.2588 11.907C21.2568 12.906 21.8174 14.2608 21.8174 15.6735ZM20.8999 15.6735C20.8999 14.8016 20.6417 13.9493 20.1578 13.2244C19.6739 12.4995 18.9861 11.9345 18.1814 11.6009C17.3767 11.2672 16.4912 11.1799 15.6369 11.35C14.7827 11.5201 13.998 11.9399 13.3821 12.5564C12.7662 13.1729 12.3467 13.9584 12.1768 14.8135C12.0069 15.6686 12.0941 16.5549 12.4274 17.3604C12.7607 18.1659 13.3252 18.8543 14.0494 19.3387C14.7736 19.8231 15.6251 20.0816 16.4961 20.0816C17.6636 20.0802 18.7829 19.6153 19.6085 18.7889C20.434 17.9625 20.8985 16.8421 20.8999 15.6735Z" fill="#333333"/>
</g>
</svg>
