<svg width="32" height="32" viewBox="0 0 32 32" fill="none" xmlns="http://www.w3.org/2000/svg">
<rect width="32" height="32" rx="6" fill="#34A98F"/>
<path d="M25.3984 22.7822V9.40039C25.3984 8.40628 24.5927 7.59961 23.5986 7.59961H16.9082V6.40039H23.5986C25.2555 6.40039 26.5986 7.74354 26.5986 9.40039V22.7822C26.5984 24.4389 25.2554 25.7822 23.5986 25.7822H16.9082V24.582H23.5986C24.5926 24.582 25.3982 23.7762 25.3984 22.7822ZM13.5264 11.6318C13.7045 11.4031 14.0155 11.3381 14.2656 11.4619L14.3682 11.5264L19.3027 15.3682L19.375 15.4316C19.69 15.7428 19.6899 16.2562 19.375 16.5674L19.3027 16.6309L14.3682 20.4727L14.2656 20.5381C14.0156 20.6618 13.7045 20.5969 13.5264 20.3682C13.3229 20.1067 13.3704 19.7299 13.6318 19.5264L17.2715 16.6914H6C5.66863 16.6914 5.40039 16.4232 5.40039 16.0918C5.40039 15.7604 5.66863 15.4922 6 15.4922H17.5078L13.6318 12.4736L13.5439 12.3896C13.3624 12.1777 13.3485 11.8607 13.5264 11.6318Z" fill="white"/>
</svg>
