<svg width="20" height="20" viewBox="0 0 20 20" fill="none" xmlns="http://www.w3.org/2000/svg">
<g id="streamline:web" clip-path="url(#clip0_2239_17894)">
<g id="Group">
<path id="Vector" d="M19.2824 10.0032C19.2824 12.466 18.3041 14.8278 16.5626 16.5692C14.8212 18.3106 12.4594 19.289 9.99665 19.289C7.53393 19.289 5.17207 18.3106 3.43066 16.5692C1.68925 14.8278 0.710938 12.466 0.710938 10.0032M19.2824 10.0032C19.2824 7.54052 18.3041 5.17866 16.5626 3.43725C14.8212 1.69584 12.4594 0.717529 9.99665 0.717529C7.53393 0.717529 5.17207 1.69584 3.43066 3.43725C1.68925 5.17866 0.710938 7.54052 0.710938 10.0032M19.2824 10.0032H0.710938" stroke="#333333" stroke-linecap="round" stroke-linejoin="round"/>
<path id="Vector_2" d="M13.5647 10.0032C13.3893 13.3989 12.1386 16.6509 9.9933 19.289C7.84805 16.6509 6.5973 13.3989 6.42188 10.0032C6.5973 6.60754 7.84805 3.3556 9.9933 0.717529C12.1386 3.3556 13.3893 6.60754 13.5647 10.0032Z" stroke="#333333" stroke-linecap="round" stroke-linejoin="round"/>
</g>
</g>
<defs>
<clipPath id="clip0_2239_17894">
<rect width="20" height="20" fill="white"/>
</clipPath>
</defs>
</svg>
