<svg width="20" height="21" viewBox="0 0 20 21" fill="none" xmlns="http://www.w3.org/2000/svg">
<g id="cdnlogo.com_whatsapp-icon 1" clip-path="url(#clip0_3974_84240)">
<path id="Vector" d="M17.0849 2.92023C15.2048 1.03882 12.7048 0.00212446 10.0412 0.000976562C4.55249 0.000976562 0.0857968 4.46625 0.0835994 9.9547C0.0829599 11.7091 0.541363 13.4217 1.41266 14.9312L0 20.0894L5.27864 18.7052C6.733 19.4984 8.37052 19.9163 10.0369 19.917H10.0411H10.0412C15.529 19.917 19.9964 15.451 19.9987 9.96277C19.9996 7.30281 18.9648 4.80178 17.0849 2.92023ZM10.0412 18.2358H10.038C8.55262 18.235 7.09604 17.8362 5.82556 17.0823L5.5232 16.9031L2.39075 17.7244L3.22707 14.6714L3.03008 14.3584C2.20154 13.041 1.76415 11.5186 1.76477 9.95534C1.76659 5.39352 5.47914 1.68226 10.0443 1.68226C12.255 1.68318 14.3328 2.54489 15.8955 4.10866C17.4581 5.67242 18.318 7.75122 18.3174 9.96206C18.3155 14.524 14.6028 18.2358 10.0412 18.2358Z" fill="#E0E0E0"/>
<path id="Vector_2" d="M0.457397 19.5164L1.80553 14.5939C0.973818 13.1533 0.536438 11.5188 0.536963 9.84488C0.539144 4.60724 4.80184 0.346069 10.0394 0.346069C12.5814 0.347217 14.9672 1.3365 16.7611 3.13202C18.5553 4.92752 19.5428 7.31414 19.5418 9.85231C19.5396 15.0901 15.2766 19.3516 10.0397 19.3516C10.0394 19.3516 10.04 19.3516 10.0397 19.3516H10.0355C8.44524 19.3511 6.88265 18.9519 5.49481 18.1955L0.457397 19.5164Z" fill="url(#paint0_linear_3974_84240)"/>
<path id="Vector_3" fill-rule="evenodd" clip-rule="evenodd" d="M7.58056 5.73126C7.39634 5.32168 7.20238 5.31348 7.02711 5.30631C6.88376 5.30016 6.71964 5.30054 6.55579 5.30054C6.39181 5.30054 6.12533 5.36217 5.89998 5.60828C5.6745 5.85438 5.03906 6.44934 5.03906 7.65936C5.03906 8.86952 5.92048 10.0388 6.04334 10.203C6.16633 10.367 7.74481 12.9296 10.2447 13.9154C12.3223 14.7347 12.7451 14.5717 13.196 14.5307C13.647 14.4897 14.6511 13.9359 14.8561 13.3615C15.0611 12.7873 15.0611 12.2951 14.9996 12.1922C14.9381 12.0898 14.7741 12.0283 14.5281 11.9053C14.2822 11.7823 13.073 11.1872 12.8476 11.1052C12.6221 11.0232 12.4581 10.9822 12.2941 11.2285C12.1301 11.4744 11.659 12.0283 11.5156 12.1922C11.3721 12.3566 11.2286 12.3771 10.9826 12.2541C10.7366 12.1308 9.9445 11.8713 9.0048 11.0334C8.27366 10.3816 7.78003 9.57654 7.63655 9.33032C7.49306 9.08434 7.62117 8.9511 7.74455 8.82849C7.85498 8.71831 7.99053 8.54139 8.11351 8.39777C8.23624 8.25415 8.27724 8.15166 8.35923 7.98768C8.44122 7.82343 8.40022 7.67983 8.33873 7.55684C8.27724 7.43385 7.79925 6.21758 7.58056 5.73126Z" fill="white"/>
<path id="Vector_4" d="M17.0044 2.89332C15.1458 1.03351 12.6745 0.00873265 10.0415 0.00756836C4.61583 0.00756836 0.200413 4.42158 0.198232 9.84703C0.197593 11.5813 0.650732 13.2742 1.51203 14.7665L0.115601 19.8653L5.33364 18.4971C6.77133 19.2811 8.39004 19.6943 10.0373 19.695H10.0415H10.0415C15.4664 19.695 19.8824 15.2802 19.8847 9.85496C19.8856 7.22558 18.8626 4.75327 17.0044 2.89332ZM10.0415 18.0331H10.0383C8.57005 18.0323 7.13018 17.6381 5.87429 16.8929L5.57539 16.7157L2.4789 17.5275L3.30561 14.5096L3.11088 14.2002C2.29186 12.8979 1.85948 11.393 1.86012 9.84768C1.86191 5.33824 5.53184 1.66959 10.0446 1.66959C12.23 1.67049 14.2839 2.52231 15.8287 4.06812C17.3733 5.61394 18.2234 7.66887 18.2227 9.85436C18.2208 14.3639 14.5507 18.0331 10.0415 18.0331Z" fill="white"/>
</g>
<defs>
<linearGradient id="paint0_linear_3974_84240" x1="9.99958" y1="19.5164" x2="9.99958" y2="0.346101" gradientUnits="userSpaceOnUse">
<stop stop-color="#20B038"/>
<stop offset="1" stop-color="#60D66A"/>
</linearGradient>
<clipPath id="clip0_3974_84240">
<rect width="20" height="20.0884" fill="white"/>
</clipPath>
</defs>
</svg>
