<svg width="24" height="24" viewBox="0 0 24 24" fill="none" xmlns="http://www.w3.org/2000/svg">
<rect x="2" y="2" width="20" height="20" rx="10" fill="#34A98F"/>
<path d="M11.25 17.1875C10.9219 17.1875 10.6641 17.0859 10.4766 16.8828C10.2891 16.6797 10.1953 16.4023 10.1953 16.0508C10.1953 15.6914 10.2852 15.207 10.4648 14.5977C10.6523 13.9805 10.8359 13.4219 11.0156 12.9219C11.2031 12.4219 11.2969 12.0898 11.2969 11.9258C11.2969 11.7539 11.2422 11.668 11.1328 11.668C10.8594 11.668 10.418 12.207 9.80859 13.2852L9.02344 12.8281C10.1719 10.8906 11.2266 9.92188 12.1875 9.92188C12.8438 9.92188 13.1719 10.3359 13.1719 11.1641C13.1719 11.4062 13.0938 11.793 12.9375 12.3242L12.0938 14.7383C12.0078 14.9648 11.9648 15.1719 11.9648 15.3594C11.9648 15.5391 12.0352 15.6289 12.1758 15.6289C12.4414 15.6289 12.9297 15.1367 13.6406 14.1523L14.1328 14.6094C13.7109 15.3906 13.207 16.0156 12.6211 16.4844C12.043 16.9531 11.5859 17.1875 11.25 17.1875ZM14.5898 6.46484C14.5898 6.77734 14.4844 7.0625 14.2734 7.32031C14.0625 7.57812 13.7773 7.70703 13.418 7.70703C13.0586 7.70703 12.7891 7.60156 12.6094 7.39062C12.4297 7.17188 12.3398 6.89844 12.3398 6.57031C12.3398 6.24219 12.4492 5.95312 12.668 5.70312C12.8945 5.44531 13.1836 5.31641 13.5352 5.31641C13.8867 5.31641 14.1484 5.42969 14.3203 5.65625C14.5 5.875 14.5898 6.14453 14.5898 6.46484Z" fill="white"/>
</svg>
