<svg width="18" height="18" viewBox="0 0 18 18" fill="none" xmlns="http://www.w3.org/2000/svg">
<g id="Group 3421">
<path id="Vector" d="M8.99984 17.3334C13.6022 17.3334 17.3332 13.6025 17.3332 9.00008C17.3332 4.39771 13.6022 0.666748 8.99984 0.666748C4.39746 0.666748 0.666504 4.39771 0.666504 9.00008C0.666504 13.6025 4.39746 17.3334 8.99984 17.3334Z" stroke="#333333" stroke-width="0.8"/>
<path id="Vector_2" d="M7.4375 6.396C7.4375 5.53305 8.13708 4.8335 9 4.8335C9.86292 4.8335 10.5625 5.53305 10.5625 6.396C10.5625 6.96887 10.2542 7.46975 9.7945 7.74175C9.39833 7.97608 9 8.33158 9 8.79183V9.8335" stroke="#333333" stroke-width="0.8" stroke-linecap="round"/>
<path id="Vector_3" d="M9.59406 12.4723C9.59406 12.8006 9.32792 13.0667 8.99962 13.0667C8.67132 13.0667 8.40518 12.8006 8.40518 12.4723C8.40518 12.144 8.67132 11.8778 8.99962 11.8778C9.32792 11.8778 9.59406 12.144 9.59406 12.4723Z" fill="#333333" stroke="#333333" stroke-width="0.2"/>
</g>
</svg>
