<svg width="25" height="25" viewBox="0 0 25 25" fill="none" xmlns="http://www.w3.org/2000/svg">
<path d="M14.55 3.32961C15.5366 3.52692 16.1778 4.48687 15.9805 5.47339L15.8932 5.90594C15.6921 6.91902 15.3203 7.88278 14.8005 8.75926H20.2643C21.2698 8.75926 22.0855 9.57504 22.0855 10.5805C22.0855 11.2825 21.6871 11.8934 21.1028 12.1969C21.5164 12.5308 21.782 13.043 21.782 13.616C21.782 14.5038 21.1445 15.2437 20.306 15.4031C20.4729 15.6801 20.5678 16.0026 20.5678 16.3479C20.5678 17.1561 20.0404 17.8428 19.3119 18.0781C19.3385 18.2033 19.3536 18.3361 19.3536 18.4727C19.3536 19.4782 18.5379 20.2939 17.5324 20.2939H13.8329C13.112 20.2939 12.4101 20.0815 11.8106 19.6831L10.3497 18.7079C9.33667 18.0325 8.72958 16.8942 8.72958 15.6763V14.2231V12.4018V11.457C8.72958 10.3491 9.23422 9.30564 10.0955 8.61128L10.3763 8.38742C11.3818 7.58303 12.0686 6.45232 12.319 5.19261L12.4063 4.76006C12.6036 3.77355 13.5635 3.13231 14.55 3.32961ZM3.87287 9.36635H6.30122C6.97282 9.36635 7.5154 9.90893 7.5154 10.5805V19.0798C7.5154 19.7514 6.97282 20.2939 6.30122 20.2939H3.87287C3.20128 20.2939 2.65869 19.7514 2.65869 19.0798V10.5805C2.65869 9.90893 3.20128 9.36635 3.87287 9.36635Z" fill="#333333"/>
</svg>
