<svg width="18" height="22" viewBox="0 0 18 22" fill="none" xmlns="http://www.w3.org/2000/svg">
<path id="Vector" d="M13 2.60001C12.7791 2.60001 12.6 2.7791 12.6 3.00001C12.6 3.22093 12.7791 3.40001 13 3.40001V2.60001ZM15 3.00001V2.60001V3.00001ZM1 19H0.6H1ZM3 3.00001V2.60001V3.00001ZM5 3.40001C5.22091 3.40001 5.4 3.22093 5.4 3.00001C5.4 2.7791 5.22091 2.60001 5 2.60001V3.40001ZM13 3.00001V3.40001H15V3.00001V2.60001H13V3.00001ZM15 3.00001V3.40001C15.4243 3.40001 15.8313 3.56858 16.1314 3.86864L16.4142 3.5858L16.6971 3.30296C16.247 2.85287 15.6365 2.60001 15 2.60001V3.00001ZM16.4142 3.5858L16.1314 3.86864C16.4314 4.1687 16.6 4.57567 16.6 5.00001H17H17.4C17.4 4.36349 17.1471 3.75304 16.6971 3.30296L16.4142 3.5858ZM17 5.00001H16.6V19H17H17.4V5.00001H17ZM17 19H16.6C16.6 19.4243 16.4314 19.8313 16.1314 20.1314L16.4142 20.4142L16.6971 20.6971C17.1471 20.247 17.4 19.6365 17.4 19H17ZM16.4142 20.4142L16.1314 20.1314C15.8313 20.4314 15.4243 20.6 15 20.6V21V21.4C15.6365 21.4 16.247 21.1471 16.6971 20.6971L16.4142 20.4142ZM15 21V20.6H3V21V21.4H15V21ZM3 21V20.6C2.57565 20.6 2.16869 20.4314 1.86863 20.1314L1.58579 20.4142L1.30294 20.6971C1.75303 21.1471 2.36348 21.4 3 21.4V21ZM1.58579 20.4142L1.86863 20.1314C1.56857 19.8313 1.4 19.4243 1.4 19H1H0.6C0.6 19.6365 0.852856 20.247 1.30294 20.6971L1.58579 20.4142ZM1 19H1.4V5.00001H1H0.6V19H1ZM1 5.00001H1.4C1.4 4.57567 1.56857 4.1687 1.86863 3.86864L1.58579 3.5858L1.30294 3.30296C0.852856 3.75304 0.6 4.36349 0.6 5.00001H1ZM1.58579 3.5858L1.86863 3.86864C2.16869 3.56858 2.57565 3.40001 3 3.40001V3.00001V2.60001C2.36348 2.60001 1.75303 2.85287 1.30294 3.30296L1.58579 3.5858ZM3 3.00001V3.40001H5V3.00001V2.60001H3V3.00001ZM6.00065 1V1.4H12.0007V1V0.6H6.00065V1ZM12.0007 1V1.4C12.332 1.4 12.6007 1.66863 12.6007 2H13.0007H13.4007C13.4007 1.2268 12.7738 0.6 12.0007 0.6V1ZM13.0007 2H12.6007V4H13.0007H13.4007V2H13.0007ZM13.0007 4H12.6007C12.6007 4.33137 12.332 4.6 12.0007 4.6V5V5.4C12.7738 5.4 13.4007 4.7732 13.4007 4H13.0007ZM12.0007 5V4.6H6.00065V5V5.4H12.0007V5ZM6.00065 5V4.6C5.66928 4.6 5.40065 4.33137 5.40065 4H5.00065H4.60065C4.60065 4.7732 5.22745 5.4 6.00065 5.4V5ZM5.00065 4H5.40065V2H5.00065H4.60065V4H5.00065ZM5.00065 2H5.40065C5.40065 1.66863 5.66928 1.4 6.00065 1.4V1V0.6C5.22745 0.6 4.60065 1.2268 4.60065 2H5.00065ZM2.26573 8.15235V8.55235H9.76573V8.15235V7.75235H2.26573V8.15235ZM2.26573 11.6523V12.0523H7.76573V11.6523V11.2523H2.26573V11.6523ZM2.26573 15.6523V16.0523H5.76573V15.6523V15.2523H2.26573V15.6523Z" fill="#333333"/>
</svg>
