<svg width="24" height="24" viewBox="0 0 24 24" fill="none" xmlns="http://www.w3.org/2000/svg">
<g id="octicon:play-16">
<path id="Vector" d="M9.84475 8.7479L9.8451 8.74811L15.1745 11.9465C15.1746 11.9466 15.1747 11.9466 15.1748 11.9467C15.1839 11.9522 15.1914 11.96 15.1966 11.9693L15.4144 11.8464L15.1966 11.9693C15.2019 11.9787 15.2047 11.9892 15.2047 12C15.2047 12.0108 15.2019 12.0213 15.1966 12.0307L15.4144 12.1536L15.1966 12.0307C15.1914 12.04 15.1838 12.0478 15.1747 12.0534C15.1746 12.0534 15.1746 12.0535 15.1745 12.0535L9.8451 15.2519L9.84475 15.2521C9.83527 15.2578 9.82444 15.2609 9.81338 15.2611C9.80232 15.2612 9.79141 15.2584 9.78177 15.253C9.77213 15.2475 9.76411 15.2396 9.75853 15.2301L9.54267 15.3562L9.75853 15.2301C9.75295 15.2205 9.75001 15.2097 9.75 15.1986L9.75 8.8025L9.75 8.80165C9.74996 8.79056 9.75287 8.77966 9.75844 8.77007C9.764 8.76048 9.77202 8.75254 9.78166 8.74707C9.7913 8.7416 9.80223 8.73879 9.81332 8.73894C9.8244 8.73908 9.83525 8.74218 9.84475 8.7479ZM12 2.25C14.5859 2.25 17.0658 3.27723 18.8943 5.10571C20.7228 6.93419 21.75 9.41414 21.75 12C21.75 14.5859 20.7228 17.0658 18.8943 18.8943C17.0658 20.7228 14.5859 21.75 12 21.75C9.41414 21.75 6.93419 20.7228 5.10571 18.8943C3.27723 17.0658 2.25 14.5859 2.25 12C2.25 9.41414 3.27723 6.93419 5.10571 5.10571C6.93419 3.27723 9.41414 2.25 12 2.25ZM3.625 12C3.625 14.2212 4.50736 16.3514 6.07798 17.922C7.6486 19.4926 9.77881 20.375 12 20.375C14.2212 20.375 16.3514 19.4926 17.922 17.922C19.4926 16.3514 20.375 14.2212 20.375 12C20.375 9.77881 19.4926 7.6486 17.922 6.07798C16.3514 4.50736 14.2212 3.625 12 3.625C9.77881 3.625 7.6486 4.50736 6.07798 6.07798C4.50736 7.6486 3.625 9.77881 3.625 12Z" fill="#333333" stroke="white" stroke-width="0.5"/>
</g>
</svg>
