<svg width="64" height="64" viewBox="0 0 64 64" fill="none" xmlns="http://www.w3.org/2000/svg">
<g id="Frame 1948755077">
<g id="Group 632562">
<path id="Vector" d="M21.4589 59H41.77C44.7816 59 47.229 56.5526 47.229 53.5411V10.4589C47.229 7.44737 44.7816 5 41.77 5H21.4589C18.4474 5 16 7.44737 16 10.4589V53.5411C16 56.5526 18.4474 59 21.4589 59ZM44.6262 45.988H18.6021V16.7109H44.6262V45.988ZM41.7696 56.3976H21.4585C19.8829 56.3976 18.602 55.1167 18.602 53.5411V48.5904H44.626V53.5411C44.626 55.1168 43.3453 56.3976 41.7696 56.3976ZM21.4585 7.60253H41.7696C43.3453 7.60253 44.6262 8.88344 44.6262 10.4591V14.1085H18.6021V10.4591C18.6021 8.88337 19.8829 7.60253 21.4585 7.60253Z" fill="#34A98F"/>
<path id="Vector_2" d="M26.0843 12.1566H37.1445C37.8612 12.1566 38.4457 11.5721 38.4457 10.8554C38.4457 10.1387 37.8612 9.5542 37.1445 9.5542H26.0843C25.3676 9.5542 24.7831 10.1387 24.7831 10.8554C24.7831 11.5721 25.3676 12.1566 26.0843 12.1566Z" fill="#34A98F"/>
<path id="Vector_3" d="M31.6145 49.5659C30.0007 49.5659 28.6868 50.8798 28.6868 52.4936C28.6868 54.1074 30.0007 55.4213 31.6145 55.4213C33.2283 55.4213 34.5422 54.1074 34.5422 52.4936C34.5422 50.8798 33.2283 49.5659 31.6145 49.5659ZM31.6145 52.8189C31.4315 52.8189 31.2892 52.6766 31.2892 52.4936C31.2892 52.3106 31.4315 52.1683 31.6145 52.1683C31.7975 52.1683 31.9398 52.3106 31.9398 52.4936C31.9398 52.6766 31.7975 52.8189 31.6145 52.8189Z" fill="#34A98F"/>
</g>
</g>
</svg>
