<svg width="64" height="64" viewBox="0 0 64 64" fill="none" xmlns="http://www.w3.org/2000/svg">
<g id="1.TH.QR">
<path id="Vector" d="M14.2223 14.2224H27.5556V27.5557H14.2223V14.2224ZM49.7778 14.2224V27.5557H36.4445V14.2224H49.7778ZM36.4445 38.6668H40.8889V34.2224H36.4445V29.7779H40.8889V34.2224H45.3334V29.7779H49.7778V34.2224H45.3334V38.6668H49.7778V45.3335H45.3334V49.7779H40.8889V45.3335H34.2223V49.7779H29.7778V40.8891H36.4445V38.6668ZM40.8889 38.6668V45.3335H45.3334V38.6668H40.8889ZM14.2223 49.7779V36.4446H27.5556V49.7779H14.2223ZM18.6667 18.6668V23.1113H23.1112V18.6668H18.6667ZM40.8889 18.6668V23.1113H45.3334V18.6668H40.8889ZM18.6667 40.8891V45.3335H23.1112V40.8891H18.6667ZM14.2223 29.7779H18.6667V34.2224H14.2223V29.7779ZM25.3334 29.7779H34.2223V38.6668H29.7778V34.2224H25.3334V29.7779ZM29.7778 18.6668H34.2223V27.5557H29.7778V18.6668ZM9.77782 9.77794V18.6668H5.33337V9.77794C5.33337 8.5992 5.80163 7.46874 6.63512 6.63524C7.46862 5.80175 8.59908 5.3335 9.77782 5.3335H18.6667V9.77794H9.77782ZM54.2223 5.3335C55.401 5.3335 56.5315 5.80175 57.365 6.63524C58.1985 7.46874 58.6667 8.5992 58.6667 9.77794V18.6668H54.2223V9.77794H45.3334V5.3335H54.2223ZM9.77782 45.3335V54.2224H18.6667V58.6668H9.77782C8.59908 58.6668 7.46862 58.1986 6.63512 57.3651C5.80163 56.5316 5.33337 55.4011 5.33337 54.2224V45.3335H9.77782ZM54.2223 54.2224V45.3335H58.6667V54.2224C58.6667 55.4011 58.1985 56.5316 57.365 57.3651C56.5315 58.1986 55.401 58.6668 54.2223 58.6668H45.3334V54.2224H54.2223Z" fill="#34A98F"/>
</g>
</svg>
