<svg width="40" height="40" viewBox="0 0 40 40" fill="none" xmlns="http://www.w3.org/2000/svg">
<g id="TH.CHECK">
<path id="Vector" d="M31.4239 7.55841C31.3947 7.58673 31.3673 7.61688 31.3419 7.64866L17.0942 25.8019L8.50784 17.2114C7.92458 16.6679 7.15313 16.372 6.35603 16.3861C5.55893 16.4002 4.7984 16.7231 4.23467 17.2868C3.67095 17.8505 3.34804 18.611 3.33398 19.4082C3.31991 20.2053 3.61579 20.9767 4.15928 21.56L15.0143 32.4191C15.3067 32.711 15.6549 32.941 16.0382 33.0954C16.4214 33.2498 16.8318 33.3254 17.2449 33.3177C17.6581 33.3101 18.0654 33.2193 18.4426 33.0508C18.8199 32.8823 19.1594 32.6395 19.4408 32.337L35.8176 11.8659C36.3753 11.2807 36.6802 10.4994 36.6664 9.69113C36.6526 8.88283 36.3213 8.11244 35.744 7.54649C35.1667 6.98055 34.3899 6.66453 33.5815 6.66676C32.7731 6.66899 31.9981 6.98929 31.4239 7.55841Z" fill="#34A98F"/>
</g>
</svg>
