<svg width="140" height="140" viewBox="0 0 140 140" fill="none" xmlns="http://www.w3.org/2000/svg">
<g id="Group" opacity="0.03">
<path id="Vector" d="M117.15 7.7692C122.057 16.0451 119.755 23.3213 110.791 28.3606C108.896 29.4258 106.685 30.4096 104.156 31.3139L124.865 31.3146C133.066 31.3146 139.744 37.6659 139.993 45.5924L140 46.0515V64.4725H134.324V125.262C134.324 133.247 127.801 139.749 119.661 139.992L119.189 139.999H20.8108C12.6096 139.999 5.93195 133.648 5.68288 125.721L5.67568 125.262V64.4725H0V46.0515C0 38.0661 6.52294 31.5641 14.6637 31.3216L15.1351 31.3146L35.84 31.3139L34.913 30.973C32.7676 30.1638 30.8659 29.2934 29.2067 28.3606C20.2424 23.3213 17.9404 16.0451 22.8476 7.7692C27.7548 -0.506652 35.3775 -2.20366 44.3418 2.83567C51.5919 6.91137 60.0986 15.4864 69.9977 28.5993C79.899 15.4864 88.4056 6.91137 95.6557 2.83567C104.62 -2.20366 112.243 -0.506652 117.15 7.7692ZM51.0811 64.4725H11.3514V125.262C11.3514 130.215 15.3665 134.255 20.4005 134.464L20.8108 134.473H51.0811V64.4725ZM83.2432 64.4725H56.7568V134.473H83.2432V64.4725ZM128.649 64.4725H88.9189V134.473H119.189C124.276 134.473 128.425 130.563 128.64 125.662L128.649 125.262V64.4725ZM124.865 36.8409H15.1351C10.0483 36.8409 5.89926 40.7505 5.68442 45.6519L5.67568 46.0515V58.9462H134.324V46.0515C134.324 40.9646 130.089 36.8409 124.865 36.8409ZM27.7629 10.5324C24.4719 16.0825 25.7168 20.0175 32.0445 23.5747C38.1105 26.9847 48.419 29.5911 62.8851 31.3146H77.1124C91.5786 29.5911 101.887 26.9847 107.953 23.5747C114.281 20.0175 115.526 16.0825 112.235 10.5324C108.944 4.9822 104.821 4.06445 98.4936 7.6216L98.0313 7.88756C91.9952 11.4392 84.6011 18.8398 75.9567 30.0588L74.998 31.3139H64.9994L64.7445 30.9768C56.0389 19.5598 48.579 11.9548 42.472 8.19221L41.9662 7.88756L41.504 7.6216C35.1763 4.06445 31.0539 4.9822 27.7629 10.5324Z" fill="#333333"/>
</g>
</svg>
