<svg width="16" height="16" viewBox="0 0 16 16" fill="none" xmlns="http://www.w3.org/2000/svg">
<rect x="1.33301" y="1.33325" width="13.3333" height="13.3333" rx="6.66667" fill="#34A98F"/>
<path d="M7.5 11.4583C7.28125 11.4583 7.10938 11.3905 6.98438 11.2551C6.85938 11.1197 6.79688 10.9348 6.79688 10.7004C6.79688 10.4609 6.85677 10.1379 6.97656 9.73169C7.10156 9.32023 7.22396 8.94784 7.34375 8.6145C7.46875 8.28117 7.53125 8.05981 7.53125 7.95044C7.53125 7.83586 7.49479 7.77856 7.42188 7.77856C7.23958 7.77856 6.94531 8.13794 6.53906 8.85669L6.01562 8.552C6.78125 7.26034 7.48438 6.6145 8.125 6.6145C8.5625 6.6145 8.78125 6.89054 8.78125 7.44263C8.78125 7.60409 8.72917 7.8619 8.625 8.21606L8.0625 9.82544C8.00521 9.97648 7.97656 10.1145 7.97656 10.2395C7.97656 10.3593 8.02344 10.4192 8.11719 10.4192C8.29427 10.4192 8.61979 10.0911 9.09375 9.43481L9.42188 9.7395C9.14062 10.2603 8.80469 10.677 8.41406 10.9895C8.02865 11.302 7.72396 11.4583 7.5 11.4583ZM9.72656 4.30981C9.72656 4.51815 9.65625 4.70825 9.51562 4.88013C9.375 5.052 9.1849 5.13794 8.94531 5.13794C8.70573 5.13794 8.52604 5.06763 8.40625 4.927C8.28646 4.78117 8.22656 4.59888 8.22656 4.38013C8.22656 4.16138 8.29948 3.96867 8.44531 3.802C8.59635 3.63013 8.78906 3.54419 9.02344 3.54419C9.25781 3.54419 9.43229 3.61971 9.54688 3.77075C9.66667 3.91659 9.72656 4.09627 9.72656 4.30981Z" fill="white"/>
</svg>
