<svg width="16" height="17" viewBox="0 0 16 17" fill="none" xmlns="http://www.w3.org/2000/svg">
<path id="Vector" d="M8.30837 16.5C8.0834 16.5 7.85842 16.4911 7.63437 16.4723C5.42395 16.3009 3.41554 15.2973 1.97805 13.6489C-0.990582 10.2478 -0.568933 5.12253 2.91452 2.22685C3.92142 1.38752 5.08013 0.811607 6.35865 0.515159C6.56716 0.466941 6.78208 0.535695 6.92016 0.693738C7.05825 0.851782 7.09301 1.07323 7.01161 1.26519C5.96723 3.71354 6.4126 6.48327 8.17032 8.49936C9.92895 10.5155 12.6633 11.3843 15.3037 10.7673C15.5095 10.7191 15.7271 10.7879 15.8652 10.9459C16.0033 11.104 16.038 11.3254 15.9567 11.5174C15.4509 12.7014 14.6855 13.7255 13.6767 14.5639C12.1623 15.8238 10.2747 16.5 8.30837 16.5ZM5.59493 1.91006C4.89257 2.18865 4.23959 2.57528 3.64699 3.06904C0.638091 5.57178 0.276143 9.99713 2.83947 12.9319C4.08048 14.3561 5.81535 15.2205 7.72296 15.3713C9.63065 15.5222 11.4852 14.9347 12.9412 13.723C13.5338 13.232 14.0277 12.665 14.4228 12.0319C11.7377 12.29 9.0893 11.264 7.30601 9.22011C5.52177 7.17627 4.90629 4.45921 5.59219 1.91257L5.59493 1.91006Z" fill="#333333"/>
</svg>
