<svg width="16" height="16" viewBox="0 0 16 16" fill="none" xmlns="http://www.w3.org/2000/svg">
<path d="M2.27964 3.4834C2.64053 3.4834 2.93209 3.77496 2.93209 4.13584V9.3554H7.4992V6.09318C7.4992 5.73229 7.79076 5.44073 8.15164 5.44073H12.7188C13.7994 5.44073 14.6761 6.31745 14.6761 7.39807V11.9652C14.6761 12.3261 14.3845 12.6176 14.0236 12.6176C13.6628 12.6176 13.3712 12.3261 13.3712 11.9652V11.3127H8.80409H8.15164H2.93209V11.9652C2.93209 12.3261 2.64053 12.6176 2.27964 12.6176C1.91876 12.6176 1.6272 12.3261 1.6272 11.9652V4.13584C1.6272 3.77496 1.91876 3.4834 2.27964 3.4834ZM5.21564 5.44073C5.64824 5.44073 6.06312 5.61258 6.36901 5.91847C6.6749 6.22437 6.84675 6.63925 6.84675 7.07184C6.84675 7.50444 6.6749 7.91932 6.36901 8.22521C6.06312 8.53111 5.64824 8.70295 5.21564 8.70295C4.78304 8.70295 4.36816 8.53111 4.06227 8.22521C3.75638 7.91932 3.58453 7.50444 3.58453 7.07184C3.58453 6.63925 3.75638 6.22437 4.06227 5.91847C4.36816 5.61258 4.78304 5.44073 5.21564 5.44073Z" fill="#333333"/>
</svg>
