<svg width="20" height="21" viewBox="0 0 20 21" fill="none" xmlns="http://www.w3.org/2000/svg">
<path d="M4.42647 7.14601C4.42647 6.26975 4.77456 5.42937 5.39418 4.80975C6.01379 4.19014 6.85417 3.84204 7.73044 3.84204C8.60671 3.84204 9.44709 4.19014 10.0667 4.80975C10.6863 5.42937 11.0344 6.26975 11.0344 7.14601C11.0344 8.02228 10.6863 8.86266 10.0667 9.48228C9.44709 10.1019 8.60671 10.45 7.73044 10.45C6.85417 10.45 6.01379 10.1019 5.39418 9.48228C4.77456 8.86266 4.42647 8.02228 4.42647 7.14601ZM1.94849 16.2913C1.94849 13.7488 4.00831 11.689 6.55082 11.689H8.91006C11.4526 11.689 13.5124 13.7488 13.5124 16.2913C13.5124 16.7146 13.1691 17.0579 12.7458 17.0579H2.71511C2.29179 17.0579 1.94849 16.7146 1.94849 16.2913ZM18.0812 8.41082L14.7772 11.7148C14.5346 11.9574 14.1422 11.9574 13.9022 11.7148L12.2502 10.0628C12.0075 9.82017 12.0075 9.42782 12.2502 9.18777C12.4928 8.94771 12.8852 8.94513 13.1252 9.18777L14.3384 10.4009L17.2036 7.5332C17.4462 7.29056 17.8385 7.29056 18.0786 7.5332C18.3186 7.77583 18.3212 8.16818 18.0786 8.40824L18.0812 8.41082Z" fill="#333333"/>
</svg>
