<svg width="16" height="17" viewBox="0 0 16 17" fill="none" xmlns="http://www.w3.org/2000/svg">
<path d="M4.79367 2.51648V3.33204H3.53539C2.84071 3.33204 2.2771 3.87999 2.2771 4.55537V5.77871H14.0211V4.55537C14.0211 3.87999 13.4575 3.33204 12.7628 3.33204H11.5045V2.51648C11.5045 2.06538 11.1297 1.70093 10.6657 1.70093C10.2017 1.70093 9.82681 2.06538 9.82681 2.51648V3.33204H6.47139V2.51648C6.47139 2.06538 6.09652 1.70093 5.63253 1.70093C5.16854 1.70093 4.79367 2.06538 4.79367 2.51648ZM14.0211 6.59426H2.2771V13.5265C2.2771 14.2019 2.84071 14.7498 3.53539 14.7498H12.7628C13.4575 14.7498 14.0211 14.2019 14.0211 13.5265V6.59426Z" fill="#333333"/>
</svg>
