<svg width="25" height="25" viewBox="0 0 25 25" fill="none" xmlns="http://www.w3.org/2000/svg">
<path d="M11.2759 6.63178L13.2485 5.61928H20.1587V9.47642H15.6743C14.8188 8.86973 13.7798 8.51214 12.6587 8.51214C11.5376 8.51214 10.5024 8.86973 9.64307 9.47642H5.15869V6.90499H10.1587C10.5454 6.90499 10.9282 6.81258 11.2759 6.63178ZM2.65869 6.90499V18.4764C2.65869 19.8947 3.77979 21.0479 5.15869 21.0479H20.1587C21.5376 21.0479 22.6587 19.8947 22.6587 18.4764V5.61928C22.6587 4.20098 21.5376 3.04785 20.1587 3.04785H13.2485C12.8618 3.04785 12.479 3.14026 12.1313 3.32107L10.1587 4.33357H8.90869V3.69071C8.90869 3.33714 8.62744 3.04785 8.28369 3.04785H5.78369C5.43994 3.04785 5.15869 3.33714 5.15869 3.69071V4.33357C3.77979 4.33357 2.65869 5.48669 2.65869 6.90499ZM9.22119 13.9764C9.22119 13.0387 9.58336 12.1394 10.228 11.4763C10.8727 10.8132 11.747 10.4407 12.6587 10.4407C13.5704 10.4407 14.4447 10.8132 15.0894 11.4763C15.734 12.1394 16.0962 13.0387 16.0962 13.9764C16.0962 14.9142 15.734 15.8135 15.0894 16.4766C14.4447 17.1396 13.5704 17.5121 12.6587 17.5121C11.747 17.5121 10.8727 17.1396 10.228 16.4766C9.58336 15.8135 9.22119 14.9142 9.22119 13.9764Z" fill="#333333"/>
</svg>
