<svg width="33" height="33" viewBox="0 0 33 33" fill="none" xmlns="http://www.w3.org/2000/svg">
<path d="M14.2855 29.3589C8.08725 28.2497 3.38965 22.8997 3.38965 16.4405C3.38965 9.2636 9.26165 3.3916 16.4385 3.3916C23.6154 3.3916 29.4874 9.2636 29.4874 16.4405C29.4874 22.8997 24.7898 28.2497 18.5916 29.3589L17.8739 28.7717H15.0032L14.2855 29.3589Z" fill="url(#paint0_linear_5418_908)"/>
<path d="M21.5272 20.0945L22.1144 16.4408H18.6565V13.8962C18.6565 12.8523 19.048 12.0694 20.6138 12.0694H22.3102V8.74193C21.3968 8.61145 20.3528 8.48096 19.4394 8.48096C16.4382 8.48096 14.3504 10.3078 14.3504 13.57V16.4408H11.0881V20.0945H14.3504V29.2939C15.068 29.4244 15.7857 29.4897 16.5034 29.4897C17.2211 29.4897 17.9388 29.4244 18.6565 29.2939V20.0945H21.5272Z" fill="white"/>
<defs>
<linearGradient id="paint0_linear_5418_908" x1="16.4392" y1="28.5818" x2="16.4392" y2="3.38679" gradientUnits="userSpaceOnUse">
<stop stop-color="#0062E0"/>
<stop offset="1" stop-color="#19AFFF"/>
</linearGradient>
</defs>
</svg>
