<svg width="17" height="16" viewBox="0 0 17 16" fill="none" xmlns="http://www.w3.org/2000/svg">
<path d="M3.98687 5.43571C3.98687 4.74355 4.26183 4.07974 4.75126 3.59031C5.24069 3.10089 5.9045 2.82593 6.59665 2.82593C7.28881 2.82593 7.95262 3.10089 8.44204 3.59031C8.93147 4.07974 9.20643 4.74355 9.20643 5.43571C9.20643 6.12786 8.93147 6.79167 8.44204 7.2811C7.95262 7.77053 7.28881 8.04548 6.59665 8.04548C5.9045 8.04548 5.24069 7.77053 4.75126 7.2811C4.26183 6.79167 3.98687 6.12786 3.98687 5.43571ZM2.02954 12.6595C2.02954 10.6512 3.65657 9.02415 5.66488 9.02415H7.52842C9.53673 9.02415 11.1638 10.6512 11.1638 12.6595C11.1638 12.9939 10.8926 13.265 10.5582 13.265H2.63509C2.30071 13.265 2.02954 12.9939 2.02954 12.6595ZM14.4525 13.265H11.6409C11.751 13.0734 11.8162 12.8511 11.8162 12.6126V12.4495C11.8162 11.2119 11.2637 10.1007 10.3931 9.35445C10.442 9.35241 10.4889 9.35037 10.5378 9.35037H11.7897C13.6064 9.35037 15.0784 10.8224 15.0784 12.6391C15.0784 12.9857 14.7971 13.265 14.4525 13.265ZM10.8375 8.04548C10.2055 8.04548 9.6346 7.78858 9.2207 7.37469C9.62236 6.83234 9.85887 6.16155 9.85887 5.43571C9.85887 4.88928 9.72431 4.37344 9.48576 3.92081C9.86499 3.64352 10.3319 3.47837 10.8375 3.47837C12.0996 3.47837 13.1211 4.49986 13.1211 5.76193C13.1211 7.024 12.0996 8.04548 10.8375 8.04548Z" fill="#333333"/>
</svg>
