<svg width="24" height="25" viewBox="0 0 24 25" fill="none" xmlns="http://www.w3.org/2000/svg">
<path d="M6.4423 8.2194C6.4423 6.38607 7.93188 4.89648 9.76522 4.89648C11.4423 4.89648 12.8555 6.14648 13.0638 7.80968L13.0986 8.0944C13.1749 8.70204 12.7444 9.2576 12.1333 9.33398C11.5222 9.41037 10.9701 8.97982 10.8937 8.36871L10.859 8.08398C10.7895 7.5319 10.3208 7.11871 9.76522 7.11871C9.15758 7.11871 8.66452 7.61176 8.66452 8.2194V11.5632H15.3312V8.2194C15.3312 6.38607 16.8208 4.89648 18.6541 4.89648C20.3312 4.89648 21.7444 6.14648 21.9527 7.80968L21.9874 8.0944C22.0638 8.70204 21.6333 9.2576 21.0222 9.33398C20.4111 9.41037 19.859 8.97982 19.7826 8.36871L19.7479 8.08398C19.6784 7.5319 19.2097 7.11871 18.6541 7.11871C18.0465 7.11871 17.5534 7.61176 17.5534 8.2194V16.3201C17.4979 16.3548 17.4388 16.3895 17.3867 16.4277C16.7617 16.8583 15.9944 17.1326 15.3312 17.1326V13.7819H8.66452V17.1326C8.0048 17.1326 7.23397 16.8583 6.61244 16.4277C6.55688 16.3895 6.50133 16.3513 6.4423 16.3201V8.2194ZM12.6402 17.3236C13.4215 17.8618 14.3763 18.2298 15.3312 18.2298C16.2652 18.2298 17.2548 17.8548 18.0187 17.3236C18.4319 17.0284 18.9944 17.0527 19.3798 17.3826C19.8798 17.7958 20.5083 18.1118 21.1367 18.2576C21.734 18.3965 22.1055 18.9937 21.9666 19.5909C21.8277 20.1882 21.2305 20.5597 20.6333 20.4208C19.7826 20.2229 19.0742 19.8479 18.6124 19.5527C17.6055 20.0944 16.477 20.452 15.3312 20.452C14.2236 20.452 13.227 20.1083 12.5395 19.7958C12.3381 19.702 12.1541 19.6118 11.9979 19.5284C11.8416 19.6118 11.6611 19.7055 11.4562 19.7958C10.7687 20.1083 9.77216 20.452 8.66452 20.452C7.51869 20.452 6.39022 20.0944 5.38327 19.5562C4.918 19.8479 4.21313 20.2263 3.36244 20.4243C2.76522 20.5632 2.16799 20.1916 2.02911 19.5944C1.89022 18.9972 2.26174 18.4 2.85897 18.2611C3.48744 18.1152 4.11591 17.7993 4.61591 17.3861C5.00133 17.0597 5.56383 17.0354 5.97702 17.327C6.74438 17.8548 7.73049 18.2298 8.66452 18.2298C9.61938 18.2298 10.5742 17.8618 11.3555 17.3236C11.7409 17.0493 12.2548 17.0493 12.6402 17.3236Z" fill="#333333"/>
</svg>
