<svg width="32" height="33" viewBox="0 0 32 33" fill="none" xmlns="http://www.w3.org/2000/svg">
<path d="M16.3227 3.39404C10.8749 3.39404 9.28162 3.39966 8.97192 3.42535C7.85394 3.51829 7.15826 3.69431 6.40036 4.07165C5.81628 4.36169 5.35565 4.69788 4.90103 5.16916C4.07308 6.02862 3.57129 7.08598 3.38965 8.34286C3.30133 8.95303 3.27564 9.07747 3.27042 12.1942C3.26842 13.2331 3.27042 14.6003 3.27042 16.4343C3.27042 21.8776 3.27644 23.4693 3.30254 23.7784C3.39286 24.8663 3.56347 25.5507 3.92475 26.2994C4.61521 27.7325 5.9339 28.8083 7.48743 29.2097C8.02535 29.3482 8.61946 29.4245 9.38218 29.4606C9.70533 29.4747 12.999 29.4847 16.2948 29.4847C19.5905 29.4847 22.8862 29.4807 23.2014 29.4646C24.0845 29.4231 24.5973 29.3542 25.1643 29.2077C26.7279 28.8043 28.0225 27.7445 28.727 26.2913C29.0813 25.5607 29.2609 24.8502 29.3422 23.8191C29.3599 23.5943 29.3673 20.0102 29.3673 16.4308C29.3673 12.8509 29.3593 9.27337 29.3416 9.04857C29.2593 8.00084 29.0797 7.29633 28.714 6.55168C28.4139 5.94211 28.0807 5.48689 27.597 5.02144C26.7337 4.1969 25.678 3.69511 24.4199 3.51367C23.8103 3.42556 23.6889 3.39946 20.5698 3.39404H16.3227Z" fill="url(#paint0_radial_5418_901)"/>
<path d="M16.3227 3.39404C10.8749 3.39404 9.28162 3.39966 8.97192 3.42535C7.85394 3.51829 7.15826 3.69431 6.40036 4.07165C5.81628 4.36169 5.35565 4.69788 4.90103 5.16916C4.07308 6.02862 3.57129 7.08598 3.38965 8.34286C3.30133 8.95303 3.27564 9.07747 3.27042 12.1942C3.26842 13.2331 3.27042 14.6003 3.27042 16.4343C3.27042 21.8776 3.27644 23.4693 3.30254 23.7784C3.39286 24.8663 3.56347 25.5507 3.92475 26.2994C4.61521 27.7325 5.9339 28.8083 7.48743 29.2097C8.02535 29.3482 8.61946 29.4245 9.38218 29.4606C9.70533 29.4747 12.999 29.4847 16.2948 29.4847C19.5905 29.4847 22.8862 29.4807 23.2014 29.4646C24.0845 29.4231 24.5973 29.3542 25.1643 29.2077C26.7279 28.8043 28.0225 27.7445 28.727 26.2913C29.0813 25.5607 29.2609 24.8502 29.3422 23.8191C29.3599 23.5943 29.3673 20.0102 29.3673 16.4308C29.3673 12.8509 29.3593 9.27337 29.3416 9.04857C29.2593 8.00084 29.0797 7.29633 28.714 6.55168C28.4139 5.94211 28.0807 5.48689 27.597 5.02144C26.7337 4.1969 25.678 3.69511 24.4199 3.51367C23.8103 3.42556 23.6889 3.39946 20.5698 3.39404H16.3227Z" fill="url(#paint1_radial_5418_901)"/>
<path d="M16.3165 6.80615C13.7 6.80615 13.3716 6.81759 12.344 6.86436C11.3183 6.91133 10.6182 7.0737 10.0056 7.31195C9.37197 7.55803 8.83446 7.8872 8.29895 8.42291C7.76305 8.95841 7.43387 9.49593 7.187 10.1294C6.94815 10.7422 6.78557 11.4425 6.7394 12.4677C6.69344 13.4954 6.6814 13.8239 6.6814 16.4404C6.6814 19.057 6.69304 19.3843 6.7396 20.412C6.78677 21.4376 6.94915 22.1377 7.1872 22.7503C7.43347 23.384 7.76264 23.9215 8.29835 24.457C8.83366 24.9929 9.37117 25.3229 10.0044 25.5689C10.6174 25.8072 11.3177 25.9696 12.3431 26.0165C13.3708 26.0633 13.699 26.0747 16.3153 26.0747C18.932 26.0747 19.2594 26.0633 20.287 26.0165C21.3127 25.9696 22.0136 25.8072 22.6265 25.5689C23.26 25.3229 23.7967 24.9929 24.332 24.457C24.8679 23.9215 25.1971 23.384 25.444 22.7505C25.6808 22.1377 25.8434 21.4374 25.8916 20.4122C25.9377 19.3845 25.9498 19.057 25.9498 16.4404C25.9498 13.8239 25.9377 13.4956 25.8916 12.4679C25.8434 11.4423 25.6808 10.7422 25.444 10.1296C25.1971 9.49593 24.8679 8.95841 24.332 8.42291C23.7961 7.887 23.2602 7.55783 22.6259 7.31195C22.0118 7.0737 21.3113 6.91133 20.2856 6.86436C19.258 6.81759 18.9308 6.80615 16.3135 6.80615H16.3165ZM15.4522 8.54233C15.7087 8.54193 15.9949 8.54233 16.3165 8.54233C18.8888 8.54233 19.1937 8.55156 20.2095 8.59773C21.1489 8.64068 21.6587 8.79764 21.9983 8.92951C22.4479 9.10413 22.7685 9.31287 23.1055 9.65007C23.4427 9.98727 23.6514 10.3084 23.8264 10.758C23.9583 11.0972 24.1154 11.607 24.1582 12.5464C24.2044 13.562 24.2144 13.8671 24.2144 16.4382C24.2144 19.0094 24.2044 19.3145 24.1582 20.3301C24.1152 21.2694 23.9583 21.7792 23.8264 22.1185C23.6518 22.5681 23.4427 22.8882 23.1055 23.2252C22.7683 23.5624 22.4481 23.7711 21.9983 23.9458C21.6591 24.0782 21.1489 24.2348 20.2095 24.2777C19.1939 24.3239 18.8888 24.3339 16.3165 24.3339C13.7439 24.3339 13.439 24.3239 12.4234 24.2777C11.4841 24.2344 10.9743 24.0774 10.6345 23.9456C10.1849 23.7709 9.86372 23.5622 9.52652 23.225C9.18932 22.8878 8.98058 22.5675 8.80556 22.1177C8.67369 21.7784 8.51653 21.2686 8.47378 20.3293C8.42761 19.3137 8.41838 19.0086 8.41838 16.4358C8.41838 13.8631 8.42761 13.5596 8.47378 12.544C8.51673 11.6046 8.67369 11.0948 8.80556 10.7552C8.98018 10.3056 9.18932 9.98446 9.52652 9.64726C9.86372 9.31006 10.1849 9.10132 10.6345 8.9263C10.9741 8.79383 11.4841 8.63727 12.4234 8.59412C13.3122 8.55397 13.6566 8.54193 15.4522 8.53992V8.54233ZM21.4592 10.142C20.8209 10.142 20.3031 10.6593 20.3031 11.2977C20.3031 11.936 20.8209 12.4539 21.4592 12.4539C22.0975 12.4539 22.6153 11.936 22.6153 11.2977C22.6153 10.6595 22.0975 10.1416 21.4592 10.1416V10.142ZM16.3165 11.4928C13.5842 11.4928 11.3689 13.7081 11.3689 16.4404C11.3689 19.1728 13.5842 21.387 16.3165 21.387C19.0488 21.387 21.2633 19.1728 21.2633 16.4404C21.2633 13.7081 19.0488 11.4928 16.3165 11.4928ZM16.3165 13.229C18.09 13.229 19.5279 14.6667 19.5279 16.4404C19.5279 18.214 18.09 19.6519 16.3165 19.6519C14.5428 19.6519 13.1051 18.214 13.1051 16.4404C13.1051 14.6667 14.5428 13.229 16.3165 13.229Z" fill="white"/>
<defs>
<radialGradient id="paint0_radial_5418_901" cx="0" cy="0" r="1" gradientUnits="userSpaceOnUse" gradientTransform="translate(10.2018 31.4942) rotate(-90) scale(25.8578 24.0563)">
<stop stop-color="#FFDD55"/>
<stop offset="0.1" stop-color="#FFDD55"/>
<stop offset="0.5" stop-color="#FF543E"/>
<stop offset="1" stop-color="#C837AB"/>
</radialGradient>
<radialGradient id="paint1_radial_5418_901" cx="0" cy="0" r="1" gradientUnits="userSpaceOnUse" gradientTransform="translate(-1.10198 5.27357) rotate(78.6776) scale(11.5587 47.6573)">
<stop stop-color="#3771C8"/>
<stop offset="0.128" stop-color="#3771C8"/>
<stop offset="1" stop-color="#6600FF" stop-opacity="0"/>
</radialGradient>
</defs>
</svg>
