<svg width="33" height="33" viewBox="0 0 33 33" fill="none" xmlns="http://www.w3.org/2000/svg">
<path d="M11.7549 4.93129C11.3539 3.96259 10.2966 3.44698 9.28627 3.72301L4.70314 4.97296C3.79693 5.22295 3.16675 6.04583 3.16675 6.98329C3.16675 19.8681 13.6142 30.3156 26.4991 30.3156C27.4365 30.3156 28.2594 29.6854 28.5094 28.7792L29.7593 24.1961C30.0354 23.1857 29.5198 22.1285 28.551 21.7274L23.5513 19.6442C22.7023 19.29 21.718 19.5348 21.1399 20.2483L19.0358 22.8159C15.3693 21.0816 12.4007 18.113 10.6664 14.4465L13.234 12.3476C13.9475 11.7643 14.1923 10.7852 13.8382 9.93628L11.7549 4.9365V4.93129Z" fill="#333333"/>
</svg>
