<svg width="17" height="17" viewBox="0 0 17 17" fill="none" xmlns="http://www.w3.org/2000/svg">
<path d="M8.23979 1.88622C8.49497 1.7404 8.81003 1.7404 9.06782 1.88622L13.5412 4.44061L13.6532 4.48487V4.50831L14.9005 5.22176C15.2285 5.40924 15.39 5.79461 15.2936 6.15915C15.1973 6.52369 14.8666 6.77887 14.4891 6.77887H2.82115C2.44359 6.77887 2.1129 6.52369 2.01656 6.15915C1.92022 5.79461 2.08166 5.40924 2.40974 5.22176L3.65439 4.50831V4.48487L3.76896 4.44321L8.23979 1.88622ZM3.65439 7.6095H5.32086V12.6089H6.3624V7.6095H8.02887V12.6089H9.27873V7.6095H10.9452V12.6089H11.9867V7.6095H13.6532V12.7209C13.6688 12.7287 13.6845 12.7391 13.7001 12.7495L14.9499 13.5828C15.2546 13.7859 15.3926 14.166 15.2858 14.5175C15.1791 14.8691 14.8536 15.1086 14.4864 15.1086H2.82115C2.45401 15.1086 2.13113 14.8691 2.02437 14.5175C1.91761 14.166 2.05301 13.7859 2.36027 13.5828L3.61012 12.7495C3.62575 12.7391 3.64137 12.7313 3.65699 12.7209V7.6095H3.65439Z" fill="#333333"/>
</svg>
