<svg width="25" height="26" viewBox="0 0 25 26" fill="none" xmlns="http://www.w3.org/2000/svg">
<path d="M11.6253 3.13124C12.0164 2.90775 12.4993 2.90775 12.8944 3.13124L19.7508 7.04635L19.9224 7.11419V7.15011L21.8341 8.24363C22.3369 8.53097 22.5844 9.12163 22.4367 9.68036C22.289 10.2391 21.7822 10.6302 21.2035 10.6302H3.32014C2.74145 10.6302 2.2346 10.2391 2.08694 9.68036C1.93927 9.12163 2.18671 8.53097 2.68957 8.24363L4.59723 7.15011V7.11419L4.77283 7.05034L11.6253 3.13124ZM4.59723 11.9033H7.15143V19.5659H8.7478V11.9033H11.302V19.5659H13.2176V11.9033H15.7718V19.5659H17.3682V11.9033H19.9224V19.7375C19.9464 19.7495 19.9703 19.7654 19.9942 19.7814L21.9099 21.0585C22.3768 21.3698 22.5884 21.9525 22.4247 22.4912C22.2611 23.03 21.7622 23.3972 21.1995 23.3972H3.32014C2.75741 23.3972 2.26254 23.03 2.09891 22.4912C1.93528 21.9525 2.14281 21.3698 2.61374 21.0585L4.52939 19.7814C4.55333 19.7654 4.57728 19.7535 4.60122 19.7375V11.9033H4.59723Z" fill="#FAFAFA"/>
</svg>
