<svg width="17" height="17" viewBox="0 0 17 17" fill="none" xmlns="http://www.w3.org/2000/svg">
<path d="M15.3216 8.44352C15.3216 8.46696 15.3216 8.4904 15.3216 8.51384C15.3112 9.46436 14.4466 10.1102 13.4961 10.1102H10.9466C10.2565 10.1102 9.69661 10.6701 9.69661 11.3602C9.69661 11.4487 9.70703 11.5347 9.72266 11.618C9.77734 11.8836 9.89193 12.1388 10.0039 12.3966C10.1628 12.756 10.319 13.1128 10.319 13.4904C10.319 14.3185 9.75651 15.0711 8.92839 15.105C8.83724 15.1076 8.74609 15.1102 8.65234 15.1102C4.97266 15.1102 1.98828 12.1258 1.98828 8.44352C1.98828 4.76123 4.97266 1.77686 8.65495 1.77686C12.3372 1.77686 15.3216 4.76123 15.3216 8.44352ZM5.32161 9.27686C5.32161 9.05584 5.23382 8.84388 5.07754 8.6876C4.92126 8.53132 4.7093 8.44352 4.48828 8.44352C4.26727 8.44352 4.05531 8.53132 3.89903 8.6876C3.74275 8.84388 3.65495 9.05584 3.65495 9.27686C3.65495 9.49787 3.74275 9.70983 3.89903 9.86611C4.05531 10.0224 4.26727 10.1102 4.48828 10.1102C4.7093 10.1102 4.92126 10.0224 5.07754 9.86611C5.23382 9.70983 5.32161 9.49787 5.32161 9.27686ZM5.32161 6.77686C5.54263 6.77686 5.75459 6.68906 5.91087 6.53278C6.06715 6.3765 6.15495 6.16454 6.15495 5.94352C6.15495 5.72251 6.06715 5.51055 5.91087 5.35427C5.75459 5.19799 5.54263 5.11019 5.32161 5.11019C5.1006 5.11019 4.88864 5.19799 4.73236 5.35427C4.57608 5.51055 4.48828 5.72251 4.48828 5.94352C4.48828 6.16454 4.57608 6.3765 4.73236 6.53278C4.88864 6.68906 5.1006 6.77686 5.32161 6.77686ZM9.48828 4.27686C9.48828 4.05584 9.40048 3.84388 9.2442 3.6876C9.08792 3.53132 8.87596 3.44352 8.65495 3.44352C8.43393 3.44352 8.22197 3.53132 8.06569 3.6876C7.90941 3.84388 7.82161 4.05584 7.82161 4.27686C7.82161 4.49787 7.90941 4.70983 8.06569 4.86611C8.22197 5.02239 8.43393 5.11019 8.65495 5.11019C8.87596 5.11019 9.08792 5.02239 9.2442 4.86611C9.40048 4.70983 9.48828 4.49787 9.48828 4.27686ZM11.9883 6.77686C12.2093 6.77686 12.4213 6.68906 12.5775 6.53278C12.7338 6.3765 12.8216 6.16454 12.8216 5.94352C12.8216 5.72251 12.7338 5.51055 12.5775 5.35427C12.4213 5.19799 12.2093 5.11019 11.9883 5.11019C11.7673 5.11019 11.5553 5.19799 11.399 5.35427C11.2427 5.51055 11.1549 5.72251 11.1549 5.94352C11.1549 6.16454 11.2427 6.3765 11.399 6.53278C11.5553 6.68906 11.7673 6.77686 11.9883 6.77686Z" fill="#333333"/>
</svg>
