<svg width="33" height="33" viewBox="0 0 33 33" fill="none" xmlns="http://www.w3.org/2000/svg">
<path d="M16.4999 3.64893C14.1777 3.64893 12.1999 5.03955 11.4721 6.98226H9.38881C7.4277 6.98226 5.83325 8.47705 5.83325 10.3156V26.9823C5.83325 28.8208 7.4277 30.3156 9.38881 30.3156H23.611C25.5721 30.3156 27.1666 28.8208 27.1666 26.9823V10.3156C27.1666 8.47705 25.5721 6.98226 23.611 6.98226H21.5277C20.7999 5.03955 18.8221 3.64893 16.4999 3.64893ZM16.4999 6.98226C16.9714 6.98226 17.4236 7.15785 17.757 7.47041C18.0904 7.78298 18.2777 8.2069 18.2777 8.64893C18.2777 9.09095 18.0904 9.51488 17.757 9.82744C17.4236 10.14 16.9714 10.3156 16.4999 10.3156C16.0284 10.3156 15.5762 10.14 15.2428 9.82744C14.9094 9.51488 14.7221 9.09095 14.7221 8.64893C14.7221 8.2069 14.9094 7.78298 15.2428 7.47041C15.5762 7.15785 16.0284 6.98226 16.4999 6.98226ZM9.83325 17.8156C9.83325 17.4841 9.97373 17.1661 10.2238 16.9317C10.4738 16.6973 10.813 16.5656 11.1666 16.5656C11.5202 16.5656 11.8593 16.6973 12.1094 16.9317C12.3594 17.1661 12.4999 17.4841 12.4999 17.8156C12.4999 18.1471 12.3594 18.4651 12.1094 18.6995C11.8593 18.9339 11.5202 19.0656 11.1666 19.0656C10.813 19.0656 10.4738 18.9339 10.2238 18.6995C9.97373 18.4651 9.83325 18.1471 9.83325 17.8156ZM15.611 16.9823H22.7221C23.211 16.9823 23.611 17.3573 23.611 17.8156C23.611 18.2739 23.211 18.6489 22.7221 18.6489H15.611C15.1221 18.6489 14.7221 18.2739 14.7221 17.8156C14.7221 17.3573 15.1221 16.9823 15.611 16.9823ZM9.83325 22.8156C9.83325 22.4841 9.97373 22.1661 10.2238 21.9317C10.4738 21.6973 10.813 21.5656 11.1666 21.5656C11.5202 21.5656 11.8593 21.6973 12.1094 21.9317C12.3594 22.1661 12.4999 22.4841 12.4999 22.8156C12.4999 23.1471 12.3594 23.4651 12.1094 23.6995C11.8593 23.9339 11.5202 24.0656 11.1666 24.0656C10.813 24.0656 10.4738 23.9339 10.2238 23.6995C9.97373 23.4651 9.83325 23.1471 9.83325 22.8156ZM14.7221 22.8156C14.7221 22.3573 15.1221 21.9823 15.611 21.9823H22.7221C23.211 21.9823 23.611 22.3573 23.611 22.8156C23.611 23.2739 23.211 23.6489 22.7221 23.6489H15.611C15.1221 23.6489 14.7221 23.2739 14.7221 22.8156Z" fill="#333333"/>
</svg>
