<svg width="16" height="17" viewBox="0 0 16 17" fill="none" xmlns="http://www.w3.org/2000/svg">
<path d="M8.79085 14.7943C10.1854 13.1538 13.3661 9.17787 13.3661 6.9446C13.3661 4.23607 11.0282 2.03857 8.14656 2.03857C5.26493 2.03857 2.927 4.23607 2.927 6.9446C2.927 9.17787 6.10767 13.1538 7.50227 14.7943C7.83665 15.1852 8.45647 15.1852 8.79085 14.7943ZM8.14656 5.30926C8.608 5.30926 9.05053 5.48156 9.37682 5.78824C9.7031 6.09493 9.88641 6.51088 9.88641 6.9446C9.88641 7.37832 9.7031 7.79428 9.37682 8.10097C9.05053 8.40765 8.608 8.57995 8.14656 8.57995C7.68512 8.57995 7.24258 8.40765 6.9163 8.10097C6.59001 7.79428 6.40671 7.37832 6.40671 6.9446C6.40671 6.51088 6.59001 6.09493 6.9163 5.78824C7.24258 5.48156 7.68512 5.30926 8.14656 5.30926Z" fill="#333333"/>
</svg>
