<svg width="33" height="33" viewBox="0 0 33 33" fill="none" xmlns="http://www.w3.org/2000/svg">
<circle cx="16.5616" cy="16.4405" r="13.0489" fill="white"/>
<path d="M16.5616 3.3916C9.35139 3.3916 3.5127 9.23468 3.5127 16.4503C3.5127 21.9797 6.94146 26.7051 11.8005 28.607C11.6829 27.5678 11.585 25.9992 11.8397 24.862C12.0748 23.8424 13.3679 18.3718 13.3679 18.3718C13.3679 18.3718 12.9761 17.5875 12.9761 16.4307C12.9761 14.6072 14.0341 13.2542 15.3272 13.2542C16.444 13.2542 16.973 14.0974 16.973 15.0974C16.973 16.215 16.2677 17.9013 15.8954 19.4503C15.5819 20.7444 16.542 21.8032 17.8351 21.8032C20.1471 21.8032 21.93 19.3522 21.93 15.8229C21.93 12.7052 19.6769 10.5092 16.4832 10.5092C12.7801 10.5092 10.5857 13.2935 10.5857 16.1758C10.5857 17.2934 11.0168 18.5091 11.5654 19.1561C11.6634 19.2934 11.6829 19.3914 11.6634 19.5287C11.5654 19.9405 11.3499 20.8228 11.3107 20.9993C11.2519 21.2346 11.1148 21.2934 10.8796 21.1757C9.25342 20.411 8.23459 18.0385 8.23459 16.117C8.23459 11.9994 11.2323 8.21508 16.8555 8.21508C21.3814 8.21508 24.8886 11.4503 24.8886 15.7444C24.8886 20.2346 22.0476 23.862 18.129 23.862C16.8163 23.862 15.5623 23.1757 15.1313 22.3718C15.1313 22.3718 14.4847 24.862 14.328 25.4698C14.0341 26.6071 13.2308 28.0188 12.7018 28.9012C13.9165 29.2737 15.2097 29.4894 16.5616 29.4894C23.7718 29.4894 29.6105 23.6463 29.6105 16.4307C29.6105 9.23468 23.7718 3.3916 16.5616 3.3916Z" fill="#BD081C"/>
</svg>
