<svg width="17" height="17" viewBox="0 0 17 17" fill="none" xmlns="http://www.w3.org/2000/svg">
<path d="M13.7979 1.77686C13.3693 1.77686 10.3693 2.61019 10.3693 6.36019V9.27686C10.3693 10.1961 11.1381 10.9435 12.0836 10.9435H12.9407V14.2769C12.9407 14.7378 13.3238 15.1102 13.7979 15.1102C14.272 15.1102 14.655 14.7378 14.655 14.2769V10.9435V8.02686V2.61019C14.655 2.14925 14.272 1.77686 13.7979 1.77686ZM4.36932 2.19352C4.36932 1.97998 4.20592 1.8029 3.98628 1.77946C3.76664 1.75602 3.5711 1.89665 3.52289 2.10238L2.71128 5.65186C2.67378 5.81592 2.65503 5.98258 2.65503 6.14925C2.65503 7.34456 3.59521 8.32633 4.79789 8.43311V14.2769C4.79789 14.7378 5.18092 15.1102 5.65503 15.1102C6.12914 15.1102 6.51217 14.7378 6.51217 14.2769V8.43311C7.71485 8.32633 8.65503 7.34456 8.65503 6.14925C8.65503 5.98258 8.63628 5.81592 8.59878 5.65186L7.78717 2.10238C7.73896 1.89404 7.53806 1.75602 7.3211 1.77946C7.10414 1.8029 6.94074 1.97998 6.94074 2.19352V5.68831C6.94074 5.82894 6.82289 5.94352 6.67824 5.94352C6.54164 5.94352 6.42914 5.84196 6.41574 5.70915L6.08092 2.15706C6.06217 1.94092 5.87735 1.77686 5.65503 1.77686C5.43271 1.77686 5.24789 1.94092 5.22914 2.15706L4.89699 5.70915C4.8836 5.84196 4.7711 5.94352 4.63449 5.94352C4.48985 5.94352 4.37199 5.82894 4.37199 5.68831V2.19352H4.36932ZM5.66307 6.15186H5.65503H5.64699L5.65503 6.13363L5.66307 6.15186Z" fill="#333333"/>
</svg>
