<svg width="24" height="25" viewBox="0 0 24 25" fill="none" xmlns="http://www.w3.org/2000/svg">
<path d="M10.4375 4.44336C9.91797 4.44336 9.5 4.94492 9.5 5.56836C9.5 6.1918 9.91797 6.69336 10.4375 6.69336H11.0625V8.2543C6.67188 8.81211 3.25 13.2746 3.25 18.6934H20.75C20.75 13.2746 17.3281 8.81211 12.9375 8.2543V6.69336H13.5625C14.082 6.69336 14.5 6.1918 14.5 5.56836C14.5 4.94492 14.082 4.44336 13.5625 4.44336H12H10.4375ZM2.9375 20.1934C2.41797 20.1934 2 20.6949 2 21.3184C2 21.9418 2.41797 22.4434 2.9375 22.4434H21.0625C21.582 22.4434 22 21.9418 22 21.3184C22 20.6949 21.582 20.1934 21.0625 20.1934H2.9375Z" fill="#333333"/>
</svg>
