<svg width="24" height="25" viewBox="0 0 24 25" fill="none" xmlns="http://www.w3.org/2000/svg">
<path d="M12.9982 3.04738C12.5067 2.56949 11.7084 2.56949 11.2169 3.04738L6.18377 7.94095C5.69226 8.41884 5.69226 9.19493 6.18377 9.67282C6.67529 10.1507 7.47352 10.1507 7.96503 9.67282L10.8512 6.86666V14.9219C10.8512 15.5986 11.4135 16.1453 12.1095 16.1453C12.8055 16.1453 13.3678 15.5986 13.3678 14.9219V6.86666L16.254 9.67282C16.7455 10.1507 17.5437 10.1507 18.0353 9.67282C18.5268 9.19493 18.5268 8.41884 18.0353 7.94095L13.0021 3.04738H12.9982ZM5.81808 16.1453C5.81808 15.4686 5.25579 14.9219 4.5598 14.9219C3.86381 14.9219 3.30151 15.4686 3.30151 16.1453V18.5921C3.30151 20.6184 4.99233 22.2623 7.07637 22.2623H17.1427C19.2267 22.2623 20.9175 20.6184 20.9175 18.5921V16.1453C20.9175 15.4686 20.3552 14.9219 19.6592 14.9219C18.9632 14.9219 18.4009 15.4686 18.4009 16.1453V18.5921C18.4009 19.2688 17.8386 19.8155 17.1427 19.8155H7.07637C6.38038 19.8155 5.81808 19.2688 5.81808 18.5921V16.1453Z" fill="#333333"/>
</svg>
