<svg width="24" height="25" viewBox="0 0 24 25" fill="none" xmlns="http://www.w3.org/2000/svg">
<path d="M13.0881 2.79761C12.8873 2.36792 12.4631 2.09448 11.9973 2.09448C11.5314 2.09448 11.111 2.36792 10.9065 2.79761L8.47114 7.96558L3.03233 8.7937C2.57783 8.86401 2.19909 9.19214 2.05895 9.64136C1.91881 10.0906 2.03244 10.5867 2.35816 10.9187L6.30471 14.946L5.37299 20.6375C5.29724 21.1062 5.48661 21.5828 5.86157 21.8601C6.23653 22.1375 6.73269 22.1726 7.14174 21.95L12.0011 19.2742L16.8604 21.95C17.2694 22.1726 17.7656 22.1414 18.1406 21.8601C18.5155 21.5789 18.7049 21.1062 18.6291 20.6375L17.6936 14.946L21.6402 10.9187C21.9659 10.5867 22.0833 10.0906 21.9394 9.64136C21.7955 9.19214 21.4205 8.86401 20.966 8.7937L15.5234 7.96558L13.0881 2.79761Z" fill="#333333"/>
</svg>
