<svg width="32" height="32" viewBox="0 0 32 32" fill="none" xmlns="http://www.w3.org/2000/svg">
<path d="M15.8534 15.9764C17.6332 15.9764 19.3401 15.289 20.5987 14.0654C21.8572 12.8418 22.5642 11.1823 22.5642 9.45193C22.5642 7.72154 21.8572 6.06203 20.5987 4.83846C19.3401 3.61489 17.6332 2.92749 15.8534 2.92749C14.0735 2.92749 12.3666 3.61489 11.1081 4.83846C9.84955 6.06203 9.14252 7.72154 9.14252 9.45193C9.14252 11.1823 9.84955 12.8418 11.1081 14.0654C12.3666 15.289 14.0735 15.9764 15.8534 15.9764ZM13.4574 18.423C8.29318 18.423 4.10938 22.4906 4.10938 27.5114C4.10938 28.3473 4.80668 29.0253 5.6665 29.0253H26.0402C26.9001 29.0253 27.5974 28.3473 27.5974 27.5114C27.5974 22.4906 23.4136 18.423 18.2494 18.423H13.4574Z" fill="#FAFAFA"/>
</svg>
