<svg width="33" height="33" viewBox="0 0 33 33" fill="none" xmlns="http://www.w3.org/2000/svg">
<path d="M5.42483 14.7698C8.29983 12.0114 12.1998 10.3156 16.4998 10.3156C20.7998 10.3156 24.6998 12.0114 27.5748 14.7698C28.1082 15.2781 28.9498 15.2614 29.4582 14.7323C29.9665 14.2031 29.9498 13.3573 29.4207 12.8489C26.0707 9.62809 21.5165 7.64893 16.4998 7.64893C11.4832 7.64893 6.92899 9.62809 3.57483 12.8448C3.04566 13.3573 3.02899 14.1989 3.53733 14.7323C4.04566 15.2656 4.89149 15.2823 5.42066 14.7698H5.42483ZM16.4998 16.9823C18.8665 16.9823 21.0248 17.8614 22.6748 19.3156C23.229 19.8031 24.0707 19.7489 24.5582 19.1989C25.0457 18.6489 24.9915 17.8031 24.4415 17.3156C22.3248 15.4489 19.5415 14.3156 16.4998 14.3156C13.4582 14.3156 10.6748 15.4489 8.56233 17.3156C8.00816 17.8031 7.95816 18.6448 8.44566 19.1989C8.93316 19.7531 9.77483 19.8031 10.329 19.3156C11.9748 17.8614 14.1332 16.9823 16.504 16.9823H16.4998ZM19.1665 23.6489C19.1665 22.9417 18.8855 22.2634 18.3854 21.7633C17.8853 21.2632 17.2071 20.9823 16.4998 20.9823C15.7926 20.9823 15.1143 21.2632 14.6142 21.7633C14.1141 22.2634 13.8332 22.9417 13.8332 23.6489C13.8332 24.3562 14.1141 25.0344 14.6142 25.5345C15.1143 26.0346 15.7926 26.3156 16.4998 26.3156C17.2071 26.3156 17.8853 26.0346 18.3854 25.5345C18.8855 25.0344 19.1665 24.3562 19.1665 23.6489Z" fill="#333333"/>
</svg>
