<svg width="64" height="64" viewBox="0 0 64 64" fill="none" xmlns="http://www.w3.org/2000/svg">
<g id="Frame 1948755061">
<path id="Vector" d="M57.8452 46.6768L37.3749 11.1225C36.8326 10.1738 36.05 9.38536 35.1062 8.83706C34.1624 8.28875 33.0909 8 32 8C30.9092 8 29.8377 8.28875 28.8939 8.83706C27.95 9.38536 27.1674 10.1738 26.6252 11.1225L6.15488 46.6768C5.61452 47.6227 5.33125 48.6941 5.33339 49.784C5.33552 50.874 5.62298 51.9443 6.16703 52.888C6.71109 53.8317 7.4927 54.6158 8.43376 55.1619C9.37482 55.708 10.4424 55.997 11.5298 56H52.4703C53.5577 55.997 54.6253 55.708 55.5663 55.1619C56.5074 54.6158 57.289 53.8317 57.833 52.888C58.3771 51.9443 58.6646 50.874 58.6667 49.784C58.6688 48.6941 58.3856 47.6227 57.8452 46.6768ZM54.5478 50.9754C54.3418 51.345 54.0401 51.652 53.6744 51.8638C53.3087 52.0757 52.8927 52.1846 52.4703 52.179H11.5298C11.1074 52.1846 10.6914 52.0757 10.3257 51.8638C9.96003 51.652 9.65824 51.345 9.45224 50.9754C9.23737 50.6143 9.12392 50.2018 9.12392 49.7813C9.12392 49.3609 9.23737 48.9483 9.45224 48.5873L29.9416 13.033C30.1474 12.6674 30.4464 12.3631 30.8081 12.1513C31.1698 11.9396 31.5812 11.828 32 11.828C32.4189 11.828 32.8302 11.9396 33.1919 12.1513C33.5536 12.3631 33.8527 12.6674 34.0585 13.033L54.5478 48.5873C54.7627 48.9483 54.8762 49.3609 54.8762 49.7813C54.8762 50.2018 54.7627 50.6143 54.5478 50.9754ZM30.0941 38.4235V22.2798C30.0941 21.7731 30.2949 21.2872 30.6523 20.9289C31.0097 20.5706 31.4945 20.3693 32 20.3693C32.5055 20.3693 32.9903 20.5706 33.3478 20.9289C33.7052 21.2872 33.906 21.7731 33.906 22.2798V38.4235C33.906 38.9302 33.7052 39.4161 33.3478 39.7744C32.9903 40.1327 32.5055 40.334 32 40.334C31.4945 40.334 31.0097 40.1327 30.6523 39.7744C30.2949 39.4161 30.0941 38.9302 30.0941 38.4235ZM34.9162 45.4923C34.9162 46.0704 34.7452 46.6356 34.4247 47.1163C34.1043 47.597 33.6489 47.9716 33.116 48.1928C32.5832 48.4141 31.9968 48.472 31.4311 48.3592C30.8654 48.2464 30.3458 47.968 29.938 47.5592C29.5302 47.1504 29.2524 46.6296 29.1399 46.0626C29.0274 45.4955 29.0851 44.9078 29.3059 44.3737C29.5266 43.8396 29.9004 43.3831 30.3799 43.0619C30.8595 42.7407 31.4233 42.5692 32 42.5692C32.7719 42.5743 33.5107 42.8838 34.0566 43.4309C34.6024 43.978 34.9112 44.7186 34.9162 45.4923Z" fill="#34A98F"/>
</g>
</svg>
