<svg width="32" height="32" viewBox="0 0 32 32" fill="none" xmlns="http://www.w3.org/2000/svg">
<g id="warning">
<path id="Vector" d="M29.8654 26.75L16.8654 4.25C16.6717 3.91563 16.3373 3.75 15.9998 3.75C15.6623 3.75 15.3248 3.91563 15.1342 4.25L2.13419 26.75C1.74982 27.4188 2.23107 28.25 2.99982 28.25H28.9998C29.7686 28.25 30.2498 27.4188 29.8654 26.75ZM14.9998 13C14.9998 12.8625 15.1123 12.75 15.2498 12.75H16.7498C16.8873 12.75 16.9998 12.8625 16.9998 13V18.75C16.9998 18.8875 16.8873 19 16.7498 19H15.2498C15.1123 19 14.9998 18.8875 14.9998 18.75V13ZM15.9998 24C15.6073 23.992 15.2335 23.8304 14.9588 23.55C14.684 23.2696 14.5301 22.8926 14.5301 22.5C14.5301 22.1074 14.684 21.7304 14.9588 21.45C15.2335 21.1696 15.6073 21.008 15.9998 21C16.3923 21.008 16.7661 21.1696 17.0408 21.45C17.3156 21.7304 17.4695 22.1074 17.4695 22.5C17.4695 22.8926 17.3156 23.2696 17.0408 23.55C16.7661 23.8304 16.3923 23.992 15.9998 24Z" fill="#FFC506"/>
</g>
</svg>
