<svg width="24" height="24" viewBox="0 0 24 24" fill="none" xmlns="http://www.w3.org/2000/svg">
<g id="1.TH.AIRBNB">
<path id="Vector" d="M21.0665 16.1938C20.9768 15.9421 20.872 15.6985 20.7723 15.4728C20.6188 15.1257 20.4581 14.7779 20.3026 14.4417L20.2903 14.415C18.9035 11.4118 17.415 8.36756 15.8662 5.36688L15.8004 5.23948C15.6424 4.93306 15.4791 4.61623 15.3115 4.30491C15.1128 3.91094 14.8716 3.53975 14.5923 3.19793C14.2778 2.82282 13.8848 2.52114 13.4408 2.31416C12.9969 2.10718 12.5128 1.99994 12.0228 2C11.5328 2.00006 11.0488 2.10742 10.6049 2.31452C10.161 2.52161 9.76801 2.82339 9.4537 3.19857C9.1747 3.54048 8.93366 3.91158 8.73484 4.30536C8.56577 4.61947 8.40092 4.93924 8.24151 5.24848L8.18046 5.36685C6.63164 8.36775 5.14316 11.412 3.75636 14.4149L3.73615 14.4586C3.58335 14.7894 3.42537 15.1314 3.27443 15.4727C3.17469 15.6982 3.07002 15.9416 2.98023 16.1939C2.72308 16.8815 2.64113 17.6221 2.74177 18.3491C2.84849 19.0838 3.14564 19.7779 3.6038 20.3628C4.06196 20.9476 4.66522 21.4028 5.35385 21.6833C5.87398 21.8937 6.43012 22.0013 6.99136 22C7.16766 21.9999 7.34381 21.9897 7.51893 21.9693C8.22876 21.8789 8.91336 21.6479 9.53257 21.2899C10.3448 20.8336 11.147 20.1649 12.0233 19.2093C12.8996 20.1649 13.7018 20.8336 14.5141 21.2899C15.1333 21.6479 15.8179 21.8789 16.5277 21.9693C16.7028 21.9897 16.879 21.9999 17.0553 22C17.6165 22.0013 18.1726 21.8937 18.6927 21.6833C19.3813 21.4028 19.9846 20.9476 20.4428 20.3628C20.901 19.7779 21.1982 19.0838 21.305 18.3491C21.4055 17.622 21.3235 16.8814 21.0665 16.1938ZM12.0233 17.2356C10.9385 15.8606 10.2424 14.5836 9.99814 13.5131C9.89807 13.112 9.87445 12.6957 9.92851 12.2858C9.9712 11.9854 10.0816 11.6985 10.2513 11.4468C10.4602 11.1759 10.7286 10.9565 11.0359 10.8056C11.3431 10.6547 11.681 10.5762 12.0234 10.5762C12.3659 10.5763 12.7038 10.6548 13.011 10.8058C13.3183 10.9567 13.5866 11.1761 13.7955 11.4469C13.9653 11.6988 14.0756 11.9857 14.1183 12.2862C14.1723 12.6962 14.1486 13.1127 14.0483 13.5139C13.8038 14.5843 13.1079 15.8609 12.0233 17.2356ZM20.0379 18.1681C19.9633 18.6818 19.7554 19.1671 19.4351 19.576C19.1148 19.9849 18.693 20.3033 18.2114 20.4994C17.7246 20.6944 17.1962 20.7636 16.6755 20.7003C16.1341 20.6306 15.6124 20.4524 15.1418 20.1765C14.4188 19.7703 13.6869 19.1468 12.8634 18.232C14.1744 16.6154 14.9931 15.1253 15.2963 13.7981C15.4327 13.24 15.4623 12.6612 15.3835 12.0922C15.312 11.602 15.1299 11.1344 14.8512 10.7246C14.5246 10.2824 14.0986 9.923 13.6075 9.67531C13.1163 9.42763 12.5738 9.29856 12.0234 9.29856C11.4732 9.29856 10.9306 9.42756 10.4394 9.67519C9.9482 9.92281 9.5222 10.2822 9.19564 10.7243C8.91693 11.134 8.73496 11.6015 8.66339 12.0916C8.58454 12.6604 8.61395 13.2389 8.75008 13.7968C9.05301 15.1246 9.87176 16.615 11.1833 18.2321C10.3597 19.1468 9.62782 19.7703 8.90482 20.1766C8.43419 20.4524 7.91256 20.6306 7.37123 20.7003C6.85042 20.7636 6.32204 20.6944 5.83514 20.4994C5.35364 20.3033 4.93184 19.9849 4.6115 19.5761C4.29117 19.1671 4.08342 18.6818 4.00883 18.1681C3.93709 17.6459 3.99814 17.1141 4.18637 16.6216C4.25792 16.4205 4.34166 16.2231 4.44539 15.9886C4.59214 15.6569 4.74787 15.3197 4.89851 14.9936L4.91874 14.9498C6.29778 11.9637 7.77802 8.93638 9.31839 5.95184L9.3797 5.83302C9.53651 5.52876 9.6987 5.21417 9.86232 4.91019C10.0188 4.59688 10.2083 4.30107 10.4274 4.02775C10.6216 3.79314 10.8654 3.60426 11.1412 3.47459C11.4171 3.34491 11.7182 3.27766 12.0231 3.27764C12.3279 3.27761 12.6291 3.34482 12.9049 3.47444C13.1808 3.60407 13.4246 3.79292 13.6188 4.02749C13.8381 4.30061 14.0276 4.59632 14.184 4.90961C14.3461 5.21089 14.5069 5.52264 14.6624 5.82411L14.7283 5.95197C16.2686 8.93619 17.7488 11.9634 19.128 14.9501L19.1404 14.9769C19.2936 15.3085 19.4521 15.6512 19.6013 15.9888C19.7051 16.2236 19.789 16.4211 19.8604 16.6215C20.0485 17.114 20.1096 17.6458 20.0379 18.1681Z" fill="#E0565B"/>
</g>
</svg>
