<svg width="32" height="32" viewBox="0 0 32 32" fill="none" xmlns="http://www.w3.org/2000/svg">
<g id="2.TH.booking">
<g id="Vector">
<path fill-rule="evenodd" clip-rule="evenodd" d="M32 6.1439C32 2.75299 29.3064 0 25.9901 0H6.00987C2.69362 0 0 2.75299 0 6.1439V25.8561C0 29.2461 2.69362 32 6.00989 32H25.9901C29.3064 32 32 29.2461 32 25.8561L32 6.1439Z" fill="#0C3B7C"/>
<path fill-rule="evenodd" clip-rule="evenodd" d="M0.00108921 19.88H15.9832V32H0.00110092L0.00108921 19.88Z" fill="#0C3B7C"/>
</g>
<g id="Vector_2">
<path d="M14.5428 21.1837L11.9654 21.1811V18.0299C11.9654 17.3566 12.2208 17.0062 12.7843 16.9262H14.5428C15.7968 16.9262 16.608 17.7346 16.608 19.0431C16.608 20.3871 15.8173 21.1824 14.5428 21.1837ZM11.9654 11.8549C11.9654 11.1291 12.2658 10.784 12.9242 10.7393H14.2437C15.3745 10.7393 16.0522 11.431 16.0522 12.5899C16.0522 13.4718 15.5876 14.5021 14.2848 14.5021H11.9654V11.8549ZM17.8338 15.829L17.3679 15.5612L17.7748 15.2056C18.2484 14.7895 19.0416 13.8538 19.0416 12.2395C19.0416 9.76683 17.1664 8.17222 14.2643 8.17222H10.9527L10.5753 8.1709C9.71534 8.20371 9.02607 8.919 9.01709 9.80358V23.8335H14.3297C17.5553 23.8335 19.6372 22.0381 19.6372 19.2571C19.6372 17.7596 18.9646 16.4799 17.8338 15.829Z" fill="white"/>
<path d="M21.0208 21.8954C21.0208 20.8237 21.8662 19.9566 22.9078 19.9566C23.952 19.9566 24.8013 20.8237 24.8013 21.8954C24.8013 22.9658 23.952 23.8343 22.9078 23.8343C21.8662 23.8343 21.0208 22.9658 21.0208 21.8954Z" fill="#00BAFC"/>
</g>
</g>
</svg>
