<svg width="24" height="24" viewBox="0 0 24 24" fill="none" xmlns="http://www.w3.org/2000/svg">
<g id="1.TH.Booking">
<g id="Vector">
<path fill-rule="evenodd" clip-rule="evenodd" d="M22 5.75543C22 3.68275 20.3165 2 18.2438 2H5.75617C3.68351 2 2 3.68275 2 5.75543V17.8044C2 19.8765 3.68351 21.5598 5.75618 21.5598H18.2438C20.3165 21.5598 22 19.8765 22 17.8044L22 5.75543Z" fill="#0C3B7C"/>
<path fill-rule="evenodd" clip-rule="evenodd" d="M2.00068 14.1515H11.9895V21.5598H2.00069L2.00068 14.1515Z" fill="#0C3B7C"/>
</g>
<g id="Vector_2">
<path d="M11.0896 14.9469L9.47872 14.9453V13.0192C9.47872 12.6077 9.63836 12.3935 9.99054 12.3445H11.0896C11.8733 12.3445 12.3804 12.8387 12.3804 13.6385C12.3804 14.46 11.8862 14.9461 11.0896 14.9469ZM9.47872 9.24476C9.47872 8.80113 9.66644 8.59015 10.078 8.56287H10.9027C11.6094 8.56287 12.033 8.98564 12.033 9.694C12.033 10.2331 11.7426 10.8628 10.9283 10.8628H9.47872V9.24476ZM13.1465 11.6739L12.8553 11.5102L13.1096 11.2928C13.4056 11.0385 13.9014 10.4665 13.9014 9.4798C13.9014 7.96842 12.7293 6.99373 10.9155 6.99373H8.84576L8.60991 6.99292C8.07242 7.01298 7.64163 7.45019 7.63602 7.99089V16.5666H10.9564C12.9724 16.5666 14.2736 15.4692 14.2736 13.7693C14.2736 12.8539 13.8532 12.0718 13.1465 11.6739Z" fill="white"/>
<path d="M15.1383 15.382C15.1383 14.7269 15.6667 14.1969 16.3177 14.1969C16.9703 14.1969 17.5012 14.7269 17.5012 15.382C17.5012 16.0363 16.9703 16.5671 16.3177 16.5671C15.6667 16.5671 15.1383 16.0363 15.1383 15.382Z" fill="#00BAFC"/>
</g>
</g>
</svg>
