<svg width="24" height="24" viewBox="0 0 24 24" fill="none" xmlns="http://www.w3.org/2000/svg">
<g id="1.TH.Expedia">
<g id="Vector">
<path d="M6.12975 2H17.789C20.0767 2 21.9187 3.84953 21.9187 6.1466V17.8534C21.9187 20.1505 20.0767 22 17.789 22H6.12975C3.84201 22 2 20.1505 2 17.8534V6.1466C2 3.84953 3.84201 2 6.12975 2Z" fill="#FDDB32"/>
<path d="M7.57007 5.58076C7.38432 5.58076 7.26775 5.6237 7.16963 5.72222L5.17918 7.72079C5.14229 7.75784 5.12132 7.80836 5.12132 7.86057C5.12132 7.97003 5.20937 8.05844 5.31839 8.05844H13.9469L8.64224 13.3847C8.53783 13.4896 8.47703 13.5506 8.47703 13.7569V15.1585C8.47703 15.2435 8.51561 15.3168 8.57054 15.3724C8.62588 15.4279 8.69884 15.4662 8.78354 15.4662H10.1794C10.3845 15.4662 10.4453 15.4052 10.5497 15.3004L15.8543 9.97407V18.6378C15.8543 18.7468 15.9424 18.8356 16.0514 18.8356C16.1038 18.8356 16.1537 18.8146 16.1906 18.7775L18.181 16.779C18.2792 16.6805 18.3219 16.563 18.3219 16.3769V6.91664C18.3219 6.17902 17.7265 5.58118 16.9919 5.58118L7.57007 5.58076Z" fill="#191E3B"/>
<path d="M5.87985 15.8546H7.7944C7.95458 15.8546 8.0833 15.9838 8.0833 16.1447V18.0793C8.0833 18.2401 7.95458 18.3693 7.7944 18.3693H5.87985C5.71967 18.3693 5.59094 18.2401 5.59094 18.0793V16.1447C5.59052 15.9838 5.71967 15.8546 5.87985 15.8546Z" fill="#191E3B"/>
</g>
</g>
</svg>
