<svg width="24" height="24" viewBox="0 0 24 24" fill="none" xmlns="http://www.w3.org/2000/svg">
<path d="M16.5106 19.195L14.1905 16.8734C13.2933 17.1942 12.3234 17.2536 11.3937 17.0447C10.4641 16.8358 9.61282 16.3672 8.93905 15.6935C8.26529 15.0197 7.7967 14.1685 7.58782 13.2388C7.37893 12.3091 7.43834 11.3393 7.75913 10.442L4.79787 7.48078C2.34837 9.65859 1 12.134 1 12.134C1 12.134 5.3125 20.0402 12.5 20.0402C13.8806 20.0354 15.2455 19.7478 16.5106 19.195ZM8.48938 5.07296C9.75445 4.52014 11.1194 4.23247 12.5 4.22771C19.6875 4.22771 24 12.134 24 12.134C24 12.134 22.6502 14.6079 20.2036 16.7886L17.2394 13.8245C17.5602 12.9272 17.6196 11.9574 17.4107 11.0277C17.2019 10.098 16.7333 9.24678 16.0595 8.57302C15.3857 7.89925 14.5345 7.43067 13.6048 7.22178C12.6752 7.0129 11.7053 7.0723 10.8081 7.39309L8.48938 5.0744V5.07296Z" fill="#333333"/>
<path d="M8.94219 11.625C8.86312 12.1774 8.91379 12.7407 9.0902 13.2702C9.26661 13.7996 9.5639 14.2807 9.95852 14.6754C10.3531 15.07 10.8342 15.3673 11.3637 15.5437C11.8932 15.7201 12.4564 15.7708 13.0089 15.6917L8.94075 11.625H8.94219ZM16.0578 12.6427L11.9911 8.57463C12.5436 8.49555 13.1068 8.54623 13.6363 8.72263C14.1658 8.89904 14.6469 9.19633 15.0415 9.59095C15.4361 9.98557 15.7334 10.4667 15.9098 10.9961C16.0862 11.5256 16.1369 12.0889 16.0578 12.6413V12.6427ZM20.6161 21.2677L3.36613 4.01775L4.38388 3L21.6339 20.25L20.6161 21.2677Z" fill="#333333"/>
</svg>
