<svg width="24" height="24" viewBox="0 0 24 24" fill="none" xmlns="http://www.w3.org/2000/svg">
<path fill-rule="evenodd" clip-rule="evenodd" d="M12 3C4.5 3 0 11.25 0 11.25C0 11.25 4.5 19.5 12 19.5C19.5 19.5 24 11.25 24 11.25C24 11.25 19.5 3 12 3ZM15.7123 14.9623C14.7277 15.9469 13.3924 16.5 12 16.5C10.6076 16.5 9.27226 15.9469 8.28769 14.9623C7.30312 13.9777 6.75 12.6424 6.75 11.25C6.75 9.85761 7.30312 8.52226 8.28769 7.53769C9.27226 6.55312 10.6076 6 12 6C13.3924 6 14.7277 6.55312 15.7123 7.53769C16.6969 8.52226 17.25 9.85761 17.25 11.25C17.25 12.6424 16.6969 13.9777 15.7123 14.9623ZM14.6517 13.9017C15.3549 13.1984 15.75 12.2446 15.75 11.25C15.75 10.2554 15.3549 9.30161 14.6517 8.59835C13.9484 7.89509 12.9946 7.5 12 7.5C11.0054 7.5 10.0516 7.89509 9.34835 8.59835C8.64509 9.30161 8.25 10.2554 8.25 11.25C8.25 12.2446 8.64509 13.1984 9.34835 13.9017C10.0516 14.6049 11.0054 15 12 15C12.9946 15 13.9484 14.6049 14.6517 13.9017Z" fill="#333333"/>
</svg>
