<svg width="24" height="24" viewBox="0 0 24 24" fill="none" xmlns="http://www.w3.org/2000/svg">
<g id="1.TH.Emojis">
<g id="Vector">
<path d="M22 12C22 17.5228 17.5228 22 12 22C6.47778 22 2 17.5228 2 12C2 6.47778 6.47778 2 12 2C17.5228 2 22 6.47778 22 12Z" fill="#34A98F"/>
<path d="M8.38889 12C9.15595 12 9.77778 10.632 9.77778 8.94444C9.77778 7.25691 9.15595 5.88889 8.38889 5.88889C7.62183 5.88889 7 7.25691 7 8.94444C7 10.632 7.62183 12 8.38889 12Z" fill="white"/>
<path d="M15.6111 12C16.3782 12 17 10.632 17 8.94444C17 7.25691 16.3782 5.88889 15.6111 5.88889C14.844 5.88889 14.2222 7.25691 14.2222 8.94444C14.2222 10.632 14.844 12 15.6111 12Z" fill="white"/>
<path d="M12 14.2222C9.98722 14.2222 8.65167 13.9878 7 13.6667C6.62278 13.5939 5.88889 13.6667 5.88889 14.7778C5.88889 17 8.44167 19.7778 12 19.7778C15.5578 19.7778 18.1111 17 18.1111 14.7778C18.1111 13.6667 17.3772 13.5933 17 13.6667C15.3483 13.9878 14.0128 14.2222 12 14.2222Z" fill="white"/>
</g>
</g>
</svg>
