<svg width="24" height="24" viewBox="0 0 24 24" fill="none" xmlns="http://www.w3.org/2000/svg">
<g id="1.TH.Emojis">
<g id="Vector">
<path d="M22 12C22 17.5228 17.5228 22 12 22C6.47778 22 2 17.5228 2 12C2 6.47778 6.47778 2 12 2C17.5228 2 22 6.47778 22 12Z" fill="#FF6666"/>
<path d="M16.1583 18.5994C16.1333 18.5 15.5094 16.1667 12 16.1667C8.49 16.1667 7.86667 18.5 7.84167 18.5994C7.82707 18.6581 7.83203 18.7199 7.8558 18.7755C7.87957 18.831 7.92084 18.8773 7.97333 18.9072C8.02611 18.9369 8.08704 18.9487 8.14708 18.941C8.20712 18.9333 8.26308 18.9064 8.30667 18.8644C8.31722 18.8539 9.39222 17.8333 12 17.8333C14.6078 17.8333 15.6833 18.8539 15.6933 18.8639C15.7363 18.9064 15.792 18.9338 15.8519 18.9419C15.9118 18.95 15.9728 18.9384 16.0256 18.9089C16.0785 18.879 16.1202 18.8325 16.1442 18.7766C16.1682 18.7207 16.1731 18.6584 16.1583 18.5994ZM10.7261 11.6072C8.91778 9.79889 6.01167 9.77778 5.88889 9.77778C5.74584 9.7841 5.61075 9.84536 5.51173 9.9488C5.41272 10.0522 5.35742 10.1899 5.35735 10.3331C5.35728 10.4763 5.41244 10.614 5.51135 10.7175C5.61026 10.821 5.74529 10.8824 5.88833 10.8889C5.90444 10.8889 6.95778 10.9011 8.10111 11.2983C7.77167 11.6539 7.55556 12.2061 7.55556 12.8333C7.55556 13.9078 8.17722 14.7778 8.94444 14.7778C9.71167 14.7778 10.3333 13.9078 10.3333 12.8333C10.3333 12.7367 10.3228 12.6444 10.3128 12.5517C10.32 12.5517 10.3267 12.5556 10.3333 12.5556C10.4433 12.5558 10.5509 12.5234 10.6424 12.4624C10.7339 12.4014 10.8052 12.3145 10.8473 12.2129C10.8894 12.1113 10.9003 11.9995 10.8788 11.8917C10.8572 11.7838 10.8041 11.6848 10.7261 11.6072ZM18.1111 9.77778C17.9883 9.77778 15.0828 9.79889 13.2739 11.6072C13.1959 11.6848 13.1428 11.7838 13.1212 11.8917C13.0996 11.9995 13.1106 12.1113 13.1527 12.2129C13.1948 12.3145 13.2661 12.4014 13.3576 12.4624C13.4491 12.5234 13.5567 12.5558 13.6667 12.5556C13.6739 12.5556 13.68 12.5517 13.6867 12.5517C13.6778 12.6444 13.6667 12.7367 13.6667 12.8333C13.6667 13.9078 14.2883 14.7778 15.0556 14.7778C15.8228 14.7778 16.4444 13.9078 16.4444 12.8333C16.4444 12.2061 16.2283 11.6539 15.8989 11.2983C16.6128 11.0547 17.3584 10.9168 18.1122 10.8889C18.1852 10.8888 18.2574 10.8744 18.3248 10.8464C18.3922 10.8184 18.4534 10.7774 18.5049 10.7258C18.5564 10.6741 18.5973 10.6129 18.6251 10.5454C18.653 10.478 18.6673 10.4057 18.6672 10.3328C18.6671 10.2598 18.6527 10.1876 18.6247 10.1202C18.5967 10.0528 18.5557 9.99164 18.5041 9.9401C18.4525 9.88857 18.3912 9.84771 18.3238 9.81985C18.2563 9.792 18.1841 9.7777 18.1111 9.77778Z" fill="white"/>
</g>
</g>
</svg>
