<svg width="24" height="24" viewBox="0 0 24 24" fill="none" xmlns="http://www.w3.org/2000/svg">
<g id="1.TH.Emojis">
<g id="Vector">
<path d="M12 22C17.5228 22 22 17.5228 22 12C22 6.47715 17.5228 2 12 2C6.47715 2 2 6.47715 2 12C2 17.5228 6.47715 22 12 22Z" fill="#EE9004"/>
<path d="M16.1583 17.2106C16.1333 17.1111 15.5094 14.7778 12 14.7778C8.49 14.7778 7.86667 17.1111 7.84167 17.2106C7.81111 17.3311 7.86556 17.4561 7.97333 17.5183C8.08167 17.58 8.21722 17.5617 8.30667 17.4756C8.31722 17.465 9.39222 16.4444 12 16.4444C14.6078 16.4444 15.6833 17.465 15.6933 17.475C15.7467 17.5278 15.8178 17.5556 15.8889 17.5556C15.9356 17.5556 15.9828 17.5439 16.0256 17.52C16.1344 17.4578 16.1889 17.3317 16.1583 17.2106Z" fill="white"/>
<path d="M8.66667 11.4444C9.43373 11.4444 10.0556 10.5739 10.0556 9.5C10.0556 8.42611 9.43373 7.55556 8.66667 7.55556C7.8996 7.55556 7.27778 8.42611 7.27778 9.5C7.27778 10.5739 7.8996 11.4444 8.66667 11.4444Z" fill="white"/>
<path d="M15.3333 11.4444C16.1004 11.4444 16.7222 10.5739 16.7222 9.5C16.7222 8.42611 16.1004 7.55556 15.3333 7.55556C14.5663 7.55556 13.9444 8.42611 13.9444 9.5C13.9444 10.5739 14.5663 11.4444 15.3333 11.4444Z" fill="white"/>
</g>
</g>
</svg>
