<svg width="24" height="24" viewBox="0 0 24 24" fill="none" xmlns="http://www.w3.org/2000/svg">
<g id="1.TH.Emojis">
<g id="Vector">
<path d="M12 22C17.5228 22 22 17.5228 22 12C22 6.47715 17.5228 2 12 2C6.47715 2 2 6.47715 2 12C2 17.5228 6.47715 22 12 22Z" fill="#76D8C3"/>
<path d="M7.84169 15.1233C7.86669 15.2227 8.49057 17.5561 12 17.5561C15.51 17.5561 16.1334 15.2227 16.1584 15.1233C16.173 15.0646 16.168 15.0028 16.1442 14.9473C16.1205 14.8917 16.0792 14.8454 16.0267 14.8155C15.974 14.7857 15.913 14.7737 15.8529 14.7815C15.7928 14.7892 15.7368 14.8161 15.6934 14.8583C15.6828 14.8688 14.6078 15.8894 12 15.8894C9.39224 15.8894 8.31669 14.8688 8.30669 14.8588C8.26367 14.8163 8.20801 14.789 8.14809 14.7808C8.08817 14.7727 8.02723 14.7843 7.97446 14.8138C7.9215 14.8438 7.87983 14.8902 7.85584 14.9461C7.83185 15.002 7.82688 15.0643 7.84169 15.1233Z" fill="white"/>
<path d="M8.6668 11.4439C9.43386 11.4439 10.0557 10.5733 10.0557 9.49946C10.0557 8.42557 9.43386 7.55501 8.6668 7.55501C7.89974 7.55501 7.27791 8.42557 7.27791 9.49946C7.27791 10.5733 7.89974 11.4439 8.6668 11.4439Z" fill="white"/>
<path d="M15.3331 11.4439C16.1001 11.4439 16.722 10.5733 16.722 9.49946C16.722 8.42557 16.1001 7.55501 15.3331 7.55501C14.566 7.55501 13.9442 8.42557 13.9442 9.49946C13.9442 10.5733 14.566 11.4439 15.3331 11.4439Z" fill="white"/>
</g>
</g>
</svg>
