<svg width="25" height="24" viewBox="0 0 25 24" fill="none" xmlns="http://www.w3.org/2000/svg">
<g id="1.TH.Emojis">
<g id="Vector">
<path d="M12.25 22C17.7728 22 22.25 17.5228 22.25 12C22.25 6.47715 17.7728 2 12.25 2C6.72715 2 2.25 6.47715 2.25 12C2.25 17.5228 6.72715 22 12.25 22Z" fill="#76D8C3"/>
<path d="M8.09169 15.1233C8.11669 15.2227 8.74057 17.5561 12.25 17.5561C15.76 17.5561 16.3834 15.2227 16.4084 15.1233C16.423 15.0646 16.418 15.0028 16.3942 14.9473C16.3705 14.8917 16.3292 14.8454 16.2767 14.8155C16.224 14.7857 16.163 14.7737 16.1029 14.7815C16.0428 14.7892 15.9868 14.8161 15.9434 14.8583C15.9328 14.8688 14.8578 15.8894 12.25 15.8894C9.64224 15.8894 8.56669 14.8688 8.55669 14.8588C8.51367 14.8163 8.45801 14.789 8.39809 14.7808C8.33817 14.7727 8.27723 14.7843 8.22446 14.8138C8.1715 14.8438 8.12983 14.8902 8.10584 14.9461C8.08185 15.002 8.07688 15.0643 8.09169 15.1233Z" fill="white"/>
<path d="M8.9168 11.4439C9.68386 11.4439 10.3057 10.5733 10.3057 9.49946C10.3057 8.42557 9.68386 7.55501 8.9168 7.55501C8.14974 7.55501 7.52791 8.42557 7.52791 9.49946C7.52791 10.5733 8.14974 11.4439 8.9168 11.4439Z" fill="white"/>
<path d="M15.5831 11.4439C16.3501 11.4439 16.972 10.5733 16.972 9.49946C16.972 8.42557 16.3501 7.55501 15.5831 7.55501C14.816 7.55501 14.1942 8.42557 14.1942 9.49946C14.1942 10.5733 14.816 11.4439 15.5831 11.4439Z" fill="white"/>
</g>
</g>
</svg>
