<svg width="24" height="24" viewBox="0 0 24 24" fill="none" xmlns="http://www.w3.org/2000/svg">
<g id="1.TH.Emojis">
<g id="Vector">
<path d="M22 12C22 17.5228 17.5228 22 12 22C6.47778 22 2 17.5228 2 12C2 6.47778 6.47778 2 12 2C17.5228 2 22 6.47778 22 12Z" fill="#FFD453"/>
<path d="M8.38889 13.1111C9.15595 13.1111 9.77778 12.2406 9.77778 11.1667C9.77778 10.0928 9.15595 9.22222 8.38889 9.22222C7.62183 9.22222 7 10.0928 7 11.1667C7 12.2406 7.62183 13.1111 8.38889 13.1111Z" fill="white"/>
<path d="M15.6111 13.1111C16.3782 13.1111 17 12.2406 17 11.1667C17 10.0928 16.3782 9.22222 15.6111 9.22222C14.844 9.22222 14.2222 10.0928 14.2222 11.1667C14.2222 12.2406 14.844 13.1111 15.6111 13.1111Z" fill="white"/>
<path d="M15.8889 16.4444H8.11111C7.80444 16.4444 7.55556 16.1961 7.55556 15.8889C7.55556 15.5817 7.80444 15.3333 8.11111 15.3333H15.8889C16.1961 15.3333 16.4444 15.5817 16.4444 15.8889C16.4444 16.1961 16.1961 16.4444 15.8889 16.4444Z" fill="white"/>
</g>
</g>
</svg>
