<svg width="25" height="24" viewBox="0 0 25 24" fill="none" xmlns="http://www.w3.org/2000/svg">
<g id="1.TH.Emojis">
<g id="Vector">
<path d="M22.5 12C22.5 17.5228 18.0228 22 12.5 22C6.97778 22 2.5 17.5228 2.5 12C2.5 6.47778 6.97778 2 12.5 2C18.0228 2 22.5 6.47778 22.5 12Z" fill="#FF6666"/>
<path d="M16.6583 18.5994C16.6333 18.5 16.0094 16.1667 12.5 16.1667C8.99 16.1667 8.36667 18.5 8.34167 18.5994C8.32707 18.6581 8.33203 18.7199 8.3558 18.7755C8.37957 18.831 8.42084 18.8773 8.47333 18.9072C8.52611 18.9369 8.58704 18.9487 8.64708 18.941C8.70712 18.9333 8.76308 18.9064 8.80667 18.8644C8.81722 18.8539 9.89222 17.8333 12.5 17.8333C15.1078 17.8333 16.1833 18.8539 16.1933 18.8639C16.2363 18.9064 16.292 18.9338 16.3519 18.9419C16.4118 18.95 16.4728 18.9384 16.5256 18.9089C16.5785 18.879 16.6202 18.8325 16.6442 18.7766C16.6682 18.7207 16.6731 18.6584 16.6583 18.5994ZM11.2261 11.6072C9.41778 9.79889 6.51167 9.77778 6.38889 9.77778C6.24584 9.7841 6.11075 9.84536 6.01173 9.9488C5.91272 10.0522 5.85742 10.1899 5.85735 10.3331C5.85728 10.4763 5.91244 10.614 6.01135 10.7175C6.11026 10.821 6.24529 10.8824 6.38833 10.8889C6.40444 10.8889 7.45778 10.9011 8.60111 11.2983C8.27167 11.6539 8.05556 12.2061 8.05556 12.8333C8.05556 13.9078 8.67722 14.7778 9.44444 14.7778C10.2117 14.7778 10.8333 13.9078 10.8333 12.8333C10.8333 12.7367 10.8228 12.6444 10.8128 12.5517C10.82 12.5517 10.8267 12.5556 10.8333 12.5556C10.9433 12.5558 11.0509 12.5234 11.1424 12.4624C11.2339 12.4014 11.3052 12.3145 11.3473 12.2129C11.3894 12.1113 11.4003 11.9995 11.3788 11.8917C11.3572 11.7838 11.3041 11.6848 11.2261 11.6072ZM18.6111 9.77778C18.4883 9.77778 15.5828 9.79889 13.7739 11.6072C13.6959 11.6848 13.6428 11.7838 13.6212 11.8917C13.5996 11.9995 13.6106 12.1113 13.6527 12.2129C13.6948 12.3145 13.7661 12.4014 13.8576 12.4624C13.9491 12.5234 14.0567 12.5558 14.1667 12.5556C14.1739 12.5556 14.18 12.5517 14.1867 12.5517C14.1778 12.6444 14.1667 12.7367 14.1667 12.8333C14.1667 13.9078 14.7883 14.7778 15.5556 14.7778C16.3228 14.7778 16.9444 13.9078 16.9444 12.8333C16.9444 12.2061 16.7283 11.6539 16.3989 11.2983C17.1128 11.0547 17.8584 10.9168 18.6122 10.8889C18.6852 10.8888 18.7574 10.8744 18.8248 10.8464C18.8922 10.8184 18.9534 10.7774 19.0049 10.7258C19.0564 10.6741 19.0973 10.6129 19.1251 10.5454C19.153 10.478 19.1673 10.4057 19.1672 10.3328C19.1671 10.2598 19.1527 10.1876 19.1247 10.1202C19.0967 10.0528 19.0557 9.99164 19.0041 9.9401C18.9525 9.88857 18.8912 9.84771 18.8238 9.81985C18.7563 9.792 18.6841 9.7777 18.6111 9.77778Z" fill="white"/>
</g>
</g>
</svg>
