<svg width="25" height="24" viewBox="0 0 25 24" fill="none" xmlns="http://www.w3.org/2000/svg">
<g id="1.TH.Emojis">
<g id="Vector">
<path d="M22.5 12C22.5 17.5228 18.0228 22 12.5 22C6.97778 22 2.5 17.5228 2.5 12C2.5 6.47778 6.97778 2 12.5 2C18.0228 2 22.5 6.47778 22.5 12Z" fill="#34A969"/>
<path d="M8.88889 12C9.65595 12 10.2778 10.632 10.2778 8.94444C10.2778 7.25691 9.65595 5.88889 8.88889 5.88889C8.12183 5.88889 7.5 7.25691 7.5 8.94444C7.5 10.632 8.12183 12 8.88889 12Z" fill="white"/>
<path d="M16.1111 12C16.8782 12 17.5 10.632 17.5 8.94444C17.5 7.25691 16.8782 5.88889 16.1111 5.88889C15.344 5.88889 14.7222 7.25691 14.7222 8.94444C14.7222 10.632 15.344 12 16.1111 12Z" fill="white"/>
<path d="M12.5 14.2222C10.4872 14.2222 9.15167 13.9878 7.5 13.6667C7.12278 13.5939 6.38889 13.6667 6.38889 14.7778C6.38889 17 8.94167 19.7778 12.5 19.7778C16.0578 19.7778 18.6111 17 18.6111 14.7778C18.6111 13.6667 17.8772 13.5933 17.5 13.6667C15.8483 13.9878 14.5128 14.2222 12.5 14.2222Z" fill="white"/>
</g>
</g>
</svg>
