<svg width="25" height="24" viewBox="0 0 25 24" fill="none" xmlns="http://www.w3.org/2000/svg">
<g id="1.TH.Emojis">
<g id="Vector">
<path d="M22.5 12C22.5 17.5228 18.0228 22 12.5 22C6.97778 22 2.5 17.5228 2.5 12C2.5 6.47778 6.97778 2 12.5 2C18.0228 2 22.5 6.47778 22.5 12Z" fill="#BFBFBF"/>
<path d="M8.88889 13.1111C9.65595 13.1111 10.2778 12.2406 10.2778 11.1667C10.2778 10.0928 9.65595 9.22222 8.88889 9.22222C8.12183 9.22222 7.5 10.0928 7.5 11.1667C7.5 12.2406 8.12183 13.1111 8.88889 13.1111Z" fill="white"/>
<path d="M16.1111 13.1111C16.8782 13.1111 17.5 12.2406 17.5 11.1667C17.5 10.0928 16.8782 9.22222 16.1111 9.22222C15.344 9.22222 14.7222 10.0928 14.7222 11.1667C14.7222 12.2406 15.344 13.1111 16.1111 13.1111Z" fill="white"/>
</g>
</g>
</svg>
