<svg width="25" height="24" viewBox="0 0 25 24" fill="none" xmlns="http://www.w3.org/2000/svg">
<g id="1.TH.Emojis">
<g id="Vector">
<path d="M12.75 22C18.2728 22 22.75 17.5228 22.75 12C22.75 6.47715 18.2728 2 12.75 2C7.22715 2 2.75 6.47715 2.75 12C2.75 17.5228 7.22715 22 12.75 22Z" fill="#EE9004"/>
<path d="M16.9083 17.2106C16.8833 17.1111 16.2594 14.7778 12.75 14.7778C9.24 14.7778 8.61667 17.1111 8.59167 17.2106C8.56111 17.3311 8.61556 17.4561 8.72333 17.5183C8.83167 17.58 8.96722 17.5617 9.05667 17.4756C9.06722 17.465 10.1422 16.4444 12.75 16.4444C15.3578 16.4444 16.4333 17.465 16.4433 17.475C16.4967 17.5278 16.5678 17.5556 16.6389 17.5556C16.6856 17.5556 16.7328 17.5439 16.7756 17.52C16.8844 17.4578 16.9389 17.3317 16.9083 17.2106Z" fill="white"/>
<path d="M9.41667 11.4444C10.1837 11.4444 10.8056 10.5739 10.8056 9.5C10.8056 8.42611 10.1837 7.55556 9.41667 7.55556C8.6496 7.55556 8.02778 8.42611 8.02778 9.5C8.02778 10.5739 8.6496 11.4444 9.41667 11.4444Z" fill="white"/>
<path d="M16.0833 11.4444C16.8504 11.4444 17.4722 10.5739 17.4722 9.5C17.4722 8.42611 16.8504 7.55556 16.0833 7.55556C15.3163 7.55556 14.6944 8.42611 14.6944 9.5C14.6944 10.5739 15.3163 11.4444 16.0833 11.4444Z" fill="white"/>
</g>
</g>
</svg>
